<svg width="432" height="754" viewBox="0 0 432 754" fill="none" xmlns="http://www.w3.org/2000/svg">
<path d="M25.7891 543.076C33.7134 561.892 56.634 568.718 60.6536 584.107C70.2935 621.013 95.0252 646.754 92.6261 670.076" stroke="#F4F1E1" stroke-width="7" stroke-linecap="round"/>
<path d="M25.7891 581.076C29.8104 594.262 41.4417 599.046 43.4815 609.83C48.3734 635.693 60.9238 653.732 59.7064 670.076" stroke="#F4F1E1" stroke-width="7" stroke-linecap="round"/>
<path d="M22 672.5V686C22 708.091 39.9086 726 62 726H366.5C388.591 726 406.5 708.091 406.5 686V672.5M22 672.5V69.5C22 47.4086 39.9086 29.5 62 29.5H366.5C388.591 29.5 406.5 47.4086 406.5 69.5V672.5M22 672.5H406.5M429.5 43V711C429.5 733.091 411.591 751 389.5 751H43C20.9086 751 3 733.091 3 711V43C3 20.9086 20.9086 3 43 3H389.5C411.591 3 429.5 20.9086 429.5 43Z" stroke="#F4F1E1" stroke-width="5"/>
<path d="M88.2 716.35L88.45 714.25C89.6167 714.05 90.3833 713.75 90.75 713.35C91.15 712.95 91.35 712.267 91.35 711.3L91.4 697.3C91.4 696.533 91.3 696.033 91.1 695.8C90.9333 695.533 90.5667 695.4 90 695.4C89.7667 695.4 89.5 695.417 89.2 695.45C88.9 695.45 88.75 695.45 88.75 695.45L88.65 695.25L88.9 693.35C88.9 693.35 89.15 693.35 89.65 693.35C90.15 693.35 90.7333 693.367 91.4 693.4C92.1 693.4 92.7 693.4 93.2 693.4C93.7667 693.4 94.4 693.383 95.1 693.35C95.8 693.283 96.4 693.233 96.9 693.2C97.4333 693.167 97.7 693.15 97.7 693.15L97.55 695.2C96.5167 695.333 95.8667 695.567 95.6 695.9C95.3667 696.233 95.2167 696.967 95.15 698.1L94.9 703.4L100.85 703.45C101.817 703.45 102.683 703.433 103.45 703.4C104.217 703.333 105.117 703.25 106.15 703.15L106.2 697.3C106.2 696.533 106.1 696.033 105.9 695.8C105.733 695.533 105.367 695.4 104.8 695.4C104.567 695.4 104.283 695.417 103.95 695.45C103.65 695.45 103.5 695.45 103.5 695.45L103.4 695.25L103.65 693.35C103.65 693.35 103.9 693.35 104.4 693.35C104.9 693.35 105.467 693.367 106.1 693.4C106.733 693.4 107.267 693.4 107.7 693.4C108.3 693.4 108.983 693.383 109.75 693.35C110.517 693.283 111.167 693.233 111.7 693.2C112.267 693.167 112.55 693.15 112.55 693.15L112.4 695.2C111.467 695.333 110.85 695.533 110.55 695.8C110.25 696.033 110.067 696.483 110 697.15C109.9 698.717 109.8 700.417 109.7 702.25C109.633 704.083 109.583 705.833 109.55 707.5C109.517 709.133 109.5 710.517 109.5 711.65C109.5 712.517 109.6 713.117 109.8 713.45C110.033 713.783 110.467 713.95 111.1 713.95C111.5 713.95 111.867 713.933 112.2 713.9C112.567 713.833 112.75 713.8 112.75 713.8L112.85 714L112.5 716.1C112.5 716.1 112.217 716.083 111.65 716.05C111.117 716.05 110.467 716.033 109.7 716C108.933 716 108.233 716 107.6 716C107.167 716 106.583 716 105.85 716C105.117 716 104.45 716 103.85 716C103.283 716.033 103 716.05 103 716.05L103.35 714C104.483 713.967 105.233 713.717 105.6 713.25C105.967 712.783 106.15 711.833 106.15 710.4V705.65C106.15 705.65 105.817 705.65 105.15 705.65C104.517 705.617 103.783 705.6 102.95 705.6C102.117 705.6 101.417 705.6 100.85 705.6C100.55 705.6 100.067 705.617 99.4 705.65C98.7667 705.683 98.0833 705.733 97.35 705.8C96.65 705.833 96.05 705.867 95.55 705.9C95.05 705.933 94.8 705.95 94.8 705.95L94.7 711.55C94.6667 712.483 94.75 713.117 94.95 713.45C95.1833 713.783 95.6167 713.95 96.25 713.95C96.65 713.95 97.0167 713.933 97.35 713.9C97.7167 713.867 97.9 713.85 97.9 713.85L98 714L97.65 716.1C97.65 716.1 97.4333 716.083 97 716.05C96.6 716.05 96.1167 716.033 95.55 716C95.0167 716 94.5167 716 94.05 716C93.3167 716 92.4833 716.017 91.55 716.05C90.65 716.117 89.8667 716.167 89.2 716.2C88.5667 716.267 88.2333 716.317 88.2 716.35ZM133.602 716.6C132.268 716.6 131.218 716.267 130.452 715.6C129.718 714.9 129.285 713.883 129.152 712.55L128.952 712.5C128.152 713.3 127.385 714 126.652 714.6C125.952 715.167 125.318 715.617 124.752 715.95C124.218 716.25 123.785 716.4 123.452 716.4C122.218 716.4 121.118 716.133 120.152 715.6C119.185 715.067 118.418 714.333 117.852 713.4C117.318 712.467 117.052 711.4 117.052 710.2C117.052 709.233 117.285 708.383 117.752 707.65C118.252 706.917 118.902 706.433 119.702 706.2L129.202 703.6L129.252 701.4C129.252 699.733 128.868 698.433 128.102 697.5C127.335 696.567 126.252 696.1 124.852 696.1C123.918 696.1 122.935 696.317 121.902 696.75C120.868 697.183 119.852 697.8 118.852 698.6L118.602 698.45L118.002 696.3C118.868 695.8 119.835 695.283 120.902 694.75C121.968 694.183 122.985 693.717 123.952 693.35C124.918 692.983 125.652 692.8 126.152 692.8C127.618 692.8 128.868 693.067 129.902 693.6C130.935 694.1 131.718 694.833 132.252 695.8C132.818 696.733 133.102 697.883 133.102 699.25C133.102 699.683 133.052 700.383 132.952 701.35C132.885 702.317 132.785 703.4 132.652 704.6C132.518 705.767 132.402 706.9 132.302 708C132.235 709.1 132.202 710.017 132.202 710.75C132.202 711.483 132.385 712.05 132.752 712.45C133.118 712.85 133.618 713.05 134.252 713.05C134.818 713.05 135.385 712.917 135.952 712.65C136.518 712.35 136.952 712.067 137.252 711.8L137.952 712.6C137.685 713.033 137.318 713.533 136.852 714.1C136.418 714.633 135.918 715.133 135.352 715.6C134.818 716.067 134.235 716.4 133.602 716.6ZM124.302 713C124.935 713 125.668 712.783 126.502 712.35C127.368 711.883 128.152 711.3 128.852 710.6L129.102 705.5L122.302 707.55C121.335 707.85 120.852 708.55 120.852 709.65C120.852 710.583 121.168 711.383 121.802 712.05C122.468 712.683 123.302 713 124.302 713ZM159.498 716.1C159.432 716.1 159.098 716.083 158.498 716.05C157.932 716.05 157.282 716.033 156.548 716C155.815 716 155.148 716 154.548 716C154.115 716 153.515 716 152.748 716C151.982 716 151.265 716 150.598 716C149.965 716.033 149.598 716.05 149.498 716.05L149.848 714C151.215 713.967 152.098 713.717 152.498 713.25C152.898 712.783 153.098 711.833 153.098 710.4L153.148 697.35C153.148 696.583 153.048 696.083 152.848 695.85C152.682 695.583 152.315 695.45 151.748 695.45C151.515 695.45 151.232 695.467 150.898 695.5C150.598 695.5 150.448 695.5 150.448 695.5L150.348 695.3L150.598 693.35C150.665 693.35 150.948 693.35 151.448 693.35C151.948 693.35 152.498 693.367 153.098 693.4C153.732 693.4 154.265 693.4 154.698 693.4C155.265 693.4 155.898 693.383 156.598 693.35C157.298 693.283 157.932 693.233 158.498 693.2C159.065 693.167 159.415 693.15 159.548 693.15L159.398 695.25C158.465 695.383 157.832 695.583 157.498 695.85C157.165 696.083 156.982 696.533 156.948 697.2C156.915 698.767 156.848 700.45 156.748 702.25C156.682 704.05 156.615 705.783 156.548 707.45C156.482 709.117 156.448 710.517 156.448 711.65C156.448 712.717 156.665 713.4 157.098 713.7C157.532 714 158.415 714.033 159.748 713.8L159.848 714L159.498 716.1ZM154.698 706.2C152.798 707.1 151.015 707.667 149.348 707.9C147.715 708.1 146.282 708 145.048 707.6C143.815 707.167 142.848 706.45 142.148 705.45C141.448 704.45 141.098 703.183 141.098 701.65V697.05C141.098 696.35 141.015 695.883 140.848 695.65C140.715 695.383 140.415 695.25 139.948 695.25C139.848 695.25 139.698 695.267 139.498 695.3C139.298 695.3 139.082 695.3 138.848 695.3L138.798 695.1L138.998 693.35L142.948 693.4C143.415 693.4 144.065 693.383 144.898 693.35C145.732 693.283 146.598 693.217 147.498 693.15L147.348 695.05C146.282 695.183 145.615 695.417 145.348 695.75C145.082 696.083 144.932 696.817 144.898 697.95L144.848 700.8C144.815 702.433 145.215 703.667 146.048 704.5C146.915 705.333 148.115 705.767 149.648 705.8L154.748 704.2L154.698 706.2ZM174.524 716.6C172.424 716.6 170.591 716.133 169.024 715.2C167.458 714.267 166.224 712.983 165.324 711.35C164.458 709.683 164.024 707.75 164.024 705.55C164.024 703.85 164.308 702.233 164.874 700.7C165.474 699.167 166.291 697.817 167.324 696.65C168.358 695.45 169.524 694.517 170.824 693.85C172.158 693.15 173.574 692.8 175.074 692.8C180.041 692.8 182.524 695.217 182.524 700.05C182.524 700.483 182.491 700.933 182.424 701.4C182.358 701.867 182.291 702.233 182.224 702.5L181.574 703.1H167.774C167.741 706.067 168.274 708.417 169.374 710.15C170.508 711.85 172.091 712.85 174.124 713.15C176.158 713.417 178.558 712.917 181.324 711.65L181.624 711.75L182.174 713.2C181.508 713.667 180.708 714.167 179.774 714.7C178.874 715.233 177.958 715.683 177.024 716.05C176.091 716.417 175.258 716.6 174.524 716.6ZM167.974 701.25L177.024 700.8C177.524 700.733 177.858 700.617 178.024 700.45C178.191 700.283 178.274 699.95 178.274 699.45C178.274 698.117 177.908 697.1 177.174 696.4C176.474 695.7 175.458 695.35 174.124 695.35C172.591 695.35 171.258 695.883 170.124 696.95C168.991 697.983 168.274 699.417 167.974 701.25ZM186.927 727.85L187.177 725.9C188.244 725.767 188.927 725.467 189.227 725C189.56 724.567 189.727 723.667 189.727 722.3C189.727 721.767 189.727 720.983 189.727 719.95C189.76 718.917 189.777 717.833 189.777 716.7C189.81 715.6 189.827 714.7 189.827 714V699.1C189.827 697.967 189.644 697.183 189.277 696.75C188.91 696.283 188.277 696.05 187.377 696.05H186.827L186.677 695.85L186.827 694.2C187.994 694 189.11 693.8 190.177 693.6C191.244 693.367 192.11 693.167 192.777 693C193.477 692.833 193.827 692.75 193.827 692.75L194.127 693.15C194.127 693.15 194.06 693.433 193.927 694C193.794 694.567 193.694 695.183 193.627 695.85L193.827 696.2C195.294 695.167 196.527 694.367 197.527 693.8C198.56 693.233 199.26 692.95 199.627 692.95C201.56 692.95 203.244 693.4 204.677 694.3C206.11 695.167 207.227 696.4 208.027 698C208.86 699.567 209.277 701.4 209.277 703.5C209.277 705.3 208.944 707 208.277 708.6C207.644 710.167 206.744 711.55 205.577 712.75C204.444 713.95 203.127 714.9 201.627 715.6C200.127 716.267 198.527 716.6 196.827 716.6C196.427 716.6 195.944 716.583 195.377 716.55C194.81 716.517 194.294 716.483 193.827 716.45C193.394 716.417 193.177 716.4 193.177 716.4C193.177 717.233 193.177 718.083 193.177 718.95C193.21 719.817 193.227 720.683 193.227 721.55C193.227 723.083 193.377 724.117 193.677 724.65C194.01 725.217 194.644 725.5 195.577 725.5C195.844 725.5 196.127 725.483 196.427 725.45C196.727 725.45 197.01 725.45 197.277 725.45L197.377 725.6L196.977 727.5C196.577 727.5 196.177 727.5 195.777 727.5C195.377 727.5 194.977 727.5 194.577 727.5C194.21 727.5 193.827 727.5 193.427 727.5C193.027 727.5 192.627 727.5 192.227 727.5C191.294 727.5 190.41 727.517 189.577 727.55C188.777 727.617 188.127 727.683 187.627 727.75C187.16 727.817 186.927 727.85 186.927 727.85ZM198.227 713.85C200.46 713.85 202.21 713.1 203.477 711.6C204.777 710.067 205.427 707.983 205.427 705.35C205.427 703.65 205.127 702.133 204.527 700.8C203.96 699.433 203.177 698.35 202.177 697.55C201.177 696.75 200.06 696.35 198.827 696.35C198.16 696.35 197.344 696.583 196.377 697.05C195.41 697.483 194.494 698.067 193.627 698.8C193.56 700.167 193.494 701.667 193.427 703.3C193.36 704.933 193.31 706.583 193.277 708.25C193.244 709.917 193.227 711.467 193.227 712.9C193.894 713.167 194.677 713.4 195.577 713.6C196.51 713.767 197.394 713.85 198.227 713.85ZM216.445 716.2L216.745 714.15C217.912 714.05 218.762 713.917 219.295 713.75C219.829 713.55 220.162 713.183 220.295 712.65C220.462 712.083 220.545 711.233 220.545 710.1V695.4C219.245 695.433 218.212 695.5 217.445 695.6C216.712 695.667 216.145 695.85 215.745 696.15C215.345 696.45 215.045 696.917 214.845 697.55C214.679 698.15 214.512 698.983 214.345 700.05L212.195 700.2C212.262 699.633 212.329 699.05 212.395 698.45C212.462 697.85 212.512 697.25 212.545 696.65C212.612 696.017 212.662 695.417 212.695 694.85C212.729 694.283 212.745 693.783 212.745 693.35L213.045 693L216.395 693.4H228.195L231.595 693L231.895 693.35C231.929 694.117 231.979 694.933 232.045 695.8C232.112 696.633 232.179 697.433 232.245 698.2C232.345 698.933 232.412 699.55 232.445 700.05L230.295 700.2C230.129 699.1 229.945 698.25 229.745 697.65C229.579 697.017 229.312 696.55 228.945 696.25C228.579 695.95 228.029 695.75 227.295 695.65C226.595 695.517 225.629 695.433 224.395 695.4C224.295 696.333 224.195 697.7 224.095 699.5C224.029 701.3 223.962 703.267 223.895 705.4C223.862 707.533 223.845 709.583 223.845 711.55C223.845 712.417 224.012 713.033 224.345 713.4C224.679 713.767 225.212 713.95 225.945 713.95C226.379 713.95 226.779 713.95 227.145 713.95C227.545 713.917 227.845 713.883 228.045 713.85L228.145 714L227.795 716.15C227.362 716.15 226.879 716.133 226.345 716.1C225.812 716.1 225.279 716.083 224.745 716.05C224.212 716.05 223.695 716.033 223.195 716C222.729 716 222.329 716 221.995 716C221.662 716 221.262 716 220.795 716C220.362 716.033 219.879 716.05 219.345 716.05C218.845 716.083 218.329 716.1 217.795 716.1C217.295 716.133 216.845 716.167 216.445 716.2ZM251.912 716.6C250.579 716.6 249.529 716.267 248.762 715.6C248.029 714.9 247.595 713.883 247.462 712.55L247.262 712.5C246.462 713.3 245.695 714 244.962 714.6C244.262 715.167 243.629 715.617 243.062 715.95C242.529 716.25 242.095 716.4 241.762 716.4C240.529 716.4 239.429 716.133 238.462 715.6C237.495 715.067 236.729 714.333 236.162 713.4C235.629 712.467 235.362 711.4 235.362 710.2C235.362 709.233 235.595 708.383 236.062 707.65C236.562 706.917 237.212 706.433 238.012 706.2L247.512 703.6L247.562 701.4C247.562 699.733 247.179 698.433 246.412 697.5C245.645 696.567 244.562 696.1 243.162 696.1C242.229 696.1 241.245 696.317 240.212 696.75C239.179 697.183 238.162 697.8 237.162 698.6L236.912 698.45L236.312 696.3C237.179 695.8 238.145 695.283 239.212 694.75C240.279 694.183 241.295 693.717 242.262 693.35C243.229 692.983 243.962 692.8 244.462 692.8C245.929 692.8 247.179 693.067 248.212 693.6C249.245 694.1 250.029 694.833 250.562 695.8C251.129 696.733 251.412 697.883 251.412 699.25C251.412 699.683 251.362 700.383 251.262 701.35C251.195 702.317 251.095 703.4 250.962 704.6C250.829 705.767 250.712 706.9 250.612 708C250.545 709.1 250.512 710.017 250.512 710.75C250.512 711.483 250.695 712.05 251.062 712.45C251.429 712.85 251.929 713.05 252.562 713.05C253.129 713.05 253.695 712.917 254.262 712.65C254.829 712.35 255.262 712.067 255.562 711.8L256.262 712.6C255.995 713.033 255.629 713.533 255.162 714.1C254.729 714.633 254.229 715.133 253.662 715.6C253.129 716.067 252.545 716.4 251.912 716.6ZM242.612 713C243.245 713 243.979 712.783 244.812 712.35C245.679 711.883 246.462 711.3 247.162 710.6L247.412 705.5L240.612 707.55C239.645 707.85 239.162 708.55 239.162 709.65C239.162 710.583 239.479 711.383 240.112 712.05C240.779 712.683 241.612 713 242.612 713ZM258.659 716.35L258.909 714.25C260.076 714.05 260.842 713.75 261.209 713.35C261.609 712.95 261.809 712.267 261.809 711.3L261.859 697.3C261.859 696.533 261.759 696.033 261.559 695.8C261.392 695.533 261.026 695.4 260.459 695.4C260.226 695.4 259.959 695.417 259.659 695.45C259.359 695.45 259.209 695.45 259.209 695.45L259.109 695.25L259.359 693.35C259.359 693.35 259.609 693.35 260.109 693.35C260.609 693.35 261.192 693.367 261.859 693.4C262.559 693.4 263.159 693.4 263.659 693.4C264.226 693.4 264.859 693.383 265.559 693.35C266.259 693.283 266.859 693.233 267.359 693.2C267.892 693.167 268.159 693.15 268.159 693.15L268.009 695.2C266.976 695.333 266.326 695.567 266.059 695.9C265.826 696.233 265.676 696.967 265.609 698.1L265.359 703.4L271.309 703.45C272.276 703.45 273.142 703.433 273.909 703.4C274.676 703.333 275.576 703.25 276.609 703.15L276.659 697.3C276.659 696.533 276.559 696.033 276.359 695.8C276.192 695.533 275.826 695.4 275.259 695.4C275.026 695.4 274.742 695.417 274.409 695.45C274.109 695.45 273.959 695.45 273.959 695.45L273.859 695.25L274.109 693.35C274.109 693.35 274.359 693.35 274.859 693.35C275.359 693.35 275.926 693.367 276.559 693.4C277.192 693.4 277.726 693.4 278.159 693.4C278.759 693.4 279.442 693.383 280.209 693.35C280.976 693.283 281.626 693.233 282.159 693.2C282.726 693.167 283.009 693.15 283.009 693.15L282.859 695.2C281.926 695.333 281.309 695.533 281.009 695.8C280.709 696.033 280.526 696.483 280.459 697.15C280.359 698.717 280.259 700.417 280.159 702.25C280.092 704.083 280.042 705.833 280.009 707.5C279.976 709.133 279.959 710.517 279.959 711.65C279.959 712.517 280.059 713.117 280.259 713.45C280.492 713.783 280.926 713.95 281.559 713.95C281.959 713.95 282.326 713.933 282.659 713.9C283.026 713.833 283.209 713.8 283.209 713.8L283.309 714L282.959 716.1C282.959 716.1 282.676 716.083 282.109 716.05C281.576 716.05 280.926 716.033 280.159 716C279.392 716 278.692 716 278.059 716C277.626 716 277.042 716 276.309 716C275.576 716 274.909 716 274.309 716C273.742 716.033 273.459 716.05 273.459 716.05L273.809 714C274.942 713.967 275.692 713.717 276.059 713.25C276.426 712.783 276.609 711.833 276.609 710.4V705.65C276.609 705.65 276.276 705.65 275.609 705.65C274.976 705.617 274.242 705.6 273.409 705.6C272.576 705.6 271.876 705.6 271.309 705.6C271.009 705.6 270.526 705.617 269.859 705.65C269.226 705.683 268.542 705.733 267.809 705.8C267.109 705.833 266.509 705.867 266.009 705.9C265.509 705.933 265.259 705.95 265.259 705.95L265.159 711.55C265.126 712.483 265.209 713.117 265.409 713.45C265.642 713.783 266.076 713.95 266.709 713.95C267.109 713.95 267.476 713.933 267.809 713.9C268.176 713.867 268.359 713.85 268.359 713.85L268.459 714L268.109 716.1C268.109 716.1 267.892 716.083 267.459 716.05C267.059 716.05 266.576 716.033 266.009 716C265.476 716 264.976 716 264.509 716C263.776 716 262.942 716.017 262.009 716.05C261.109 716.117 260.326 716.167 259.659 716.2C259.026 716.267 258.692 716.317 258.659 716.35ZM293.711 713.05L292.061 711.25C294.627 708.783 297.161 706.25 299.661 703.65C302.161 701.05 304.594 698.4 306.961 695.7L308.611 697.5C306.044 700 303.511 702.55 301.011 705.15C298.511 707.717 296.077 710.35 293.711 713.05ZM287.761 716.35L288.011 714.25C289.177 714.05 289.944 713.75 290.311 713.35C290.711 712.95 290.911 712.25 290.911 711.25L290.961 697.35C290.961 696.583 290.861 696.083 290.661 695.85C290.494 695.583 290.127 695.45 289.561 695.45C289.327 695.45 289.061 695.467 288.761 695.5C288.461 695.5 288.311 695.5 288.311 695.5L288.211 695.3L288.461 693.35C288.461 693.35 288.711 693.35 289.211 693.35C289.744 693.35 290.344 693.367 291.011 693.4C291.711 693.4 292.311 693.4 292.811 693.4C293.211 693.4 293.661 693.383 294.161 693.35C294.694 693.317 295.194 693.3 295.661 693.3C296.161 693.267 296.561 693.233 296.861 693.2C297.161 693.167 297.311 693.15 297.311 693.15L297.161 695.25C296.127 695.383 295.477 695.617 295.211 695.95C294.944 696.283 294.777 697.017 294.711 698.15C294.644 699.617 294.561 701.2 294.461 702.9C294.394 704.567 294.327 706.167 294.261 707.7C294.227 709.233 294.211 710.517 294.211 711.55C294.211 712.483 294.327 713.117 294.561 713.45C294.827 713.783 295.294 713.95 295.961 713.95C296.294 713.95 296.627 713.933 296.961 713.9C297.327 713.867 297.511 713.85 297.511 713.85L297.611 714L297.261 716.1C297.261 716.1 297.127 716.083 296.861 716.05C296.627 716.05 296.327 716.05 295.961 716.05C295.594 716.05 295.211 716.033 294.811 716C294.411 716 294.044 716 293.711 716C292.944 716 292.094 716.017 291.161 716.05C290.261 716.117 289.477 716.167 288.811 716.2C288.144 716.267 287.794 716.317 287.761 716.35ZM312.211 716.1C312.211 716.1 311.927 716.083 311.361 716.05C310.794 716.05 310.127 716.033 309.361 716C308.594 716 307.894 716 307.261 716C306.927 716 306.494 716 305.961 716C305.461 716 304.944 716 304.411 716C303.911 716.033 303.494 716.05 303.161 716.05C302.827 716.05 302.661 716.05 302.661 716.05L303.011 714C304.144 713.967 304.894 713.717 305.261 713.25C305.661 712.783 305.861 711.833 305.861 710.4L305.911 697.35C305.911 696.583 305.794 696.083 305.561 695.85C305.361 695.583 304.977 695.45 304.411 695.45C304.211 695.45 303.961 695.467 303.661 695.5C303.361 695.5 303.211 695.5 303.211 695.5L303.111 695.3L303.361 693.35C303.361 693.35 303.594 693.35 304.061 693.35C304.561 693.35 305.127 693.367 305.761 693.4C306.427 693.4 306.977 693.4 307.411 693.4C307.877 693.4 308.377 693.383 308.911 693.35C309.477 693.317 310.011 693.3 310.511 693.3C311.044 693.267 311.461 693.233 311.761 693.2C312.094 693.167 312.261 693.15 312.261 693.15L312.111 695.25C311.177 695.383 310.544 695.583 310.211 695.85C309.911 696.083 309.744 696.533 309.711 697.2C309.644 698.767 309.561 700.467 309.461 702.3C309.394 704.1 309.327 705.817 309.261 707.45C309.227 709.083 309.211 710.45 309.211 711.55C309.211 712.483 309.327 713.117 309.561 713.45C309.794 713.783 310.227 713.95 310.861 713.95C311.227 713.95 311.577 713.933 311.911 713.9C312.277 713.833 312.461 713.8 312.461 713.8L312.561 714L312.211 716.1ZM323.007 713.05L321.357 711.25C323.924 708.783 326.457 706.25 328.957 703.65C331.457 701.05 333.891 698.4 336.257 695.7L337.907 697.5C335.341 700 332.807 702.55 330.307 705.15C327.807 707.717 325.374 710.35 323.007 713.05ZM317.057 716.35L317.307 714.25C318.474 714.05 319.241 713.75 319.607 713.35C320.007 712.95 320.207 712.25 320.207 711.25L320.257 697.35C320.257 696.583 320.157 696.083 319.957 695.85C319.791 695.583 319.424 695.45 318.857 695.45C318.624 695.45 318.357 695.467 318.057 695.5C317.757 695.5 317.607 695.5 317.607 695.5L317.507 695.3L317.757 693.35C317.757 693.35 318.007 693.35 318.507 693.35C319.041 693.35 319.641 693.367 320.307 693.4C321.007 693.4 321.607 693.4 322.107 693.4C322.507 693.4 322.957 693.383 323.457 693.35C323.991 693.317 324.491 693.3 324.957 693.3C325.457 693.267 325.857 693.233 326.157 693.2C326.457 693.167 326.607 693.15 326.607 693.15L326.457 695.25C325.424 695.383 324.774 695.617 324.507 695.95C324.241 696.283 324.074 697.017 324.007 698.15C323.941 699.617 323.857 701.2 323.757 702.9C323.691 704.567 323.624 706.167 323.557 707.7C323.524 709.233 323.507 710.517 323.507 711.55C323.507 712.483 323.624 713.117 323.857 713.45C324.124 713.783 324.591 713.95 325.257 713.95C325.591 713.95 325.924 713.933 326.257 713.9C326.624 713.867 326.807 713.85 326.807 713.85L326.907 714L326.557 716.1C326.557 716.1 326.424 716.083 326.157 716.05C325.924 716.05 325.624 716.05 325.257 716.05C324.891 716.05 324.507 716.033 324.107 716C323.707 716 323.341 716 323.007 716C322.241 716 321.391 716.017 320.457 716.05C319.557 716.117 318.774 716.167 318.107 716.2C317.441 716.267 317.091 716.317 317.057 716.35ZM341.507 716.1C341.507 716.1 341.224 716.083 340.657 716.05C340.091 716.05 339.424 716.033 338.657 716C337.891 716 337.191 716 336.557 716C336.224 716 335.791 716 335.257 716C334.757 716 334.241 716 333.707 716C333.207 716.033 332.791 716.05 332.457 716.05C332.124 716.05 331.957 716.05 331.957 716.05L332.307 714C333.441 713.967 334.191 713.717 334.557 713.25C334.957 712.783 335.157 711.833 335.157 710.4L335.207 697.35C335.207 696.583 335.091 696.083 334.857 695.85C334.657 695.583 334.274 695.45 333.707 695.45C333.507 695.45 333.257 695.467 332.957 695.5C332.657 695.5 332.507 695.5 332.507 695.5L332.407 695.3L332.657 693.35C332.657 693.35 332.891 693.35 333.357 693.35C333.857 693.35 334.424 693.367 335.057 693.4C335.724 693.4 336.274 693.4 336.707 693.4C337.174 693.4 337.674 693.383 338.207 693.35C338.774 693.317 339.307 693.3 339.807 693.3C340.341 693.267 340.757 693.233 341.057 693.2C341.391 693.167 341.557 693.15 341.557 693.15L341.407 695.25C340.474 695.383 339.841 695.583 339.507 695.85C339.207 696.083 339.041 696.533 339.007 697.2C338.941 698.767 338.857 700.467 338.757 702.3C338.691 704.1 338.624 705.817 338.557 707.45C338.524 709.083 338.507 710.45 338.507 711.55C338.507 712.483 338.624 713.117 338.857 713.45C339.091 713.783 339.524 713.95 340.157 713.95C340.524 713.95 340.874 713.933 341.207 713.9C341.574 713.833 341.757 713.8 341.757 713.8L341.857 714L341.507 716.1ZM329.457 688.9C327.491 688.9 325.907 688.483 324.707 687.65C323.541 686.817 322.791 685.65 322.457 684.15L325.157 683.25L325.757 683.5C325.824 684.767 326.157 685.717 326.757 686.35C327.357 686.983 328.274 687.3 329.507 687.3C330.741 687.3 331.674 686.983 332.307 686.35C332.941 685.717 333.274 684.767 333.307 683.5L333.907 683.25L336.607 684.15C336.274 685.617 335.474 686.783 334.207 687.65C332.974 688.483 331.391 688.9 329.457 688.9Z" fill="#F4F1E1"/>
<path d="M25.7891 494.076C39.8637 520.152 80.5734 529.612 87.7126 550.938C104.834 602.083 148.761 637.755 144.5 670.076" stroke="#F4F1E1" stroke-width="7" stroke-linecap="round"/>
<path d="M25.7891 389.076C50.5084 430.708 122.007 445.812 134.546 479.861C164.616 561.519 241.765 618.473 234.281 670.076" stroke="#F4F1E1" stroke-width="7" stroke-linecap="round"/>
<path d="M25.7891 446.076C44.8312 479.263 99.909 491.303 109.568 518.446C132.733 583.54 192.163 628.941 186.397 670.076" stroke="#F4F1E1" stroke-width="7" stroke-linecap="round"/>
<path d="M256.789 37.0763C274.956 64.9096 317.589 118.076 342.789 108.076C374.289 95.5763 409.789 160.576 404.289 195.076" stroke="#F4F1E1" stroke-width="7" stroke-linecap="round"/>
<path d="M304.789 30.0763C317.058 48.5731 345.851 83.9054 362.871 77.2598C384.145 68.9529 408.12 112.149 404.406 135.076" stroke="#F4F1E1" stroke-width="7" stroke-linecap="round"/>
<path d="M196.789 40.0763C221.45 83.4117 279.324 166.19 313.533 150.621C356.294 131.159 404.485 232.361 397.018 286.076" stroke="#F4F1E1" stroke-width="7" stroke-linecap="round"/>
<path d="M144.789 37.0763C176.689 102.432 251.551 227.273 295.801 203.791C351.114 174.44 413.45 327.067 403.792 408.076" stroke="#F4F1E1" stroke-width="7" stroke-linecap="round"/>
<path d="M100.7 443.6L102.5 429.8C109.9 429.2 115.5 427.9 119.3 425.9C123.3 423.9 126 420.6 127.4 416C128.8 411.2 129.5 404.4 129.5 395.6V327.2C129.5 319.6 128.1 314.9 125.3 313.1C122.5 311.1 118.5 310.1 113.3 310.1C110.1 310.1 106.6 310.4 102.8 311C99.2 311.6 97.4 311.9 97.4 311.9L96.5 311L97.7 298.4C97.7 298.4 99.4 298.2 102.8 297.8C106.2 297.4 110.4 296.9 115.4 296.3C120.6 295.5 125.7 294.7 130.7 293.9C140.7 292.3 147.7 291.1 151.7 290.3C155.9 289.5 158.4 289 159.2 288.8C160.2 288.6 160.8 288.5 161 288.5L162.8 293.6C159 296.8 156.3 300.1 154.7 303.5C153.1 306.7 152.1 311.8 151.7 318.8C151.3 329.4 150.9 340.5 150.5 352.1C150.3 363.7 150.1 374.4 149.9 384.2C149.9 393.8 149.9 401.2 149.9 406.4C149.9 414.4 150.9 419.8 152.9 422.6C154.9 425.4 158.8 426.8 164.6 426.8C168.2 426.8 171.7 426.7 175.1 426.5C178.7 426.1 180.5 425.9 180.5 425.9L181.1 427.1L178.4 440.9C178.4 440.9 177 440.8 174.2 440.6C171.6 440.6 168.2 440.5 164 440.3C159.8 440.3 155.4 440.2 150.8 440C146.2 440 142.1 440 138.5 440C134.7 440 130.6 440.2 126.2 440.6C121.8 441 117.7 441.4 113.9 441.8C110.1 442.2 106.9 442.6 104.3 443C101.9 443.4 100.7 443.6 100.7 443.6ZM264.439 443.6C251.639 443.6 240.339 440.5 230.539 434.3C220.939 428.1 213.439 419.5 208.039 408.5C202.639 397.3 199.939 384.3 199.939 369.5C199.939 353.9 203.039 340 209.239 327.8C215.639 315.6 224.339 306 235.339 299C246.339 292 258.839 288.5 272.839 288.5C285.439 288.5 296.539 291.6 306.139 297.8C315.939 303.8 323.539 312.3 328.939 323.3C334.339 334.1 337.039 346.7 337.039 361.1C337.039 376.9 333.839 391.1 327.439 403.7C321.239 416.1 312.639 425.9 301.639 433.1C290.839 440.1 278.439 443.6 264.439 443.6ZM269.839 420.8C284.839 420.8 296.939 416.1 306.139 406.7C315.539 397.1 320.239 384.7 320.239 369.5C320.239 358.3 317.939 348.5 313.339 340.1C308.739 331.5 302.439 324.8 294.439 320C286.439 315.2 277.139 312.8 266.539 312.8C251.539 312.8 239.439 317.6 230.239 327.2C221.239 336.6 216.739 349.2 216.739 365C216.739 376 218.939 385.7 223.339 394.1C227.939 402.5 234.239 409.1 242.239 413.9C250.239 418.5 259.439 420.8 269.839 420.8Z" fill="#F4F1E1"/>
</svg>
