<svg width="377" height="532" viewBox="0 0 377 532" fill="none" xmlns="http://www.w3.org/2000/svg">
<path d="M121.177 355.184L73.3135 490.844L56.6505 334.526L-90.3777 422.615L46.8716 272.795L-115.548 199.809L40.8478 234.77L-17.6011 51.1532L81.9981 187.752L121.98 40.6851L123.838 218.586L269.287 91.7663L179.715 251.751L347.049 275.867L163.834 304.891L259.267 479.105L121.177 355.184Z" fill="#F4F1E1"/>
<path d="M98.4852 353.819L17.9384 473.011L41.2592 317.547L-123.239 365.685L47.3735 255.347L-91.3734 143.738L51.1399 217.031L40.9155 24.608L102.823 181.919L178.621 49.7001L135.528 222.312L308.271 136.299L181.228 268.505L337.062 334.064L152.452 315.917L200.837 508.574L98.4852 353.819Z" fill="#DFBB7D"/>
</svg>
