<svg width="432" height="754" viewBox="0 0 432 754" fill="none" xmlns="http://www.w3.org/2000/svg">
<path d="M22 672.5V686C22 708.091 39.9086 726 62 726H366.5C388.591 726 406.5 708.091 406.5 686V672.5M22 672.5V69.5C22 47.4086 39.9086 29.5 62 29.5H366.5C388.591 29.5 406.5 47.4086 406.5 69.5V672.5M22 672.5H406.5M429.5 43V711C429.5 733.091 411.591 751 389.5 751H43C20.9086 751 3 733.091 3 711V43C3 20.9086 20.9086 3 43 3H389.5C411.591 3 429.5 20.9086 429.5 43Z" stroke="#F4F1E1" stroke-width="5"/>
<path d="M60.1 475.5C53.3 475.5 48.4 473.8 45.4 470.4C42.6 467 41.1 461.4 40.9 453.6L42.4 451.8C50.8 453.6 58.8 454.5 66.4 454.5C76.4 454.5 85.4 452.7 93.4 449.1C101.4 445.7 107.7 441 112.3 435C117.1 429 119.5 422.2 119.5 414.6C119.5 404.4 115.1 396.9 106.3 392.1C97.7 387.1 84.2 384.5 65.8 384.3L64.3 382.8L62.8 372.3L82.3 367.5C90.3 363.7 96.8 358.6 101.8 352.2C107 345.6 109.6 339 109.6 332.4C109.6 326 107.3 320.9 102.7 317.1C98.3 313.3 92.8 311.4 86.2 311.4C80.6 311.4 74.6 312.8 68.2 315.6C62 318.4 56.6 322.1 52 326.7C51.6 326.7 51.1 326.7 50.5 326.7C49.9 326.7 49.4 326.7 49 326.7L46 314.1C46 314.1 47.5 313 50.5 310.8C53.5 308.6 57.4 306.1 62.2 303.3C67.2 300.5 72.6 298 78.4 295.8C84.2 293.6 89.9 292.5 95.5 292.5C107.3 292.5 116.7 295.6 123.7 301.8C130.9 307.8 134.5 315.9 134.5 326.1C134.5 334.1 131.5 341.9 125.5 349.5C119.5 357.1 111.5 363.5 101.5 368.7V370.2C115.1 373.4 125.2 378.1 131.8 384.3C138.6 390.5 142 398.2 142 407.4C142 415.4 139.6 423.4 134.8 431.4C130 439.4 123.5 446.7 115.3 453.3C107.3 460.1 98.5 465.5 88.9 469.5C79.3 473.5 69.7 475.5 60.1 475.5ZM173.505 447.6L175.305 433.8C182.705 433.2 188.305 431.9 192.105 429.9C196.105 427.9 198.805 424.6 200.205 420C201.605 415.2 202.305 408.4 202.305 399.6V331.2C202.305 323.6 200.905 318.9 198.105 317.1C195.305 315.1 191.305 314.1 186.105 314.1C182.905 314.1 179.405 314.4 175.605 315C172.005 315.6 170.205 315.9 170.205 315.9L169.305 315L170.505 302.4C170.505 302.4 172.205 302.2 175.605 301.8C179.005 301.4 183.205 300.9 188.205 300.3C193.405 299.5 198.505 298.7 203.505 297.9C213.505 296.3 220.505 295.1 224.505 294.3C228.705 293.5 231.205 293 232.005 292.8C233.005 292.6 233.605 292.5 233.805 292.5L235.605 297.6C231.805 300.8 229.105 304.1 227.505 307.5C225.905 310.7 224.905 315.8 224.505 322.8C224.105 333.4 223.705 344.5 223.305 356.1C223.105 367.7 222.905 378.4 222.705 388.2C222.705 397.8 222.705 405.2 222.705 410.4C222.705 418.4 223.705 423.8 225.705 426.6C227.705 429.4 231.605 430.8 237.405 430.8C241.005 430.8 244.505 430.7 247.905 430.5C251.505 430.1 253.305 429.9 253.305 429.9L253.905 431.1L251.205 444.9C251.205 444.9 249.805 444.8 247.005 444.6C244.405 444.6 241.005 444.5 236.805 444.3C232.605 444.3 228.205 444.2 223.605 444C219.005 444 214.905 444 211.305 444C207.505 444 203.405 444.2 199.005 444.6C194.605 445 190.505 445.4 186.705 445.8C182.905 446.2 179.705 446.6 177.105 447C174.705 447.4 173.505 447.6 173.505 447.6ZM285.944 475.5L283.844 474L280.544 465C306.344 454 326.244 439.2 340.244 420.6C354.444 401.8 361.544 380.6 361.544 357C361.544 341.6 358.344 329.4 351.944 320.4C345.544 311.4 336.744 306.9 325.544 306.9C315.744 306.9 308.044 310.1 302.444 316.5C296.844 322.9 294.044 331.7 294.044 342.9C294.044 349.9 295.644 356.4 298.844 362.4C302.244 368.2 306.644 372.9 312.044 376.5C317.644 379.9 323.744 381.6 330.344 381.6C335.544 381.6 341.244 380.4 347.444 378C353.844 375.4 359.144 372.2 363.344 368.4L361.244 385.8L357.044 383.7C349.444 388.5 342.644 392.3 336.644 395.1C330.644 397.9 326.344 399.3 323.744 399.3C313.944 399.3 305.144 397.2 297.344 393C289.544 388.6 283.344 382.7 278.744 375.3C274.144 367.7 271.844 359.3 271.844 350.1C271.844 339.1 274.444 329.3 279.644 320.7C284.844 312.1 291.944 305.3 300.944 300.3C310.144 295.1 320.344 292.5 331.544 292.5C342.144 292.5 351.444 295.2 359.444 300.6C367.644 305.8 374.044 313.1 378.644 322.5C383.244 331.9 385.544 342.8 385.544 355.2C385.544 368.4 383.244 381.1 378.644 393.3C374.244 405.3 367.744 416.5 359.144 426.9C350.544 437.3 340.044 446.6 327.644 454.8C315.444 463 301.544 469.9 285.944 475.5Z" fill="#F4F1E1"/>
<path d="M135.496 712.522L131.846 712.172L131.696 711.922L131.996 710.272C133.096 710.172 133.946 709.938 134.546 709.572C135.146 709.172 135.812 708.455 136.546 707.422L138.896 704.122C139.296 703.555 139.646 703.155 139.946 702.922C140.246 702.655 140.579 702.472 140.946 702.372C141.312 702.238 141.746 702.105 142.246 701.972L142.496 702.872C140.329 702.672 138.579 701.955 137.246 700.722C135.912 699.455 135.246 697.905 135.246 696.072C135.246 694.005 136.062 692.355 137.696 691.122C139.362 689.855 141.546 689.222 144.246 689.222C144.946 689.222 145.646 689.255 146.346 689.322C147.079 689.355 147.796 689.372 148.496 689.372C149.196 689.372 149.946 689.355 150.746 689.322C151.579 689.255 152.379 689.188 153.146 689.122L152.996 691.172C151.862 691.305 151.146 691.488 150.846 691.722C150.546 691.922 150.362 692.388 150.296 693.122C150.262 693.555 150.212 694.372 150.146 695.572C150.079 696.772 150.012 698.122 149.946 699.622C149.879 701.122 149.829 702.555 149.796 703.922C149.762 705.288 149.746 706.372 149.746 707.172C149.746 708.305 149.846 709.055 150.046 709.422C150.246 709.755 150.712 709.922 151.446 709.922C151.646 709.922 151.896 709.922 152.196 709.922C152.496 709.888 152.862 709.855 153.296 709.822L153.396 709.972L153.046 712.072C152.012 712.038 151.012 712.005 150.046 711.972C149.112 711.972 148.379 711.972 147.846 711.972C146.912 711.972 146.012 712.005 145.146 712.072C144.312 712.138 143.662 712.222 143.196 712.322L143.446 710.222C144.612 710.022 145.396 709.722 145.796 709.322C146.229 708.922 146.446 708.238 146.446 707.272L146.496 693.322C146.496 692.655 146.262 692.155 145.796 691.822C145.362 691.488 144.696 691.322 143.796 691.322C140.629 691.322 139.046 692.738 139.046 695.572C139.046 697.005 139.412 698.205 140.146 699.172C140.912 700.138 141.946 700.738 143.246 700.972L147.396 701.172V703.272H142.796L139.496 709.222C138.929 710.255 138.296 711.072 137.596 711.672C136.896 712.238 136.196 712.522 135.496 712.522ZM164.466 712.372C162.999 712.372 161.132 712.172 158.866 711.772L158.666 711.472C158.699 710.372 158.716 709.505 158.716 708.872C158.749 708.205 158.749 707.622 158.716 707.122C158.716 706.622 158.682 706.088 158.616 705.522L159.916 705.222H160.866C160.832 706.888 161.182 708.105 161.916 708.872C162.682 709.638 163.932 710.022 165.666 710.022C169.199 710.022 170.966 708.705 170.966 706.072C170.966 703.705 169.449 702.222 166.416 701.622L162.566 701.772L162.466 701.522L162.816 699.222L167.366 699.272C168.132 698.905 168.732 698.372 169.166 697.672C169.599 696.972 169.816 696.188 169.816 695.322C169.816 694.122 169.399 693.188 168.566 692.522C167.766 691.855 166.616 691.522 165.116 691.522C163.782 691.522 162.832 691.855 162.266 692.522C161.699 693.188 161.332 694.355 161.166 696.022L158.916 696.222C159.016 695.355 159.082 694.372 159.116 693.272C159.149 692.138 159.132 691.088 159.066 690.122L159.266 689.822C160.366 689.588 161.416 689.422 162.416 689.322C163.449 689.222 164.432 689.172 165.366 689.172C167.999 689.172 169.999 689.622 171.366 690.522C172.766 691.422 173.466 692.755 173.466 694.522C173.466 695.722 173.116 696.788 172.416 697.722C171.716 698.622 170.682 699.388 169.316 700.022C171.116 700.388 172.482 701.055 173.416 702.022C174.382 702.955 174.866 704.105 174.866 705.472C174.866 706.805 174.416 708.005 173.516 709.072C172.649 710.105 171.432 710.922 169.866 711.522C168.332 712.088 166.532 712.372 164.466 712.372ZM188.601 712.322C187.768 712.322 186.935 712.255 186.101 712.122C185.301 712.022 184.468 711.972 183.601 711.972C183.268 711.972 182.735 711.988 182.001 712.022C181.268 712.088 180.335 712.205 179.201 712.372L179.451 710.272C180.485 710.072 181.185 709.772 181.551 709.372C181.918 708.938 182.101 708.272 182.101 707.372L182.151 693.322C182.151 692.555 182.068 692.055 181.901 691.822C181.768 691.555 181.435 691.422 180.901 691.422C180.768 691.422 180.568 691.438 180.301 691.472C180.068 691.472 179.818 691.472 179.551 691.472L179.451 691.272L179.651 689.322C181.185 689.388 182.701 689.405 184.201 689.372C185.735 689.338 187.218 689.255 188.651 689.122L188.501 691.222C187.535 691.355 186.868 691.555 186.501 691.822C186.168 692.055 185.968 692.505 185.901 693.172L185.651 698.672H189.151C191.518 698.672 193.401 699.238 194.801 700.372C196.201 701.472 196.901 702.988 196.901 704.922C196.901 706.322 196.535 707.588 195.801 708.722C195.101 709.822 194.118 710.705 192.851 711.372C191.618 712.005 190.201 712.322 188.601 712.322ZM188.951 710.022C190.218 710.022 191.201 709.622 191.901 708.822C192.635 708.022 193.001 706.905 193.001 705.472C193.001 702.838 191.618 701.322 188.851 700.922L185.551 701.122L185.401 707.722C185.401 708.555 185.668 709.155 186.201 709.522C186.735 709.855 187.651 710.022 188.951 710.022ZM198.251 712.322L198.501 710.222C199.568 710.022 200.285 709.722 200.651 709.322C201.051 708.922 201.251 708.238 201.251 707.272L201.301 693.322C201.301 692.555 201.201 692.055 201.001 691.822C200.835 691.555 200.485 691.422 199.951 691.422C199.785 691.422 199.585 691.438 199.351 691.472C199.118 691.472 198.918 691.472 198.751 691.472L198.651 691.272L198.901 689.322C199.468 689.322 200.151 689.338 200.951 689.372C201.785 689.372 202.468 689.372 203.001 689.372C203.335 689.372 203.751 689.372 204.251 689.372C204.785 689.338 205.318 689.305 205.851 689.272C206.418 689.205 206.935 689.155 207.401 689.122L207.301 691.222C206.335 691.355 205.718 691.588 205.451 691.922C205.185 692.222 205.018 692.955 204.951 694.122L204.601 707.522C204.601 708.455 204.685 709.088 204.851 709.422C205.051 709.755 205.451 709.922 206.051 709.922C206.318 709.922 206.585 709.905 206.851 709.872C207.151 709.838 207.385 709.822 207.551 709.822L207.651 709.972L207.351 712.072C206.051 712.005 204.918 711.972 203.951 711.972C203.018 711.938 202.101 711.955 201.201 712.022C200.335 712.088 199.351 712.188 198.251 712.322ZM231.351 712.472C230.651 712.472 229.934 712.188 229.201 711.622C228.467 711.055 227.767 710.238 227.101 709.172L222.601 701.622H216.901V698.972L222.951 699.472L224.551 698.372L230.251 707.372C230.884 708.338 231.584 709.088 232.351 709.622C233.117 710.122 233.984 710.372 234.951 710.372L235.151 710.622L234.901 712.072L231.351 712.472ZM223.451 701.872L222.001 700.672L225.851 694.122C226.584 692.888 227.284 691.922 227.951 691.222C228.617 690.522 229.351 690.022 230.151 689.722C230.984 689.388 231.984 689.222 233.151 689.222C233.751 689.888 234.067 690.522 234.101 691.122C234.167 691.688 234.167 692.438 234.101 693.372L233.701 693.722C232.534 693.222 231.567 692.972 230.801 692.972C230.067 692.972 229.417 693.205 228.851 693.672C228.317 694.105 227.784 694.772 227.251 695.672L223.451 701.872ZM212.501 712.322L212.751 710.222C213.917 710.022 214.684 709.722 215.051 709.322C215.451 708.922 215.651 708.222 215.651 707.222L215.701 693.322C215.701 692.555 215.601 692.055 215.401 691.822C215.234 691.555 214.867 691.422 214.301 691.422C214.067 691.422 213.801 691.438 213.501 691.472C213.201 691.472 213.051 691.472 213.051 691.472L212.951 691.272L213.201 689.322C213.201 689.322 213.451 689.322 213.951 689.322C214.484 689.322 215.084 689.338 215.751 689.372C216.451 689.372 217.051 689.372 217.551 689.372C217.951 689.372 218.401 689.355 218.901 689.322C219.434 689.288 219.934 689.272 220.401 689.272C220.901 689.238 221.301 689.205 221.601 689.172C221.901 689.138 222.051 689.122 222.051 689.122L221.901 691.222C220.867 691.355 220.217 691.588 219.951 691.922C219.684 692.255 219.517 692.988 219.451 694.122C219.384 695.588 219.301 697.172 219.201 698.872C219.134 700.538 219.067 702.138 219.001 703.672C218.967 705.205 218.951 706.488 218.951 707.522C218.951 708.455 219.067 709.088 219.301 709.422C219.567 709.755 220.034 709.922 220.701 709.922C221.034 709.922 221.367 709.905 221.701 709.872C222.067 709.838 222.251 709.822 222.251 709.822L222.351 709.972L222.001 712.072C222.001 712.072 221.867 712.055 221.601 712.022C221.367 712.022 221.067 712.022 220.701 712.022C220.334 712.022 219.951 712.005 219.551 711.972C219.151 711.972 218.784 711.972 218.451 711.972C217.684 711.972 216.834 711.988 215.901 712.022C215.001 712.088 214.217 712.138 213.551 712.172C212.884 712.238 212.534 712.288 212.501 712.322ZM246.952 712.572C245.052 712.572 243.369 712.105 241.902 711.172C240.435 710.238 239.285 708.938 238.452 707.272C237.652 705.572 237.252 703.638 237.252 701.472C237.252 699.072 237.752 696.922 238.752 695.022C239.785 693.088 241.185 691.572 242.952 690.472C244.719 689.338 246.685 688.772 248.852 688.772C250.752 688.772 252.435 689.238 253.902 690.172C255.369 691.105 256.502 692.405 257.302 694.072C258.135 695.738 258.552 697.672 258.552 699.872C258.552 702.238 258.035 704.388 257.002 706.322C256.002 708.255 254.619 709.788 252.852 710.922C251.119 712.022 249.152 712.572 246.952 712.572ZM248.352 710.122C250.219 710.122 251.702 709.372 252.802 707.872C253.902 706.338 254.452 704.272 254.452 701.672C254.452 699.672 254.152 697.905 253.552 696.372C252.952 694.838 252.119 693.638 251.052 692.772C249.985 691.905 248.752 691.472 247.352 691.472C245.485 691.472 244.002 692.238 242.902 693.772C241.802 695.305 241.252 697.388 241.252 700.022C241.252 702.022 241.552 703.788 242.152 705.322C242.752 706.822 243.585 708.005 244.652 708.872C245.719 709.705 246.952 710.122 248.352 710.122ZM267.395 711.972C266.728 711.972 266.028 712.005 265.295 712.072C264.562 712.138 263.928 712.205 263.395 712.272C262.895 712.338 262.645 712.372 262.645 712.372L262.895 710.222C264.062 710.022 264.862 709.722 265.295 709.322C265.728 708.922 265.945 708.255 265.945 707.322L265.995 693.272C265.995 692.538 265.895 692.055 265.695 691.822C265.495 691.555 265.112 691.422 264.545 691.422C264.312 691.422 264.028 691.438 263.695 691.472C263.362 691.505 263.195 691.522 263.195 691.522L263.095 691.322L263.395 689.322C263.395 689.322 263.662 689.322 264.195 689.322C264.762 689.322 265.412 689.338 266.145 689.372C266.878 689.372 267.478 689.372 267.945 689.372C268.445 689.372 269.078 689.355 269.845 689.322C270.645 689.288 271.362 689.272 271.995 689.272C272.628 689.238 272.945 689.222 272.945 689.222C275.478 689.222 277.412 689.688 278.745 690.622C280.112 691.555 280.795 692.888 280.795 694.622C280.795 695.822 280.395 696.888 279.595 697.822C278.828 698.755 277.745 699.505 276.345 700.072C278.178 700.438 279.628 701.088 280.695 702.022C281.762 702.922 282.295 704.055 282.295 705.422C282.295 706.722 281.862 707.905 280.995 708.972C280.162 710.005 279.028 710.822 277.595 711.422C276.162 712.022 274.578 712.322 272.845 712.322C272.445 712.322 272.012 712.305 271.545 712.272C271.112 712.238 270.662 712.188 270.195 712.122C269.762 712.088 269.295 712.055 268.795 712.022C268.328 711.988 267.862 711.972 267.395 711.972ZM269.345 701.722L269.195 707.722C269.195 708.555 269.528 709.155 270.195 709.522C270.862 709.855 271.962 710.022 273.495 710.022C275.028 710.022 276.212 709.655 277.045 708.922C277.912 708.188 278.345 707.205 278.345 705.972C278.345 703.672 276.678 702.238 273.345 701.672L269.345 701.722ZM269.445 699.322L273.595 699.622C273.595 699.622 273.762 699.555 274.095 699.422C274.462 699.288 274.878 699.072 275.345 698.772C275.812 698.472 276.212 698.038 276.545 697.472C276.912 696.905 277.095 696.205 277.095 695.372C277.095 692.672 274.912 691.322 270.545 691.322C270.078 691.322 269.845 691.572 269.845 692.072L269.445 699.322Z" fill="#F4F1E1"/>
<path d="M261.334 206.389C264.18 205.464 268.277 201.926 261.893 195.174M245.198 206.297C248.435 208.289 254.731 211.373 254.015 207.773C253.12 203.274 249.349 201.193 245.198 206.297Z" stroke="#F4F1E1" stroke-width="3" stroke-linecap="round"/>
<path d="M247.422 196.955C245.128 192.608 239.469 187.36 235.184 201.141C229.828 218.367 230.118 210.731 225.973 209.892" stroke="#F4F1E1" stroke-width="3" stroke-linecap="round"/>
<path d="M219.212 204.991C222.373 205.471 228.403 205.022 227.239 199.375" stroke="#F4F1E1" stroke-width="3" stroke-linecap="round"/>
<path d="M221.389 214.634C224.989 209.67 217.377 208.743 213.12 208.9C212.302 216.737 213.44 232.383 224.534 232.269C227.105 236.276 233.222 243.38 237.127 239.742C239.404 241.235 244.253 243.835 245.434 242.293C246.911 240.365 247.362 246.53 265.797 235.843C268.065 236.074 272.357 235.047 271.377 229.093C275.662 225.985 282.819 218.449 278.422 212.417C279.807 216.013 265.031 225.921 260.825 226.167C256.331 226.429 261.756 218.638 259.771 216.711C257.786 214.784 253.691 222.507 253.582 226.114C253.473 229.72 239.256 230.964 239.984 222.677C240.712 214.39 228.522 218.293 229.044 224.035C229.566 229.777 216.889 220.84 221.389 214.634Z" fill="#D6D3C2"/>
<path d="M278.422 212.417C282.819 218.449 275.662 225.985 271.377 229.093C272.357 235.047 268.065 236.074 265.797 235.843C247.362 246.53 246.911 240.365 245.434 242.293C244.253 243.835 239.404 241.235 237.127 239.742C233.222 243.38 227.105 236.276 224.534 232.269C213.44 232.383 212.302 216.737 213.12 208.9C217.377 208.743 224.989 209.67 221.389 214.634C216.889 220.84 229.566 229.777 229.044 224.035C228.522 218.293 240.712 214.39 239.984 222.677C239.256 230.964 253.473 229.72 253.582 226.114C253.691 222.507 257.786 214.784 259.771 216.711C261.756 218.638 256.331 226.429 260.825 226.167C265.031 225.921 279.807 216.013 278.422 212.417ZM278.422 212.417C278.264 212.2 278.091 211.985 277.902 211.773C278.157 211.955 278.327 212.171 278.422 212.417Z" stroke="#F4F1E1" stroke-width="3" stroke-linecap="round"/>
<path d="M234.85 161.794C243.519 160.877 261.978 155.491 266.467 141.28C268.101 143.004 272.893 144.241 278.988 135.402C283.959 134.253 293.845 130.728 293.612 125.817C293.38 120.907 294.696 116.72 295.383 115.24C297.846 116.28 302.825 117.646 303.041 114.782C305.441 114.556 311.846 112.197 318.264 104.573C324.683 96.9481 328.127 93.9001 329.047 93.3291L323.049 110.448L317.944 123.222C318.484 126.172 320.047 131.089 322.292 129.638C323.515 128.165 324.136 127.555 323.096 128.869C322.819 129.218 322.551 129.47 322.292 129.638C319.585 132.899 313.929 140.393 316.85 140.582C311.169 147.605 301.563 161.8 308.583 162.395C309.726 166.067 312.935 172.229 316.626 167.512C321.239 161.615 300.441 191.334 306.231 193.174C306.455 195.772 307.79 200.597 311.336 199.103C315.769 197.235 303.681 208.405 303.539 209.251L327.701 189.954C307.546 201.658 320.451 178.785 329.423 165.885C318.87 175.369 324.726 162.44 328.974 154.791C319.073 161.948 326.693 136.914 331.74 123.502C322.132 119.863 375.763 50.5512 369.821 51.5861C365.068 52.4141 353.708 60.8737 348.622 65C347.559 57.5727 326.473 89.9985 321.216 86.9436C317.011 84.4996 314.046 90.7209 313.09 94.1371C306.421 107.983 300.939 104.04 299.032 100.337C299.54 104.192 279.889 115.255 275.301 116.082C271.63 116.743 257.85 137.953 251.419 148.475C240.933 159.13 244.247 147.999 247.215 141.101C244.114 141.51 234.301 152.278 229.783 157.611C229.122 158.273 228.033 160.188 228.956 162.547C229.88 164.905 233.27 163.027 234.85 161.794Z" fill="#D6D3C2"/>
<path d="M322.292 129.638C320.047 131.089 318.484 126.172 317.944 123.222L323.049 110.448L329.047 93.3291C328.127 93.9001 324.683 96.9481 318.264 104.573C311.846 112.197 305.441 114.556 303.041 114.782C302.825 117.646 297.846 116.28 295.383 115.24C294.696 116.72 293.38 120.907 293.612 125.817C293.845 130.728 283.959 134.253 278.988 135.402C272.893 144.241 268.101 143.004 266.467 141.28C261.978 155.491 243.519 160.877 234.85 161.794C233.27 163.027 229.88 164.905 228.956 162.547C228.033 160.188 229.122 158.273 229.783 157.611C234.301 152.278 244.114 141.51 247.215 141.101C244.247 147.999 240.933 159.13 251.419 148.475C257.85 137.953 271.63 116.743 275.301 116.082C279.889 115.255 299.54 104.192 299.032 100.337C300.939 104.04 306.421 107.983 313.09 94.1371C314.046 90.7209 317.011 84.4996 321.216 86.9436C326.473 89.9985 347.559 57.5727 348.622 65C353.708 60.8737 365.068 52.4141 369.821 51.5861C375.763 50.5512 322.132 119.863 331.74 123.502C326.693 136.914 319.073 161.948 328.974 154.791C324.726 162.44 318.87 175.369 329.423 165.885C320.451 178.785 307.546 201.658 327.701 189.954L303.539 209.251C303.681 208.405 315.769 197.235 311.336 199.103C307.79 200.597 306.455 195.772 306.231 193.174C300.441 191.334 321.239 161.615 316.626 167.512C312.935 172.229 309.726 166.067 308.583 162.395C301.563 161.8 311.169 147.605 316.85 140.582C313.929 140.393 319.585 132.899 322.292 129.638ZM322.292 129.638C323.515 128.165 324.136 127.555 323.096 128.869C322.819 129.218 322.551 129.47 322.292 129.638Z" stroke="#F4F1E1" stroke-width="3" stroke-linecap="round"/>
<path d="M216.526 182.648C184.79 208.796 188.761 287.84 295.821 240.581C296.837 234.516 304.061 227.201 322.711 211.881C324.87 209.488 327.602 204.523 321.261 203.809C324.643 199.688 332.269 192.198 335.72 195.211C340.034 198.978 358.101 169.817 345.916 172.706C352.782 155.974 360.366 129.513 335.768 157.523C342.455 149.412 353.212 132.868 342.749 131.58C357.547 111.44 378.536 78.4758 344.104 107.739C349.524 99.3191 359.581 82.2323 356.45 81.2441C352.537 80.0089 384.768 55.8285 377.879 53.6602C383.806 49.4331 393.25 41.3874 383.616 43.0219C371.572 45.065 367.064 48.3697 367.997 49.6858C368.93 51.0019 346.413 57.5257 348.238 59.426C342.432 62.272 330.98 68.3963 331.613 70.1262C331.603 65.9199 329.505 58.8992 321.189 64.4662C322.124 59.21 320.651 51.7334 307.28 63.877C302.606 66.5258 293.051 72.0786 292.221 73.0995C291.184 74.3756 283.266 76.3846 284.976 82.9053C281.516 85.8539 275.171 92.0506 277.476 93.2484C273.747 101.082 268.161 115.611 275.646 111.065C277.706 110.25 279.625 110.137 270.831 116.203C259.837 123.787 268.1 116.761 266.663 115.505C265.225 114.25 263.675 107.756 256.889 112.854C250.102 117.952 239.188 128.013 239.649 132.15C235.43 135.697 229.541 143.304 239.745 145.36C229.433 155.764 211.524 181.811 216.526 182.648ZM286.554 106.947C289.887 105.089 296.604 101.062 296.812 99.8205C297.071 98.2692 303.325 94.3867 304.239 94.8298C305.154 95.2729 312.457 83.157 314.47 83.929C316.483 84.7011 311.497 73.1374 314.548 72.6333L285.047 101.185C284.054 104.16 281.777 109.888 280.607 108.996L286.554 106.947ZM260.837 125.694L251.654 133.29C250.885 135.916 250.526 139.829 255.247 134.472C259.967 129.115 260.94 126.388 260.837 125.694Z" stroke="#F4F1E1" stroke-width="3" stroke-linecap="round"/>
<path d="M212.408 209.216C209.759 210.86 210.54 200.687 211.261 195.395C217.099 192.023 229.429 184.924 232.04 183.506C235.303 181.732 240.009 180.201 241.933 180.523C243.857 180.845 236.444 182.793 251.391 182.106C266.339 181.419 275.038 202.304 276.815 204.486C278.592 206.669 276.154 208.435 279.976 214.15C283.034 218.721 276.356 226.254 272.635 229.449C272.223 232.57 270.987 238.307 269.347 236.293C267.296 233.774 256.529 241.976 253.384 243.044C250.238 244.112 248.414 242.212 244.467 243.146C241.31 243.893 237.447 241.439 235.91 240.118C230.636 242.483 225.669 235.987 223.846 232.444C210.806 229.216 210.787 215.614 212.408 209.216Z" stroke="#F4F1E1" stroke-width="3" stroke-linecap="round"/>
<path d="M84.2378 637.707C87.0845 636.782 91.1817 633.244 84.7972 626.492M68.1022 637.615C71.3395 639.607 77.6351 642.691 76.9194 639.091C76.0247 634.592 72.253 632.511 68.1022 637.615Z" stroke="#F4F1E1" stroke-width="3" stroke-linecap="round"/>
<path d="M70.5212 622.938C68.2276 618.591 62.5691 613.342 58.2839 627.123C52.9275 644.35 53.2172 636.714 49.0727 635.875" stroke="#F4F1E1" stroke-width="3" stroke-linecap="round"/>
<path d="M40.7894 626.846C43.9501 627.327 49.9804 626.877 48.8163 621.23" stroke="#F4F1E1" stroke-width="3" stroke-linecap="round"/>
<path d="M40.7339 638.567C44.334 633.602 36.7213 632.676 32.4649 632.833C31.6471 640.67 32.785 656.316 43.8791 656.202C46.4494 660.209 52.5663 667.312 56.4715 663.675C58.7486 665.168 63.598 667.768 64.7791 666.226C66.2555 664.298 66.7066 670.463 85.1414 659.776C87.41 660.007 91.7021 658.98 90.7213 653.026C95.0068 649.918 102.163 642.382 97.7664 636.35C99.1512 639.946 84.3754 649.854 80.1693 650.099C75.6756 650.362 81.1002 642.571 79.1156 640.644C77.131 638.717 73.0361 646.44 72.9267 650.047C72.8173 653.653 58.6004 654.897 59.3288 646.61C60.0572 638.323 47.8672 642.226 48.389 647.968C48.9109 653.71 36.2339 644.773 40.7339 638.567Z" fill="#D6D3C2"/>
<path d="M97.7664 636.35C102.163 642.382 95.0068 649.918 90.7213 653.026C91.7021 658.98 87.41 660.007 85.1414 659.776C66.7066 670.463 66.2555 664.298 64.7791 666.226C63.598 667.768 58.7486 665.168 56.4715 663.675C52.5663 667.312 46.4494 660.209 43.8791 656.202C32.785 656.316 31.6471 640.67 32.4649 632.833C36.7213 632.676 44.334 633.602 40.7339 638.567C36.2339 644.773 48.9109 653.71 48.389 647.968C47.8672 642.226 60.0572 638.323 59.3288 646.61C58.6004 654.897 72.8173 653.653 72.9267 650.047C73.0361 646.44 77.131 638.717 79.1156 640.644C81.1002 642.571 75.6756 650.362 80.1693 650.099C84.3754 649.854 99.1512 639.946 97.7664 636.35ZM97.7664 636.35C97.6084 636.133 97.4356 635.918 97.2471 635.706C97.5015 635.887 97.6717 636.104 97.7664 636.35Z" stroke="#F4F1E1" stroke-width="3" stroke-linecap="round"/>
<path d="M40.8494 606.794C49.5179 605.877 67.9771 600.491 72.466 586.28C74.1002 588.004 78.8921 589.241 84.9866 580.402C89.9584 579.253 99.8437 575.728 99.6112 570.817C99.3786 565.907 100.695 561.72 101.382 560.24C103.845 561.281 108.824 562.646 109.04 559.782C111.44 559.556 117.845 557.197 124.263 549.573C130.682 541.948 134.126 538.9 135.046 538.329L129.048 555.448L123.943 568.222C124.483 571.172 126.046 576.089 128.291 574.638C129.514 573.165 130.135 572.555 129.095 573.869C128.818 574.219 128.55 574.47 128.291 574.638C125.584 577.899 119.928 585.393 122.849 585.582C117.168 592.605 107.562 606.8 114.582 607.396C115.725 611.067 118.934 617.229 122.625 612.512C127.238 606.615 106.44 636.334 112.23 638.174C112.454 640.773 113.789 645.597 117.335 644.103C121.768 642.235 109.68 653.405 109.538 654.251L133.7 634.954C113.545 646.658 126.45 623.785 135.422 610.885C124.869 620.369 130.725 607.441 134.973 599.791C125.072 606.948 132.692 581.914 137.739 568.502C128.131 564.864 181.762 495.551 175.82 496.586C171.067 497.414 159.707 505.874 154.621 510C153.558 502.573 132.472 534.999 127.215 531.944C123.01 529.5 120.045 535.721 119.089 539.137C112.42 552.983 106.938 549.04 105.031 545.338C105.539 549.192 85.8879 560.255 81.2997 561.082C77.6292 561.743 63.849 582.953 57.4177 593.475C46.9319 604.13 50.2459 592.999 53.2136 586.101C50.1128 586.51 40.3003 597.278 35.7817 602.611C35.1213 603.273 34.0316 605.188 34.9552 607.547C35.8787 609.905 39.2695 608.028 40.8494 606.794Z" fill="#D6D3C2"/>
<path d="M128.291 574.638C126.046 576.089 124.483 571.172 123.943 568.222L129.048 555.448L135.046 538.329C134.126 538.9 130.682 541.948 124.263 549.573C117.845 557.197 111.44 559.556 109.04 559.782C108.824 562.646 103.845 561.281 101.382 560.24C100.695 561.72 99.3786 565.907 99.6112 570.817C99.8437 575.728 89.9584 579.253 84.9866 580.402C78.8921 589.241 74.1002 588.004 72.466 586.28C67.9771 600.491 49.5179 605.877 40.8494 606.794C39.2695 608.028 35.8787 609.905 34.9552 607.547C34.0316 605.188 35.1213 603.273 35.7817 602.611C40.3003 597.278 50.1128 586.51 53.2136 586.101C50.2459 592.999 46.9319 604.13 57.4177 593.475C63.849 582.953 77.6292 561.743 81.2997 561.082C85.8879 560.255 105.539 549.192 105.031 545.338C106.938 549.04 112.42 552.983 119.089 539.137C120.045 535.721 123.01 529.5 127.215 531.944C132.472 534.999 153.558 502.573 154.621 510C159.707 505.874 171.067 497.414 175.82 496.586C181.762 495.551 128.131 564.864 137.739 568.502C132.692 581.914 125.072 606.948 134.973 599.791C130.725 607.441 124.869 620.369 135.422 610.885C126.45 623.785 113.545 646.658 133.7 634.954L109.538 654.251C109.68 653.405 121.768 642.235 117.335 644.103C113.789 645.597 112.454 640.773 112.23 638.174C106.44 636.334 127.238 606.615 122.625 612.512C118.934 617.229 115.725 611.067 114.582 607.396C107.562 606.8 117.168 592.605 122.849 585.582C119.928 585.393 125.584 577.899 128.291 574.638ZM128.291 574.638C129.514 573.165 130.135 572.555 129.095 573.869C128.818 574.219 128.55 574.47 128.291 574.638Z" stroke="#F4F1E1" stroke-width="3" stroke-linecap="round"/>
<path d="M24.0997 624.93C19.098 624.092 37.0064 598.045 47.3184 587.642C37.1151 585.585 43.0033 577.978 47.2228 574.432C46.7618 570.295 57.6756 560.234 64.4623 555.136C71.2489 550.038 72.7985 556.531 74.2363 557.787C75.6741 559.043 67.4111 566.068 78.4044 558.485C87.199 552.418 85.2793 552.532 83.22 553.347C75.7348 557.893 81.3209 543.363 85.0496 535.53C82.7451 534.332 89.0894 528.136 92.5496 525.187C90.8397 518.666 98.7572 516.657 99.7948 515.381C100.625 514.36 110.18 508.808 114.853 506.159C128.225 494.015 129.698 501.492 128.763 506.748C137.078 501.181 139.177 508.202 139.187 512.408C138.554 510.678 150.006 504.554 155.811 501.708C153.987 499.807 176.504 493.284 175.571 491.968C174.637 490.651 179.146 487.347 191.189 485.304C200.824 483.669 191.379 491.715 185.453 495.942C192.341 498.11 160.111 522.291 164.024 523.526C167.155 524.514 157.097 541.601 151.677 550.021C186.11 520.758 165.121 553.721 150.322 573.861C160.786 575.149 150.028 591.694 143.341 599.805C167.94 571.795 160.356 598.256 153.489 614.988C165.674 612.098 147.607 641.26 143.294 637.493C139.843 634.479 132.216 641.969 128.834 646.091C135.175 646.805 132.443 651.77 130.285 654.163C111.634 669.482 105.401 664.294 104.385 670.358M94.1275 549.229C97.4601 547.37 104.177 543.343 104.385 542.102C104.645 540.551 110.898 536.668 111.813 537.112C112.728 537.555 120.03 525.439 122.043 526.211C124.057 526.983 119.071 515.419 122.122 514.915L92.6202 543.467C91.6276 546.442 89.3502 552.17 88.181 551.278L94.1275 549.229ZM68.4102 567.975L59.2276 575.572C58.4583 578.198 58.0999 582.111 62.8203 576.754C67.5408 571.397 68.5138 568.669 68.4102 567.975Z" stroke="#F4F1E1" stroke-width="3" stroke-linecap="round"/>
<path d="M33.8795 633.703C31.231 635.347 32.0114 625.174 32.7326 619.882C38.571 616.51 50.9005 609.411 53.5112 607.993C56.7747 606.219 61.4809 604.688 63.4046 605.01C65.3284 605.332 57.9155 607.28 72.863 606.593C87.8106 605.906 96.5094 626.791 98.2865 628.973C100.064 631.156 97.6253 632.922 101.448 638.637C104.506 643.208 97.828 650.741 94.1068 653.936C93.6942 657.056 92.4588 662.794 90.8185 660.78C88.768 658.261 78.0009 666.463 74.8555 667.531C71.7102 668.599 69.8859 666.699 65.9389 667.633C62.7814 668.38 58.9184 665.926 57.3815 664.605C52.1074 666.97 47.1411 660.474 45.3172 656.931C32.2776 653.703 32.2589 640.101 33.8795 633.703Z" stroke="#F4F1E1" stroke-width="3" stroke-linecap="round"/>
</svg>
