<svg width="804" height="529" viewBox="0 0 804 529" fill="none" xmlns="http://www.w3.org/2000/svg">
<g clip-path="url(#clip0_370_4605)">
<rect width="804" height="529" fill="#061E37"/>
<path d="M332.4 475L330.3 470.1L333.1 442.8C349.433 441.4 362.033 439.767 370.9 437.9C379.767 436.033 386.067 433.467 389.8 430.2C393.533 426.467 395.4 421.8 395.4 416.2C395.4 411.533 394.933 406.4 394 400.8C393.067 395.2 391.433 389.133 389.1 382.6L366 306.3C357.6 305.833 345.7 305.6 330.3 305.6C315.367 305.6 303 305.6 293.2 305.6C279.667 305.6 265.433 306.3 250.5 307.7C236.033 309.1 224.833 310.267 216.9 311.2L191 384C186.8 396.6 184.7 405.7 184.7 411.3C184.7 421.567 187.967 429.033 194.5 433.7C201.5 437.9 212.233 440 226.7 440H266.6L268 442.8L263.8 472.9C263.8 472.9 258.9 472.433 249.1 471.5C239.3 470.567 226.933 469.633 212 468.7C197.067 468.233 181.9 468 166.5 468C155.3 468 143.633 468 131.5 468C119.833 468.467 109.8 468.933 101.4 469.4C93.4667 469.867 89.5 470.1 89.5 470.1L95.1 437.2C108.167 435.8 118.667 431.367 126.6 423.9C134.533 416.433 142.233 402.9 149.7 383.3L286.2 25.6L330.3 13.7H335.9C335.9 13.7 337.3 19.3 340.1 30.5C343.367 41.2333 347.567 56.4 352.7 76C358.3 95.1333 364.6 117.3 371.6 142.5C379.067 167.233 386.767 193.6 394.7 221.6C403.1 249.6 411.733 278.067 420.6 307C429.467 335.467 438.333 362.767 447.2 388.9C452.8 406.167 460.267 418.3 469.6 425.3C479.4 432.3 494.333 436.733 514.4 438.6L515.8 441.4L510.9 470.1C510.9 470.1 506.233 469.867 496.9 469.4C488.033 468.933 477.767 468.467 466.1 468C454.433 468 444.633 468 436.7 468C418.967 468 401.933 468.467 385.6 469.4C369.733 470.8 356.9 471.967 347.1 472.9C337.3 474.3 332.4 475 332.4 475ZM229.5 276.9H291.1C300.433 276.9 311.633 276.433 324.7 275.5C337.767 274.567 348.267 273.867 356.2 273.4L300.9 90H296L229.5 276.9Z" fill="#F4F1E1"/>
<path d="M726 474C712.667 474 702.167 470.667 694.5 464C687.167 457 682.833 446.833 681.5 433.5L679.5 433C671.5 441 663.833 448 656.5 454C649.5 459.667 643.167 464.167 637.5 467.5C632.167 470.5 627.833 472 624.5 472C612.167 472 601.167 469.333 591.5 464C581.833 458.667 574.167 451.333 568.5 442C563.167 432.667 560.5 422 560.5 410C560.5 400.333 562.833 391.833 567.5 384.5C572.5 377.167 579 372.333 587 370L682 344L682.5 322C682.5 305.333 678.667 292.333 671 283C663.333 273.667 652.5 269 638.5 269C629.167 269 619.333 271.167 609 275.5C598.667 279.833 588.5 286 578.5 294L576 292.5L570 271C578.667 266 588.333 260.833 599 255.5C609.667 249.833 619.833 245.167 629.5 241.5C639.167 237.833 646.5 236 651.5 236C666.167 236 678.667 238.667 689 244C699.333 249 707.167 256.333 712.5 266C718.167 275.333 721 286.833 721 300.5C721 304.833 720.5 311.833 719.5 321.5C718.833 331.167 717.833 342 716.5 354C715.167 365.667 714 377 713 388C712.333 399 712 408.167 712 415.5C712 422.833 713.833 428.5 717.5 432.5C721.167 436.5 726.167 438.5 732.5 438.5C738.167 438.5 743.833 437.167 749.5 434.5C755.167 431.5 759.5 428.667 762.5 426L769.5 434C766.833 438.333 763.167 443.333 758.5 449C754.167 454.333 749.167 459.333 743.5 464C738.167 468.667 732.333 472 726 474ZM633 438C639.333 438 646.667 435.833 655 431.5C663.667 426.833 671.5 421 678.5 414L681 363L613 383.5C603.333 386.5 598.5 393.5 598.5 404.5C598.5 413.833 601.667 421.833 608 428.5C614.667 434.833 623 438 633 438Z" fill="#F4F1E1"/>
<path d="M170.368 331L121.224 381.679L72.0789 338.071L83.5461 397H0L63.8882 426.464L11.4671 461.821L83.5461 453.571L72.0789 529L131.053 468.893L186.75 507.786L170.368 453.571H249L186.75 422.929L249 389.929H170.368V331Z" fill="#BCA43A" fill-opacity="0.57"/>
<path d="M475.368 328L426.224 378.679L377.079 335.071L388.546 394H305L368.888 423.464L316.467 458.821L388.546 450.571L377.079 526L436.053 465.893L491.75 504.786L475.368 450.571H554L491.75 419.929L554 386.929H475.368V328Z" fill="#BCA43A" fill-opacity="0.57"/>
<path d="M709.421 205L689.684 231.107L669.947 208.643L674.553 239H641L666.658 254.179L645.605 272.393L674.553 268.143L669.947 307L693.632 276.036L716 296.071L709.421 268.143H741L716 252.357L741 235.357H709.421V205Z" fill="#BCA43A" fill-opacity="0.57"/>
<path d="M772.421 400L752.684 426.107L732.947 403.643L737.553 434H704L729.658 449.179L708.605 467.393L737.553 463.143L732.947 502L756.632 471.036L779 491.071L772.421 463.143H804L779 447.357L804 430.357H772.421V400Z" fill="#BCA43A" fill-opacity="0.57"/>
<path d="M703.421 314L683.684 340.107L663.947 317.643L668.553 348H635L660.658 363.179L639.605 381.393L668.553 377.143L663.947 416L687.632 385.036L710 405.071L703.421 377.143H735L710 361.357L735 344.357H703.421V314Z" fill="#BCA43A" fill-opacity="0.57"/>
</g>
<defs>
<clipPath id="clip0_370_4605">
<rect width="804" height="529" fill="white"/>
</clipPath>
</defs>
</svg>
