<svg width="651" height="325" viewBox="0 0 651 325" fill="none" xmlns="http://www.w3.org/2000/svg">
<path d="M76.6636 321C93.6692 319.261 130.013 311.869 139.341 296.215C169.708 310.782 237.731 327.653 266.883 278.605C276.844 280.996 296.181 282.127 293.849 267.516C307.211 277.517 335.829 292.823 343.408 274.039C358.005 276.708 380.694 277.289 391.467 267.516C397.368 262.163 399.694 253.702 395.154 240.775C393.925 239.47 390.892 238.427 388.594 244.689C386.297 250.95 360.428 251.211 347.781 250.559C347.781 255.255 326.889 254.255 316.442 253.168C310.612 252.298 298.951 248.602 298.951 240.775C298.951 230.991 282.917 245.993 272.714 244.689C262.51 243.384 253.765 264.908 243.561 259.038C235.399 254.341 208.578 264.908 196.189 270.778C185.985 273.387 161.934 277.039 147.358 270.778C129.138 262.952 104.358 264.908 107.274 278.605C109.606 289.562 85.4093 290.997 73.0196 290.345C67.1891 266.161 60.8727 280.268 58.4433 290.345C29.874 285.65 28.0762 302.613 30.7486 311.682C41.7656 315.489 56.7423 318.706 76.6636 321Z" fill="#D6D3C2"/>
<path d="M616.712 274.039C635.175 266.212 664.376 247.819 633.475 236.861C630.272 228.262 616.145 213.615 584.265 215.511C607.283 217.215 607.227 242.504 604.322 254.935C616.016 255.531 617.785 266.68 616.712 274.039Z" fill="#D6D3C2"/>
<path d="M470.221 282.518C463.662 292.302 460.601 310.303 500.831 304.042C509.577 309.042 529.546 316.043 539.458 304.042C550.876 307.086 575.316 309.26 581.729 293.606C597.763 295.128 627.207 293.345 616.712 274.039C617.785 266.68 616.016 255.531 604.322 254.935C600.124 254.721 594.645 255.867 587.56 259.038C583.575 253.002 577.011 245.537 569.225 240.775C568.969 240.618 568.712 240.465 568.454 240.315C559.407 236.332 536.459 270.684 533.628 267.516C530.713 264.255 505.204 278.605 505.204 282.518C505.204 285.649 481.882 283.822 470.221 282.518Z" fill="#D6D3C2"/>
<path d="M476.052 181.422C466.58 179.377 447.492 181.29 434.409 200.336C453.635 203.38 488.879 203.859 476.052 181.422Z" fill="#D6D3C2"/>
<path d="M543.102 204.902C522.696 217.294 516.136 209.468 512.492 204.902C508.848 200.336 478.238 219.251 482.611 223.817C510.063 228.247 562.197 229.974 551.119 201.438C548.648 202.048 545.974 203.158 543.102 204.902Z" fill="#D6D3C2"/>
<path d="M391.467 267.516C380.694 277.289 358.005 276.708 343.408 274.039C335.829 292.823 307.211 277.517 293.849 267.516C296.181 282.127 276.844 280.996 266.883 278.605C237.731 327.653 169.708 310.782 139.341 296.215C130.013 311.869 93.6692 319.261 76.6636 321C56.7423 318.706 41.7656 315.489 30.7486 311.682M391.467 267.516C397.368 262.163 399.694 253.702 395.154 240.775C393.925 239.47 390.892 238.427 388.594 244.689C386.297 250.95 360.428 251.211 347.781 250.559C347.781 255.255 326.889 254.255 316.442 253.168C310.612 252.298 298.951 248.602 298.951 240.775C298.951 230.991 282.917 245.993 272.714 244.689C262.51 243.384 253.765 264.908 243.561 259.038C235.399 254.341 208.578 264.908 196.189 270.778C185.985 273.387 161.934 277.039 147.358 270.778C129.138 262.952 104.358 264.908 107.274 278.605C109.606 289.562 85.4093 290.997 73.0196 290.345C67.1891 266.161 60.8727 280.268 58.4433 290.345C29.874 285.65 28.0762 302.613 30.7486 311.682M391.467 267.516C403.141 271.593 423.967 276.154 430.056 267.516M431.594 259.038C432.107 262.715 431.49 265.482 430.056 267.516M430.056 267.516C439.557 273.821 460.892 285.649 470.221 282.518M470.221 282.518C463.662 292.302 460.601 310.303 500.831 304.042C509.577 309.042 529.546 316.043 539.458 304.042C550.876 307.086 575.316 309.26 581.729 293.606C597.763 295.128 627.207 293.345 616.712 274.039M470.221 282.518C468.472 274.169 485.526 271.213 494.272 270.778C491.357 234.253 519.294 239.906 533.628 247.298C545.17 233.132 557.877 234.156 568.454 240.315M470.221 282.518C481.882 283.822 505.204 285.649 505.204 282.518C505.204 278.605 530.713 264.255 533.628 267.516C536.459 270.684 559.407 236.332 568.454 240.315M616.712 274.039C635.175 266.212 664.376 247.819 633.475 236.861C630.272 228.262 616.145 213.615 584.265 215.511M616.712 274.039C617.785 266.68 616.016 255.531 604.322 254.935M533.628 159.245C551.119 156.636 552.577 168.159 551.119 174.246C576.4 180.129 576.469 199.516 572.239 212.077M533.628 159.245C525.881 142.069 502.353 114.371 470.221 140.982C463.989 136.831 451.386 131.576 438.882 134.781M533.628 159.245C519.635 141.504 489.413 166.637 476.052 181.422M422.849 144.896C427.795 139.297 433.329 136.205 438.882 134.781M438.882 134.781C435.967 128.152 425.472 115.545 406.815 118.154C412.791 105.675 415.925 83.1398 391.467 76.0049M196.189 264.908C194.002 258.603 192.982 246.906 206.392 250.559C205.663 244.254 207.995 231.774 223.155 232.296C232.872 222.078 256.826 206.989 274.9 228.383C276.601 226.209 282.771 222.252 293.849 223.817C296.764 215.773 305.364 203.206 316.442 217.294C316.442 212.946 320.378 203.467 336.12 200.336C328.832 190.335 320.961 169.681 347.781 167.072C346.809 162.507 346.615 153.375 353.612 153.375C358.227 139.026 372.998 118.937 395.154 153.375C409.487 158.811 434.655 173.203 420.662 187.292C403.171 204.902 388.594 193.162 388.594 184.683M355.798 65.3231C343.408 65.758 321.544 71.0628 333.205 88.8037C323.487 80.9769 301.137 71.4542 289.476 95.9783C281.216 100.761 268.341 113.067 282.917 124.025C274.414 121.412 255.951 119.906 250.12 134.781C233.844 140.544 207.849 156.897 234.087 176.204C227.77 177.291 216.741 181.291 223.155 188.596M198.375 142.287C240.354 133.417 196.189 95.9783 196.189 95.9783C210.279 100.109 237.585 103.414 234.087 83.5858C242.104 85.9774 259.012 89.3255 262.51 83.5858M30.7486 311.682C-13.3722 296.437 6.01293 271.737 25.6469 259.038C26.0923 256.084 26.5848 253.259 27.1214 250.559M406.815 217.294C412.534 216.783 419.645 216.403 426.493 216.454C428.682 210.057 431.385 204.739 434.409 200.336M476.052 181.422C466.58 179.377 447.492 181.29 434.409 200.336M476.052 181.422C488.879 203.859 453.635 203.38 434.409 200.336M587.56 259.038C583.575 253.002 577.011 245.537 569.225 240.775M587.56 259.038L581.729 274.039C588.046 280.344 602.282 287.346 608.695 264.908M587.56 259.038C594.645 255.867 600.124 254.721 604.322 254.935M569.225 240.775C568.969 240.618 568.712 240.465 568.454 240.315M569.225 240.775C568.981 240.586 568.724 240.433 568.454 240.315M604.322 254.935C607.227 242.504 607.283 217.215 584.265 215.511M584.265 215.511C579.875 215.772 575.149 216.347 570.068 217.294C570.843 215.764 571.591 214 572.239 212.077M572.239 212.077C569.841 206.702 562.695 198.581 551.119 201.438M353.612 194.466C362.114 194.901 377.517 192.901 371.103 181.422M253.036 181.422C262.996 180.335 280.876 175.291 272.714 163.811M293.849 156.637C301.866 157.071 316.296 154.548 309.883 140.982M325.188 101.848C327.131 111.415 327.52 129.764 313.527 126.634M266.883 51.6261C270.498 37.0595 281.599 8.96975 297.085 13.1441M297.085 13.1441C301.236 17.0986 303.363 22.7247 304.052 26.8408C333.788 22.1447 333.934 43.5819 330.29 54.8875C344.283 42.3646 363.329 62.2793 371.103 73.8021C379.396 73.6142 386.096 74.4383 391.467 76.0049M297.085 13.1441C292.466 8.7437 285.341 6.41298 274.9 10.5352C257.894 3.79541 224.466 -3.55324 226.799 20.9709C220.968 19.6665 209.744 19.9274 211.494 31.4068C196.431 33.1461 168.202 43.147 175.782 69.2366C168.251 75.759 154.938 90.7604 161.934 98.5873C144.686 110.545 122.433 139.416 171.409 159.245C170.68 165.55 171.409 177.769 180.155 176.204C168.008 183.161 147.358 197.728 161.934 200.336C150.273 193.596 124.474 187.552 114.562 217.294C91.1117 196.518 42.0381 175.498 27.1214 250.559M353.612 108.371C369.617 115.927 399.595 120.032 391.467 76.0049M135.697 240.775C138.37 229.904 147.358 209.077 161.934 212.729M27.1214 250.559C46.5507 259.255 84.5348 269.473 81.0365 240.775M551.119 201.438C548.648 202.048 545.974 203.158 543.102 204.902C522.696 217.294 516.136 209.468 512.492 204.902C508.848 200.336 478.238 219.251 482.611 223.817C510.063 228.247 562.197 229.974 551.119 201.438Z" stroke="#F4F1E1" stroke-width="7" stroke-linecap="round"/>
</svg>
