<svg width="1013" height="542" viewBox="0 0 1013 542" fill="none" xmlns="http://www.w3.org/2000/svg">
<path d="M892.829 538C865.641 535.07 807.537 522.618 792.622 496.249C744.073 520.787 635.322 549.207 588.714 466.583C572.79 470.612 541.873 472.516 545.602 447.905C524.24 464.752 478.487 490.535 466.369 458.892C443.032 463.388 406.758 464.367 389.535 447.905C380.1 438.886 376.383 424.634 383.641 402.857C385.606 400.66 390.454 398.903 394.127 409.45C397.801 419.998 439.158 420.438 459.378 419.339C459.378 427.25 492.78 425.565 509.481 423.734C518.803 422.269 537.446 416.043 537.446 402.857C537.446 386.375 563.08 411.648 579.393 409.45C595.705 407.253 609.687 443.511 626 433.622C639.05 425.71 681.929 443.51 701.737 453.399C718.05 457.794 756.501 463.946 779.805 453.399C808.935 440.216 848.551 443.511 843.891 466.583C840.162 485.041 878.846 487.459 898.655 486.361C907.976 445.621 918.074 469.386 921.958 486.361C967.634 478.451 970.508 507.027 966.236 522.304C948.622 528.717 924.678 534.136 892.829 538Z" fill="#D6D3C2"/>
<path d="M29.4229 458.892C-0.0952759 445.707 -46.7805 414.723 2.62354 396.265C7.74438 381.778 30.3295 357.106 81.2986 360.3C44.4984 363.17 44.5868 405.769 49.2311 426.71C30.5355 427.715 27.7082 446.496 29.4229 458.892Z" fill="#D6D3C2"/>
<path d="M263.626 473.175C274.113 489.656 279.007 519.981 214.688 509.433C200.706 517.857 168.78 529.65 152.933 509.433C134.678 514.561 95.6057 518.223 85.352 491.854C59.7178 494.417 12.6442 491.414 29.4229 458.892C27.7082 446.496 30.5355 427.715 49.2311 426.71C55.9437 426.35 64.7021 428.281 76.0305 433.622C82.4014 423.455 92.895 410.879 105.344 402.857C105.752 402.594 106.163 402.335 106.576 402.082C121.04 395.373 157.729 453.24 162.255 447.905C166.915 442.41 207.697 466.583 207.697 473.175C207.697 478.449 244.983 475.373 263.626 473.175Z" fill="#D6D3C2"/>
<path d="M254.305 302.874C269.447 299.43 299.964 302.653 320.88 334.737C290.144 339.865 233.797 340.67 254.305 302.874Z" fill="#D6D3C2"/>
<path d="M147.107 342.428C179.732 363.303 190.219 350.119 196.045 342.428C201.871 334.737 250.809 366.6 243.818 374.291C199.929 381.754 116.579 384.663 134.29 336.592C138.241 337.62 142.515 339.49 147.107 342.428Z" fill="#D6D3C2"/>
<path d="M389.535 447.905C406.758 464.367 443.032 463.388 466.369 458.892C478.487 490.535 524.24 464.752 545.602 447.905C541.873 472.516 572.79 470.612 588.714 466.583C635.322 549.207 744.073 520.787 792.622 496.249C807.537 522.618 865.641 535.07 892.829 538C924.678 534.136 948.622 528.717 966.236 522.304M389.535 447.905C380.1 438.886 376.383 424.634 383.641 402.857C385.606 400.66 390.454 398.903 394.127 409.45C397.801 419.998 439.158 420.438 459.378 419.339C459.378 427.25 492.78 425.565 509.481 423.734C518.803 422.269 537.446 416.043 537.446 402.857C537.446 386.375 563.08 411.648 579.393 409.45C595.705 407.253 609.687 443.511 626 433.622C639.05 425.71 681.929 443.51 701.737 453.399C718.05 457.794 756.501 463.946 779.805 453.399C808.935 440.216 848.551 443.511 843.891 466.583C840.162 485.041 878.846 487.459 898.655 486.361C907.976 445.621 918.074 469.386 921.958 486.361C967.634 478.451 970.508 507.027 966.236 522.304M389.535 447.905C370.871 454.773 337.576 462.455 327.84 447.905M325.381 433.622C324.561 439.817 325.547 444.478 327.84 447.905M327.84 447.905C312.65 458.526 278.541 478.449 263.626 473.175M263.626 473.175C274.113 489.656 279.007 519.981 214.688 509.433C200.706 517.857 168.78 529.65 152.933 509.433C134.678 514.561 95.6056 518.223 85.352 491.854C59.7178 494.417 12.6441 491.414 29.4229 458.892M263.626 473.175C266.423 459.111 239.157 454.131 225.175 453.399C229.836 391.871 185.17 401.393 162.255 413.845C143.802 389.983 123.485 391.707 106.576 402.082M263.626 473.175C244.983 475.373 207.697 478.449 207.697 473.175C207.697 466.583 166.915 442.41 162.255 447.905C157.729 453.24 121.04 395.373 106.576 402.082M29.4229 458.892C-0.0952724 445.707 -46.7805 414.723 2.62355 396.265C7.74441 381.778 30.3295 357.106 81.2986 360.3M29.4229 458.892C27.7082 446.496 30.5355 427.715 49.2311 426.71M162.255 265.517C134.29 261.122 131.96 280.533 134.29 290.787C93.8722 300.696 93.762 333.356 100.525 354.514M162.255 265.517C174.64 236.584 212.255 189.925 263.626 234.752C273.589 227.76 293.739 218.908 313.729 224.307M162.255 265.517C184.626 235.631 232.943 277.969 254.305 302.874M339.363 241.345C331.454 231.913 322.608 226.704 313.729 224.307M313.729 224.307C318.39 213.139 335.169 191.903 364.998 196.298C355.444 175.276 350.433 137.314 389.535 125.295M701.737 443.511C705.233 432.89 706.864 413.186 685.425 419.339C686.59 408.718 682.861 387.696 658.625 388.575C643.09 371.361 604.794 345.944 575.897 381.982C573.178 378.32 563.313 371.654 545.602 374.291C540.941 360.74 527.192 339.57 509.481 363.303C509.481 355.979 503.189 340.011 478.021 334.737C489.673 317.89 502.257 283.097 459.378 278.702C460.932 271.011 461.242 255.629 450.056 255.629C442.677 231.457 419.062 197.617 383.641 255.629C360.725 264.785 320.487 289.03 342.859 312.763C370.824 342.428 394.127 322.651 394.127 308.368M446.561 107.301C466.369 108.034 501.325 116.97 482.682 146.855C498.218 133.671 533.95 117.629 552.593 158.941C565.799 166.999 586.384 187.728 563.08 206.187C576.674 201.786 606.192 199.248 615.513 224.307C641.536 234.015 683.094 261.562 641.148 294.084C651.246 295.916 668.879 302.654 658.625 314.96M698.242 236.951C631.127 222.008 701.737 158.941 701.737 158.941C679.21 165.9 635.555 171.467 641.148 138.066C628.331 142.094 601.298 147.734 595.705 138.066M966.236 522.304C1036.77 496.623 1005.78 455.015 974.392 433.622C973.68 428.646 972.892 423.888 972.034 419.339M364.998 363.303C355.854 362.441 344.485 361.801 333.537 361.887C330.037 351.112 325.715 342.154 320.88 334.737M254.305 302.874C269.447 299.43 299.964 302.653 320.88 334.737M254.305 302.874C233.797 340.67 290.144 339.865 320.88 334.737M76.0305 433.622C82.4015 423.455 92.895 410.879 105.344 402.857M76.0305 433.622L85.352 458.892C75.2537 469.514 52.4936 481.308 42.24 443.511M76.0305 433.622C64.7021 428.281 55.9438 426.35 49.2311 426.71M105.344 402.857C105.752 402.594 106.163 402.335 106.576 402.082M105.344 402.857C105.734 402.539 106.145 402.282 106.576 402.082M49.2311 426.71C44.5868 405.769 44.4984 363.17 81.2986 360.3M81.2986 360.3C88.3164 360.739 95.8724 361.707 103.995 363.303C102.757 360.725 101.56 357.755 100.525 354.514M100.525 354.514C104.358 345.46 115.783 331.78 134.29 336.592M450.056 324.849C436.463 325.581 411.838 322.212 422.092 302.874M610.853 302.874C594.928 301.043 566.342 292.546 579.393 273.209M545.602 261.123C532.785 261.855 509.714 257.605 519.968 234.752M495.499 168.83C492.392 184.945 491.77 215.855 514.142 210.581M588.714 84.2283C582.935 59.6901 565.187 12.3718 540.429 19.4036M540.429 19.4036C533.793 26.0652 530.392 35.5425 529.289 42.4763C481.75 34.5655 481.517 70.6774 487.343 89.7222C464.971 68.6267 434.521 102.174 422.092 121.585C408.834 121.268 398.121 122.656 389.535 125.295M540.429 19.4036C547.813 11.991 559.205 8.06477 575.897 15.0089C603.085 3.65535 656.528 -8.72375 652.8 32.5882C662.121 30.3908 680.065 30.8303 677.268 50.1678C701.349 53.0978 746.481 69.9449 734.363 113.894C746.403 124.881 767.687 150.152 756.501 163.336C784.078 183.479 819.655 232.115 741.354 265.517C742.519 276.138 741.354 296.721 727.372 294.084C746.791 305.804 779.805 330.342 756.501 334.737C775.144 323.383 816.392 313.201 832.239 363.303C869.73 328.305 948.186 292.896 972.034 419.339M450.056 179.817C424.468 192.546 376.54 199.461 389.535 125.295M798.448 402.857C794.176 384.546 779.805 349.461 756.501 355.613M972.034 419.339C940.972 433.988 880.245 451.2 885.837 402.857M134.29 336.592C138.241 337.62 142.515 339.49 147.107 342.428C179.732 363.303 190.219 350.119 196.045 342.428C201.871 334.737 250.809 366.6 243.818 374.291C199.929 381.754 116.579 384.663 134.29 336.592Z" stroke="#F4F1E1" stroke-width="7" stroke-linecap="round"/>
</svg>
