<svg width="704" height="397" viewBox="0 0 704 397" fill="none" xmlns="http://www.w3.org/2000/svg">
<path d="M91.4676 393C111.938 390.866 155.685 381.795 166.915 362.586C203.469 380.461 285.349 401.164 320.441 340.975C332.431 343.91 355.708 345.297 352.901 327.369C368.985 339.641 403.433 358.424 412.557 335.373C430.127 338.648 457.439 339.361 470.406 327.369C477.51 320.799 480.309 310.417 474.845 294.553C473.365 292.953 469.715 291.673 466.949 299.356C464.183 307.04 433.044 307.36 417.82 306.56C417.82 312.322 392.671 311.095 380.097 309.761C373.079 308.694 359.042 304.158 359.042 294.553C359.042 282.547 339.741 300.957 327.459 299.356C315.177 297.755 304.65 324.168 292.368 316.964C282.542 311.201 250.258 324.168 235.344 331.371C223.061 334.573 194.111 339.055 176.565 331.371C154.633 321.768 124.805 324.168 128.314 340.975C131.121 354.421 101.995 356.183 87.0811 355.383C80.0627 325.705 72.4595 343.017 69.5352 355.383C35.1454 349.621 32.9814 370.437 36.1981 381.566C49.4597 386.237 67.4877 390.185 91.4676 393Z" fill="#D6D3C2"/>
<path d="M741.542 335.373C763.766 325.768 798.916 303.197 761.719 289.751C757.864 279.198 740.859 261.225 702.483 263.552C730.191 265.643 730.124 296.675 726.628 311.93C740.704 312.661 742.833 326.343 741.542 335.373Z" fill="#D6D3C2"/>
<path d="M565.206 345.778C557.31 357.783 553.625 379.874 602.052 372.19C612.579 378.326 636.617 386.917 648.548 372.19C662.293 375.925 691.711 378.593 699.431 359.384C718.732 361.252 754.175 359.064 741.542 335.373C742.833 326.343 740.704 312.661 726.628 311.93C721.573 311.667 714.979 313.073 706.45 316.964C701.653 309.558 693.752 300.397 684.379 294.553C684.072 294.361 683.762 294.173 683.452 293.989C672.562 289.101 644.938 331.256 641.53 327.369C638.021 323.366 607.316 340.975 607.316 345.778C607.316 349.619 579.242 347.378 565.206 345.778Z" fill="#D6D3C2"/>
<path d="M572.224 221.719C560.823 219.21 537.846 221.558 522.098 244.93C545.24 248.665 587.664 249.252 572.224 221.719Z" fill="#D6D3C2"/>
<path d="M652.935 250.533C628.371 265.74 620.475 256.136 616.089 250.533C611.702 244.93 574.856 268.141 580.12 273.744C613.164 279.18 675.92 281.299 662.585 246.282C659.61 247.03 656.392 248.393 652.935 250.533Z" fill="#D6D3C2"/>
<path d="M470.406 327.369C457.439 339.361 430.127 338.648 412.557 335.373C403.433 358.424 368.985 339.641 352.901 327.369C355.708 345.297 332.431 343.91 320.441 340.975C285.349 401.164 203.469 380.461 166.915 362.586C155.685 381.795 111.938 390.866 91.4676 393C67.4877 390.185 49.4597 386.237 36.1981 381.566M470.406 327.369C477.51 320.799 480.309 310.417 474.845 294.553C473.365 292.953 469.715 291.673 466.949 299.356C464.183 307.04 433.044 307.36 417.82 306.56C417.82 312.322 392.671 311.095 380.097 309.761C373.079 308.694 359.042 304.158 359.042 294.553C359.042 282.547 339.741 300.957 327.459 299.356C315.177 297.755 304.65 324.168 292.368 316.964C282.542 311.201 250.258 324.168 235.344 331.371C223.061 334.573 194.111 339.055 176.565 331.371C154.633 321.768 124.805 324.168 128.314 340.975C131.121 354.421 101.995 356.183 87.0811 355.383C80.0627 325.705 72.4595 343.017 69.5352 355.383C35.1454 349.621 32.9814 370.437 36.1981 381.566M470.406 327.369C484.459 332.372 509.527 337.968 516.857 327.369M518.709 316.964C519.327 321.477 518.584 324.872 516.857 327.369M516.857 327.369C528.295 335.106 553.976 349.619 565.206 345.778M565.206 345.778C557.31 357.783 553.625 379.874 602.052 372.19C612.579 378.326 636.617 386.917 648.548 372.19C662.293 375.925 691.711 378.593 699.431 359.384C718.732 361.252 754.175 359.064 741.542 335.373M565.206 345.778C563.1 335.532 583.629 331.905 594.156 331.371C590.647 286.55 624.277 293.487 641.53 302.558C655.424 285.175 670.72 286.431 683.452 293.989M565.206 345.778C579.242 347.378 607.316 349.619 607.316 345.778C607.316 340.975 638.021 323.366 641.53 327.369C644.938 331.256 672.562 289.101 683.452 293.989M741.542 335.373C763.766 325.768 798.916 303.197 761.719 289.751C757.864 279.198 740.859 261.225 702.483 263.552M741.542 335.373C742.833 326.343 740.704 312.661 726.628 311.93M641.53 194.506C662.585 191.304 664.34 205.444 662.585 212.914C693.016 220.133 693.099 243.924 688.008 259.337M641.53 194.506C632.205 173.429 603.884 139.439 565.206 172.095C557.704 167.001 542.533 160.553 527.482 164.485M641.53 194.506C624.686 172.735 588.308 203.577 572.224 221.719M508.182 176.898C514.136 170.027 520.797 166.232 527.482 164.485M527.482 164.485C523.973 156.35 511.34 140.88 488.881 144.082C496.075 128.769 499.847 101.115 470.406 92.3594M235.344 324.168C232.712 316.431 231.483 302.077 247.626 306.56C246.748 298.823 249.556 283.509 267.803 284.149C279.501 271.61 308.334 253.094 330.091 279.347C332.138 276.679 339.566 271.823 352.901 273.744C356.41 263.872 366.762 248.451 380.097 265.74C380.097 260.404 384.834 248.772 403.784 244.93C395.011 232.658 385.536 207.312 417.82 204.111C416.651 198.508 416.417 187.303 424.839 187.303C430.395 169.694 448.175 145.043 474.845 187.303C492.098 193.973 522.394 211.634 505.55 228.923C484.495 250.533 466.949 236.126 466.949 225.721M427.471 79.2514C412.557 79.785 386.238 86.2948 400.275 108.065C388.577 98.4606 361.674 86.775 347.637 116.869C337.694 122.739 322.196 137.839 339.741 151.286C329.506 148.08 307.282 146.232 300.263 164.485C280.67 171.558 249.38 191.625 280.963 215.316C273.36 216.65 260.083 221.559 267.803 230.523M237.975 173.696C288.508 162.811 235.344 116.869 235.344 116.869C252.305 121.938 285.174 125.994 280.963 101.662C290.613 104.597 310.966 108.705 315.177 101.662M36.1981 381.566C-16.9114 362.858 6.42303 332.548 30.0571 316.964C30.5933 313.34 31.186 309.873 31.832 306.56M488.881 265.74C495.765 265.112 504.325 264.645 512.568 264.708C515.204 256.859 518.458 250.333 522.098 244.93M572.224 221.719C560.823 219.21 537.846 221.558 522.098 244.93M572.224 221.719C587.664 249.252 545.24 248.665 522.098 244.93M706.45 316.964C701.653 309.558 693.752 300.397 684.379 294.553M706.45 316.964L699.431 335.373C707.035 343.11 724.171 351.702 731.891 324.168M706.45 316.964C714.979 313.073 721.573 311.667 726.628 311.93M684.379 294.553C684.072 294.361 683.762 294.173 683.452 293.989M684.379 294.553C684.086 294.322 683.776 294.134 683.452 293.989M726.628 311.93C730.124 296.675 730.191 265.643 702.483 263.552M702.483 263.552C697.199 263.872 691.51 264.577 685.395 265.739C686.327 263.862 687.228 261.698 688.008 259.337M688.008 259.337C685.121 252.742 676.52 242.776 662.585 246.282M424.839 237.727C435.074 238.26 453.614 235.806 445.894 221.719M303.772 221.719C315.762 220.385 337.285 214.196 327.459 200.109M352.901 191.305C362.551 191.838 379.921 188.742 372.201 172.095M390.624 124.073C392.964 135.812 393.432 158.329 376.588 154.487M320.441 62.4434C324.792 44.5683 338.155 10.0985 356.796 15.221M356.796 15.221C361.792 20.0737 364.352 26.9776 365.183 32.0286C400.976 26.2659 401.152 52.5721 396.765 66.4456C413.609 51.0783 436.536 75.5163 445.894 89.6562C455.876 89.4256 463.942 90.4369 470.406 92.3594M356.796 15.221C351.236 9.82113 342.659 6.96104 330.091 12.0196C309.621 3.74894 269.383 -5.2688 272.19 24.8255C265.172 23.2248 251.661 23.5449 253.767 37.6316C235.636 39.766 201.656 52.0385 210.779 84.0537C201.714 92.0575 185.689 110.466 194.111 120.071C173.348 134.744 146.562 170.173 205.516 194.506C204.638 202.243 205.516 217.237 216.043 215.316C201.422 223.854 176.565 241.729 194.111 244.93C180.074 236.659 149.018 229.242 137.087 265.74C108.859 240.244 49.7877 214.451 31.832 306.56M424.839 132.077C444.105 141.349 480.191 146.386 470.406 92.3594M162.528 294.553C165.745 281.214 176.565 255.656 194.111 260.138M31.832 306.56C55.2197 317.231 100.942 329.769 96.7313 294.553M662.585 246.282C659.61 247.03 656.392 248.393 652.935 250.533C628.371 265.74 620.475 256.136 616.089 250.533C611.702 244.93 574.856 268.141 580.12 273.744C613.164 279.18 675.92 281.299 662.585 246.282Z" stroke="#F4F1E1" stroke-width="7" stroke-linecap="round"/>
</svg>
