<svg width="557" height="771" viewBox="0 0 557 771" fill="none" xmlns="http://www.w3.org/2000/svg">
<path d="M188.878 564.845C196.732 562.162 208.308 551.724 191.779 531.44M145.016 564.159C153.573 570.177 170.311 579.527 168.808 568.783C166.929 555.353 156.93 549.054 145.016 564.159Z" stroke="#F4F1E1" stroke-width="7" stroke-linecap="round"/>
<path d="M152.21 536.382C146.509 523.37 131.769 507.585 118.422 548.541C101.737 599.734 103.465 576.989 92.299 574.383" stroke="#F4F1E1" stroke-width="7" stroke-linecap="round"/>
<path d="M74.5205 559.604C83.0553 561.117 99.5073 559.931 97.0369 543.076" stroke="#F4F1E1" stroke-width="7" stroke-linecap="round"/>
<path d="M79.2501 588.396C89.6497 573.694 69.0645 570.738 57.472 571.098C54.2838 594.43 55.4523 641.081 85.6315 641.024C92.1273 653.029 107.885 674.353 118.951 663.614C124.959 668.12 137.825 675.992 141.226 671.427C145.478 665.721 145.945 684.102 197.385 652.729C203.525 653.474 215.322 650.524 213.388 632.758C225.423 623.606 245.809 601.333 234.596 583.246C237.919 593.997 196.524 623.143 185.057 623.767C172.806 624.435 188.515 601.358 183.356 595.565C178.196 589.772 166.112 612.682 165.371 623.425C164.629 634.168 125.82 637.512 128.82 612.837C131.821 588.161 98.1953 599.481 98.9076 616.604C99.62 633.727 66.2508 606.773 79.2501 588.396Z" fill="#D6D3C2"/>
<path d="M234.596 583.246C245.809 601.333 225.423 623.606 213.388 632.758C215.322 650.524 203.525 653.474 197.385 652.729C145.945 684.102 145.478 665.721 141.226 671.427C137.825 675.992 124.959 668.12 118.951 663.614C107.885 674.353 92.1273 653.029 85.6315 641.024C55.4523 641.081 54.2838 594.43 57.472 571.098C69.0645 570.738 89.6497 573.694 79.2501 588.396C66.2508 606.773 99.62 633.727 98.9076 616.604C98.1953 599.481 131.821 588.161 128.82 612.837C125.82 637.512 164.629 634.168 165.371 623.425C166.112 612.682 178.196 589.772 183.356 595.565C188.515 601.358 172.806 624.435 185.057 623.767C196.524 623.143 237.919 593.997 234.596 583.246ZM234.596 583.246C234.193 582.596 233.75 581.951 233.263 581.313C233.933 581.861 234.369 582.51 234.596 583.246Z" stroke="#F4F1E1" stroke-width="7" stroke-linecap="round"/>
<path d="M122.356 431.287C146.039 428.777 196.893 413.199 210.847 370.968C215.078 376.145 227.955 379.955 245.614 353.773C259.274 350.477 286.587 340.224 286.559 325.585C286.53 310.947 290.625 298.504 292.676 294.112C299.244 297.276 312.615 301.472 313.554 292.944C320.108 292.331 337.813 285.466 356.203 262.91C374.594 240.355 384.333 231.361 386.904 229.683L368.489 280.541L353.036 318.473C354.142 327.279 357.786 341.97 364.071 337.702C367.576 333.346 369.34 331.544 366.35 335.433C365.555 336.466 364.796 337.21 364.071 337.702C356.308 347.352 340.008 369.536 347.925 370.175C331.615 390.957 303.749 433.01 322.763 434.963C325.419 445.932 333.387 464.377 344.002 450.414C357.271 432.961 297.064 520.987 312.581 526.616C312.87 534.366 315.906 548.775 325.732 544.414C338.015 538.962 303.772 571.937 303.283 574.455L371.353 517.57C315.113 551.931 353.017 484.103 378.999 445.894C349.137 473.884 366.652 435.51 379.142 412.824C351.342 433.899 375.141 359.497 390.515 319.661C364.837 308.573 519.191 103.407 502.908 106.339C489.882 108.685 457.954 133.603 443.618 145.768C441.64 123.609 380.316 219.693 366.399 210.455C355.265 203.065 346.439 221.528 343.418 231.683C323.58 272.77 309.161 260.88 304.431 249.799C305.339 261.299 250.544 293.762 237.967 296.108C227.905 297.985 187.827 360.832 169.045 392.021C139.222 423.503 149.603 390.42 158.521 369.943C150.04 371.082 122.034 402.917 109.091 418.692C107.214 420.65 104.016 426.328 106.237 433.379C108.458 440.431 117.908 434.922 122.356 431.287Z" fill="#D6D3C2"/>
<path d="M364.071 337.702C357.786 341.97 354.142 327.279 353.036 318.473L368.489 280.541L386.904 229.683C384.333 231.361 374.594 240.355 356.203 262.91C337.813 285.466 320.108 292.331 313.554 292.944C312.615 301.472 299.244 297.276 292.676 294.112C290.625 298.504 286.53 310.947 286.559 325.585C286.587 340.224 259.274 350.477 245.614 353.773C227.955 379.955 215.078 376.145 210.847 370.968C196.893 413.199 146.039 428.777 122.356 431.287C117.908 434.922 108.458 440.431 106.237 433.379C104.016 426.328 107.214 420.65 109.091 418.692C122.034 402.917 150.04 371.082 158.521 369.943C149.603 390.42 139.222 423.503 169.045 392.021C187.827 360.832 227.905 297.985 237.967 296.108C250.544 293.762 305.339 261.299 304.431 249.799C309.161 260.88 323.58 272.77 343.418 231.683C346.439 221.528 355.265 203.065 366.399 210.455C380.316 219.693 441.64 123.609 443.618 145.768C457.954 133.603 489.882 108.685 502.908 106.339C519.191 103.407 364.837 308.573 390.515 319.661C375.141 359.497 351.342 433.899 379.142 412.824C366.652 435.51 349.137 473.884 378.999 445.894C353.017 484.103 315.113 551.931 371.353 517.57L303.283 574.455C303.772 571.937 338.015 538.962 325.732 544.414C315.906 548.775 312.87 534.366 312.581 526.616C297.064 520.987 357.271 432.961 344.002 450.414C333.387 464.377 325.419 445.932 322.763 434.963C303.749 433.01 331.615 390.957 347.925 370.175C340.008 369.536 356.308 347.352 364.071 337.702ZM364.071 337.702C367.576 333.346 369.34 331.544 366.35 335.433C365.555 336.466 364.796 337.21 364.071 337.702Z" stroke="#F4F1E1" stroke-width="7" stroke-linecap="round"/>
<path d="M69.9658 492.96C-19.5432 570.064 -18.4737 805.7 278.443 667.612C281.95 649.567 302.493 627.953 355.088 582.781C361.252 575.705 369.292 560.98 352.138 558.691C361.841 546.496 383.5 524.373 392.512 533.44C403.777 544.775 456.491 458.341 423.004 466.639C443.734 416.958 467.611 338.303 397.28 421.138C416.46 397.14 447.746 348.116 419.454 344.011C462.17 284.376 523.297 186.687 426.071 273.005C441.845 248.054 471.294 197.396 462.904 194.372C452.415 190.591 543.027 119.362 524.564 112.725C541.199 100.281 567.869 76.5475 541.471 81.1718C508.473 86.9521 495.807 96.684 498.183 100.63C500.559 104.575 438.531 123.44 443.258 129.149C427.123 137.481 395.23 155.437 396.739 160.608C397.23 148.074 392.388 127.1 369.093 143.476C372.282 127.838 369.197 105.522 331.344 141.365C318.31 149.139 291.648 165.441 289.265 168.462C286.286 172.238 264.511 178.022 268.358 197.496C258.587 206.194 240.574 224.496 246.692 228.124C235.59 251.37 218.613 294.523 239.525 281.168C245.225 278.792 250.458 278.503 225.799 296.355C194.975 318.671 218.307 297.948 214.552 294.169C210.797 290.391 207.382 271.001 188.302 286.019C169.222 301.037 138.308 330.739 139.053 343.077C127.143 353.537 110.197 376.053 137.687 382.442C108.368 413.18 56.469 490.336 69.9658 492.96ZM269.69 269.176C278.98 263.723 297.74 251.895 298.458 248.202C299.355 243.586 316.836 232.177 319.268 233.52C321.701 234.864 343.047 198.948 348.426 201.3C353.805 203.652 341.672 169.067 350.03 167.643L266.3 251.968C263.235 260.808 256.338 277.816 253.269 275.129L269.69 269.176ZM197.457 324.38L171.554 346.781C169.139 354.586 167.683 366.236 181.177 350.394C194.671 334.551 197.653 326.45 197.457 324.38Z" stroke="#F4F1E1" stroke-width="7" stroke-linecap="round"/>
<path d="M55.4974 572.021C48.0936 576.853 51.4675 546.56 54.0799 530.809C70.3697 520.91 104.767 500.073 112.041 495.912C121.132 490.711 134.117 486.267 139.308 487.276C144.499 488.285 124.104 493.902 164.831 492.237C205.559 490.572 226.641 553.026 231.204 559.574C235.767 566.122 228.92 571.324 238.611 588.45C246.363 602.15 227.279 624.426 216.767 633.851C215.261 643.139 211.196 660.204 206.984 654.159C201.719 646.603 171.433 670.766 162.749 673.869C154.066 676.971 149.339 671.262 138.492 673.945C129.815 676.09 119.613 668.678 115.597 664.704C100.966 671.615 88.2615 652.133 83.7385 641.528C48.6803 631.578 50.3035 591.044 55.4974 572.021Z" stroke="#F4F1E1" stroke-width="7" stroke-linecap="round"/>
</svg>
