<svg width="1440" height="1375" viewBox="0 0 1440 1375" fill="none" xmlns="http://www.w3.org/2000/svg">
<g clip-path="url(#clip0_376_206)">
<rect width="1440" height="1375" fill="#061E37"/>
<path d="M324.42 101.533L307.249 124.569L290.078 104.747L294.085 131.533H264.894L287.216 144.926L268.901 160.997L294.085 157.247L290.078 191.533L310.684 164.212L330.144 181.89L324.42 157.247H351.894L330.144 143.319L351.894 128.319H324.42V101.533Z" fill="#F4F1E1"/>
<path d="M1182.53 72L1165.36 95.0357L1148.18 75.2143L1152.19 102H1123L1145.32 115.393L1127.01 131.464L1152.19 127.714L1148.18 162L1168.79 134.679L1188.25 152.357L1182.53 127.714H1210L1188.25 113.786L1210 98.7857H1182.53V72Z" fill="#F4F1E1"/>
<path d="M1140.05 65.6699L1113.59 92.5352L1096.92 62.619L1095.74 98.9602L1059.7 92.747L1084.21 115.242L1057.92 132.637L1089.87 133.029L1077.09 177.601L1108.77 145.789L1128.76 173.353L1127.33 139.486L1161.25 145.333L1137.57 122.25L1167.85 107.006L1133.93 101.158L1140.05 65.6699Z" fill="#E9B418"/>
<path d="M383.799 101.533L362.192 132.503L340.585 105.855L345.626 141.867H308.894L336.983 159.872L313.936 181.48L345.626 176.438L340.585 222.533L366.513 185.801L391.001 209.569L383.799 176.438H418.37L391.001 157.712L418.37 137.545H383.799V101.533Z" fill="#E9B418"/>
<path d="M372.429 175.35L371.437 168.998C374.688 167.456 376.686 165.949 377.431 164.477C378.274 162.978 378.298 160.814 377.505 157.984L366.165 116.966C365.536 114.722 364.833 113.341 364.056 112.822C363.35 112.178 362.167 112.088 360.508 112.553C359.825 112.745 359.059 113.012 358.208 113.356C357.33 113.602 356.891 113.725 356.891 113.725L356.434 113.222L355.607 107.456C355.607 107.456 356.339 107.251 357.802 106.84C359.265 106.43 360.987 106 362.965 105.551C365.014 104.977 366.77 104.484 368.234 104.074C369.892 103.609 371.732 103.041 373.754 102.369C375.748 101.599 377.463 100.961 378.899 100.453C380.433 99.9177 381.2 99.6502 381.2 99.6502L382.443 105.774C379.528 107.012 377.817 108.228 377.31 109.422C376.9 110.589 377.063 112.859 377.797 116.231L381.414 131.949L398.871 127.213C401.7 126.42 404.223 125.66 406.44 124.934C408.629 124.11 411.195 123.127 414.137 121.987L409.484 104.823C408.855 102.579 408.152 101.198 407.375 100.679C406.669 100.035 405.486 99.9456 403.827 100.411C403.144 100.602 402.329 100.883 401.38 101.254C400.502 101.5 400.063 101.623 400.063 101.623L399.607 101.12L398.779 95.3538C398.779 95.3538 399.511 95.1487 400.975 94.7385C402.438 94.3282 404.11 93.9121 405.992 93.49C407.845 92.9704 409.406 92.5328 410.675 92.1773C412.431 91.685 414.417 91.0756 416.634 90.349C418.823 89.5248 420.685 88.8452 422.218 88.31C423.85 87.7475 424.665 87.4663 424.665 87.4663L425.908 93.5896C423.286 94.7456 421.645 95.837 420.986 96.8637C420.299 97.7928 420.132 99.2603 420.483 101.266C421.476 105.934 422.578 110.992 423.79 116.44C425.099 121.861 426.388 127.024 427.658 131.93C428.901 136.738 429.987 140.8 430.917 144.117C431.628 146.654 432.413 148.328 433.272 149.14C434.228 149.924 435.633 150.056 437.487 149.537C438.658 149.209 439.717 148.859 440.665 148.488C441.684 147.992 442.193 147.744 442.193 147.744L442.65 148.247L443.349 154.681C443.349 154.681 442.506 154.865 440.82 155.232C439.259 155.67 437.342 156.154 435.071 156.686C432.827 157.315 430.778 157.889 428.924 158.409C427.656 158.764 425.949 159.243 423.802 159.844C421.656 160.446 419.705 160.993 417.948 161.485C416.317 162.048 415.501 162.329 415.501 162.329L414.844 156.042C418.134 155.014 420.124 153.667 420.814 152C421.505 150.334 421.262 147.403 420.086 143.207L416.189 129.304C416.189 129.304 415.213 129.578 413.262 130.125C411.38 130.547 409.22 131.1 406.781 131.783C404.342 132.467 402.293 133.041 400.635 133.506C399.757 133.752 398.356 134.198 396.432 134.842C394.605 135.46 392.646 136.167 390.554 136.963C388.533 137.635 386.804 138.225 385.368 138.733C383.932 139.241 383.214 139.495 383.214 139.495L387.516 155.968C388.184 158.727 388.947 160.512 389.806 161.324C390.763 162.108 392.168 162.24 394.021 161.721C395.192 161.392 396.252 161.043 397.2 160.672C398.246 160.273 398.769 160.074 398.769 160.074L399.185 160.431L399.883 166.865C399.883 166.865 399.235 166.994 397.94 167.252C396.769 167.58 395.341 167.928 393.655 168.295C392.094 168.733 390.63 169.143 389.264 169.526C387.118 170.128 384.692 170.86 381.988 171.723C379.408 172.657 377.156 173.446 375.232 174.091C373.433 174.805 372.499 175.225 372.429 175.35Z" fill="#F4F1E1"/>
<path d="M503.812 143.624C499.843 144.442 496.512 144.094 493.82 142.58C491.207 140.946 489.293 138.185 488.078 134.297L487.452 134.271C485.561 137.144 483.708 139.698 481.893 141.935C480.157 144.051 478.548 145.78 477.065 147.12C475.661 148.34 474.463 149.053 473.471 149.258C469.799 150.015 466.361 149.896 463.155 148.901C459.95 147.907 457.218 146.194 454.958 143.763C452.797 141.312 451.348 138.3 450.612 134.727C450.019 131.849 450.192 129.175 451.131 126.706C452.169 124.215 453.808 122.378 456.047 121.192L482.734 107.621L481.533 101.04C480.51 96.0783 478.571 92.4433 475.715 90.1351C472.86 87.8269 469.348 87.1024 465.18 87.9617C462.402 88.5345 459.607 89.783 456.797 91.7073C453.986 93.6316 451.338 96.0915 448.852 99.087L448.015 98.7938L444.909 92.7612C447.183 90.7407 449.744 88.6092 452.592 86.3667C455.42 84.025 458.16 82.0117 460.813 80.3268C463.466 78.6419 465.537 77.646 467.025 77.3391C471.392 76.439 475.277 76.4658 478.681 77.4194C482.064 78.2738 484.846 79.9763 487.027 82.5269C489.287 84.9578 490.837 88.2077 491.675 92.2765C491.941 93.5666 492.222 95.6813 492.518 98.6206C492.912 101.539 493.28 104.826 493.619 108.481C493.938 112.036 494.286 115.482 494.664 118.818C495.14 122.134 495.604 124.883 496.054 127.066C496.504 129.25 497.397 130.824 498.735 131.79C500.072 132.756 501.683 133.044 503.569 132.656C505.256 132.308 506.861 131.563 508.384 130.422C509.887 129.181 511.003 128.071 511.733 127.093L514.308 129.045C513.78 130.499 512.995 132.213 511.954 134.186C510.991 136.04 509.809 137.835 508.408 139.572C507.107 141.289 505.575 142.64 503.812 143.624ZM473.915 138.614C475.8 138.225 477.851 137.13 480.066 135.328C482.36 133.407 484.334 131.189 485.988 128.676L483.602 113.339L464.616 123.615C461.922 125.102 460.913 127.482 461.588 130.757C462.16 133.536 463.594 135.723 465.889 137.32C468.262 138.796 470.938 139.227 473.915 138.614Z" fill="#F4F1E1"/>
<path d="M575.083 131.028C574.883 131.057 573.873 131.152 572.053 131.313C570.348 131.559 568.385 131.792 566.165 132.011C563.959 132.33 561.953 132.62 560.148 132.881C558.844 133.069 557.039 133.33 554.733 133.664C552.426 133.998 550.27 134.309 548.264 134.6C546.373 134.975 545.278 135.185 544.977 135.229L545.138 128.909C549.235 128.214 551.784 127.078 552.784 125.5C553.784 123.922 553.973 120.976 553.349 116.664L547.821 77.3819C547.488 75.0754 546.97 73.6147 546.266 72.9997C545.649 72.27 544.488 72.0284 542.783 72.2749C542.081 72.3764 541.236 72.5499 540.248 72.7952C539.345 72.9257 538.894 72.991 538.894 72.991L538.506 72.4328L538.41 66.4575C538.61 66.4285 539.462 66.3052 540.967 66.0876C542.471 65.8701 544.133 65.6809 545.952 65.5202C547.858 65.2446 549.462 65.0126 550.766 64.824C552.471 64.5775 554.369 64.2518 556.46 63.8469C558.537 63.3418 560.421 62.9158 562.111 62.569C563.802 62.2221 564.847 62.0197 565.248 61.9617L565.711 68.3448C562.961 69.152 561.143 70.0292 560.256 70.9765C559.354 71.8235 558.999 73.2571 559.188 75.2773C559.77 80.0051 560.302 85.0983 560.784 90.5571C561.367 96.0014 561.92 101.245 562.445 106.288C562.969 111.331 563.478 115.558 563.971 118.967C564.435 122.176 565.385 124.138 566.819 124.852C568.253 125.566 570.925 125.282 574.835 124L575.223 124.558L575.083 131.028ZM556.335 103.333C551.011 106.867 545.892 109.348 540.979 110.775C536.153 112.087 531.797 112.41 527.913 111.743C524.014 110.976 520.793 109.24 518.252 106.537C515.711 103.833 514.107 100.174 513.44 95.5612L511.439 81.7222C511.134 79.6163 510.68 78.2486 510.078 77.6191C509.56 76.8749 508.6 76.6043 507.196 76.8073C506.895 76.8508 506.451 76.9662 505.864 77.1535C505.262 77.2405 504.61 77.3348 503.908 77.4363L503.671 76.8564L503.511 71.5045L515.416 69.9363C516.82 69.7333 518.769 69.4003 521.261 68.9375C523.739 68.3743 526.318 67.7967 528.996 67.2046L529.372 72.9859C526.221 73.8512 524.316 74.8432 523.659 75.962C523.002 77.0809 522.87 79.3524 523.263 82.7765L524.352 91.3724C524.963 96.3008 526.703 99.8372 529.572 101.982C532.542 104.112 536.341 104.893 540.968 104.326L555.615 97.2938L556.335 103.333Z" fill="#F4F1E1"/>
<path d="M616.971 128.537C610.61 129.077 604.937 128.134 599.952 125.71C594.967 123.285 590.902 119.715 587.756 114.999C584.703 110.173 582.894 104.429 582.329 97.765C581.892 92.6159 582.335 87.6464 583.658 82.8565C585.081 78.0581 587.208 73.7593 590.038 69.9601C592.86 66.06 596.154 62.9334 599.92 60.5802C603.779 58.1175 607.98 56.6935 612.523 56.3082C627.567 55.0324 635.709 61.7144 636.951 76.3541C637.062 77.6667 637.077 79.0382 636.995 80.4688C636.913 81.8995 636.805 83.0272 636.671 83.852L634.857 85.8363L593.058 89.381C593.719 98.3753 595.938 105.356 599.715 110.324C603.584 115.182 608.637 117.804 614.873 118.19C621.1 118.476 628.241 116.345 636.296 111.798L637.23 112.024L639.268 116.274C637.369 117.859 635.074 119.579 632.384 121.434C629.795 123.281 627.134 124.879 624.402 126.229C621.669 127.58 619.192 128.349 616.971 128.537ZM593.188 83.7261L620.484 80.0385C621.982 79.7082 622.961 79.2692 623.423 78.7216C623.885 78.1739 624.052 77.1429 623.924 75.6284C623.581 71.5899 622.21 68.6047 619.809 66.6728C617.509 64.7324 614.339 63.9334 610.301 64.2759C605.656 64.6698 601.755 66.6276 598.596 70.1496C595.429 73.5706 593.626 78.0961 593.188 83.7261Z" fill="#F4F1E1"/>
<path d="M651.941 159.716L652.565 153.773C655.797 153.293 657.853 152.334 658.732 150.895C659.715 149.555 660.159 146.808 660.064 142.655C660.027 141.034 659.973 138.654 659.901 135.513C659.93 132.371 659.906 129.077 659.827 125.633C659.852 122.288 659.84 119.552 659.791 117.425L658.756 72.1437C658.677 68.6995 658.065 66.3317 656.921 65.0403C655.774 63.6476 653.833 62.9825 651.098 63.045L649.427 63.0833L648.957 62.4859L649.298 57.4611C652.83 56.7723 656.21 56.0869 659.437 55.405C662.663 54.6218 665.283 53.9537 667.297 53.4009C669.413 52.8458 670.47 52.5682 670.47 52.5682L671.41 53.763C671.41 53.763 671.227 54.6286 670.861 56.36C670.495 58.0913 670.234 59.9723 670.078 62.003L670.71 63.0527C675.096 59.8105 678.788 57.2936 681.788 55.502C684.889 53.7081 686.996 52.7985 688.11 52.773C693.986 52.6386 699.133 53.8892 703.551 56.5247C707.967 59.0589 711.447 62.7294 713.989 67.5361C716.63 72.2393 718.024 77.7818 718.17 84.1637C718.295 89.6339 717.4 94.8233 715.485 99.732C713.669 104.537 711.03 108.804 707.568 112.531C704.208 116.257 700.272 119.235 695.762 121.467C691.25 123.597 686.411 124.721 681.245 124.839C680.029 124.867 678.559 124.85 676.835 124.788C675.11 124.726 673.538 124.661 672.117 124.592C670.798 124.521 670.139 124.485 670.139 124.485C670.196 127.018 670.256 129.601 670.316 132.235C670.477 134.866 670.588 137.499 670.648 140.133C670.755 144.792 671.283 147.922 672.231 149.522C673.284 151.221 675.228 152.038 678.064 151.973C678.875 151.955 679.735 151.884 680.644 151.762C681.556 151.741 682.417 151.722 683.227 151.703L683.542 152.152L682.458 157.954C681.242 157.982 680.027 158.01 678.811 158.037C677.596 158.065 676.38 158.093 675.164 158.121C674.05 158.146 672.885 158.173 671.67 158.201C670.454 158.228 669.238 158.256 668.023 158.284C665.186 158.349 662.503 158.461 659.973 158.62C657.546 158.878 655.576 159.126 654.061 159.363C652.647 159.598 651.941 159.716 651.941 159.716ZM685.308 116.385C692.095 116.23 697.361 113.829 701.107 109.182C704.951 104.432 706.781 98.056 706.598 90.0533C706.48 84.8871 705.463 80.2988 703.547 76.2885C701.73 72.1746 699.274 68.9368 696.18 66.5751C693.085 64.2134 689.664 63.0754 685.916 63.1611C683.89 63.2074 681.424 63.9733 678.519 65.4586C675.611 66.8427 672.866 68.6791 670.283 70.968C670.175 75.1259 670.077 79.689 669.988 84.6573C669.899 89.6256 669.862 94.6434 669.876 99.7107C669.891 104.778 669.948 109.49 670.047 113.845C672.092 114.609 674.489 115.264 677.238 115.809C680.085 116.251 682.776 116.443 685.308 116.385Z" fill="#F4F1E1"/>
<path d="M741.405 123.233L742.56 117.042C746.115 116.877 748.713 116.573 750.353 116.13C751.997 115.586 753.053 114.511 753.521 112.907C754.094 111.206 754.448 108.634 754.583 105.191L756.329 60.5408C752.376 60.4877 749.229 60.5674 746.889 60.7801C744.653 60.8956 742.91 61.3851 741.66 62.2489C740.409 63.1126 739.443 64.4945 738.76 66.3944C738.182 68.1971 737.577 70.7085 736.944 73.9287L730.396 74.129C730.666 72.4157 730.937 70.6518 731.211 68.8372C731.485 67.0226 731.708 65.2061 731.881 63.3876C732.158 61.4718 732.381 59.6552 732.55 57.938C732.719 56.2207 732.829 54.704 732.88 53.3877L733.833 52.3602L743.961 53.9731L779.803 55.3743L790.178 54.5631L791.047 55.6619C791.058 57.9945 791.112 60.4811 791.212 63.1214C791.316 65.6606 791.423 68.0985 791.534 70.4351C791.751 72.6744 791.88 74.5554 791.922 76.0781L785.374 76.2784C784.998 72.9174 784.542 70.3138 784.006 68.4676C783.575 66.5241 782.821 65.0749 781.742 64.1202C780.664 63.1654 779.017 62.4926 776.802 62.1017C774.691 61.6136 771.765 61.2457 768.023 60.998C767.608 63.8211 767.142 67.9604 766.625 73.4159C766.209 78.8754 765.773 84.8412 765.317 91.3132C764.962 97.7891 764.668 104.014 764.434 109.988C764.332 112.62 764.765 114.513 765.733 115.666C766.702 116.82 768.301 117.44 770.528 117.527C771.844 117.578 773.059 117.626 774.173 117.669C775.392 117.616 776.307 117.55 776.919 117.473L777.205 117.94L775.886 124.429C774.57 124.378 773.104 124.27 771.488 124.105C769.868 124.042 768.25 123.928 766.634 123.763C765.014 123.7 763.446 123.588 761.932 123.427C760.514 123.372 759.299 123.324 758.287 123.285C757.274 123.245 756.059 123.198 754.642 123.142C753.322 123.192 751.851 123.185 750.232 123.122C748.709 123.164 747.137 123.153 745.518 123.09C743.995 123.131 742.624 123.179 741.405 123.233Z" fill="#F4F1E1"/>
<path d="M846.9 131.512C842.865 131.125 839.785 129.812 837.658 127.572C835.642 125.241 834.626 122.039 834.61 117.965L834.019 117.756C831.366 119.945 828.843 121.84 826.45 123.443C824.168 124.954 822.121 126.132 820.309 126.976C818.608 127.729 817.253 128.057 816.245 127.961C812.513 127.603 809.262 126.476 806.492 124.582C803.721 122.688 801.614 120.246 800.171 117.258C798.828 114.279 798.33 110.974 798.679 107.342C798.959 104.417 799.912 101.913 801.537 99.8296C803.263 97.7558 805.37 96.4819 807.858 96.0081L837.359 90.8982L838.149 84.2558C838.633 79.2126 837.85 75.1677 835.801 72.121C833.752 69.0743 830.61 67.3478 826.373 66.9414C823.549 66.6705 820.511 67.0407 817.258 68.052C814.006 69.0633 810.75 70.6342 807.492 72.7646L806.779 72.2382L805.588 65.5584C808.355 64.297 811.43 63.0142 814.813 61.71C818.205 60.3049 821.417 59.1879 824.448 58.359C827.48 57.5301 829.752 57.1882 831.265 57.3334C835.703 57.7591 839.408 58.9288 842.38 60.8425C845.361 62.6554 847.519 65.1018 848.852 68.1816C850.296 71.1702 850.819 74.7322 850.423 78.8676C850.297 80.1788 849.942 82.2824 849.359 85.1784C848.877 88.0841 848.26 91.3331 847.508 94.9255C846.766 98.417 846.084 101.812 845.462 105.112C844.941 108.421 844.574 111.185 844.361 113.404C844.148 115.623 844.539 117.391 845.532 118.708C846.525 120.025 847.98 120.775 849.897 120.959C851.611 121.123 853.365 120.884 855.157 120.242C856.959 119.498 858.352 118.767 859.337 118.047L861.223 120.671C860.291 121.905 859.036 123.311 857.459 124.891C855.993 126.379 854.335 127.746 852.485 128.994C850.736 130.251 848.874 131.091 846.9 131.512ZM819.804 117.919C821.72 118.103 824.002 117.66 826.649 116.591C829.407 115.431 831.947 113.893 834.268 111.978L836.505 96.6184L815.334 100.848C812.322 101.475 810.656 103.453 810.337 106.781C810.066 109.605 810.792 112.118 812.515 114.319C814.348 116.429 816.778 117.629 819.804 117.919Z" fill="#F4F1E1"/>
<path d="M866.472 132.591L868.252 126.414C871.85 126.386 874.298 125.863 875.594 124.843C876.99 123.839 877.925 121.887 878.399 118.987L885.418 77.0127C885.794 74.7127 885.74 73.1637 885.254 72.3656C884.885 71.4838 883.85 70.904 882.15 70.6259C881.45 70.5115 880.642 70.4306 879.726 70.3834C878.826 70.2363 878.376 70.1627 878.376 70.1627L878.174 69.5136L879.856 63.9364C879.856 63.9364 880.606 64.0591 882.106 64.3044C883.606 64.5497 885.348 64.8859 887.332 65.313C889.432 65.6564 891.231 65.9508 892.731 66.1961C894.431 66.4741 896.34 66.7348 898.456 66.9783C900.588 67.1217 902.413 67.2661 903.929 67.4114C905.546 67.573 906.354 67.6539 906.354 67.6539L904.898 73.7301C901.733 73.6231 899.668 74.0042 898.705 74.8734C897.841 75.7589 897.031 77.8852 896.275 81.2524L892.925 97.0294L910.75 100.099C913.65 100.573 916.258 100.948 918.574 101.224C920.907 101.4 923.648 101.592 926.797 101.799L929.817 84.2738C930.193 81.9739 930.138 80.4249 929.653 79.6267C929.284 78.745 928.249 78.1651 926.549 77.8871C925.849 77.7726 924.991 77.6836 923.975 77.6201C923.075 77.4729 922.625 77.3993 922.625 77.3993L922.423 76.7502L924.105 71.173C924.105 71.173 924.855 71.2957 926.355 71.541C927.855 71.7863 929.547 72.1143 931.43 72.5251C933.33 72.8358 934.93 73.0974 936.23 73.31C938.03 73.6044 940.088 73.8897 942.405 74.1658C944.737 74.342 946.712 74.5109 948.328 74.6725C950.044 74.8506 950.903 74.9396 950.903 74.9396L949.447 81.0158C946.582 80.9579 944.633 81.2553 943.603 81.9081C942.588 82.4609 941.817 83.7209 941.29 85.6882C940.222 90.339 939.088 95.3898 937.888 100.841C936.789 106.308 935.78 111.533 934.862 116.517C933.961 121.4 933.232 125.542 932.676 128.942C932.251 131.542 932.257 133.391 932.693 134.489C933.23 135.603 934.448 136.316 936.348 136.627C937.548 136.823 938.656 136.953 939.672 137.016C940.805 136.996 941.371 136.986 941.371 136.986L941.573 137.635L939.493 143.763C939.493 143.763 938.651 143.574 936.968 143.196C935.368 142.935 933.426 142.566 931.142 142.09C928.842 141.713 926.742 141.37 924.842 141.059C923.542 140.847 921.792 140.56 919.592 140.201C917.393 139.841 915.393 139.514 913.593 139.219C911.876 139.041 911.018 138.952 911.018 138.952L913.074 132.974C916.49 133.43 918.863 133.048 920.192 131.828C921.521 130.608 922.537 127.848 923.24 123.548L925.57 109.299C925.57 109.299 924.57 109.135 922.57 108.808C920.687 108.397 918.495 107.988 915.995 107.579C913.495 107.17 911.395 106.826 909.695 106.548C908.795 106.401 907.337 106.214 905.321 105.987C903.405 105.776 901.33 105.591 899.097 105.431C896.981 105.188 895.165 104.993 893.649 104.848C892.132 104.703 891.374 104.63 891.374 104.63L888.327 121.381C887.769 124.164 887.708 126.105 888.144 127.203C888.681 128.318 889.899 129.03 891.799 129.341C892.999 129.537 894.107 129.667 895.123 129.731C896.24 129.81 896.798 129.85 896.798 129.85L897.024 130.349L894.944 136.478C894.944 136.478 894.302 136.321 893.019 136.009C891.819 135.812 890.377 135.525 888.693 135.147C887.093 134.886 885.593 134.64 884.193 134.411C881.993 134.052 879.485 133.693 876.669 133.335C873.936 133.093 871.562 132.859 869.546 132.632C867.613 132.521 866.588 132.508 866.472 132.591Z" fill="#F4F1E1"/>
<path d="M970.071 140.97L966.476 134.476C975.816 129.013 985.106 123.329 994.344 117.423C1003.58 111.518 1012.66 105.418 1021.57 99.1228L1025.17 105.616C1015.81 111.179 1006.5 116.912 997.266 122.817C988.052 128.624 978.987 134.675 970.071 140.97ZM950.139 146.489L952.372 140.461C955.962 140.7 958.442 140.359 959.81 139.437C961.277 138.54 962.366 136.613 963.077 133.658L973.115 92.6146C973.661 90.3488 973.721 88.8 973.296 87.9681C972.993 87.0614 972.005 86.4065 970.33 86.0033C969.64 85.8373 968.84 85.6968 967.93 85.5818C967.043 85.3684 966.6 85.2616 966.6 85.2616L966.447 84.5994L968.573 79.0144C968.573 79.0144 969.312 79.1923 970.79 79.5481C972.366 79.9276 974.127 80.4037 976.074 80.9766C978.142 81.4747 979.916 81.9016 981.393 82.2574C982.575 82.542 983.917 82.8129 985.419 83.0702C987.018 83.3511 988.508 83.6576 989.887 83.9897C991.389 84.247 992.594 84.4331 993.505 84.548C994.415 84.663 994.87 84.7204 994.87 84.7204L992.933 90.8199C989.784 90.4787 987.697 90.7058 986.672 91.5011C985.646 92.2965 984.632 94.3451 983.629 97.6471C982.388 101.934 981.015 106.554 979.51 111.507C978.127 116.385 976.792 121.066 975.504 125.55C974.314 130.058 973.352 133.839 972.616 136.893C971.952 139.651 971.846 141.606 972.299 142.757C972.85 143.932 974.11 144.756 976.081 145.231C977.066 145.468 978.063 145.656 979.071 145.794C980.179 145.957 980.732 146.038 980.732 146.038L980.921 146.552L978.393 152.51C978.393 152.51 978.01 152.366 977.246 152.077C976.557 151.911 975.67 151.698 974.586 151.437C973.503 151.176 972.382 150.854 971.223 150.471C970.041 150.186 968.958 149.925 967.972 149.688C965.707 149.143 963.183 148.587 960.401 148.022C957.694 147.578 955.343 147.169 953.349 146.793C951.331 146.515 950.261 146.414 950.139 146.489ZM1022.57 163.147C1022.57 163.147 1021.75 162.896 1020.1 162.395C1018.42 161.991 1016.47 161.468 1014.22 160.824C1011.96 160.278 1009.89 159.78 1008.02 159.329C1007.03 159.092 1005.75 158.784 1004.18 158.404C1002.7 158.049 1001.17 157.681 999.594 157.302C998.093 157.044 996.85 156.797 995.865 156.56C994.88 156.323 994.387 156.204 994.387 156.204L996.88 150.395C1000.25 151.103 1002.65 150.897 1004.06 149.779C1005.58 148.685 1006.84 146.019 1007.86 141.783L1017.3 103.252C1017.84 100.986 1017.85 99.4256 1017.33 98.57C1016.93 97.6396 1015.89 96.9728 1014.22 96.5696C1013.63 96.4273 1012.87 96.2986 1011.96 96.1837C1011.08 95.9702 1010.63 95.8635 1010.63 95.8635L1010.48 95.2013L1012.61 89.6163C1012.61 89.6163 1013.3 89.7823 1014.68 90.1144C1016.15 90.4701 1017.82 90.9226 1019.66 91.4717C1021.64 91.9461 1023.26 92.3374 1024.54 92.6458C1025.92 92.9778 1027.41 93.2843 1029.01 93.5653C1030.71 93.87 1032.3 94.2002 1033.77 94.556C1035.37 94.837 1036.63 95.0349 1037.54 95.1499C1038.55 95.2885 1039.05 95.3579 1039.05 95.3579L1037.11 101.457C1034.26 101.187 1032.25 101.328 1031.07 101.879C1030.02 102.355 1029.21 103.566 1028.63 105.513C1027.32 110.095 1025.87 115.06 1024.27 120.407C1022.79 125.679 1021.37 130.705 1020.01 135.484C1018.75 140.288 1017.73 144.315 1016.95 147.566C1016.28 150.324 1016.18 152.279 1016.63 153.43C1017.08 154.581 1018.24 155.382 1020.11 155.833C1021.2 156.093 1022.24 156.293 1023.25 156.432C1024.38 156.496 1024.95 156.528 1024.95 156.528L1025.1 157.19L1022.57 163.147Z" fill="#F4F1E1"/>
<path d="M1039.64 169.63L1029.38 165.272L1029.17 164.41L1031.55 159.903C1034.83 160.62 1037.51 160.723 1039.58 160.209C1041.69 159.6 1044.28 158.133 1047.35 155.81L1057.18 148.397C1058.86 147.121 1060.24 146.282 1061.33 145.881C1062.44 145.383 1063.58 145.157 1064.73 145.203C1065.91 145.152 1067.29 145.162 1068.86 145.234L1068.76 148.072C1062.67 145.507 1058.25 141.827 1055.52 137.031C1052.81 132.138 1052.3 127.035 1053.98 121.721C1055.87 115.731 1059.75 111.696 1065.61 109.618C1071.61 107.473 1078.51 107.637 1086.34 110.11C1088.37 110.751 1090.37 111.489 1092.34 112.324C1094.43 113.092 1096.49 113.797 1098.52 114.438C1100.55 115.079 1102.74 115.718 1105.09 116.354C1107.56 116.924 1109.94 117.463 1112.23 117.972L1109.92 123.777C1106.51 123.125 1104.26 123 1103.18 123.402C1102.13 123.707 1101.17 124.891 1100.3 126.956C1099.81 128.181 1098.92 130.503 1097.62 133.92C1096.33 137.337 1094.9 141.189 1093.34 145.475C1091.77 149.762 1090.31 153.871 1088.96 157.802C1087.61 161.732 1086.57 164.857 1085.84 167.176C1084.8 170.461 1084.4 172.726 1084.65 173.972C1084.92 175.122 1086.12 176.032 1088.25 176.704C1088.83 176.887 1089.55 177.116 1090.42 177.391C1091.32 177.569 1092.42 177.808 1093.7 178.109L1093.85 178.635L1090.92 184.401C1087.95 183.358 1085.08 182.345 1082.31 181.363C1079.61 180.508 1077.48 179.837 1075.94 179.348C1073.23 178.493 1070.59 177.766 1068.02 177.165C1065.54 176.595 1063.58 176.241 1062.14 176.103L1064.79 170.246C1068.35 170.735 1070.9 170.583 1072.42 169.79C1074.04 169.027 1075.3 167.245 1076.18 164.443L1089.11 124.055C1089.72 122.123 1089.5 120.46 1088.45 119.066C1087.5 117.703 1085.72 116.609 1083.11 115.785C1073.93 112.884 1068.05 115.54 1065.45 123.752C1064.14 127.907 1064.1 131.721 1065.34 135.195C1066.68 138.699 1069.12 141.384 1072.68 143.251L1084.52 147.632L1082.6 153.719L1069.27 149.506L1054.25 163.729C1051.66 166.205 1049.08 167.992 1046.5 169.09C1043.95 170.091 1041.66 170.271 1039.64 169.63Z" fill="#F4F1E1"/>
</g>
<defs>
<clipPath id="clip0_376_206">
<rect width="1440" height="1375" fill="white"/>
</clipPath>
</defs>
</svg>
