<svg width="1440" height="1238" viewBox="0 0 1440 1238" fill="none" xmlns="http://www.w3.org/2000/svg">
<g clip-path="url(#clip0_316_1241)">
<rect width="1440" height="1238" fill="#061E37"/>
<path d="M639.664 335C656.669 333.261 693.013 325.869 702.341 310.215C732.708 324.782 800.731 341.653 829.883 292.605C839.844 294.996 859.181 296.127 856.849 281.516C870.211 291.517 898.829 306.823 906.408 288.039C921.005 290.708 943.694 291.289 954.467 281.516C960.368 276.163 962.694 267.702 958.154 254.775C956.925 253.47 953.892 252.427 951.594 258.689C949.297 264.95 923.428 265.211 910.781 264.559C910.781 269.255 889.889 268.255 879.442 267.168C873.612 266.298 861.951 262.602 861.951 254.775C861.951 244.991 845.917 259.993 835.714 258.689C825.51 257.384 816.765 278.908 806.561 273.038C798.399 268.341 771.578 278.908 759.189 284.778C748.985 287.387 724.934 291.039 710.358 284.778C692.138 276.952 667.358 278.908 670.274 292.605C672.606 303.562 648.409 304.997 636.02 304.345C630.189 280.161 623.873 294.268 621.443 304.345C592.874 299.65 591.076 316.613 593.749 325.682C604.766 329.489 619.742 332.706 639.664 335Z" fill="#D6D3C2"/>
<path d="M1179.71 288.039C1198.18 280.212 1227.38 261.819 1196.47 250.861C1193.27 242.262 1179.15 227.615 1147.26 229.511C1170.28 231.215 1170.23 256.504 1167.32 268.935C1179.02 269.531 1180.78 280.68 1179.71 288.039Z" fill="#D6D3C2"/>
<path d="M1033.22 296.518C1026.66 306.302 1023.6 324.303 1063.83 318.042C1072.58 323.042 1092.55 330.043 1102.46 318.042C1113.88 321.086 1138.32 323.26 1144.73 307.606C1160.76 309.128 1190.21 307.345 1179.71 288.039C1180.78 280.68 1179.02 269.531 1167.32 268.935C1163.12 268.721 1157.65 269.867 1150.56 273.038C1146.57 267.002 1140.01 259.537 1132.22 254.775C1131.97 254.618 1131.71 254.465 1131.45 254.315C1122.41 250.332 1099.46 284.684 1096.63 281.516C1093.71 278.255 1068.2 292.605 1068.2 296.518C1068.2 299.649 1044.88 297.822 1033.22 296.518Z" fill="#D6D3C2"/>
<path d="M1039.05 195.422C1029.58 193.377 1010.49 195.29 997.409 214.336C1016.63 217.38 1051.88 217.859 1039.05 195.422Z" fill="#D6D3C2"/>
<path d="M1106.1 218.902C1085.7 231.294 1079.14 223.468 1075.49 218.902C1071.85 214.336 1041.24 233.251 1045.61 237.817C1073.06 242.247 1125.2 243.974 1114.12 215.438C1111.65 216.048 1108.97 217.158 1106.1 218.902Z" fill="#D6D3C2"/>
<path d="M954.467 281.516C943.694 291.289 921.005 290.708 906.408 288.039C898.829 306.823 870.211 291.517 856.849 281.516C859.181 296.127 839.844 294.996 829.883 292.605C800.731 341.653 732.708 324.782 702.341 310.215C693.013 325.869 656.669 333.261 639.664 335C619.742 332.706 604.766 329.489 593.749 325.682M954.467 281.516C960.368 276.163 962.694 267.702 958.154 254.775C956.925 253.47 953.892 252.427 951.594 258.689C949.297 264.95 923.428 265.211 910.781 264.559C910.781 269.255 889.889 268.255 879.442 267.168C873.612 266.298 861.951 262.602 861.951 254.775C861.951 244.991 845.917 259.993 835.714 258.689C825.51 257.384 816.765 278.908 806.561 273.038C798.399 268.341 771.578 278.908 759.189 284.778C748.985 287.387 724.934 291.039 710.358 284.778C692.138 276.952 667.358 278.908 670.274 292.605C672.606 303.562 648.409 304.997 636.02 304.345C630.189 280.161 623.873 294.268 621.443 304.345C592.874 299.65 591.076 316.613 593.749 325.682M954.467 281.516C966.141 285.593 986.967 290.154 993.056 281.516M994.594 273.038C995.107 276.715 994.49 279.482 993.056 281.516M993.056 281.516C1002.56 287.821 1023.89 299.649 1033.22 296.518M1033.22 296.518C1026.66 306.302 1023.6 324.303 1063.83 318.042C1072.58 323.042 1092.55 330.043 1102.46 318.042C1113.88 321.086 1138.32 323.26 1144.73 307.606C1160.76 309.128 1190.21 307.345 1179.71 288.039M1033.22 296.518C1031.47 288.169 1048.53 285.213 1057.27 284.778C1054.36 248.253 1082.29 253.906 1096.63 261.298C1108.17 247.132 1120.88 248.156 1131.45 254.315M1033.22 296.518C1044.88 297.822 1068.2 299.649 1068.2 296.518C1068.2 292.605 1093.71 278.255 1096.63 281.516C1099.46 284.684 1122.41 250.332 1131.45 254.315M1179.71 288.039C1198.18 280.212 1227.38 261.819 1196.47 250.861C1193.27 242.262 1179.15 227.615 1147.26 229.511M1179.71 288.039C1180.78 280.68 1179.02 269.531 1167.32 268.935M1096.63 173.245C1114.12 170.636 1115.58 182.159 1114.12 188.246C1139.4 194.129 1139.47 213.516 1135.24 226.077M1096.63 173.245C1088.88 156.069 1065.35 128.371 1033.22 154.982C1026.99 150.831 1014.39 145.576 1001.88 148.781M1096.63 173.245C1082.63 155.504 1052.41 180.637 1039.05 195.422M985.849 158.896C990.795 153.297 996.329 150.205 1001.88 148.781M1001.88 148.781C998.967 142.152 988.472 129.545 969.815 132.154C975.791 119.675 978.925 97.1398 954.467 90.0049M759.189 278.908C757.002 272.603 755.982 260.906 769.392 264.559C768.663 258.254 770.995 245.774 786.155 246.296C795.872 236.078 819.826 220.989 837.9 242.383C839.601 240.209 845.771 236.252 856.849 237.817C859.764 229.773 868.364 217.206 879.442 231.294C879.442 226.946 883.378 217.467 899.12 214.336C891.832 204.335 883.961 183.681 910.781 181.072C909.809 176.507 909.615 167.375 916.612 167.375C921.227 153.026 935.998 132.937 958.154 167.375C972.487 172.811 997.655 187.203 983.662 201.292C966.171 218.902 951.594 207.162 951.594 198.683M918.798 79.3231C906.408 79.758 884.544 85.0628 896.205 102.804C886.487 94.9769 864.137 85.4542 852.476 109.978C844.216 114.761 831.341 127.067 845.917 138.025C837.414 135.412 818.951 133.906 813.12 148.781C796.844 154.544 770.849 170.897 797.087 190.204C790.77 191.291 779.741 195.291 786.155 202.596M761.375 156.287C803.354 147.417 759.189 109.978 759.189 109.978C773.279 114.109 800.585 117.414 797.087 97.5858C805.104 99.9774 822.012 103.326 825.51 97.5858M593.749 325.682C549.628 310.437 569.013 285.737 588.647 273.038C589.092 270.084 589.585 267.259 590.121 264.559M969.815 231.294C975.534 230.783 982.645 230.403 989.493 230.454C991.682 224.057 994.385 218.739 997.409 214.336M1039.05 195.422C1029.58 193.377 1010.49 195.29 997.409 214.336M1039.05 195.422C1051.88 217.859 1016.63 217.38 997.409 214.336M1150.56 273.038C1146.57 267.002 1140.01 259.537 1132.22 254.775M1150.56 273.038L1144.73 288.039C1151.05 294.344 1165.28 301.346 1171.7 278.908M1150.56 273.038C1157.65 269.867 1163.12 268.721 1167.32 268.935M1132.22 254.775C1131.97 254.618 1131.71 254.465 1131.45 254.315M1132.22 254.775C1131.98 254.586 1131.72 254.433 1131.45 254.315M1167.32 268.935C1170.23 256.504 1170.28 231.215 1147.26 229.511M1147.26 229.511C1142.88 229.772 1138.15 230.347 1133.07 231.294C1133.84 229.764 1134.59 228 1135.24 226.077M1135.24 226.077C1132.84 220.702 1125.7 212.581 1114.12 215.438M916.612 208.466C925.114 208.901 940.517 206.901 934.103 195.422M816.036 195.422C825.996 194.335 843.876 189.291 835.714 177.811M856.849 170.637C864.866 171.071 879.296 168.548 872.883 154.982M888.188 115.848C890.131 125.415 890.52 143.764 876.527 140.634M829.883 65.6261C833.498 51.0595 844.599 22.9698 860.085 27.1441M860.085 27.1441C864.236 31.0986 866.363 36.7247 867.052 40.8408C896.788 36.1447 896.934 57.5819 893.29 68.8875C907.283 56.3646 926.329 76.2793 934.103 87.8021C942.396 87.6142 949.096 88.4383 954.467 90.0049M860.085 27.1441C855.466 22.7437 848.341 20.413 837.9 24.5352C820.894 17.7954 787.466 10.4468 789.799 34.9709C783.968 33.6665 772.744 33.9274 774.494 45.4068C759.431 47.1461 731.202 57.147 738.782 83.2366C731.251 89.759 717.938 104.76 724.934 112.587C707.686 124.545 685.433 153.416 734.409 173.245C733.68 179.55 734.409 191.769 743.155 190.204C731.008 197.161 710.358 211.728 724.934 214.336C713.273 207.596 687.474 201.552 677.562 231.294C654.112 210.518 605.038 189.498 590.121 264.559M916.612 122.371C932.617 129.927 962.595 134.032 954.467 90.0049M698.697 254.775C701.37 243.904 710.358 223.077 724.934 226.729M590.121 264.559C609.551 273.255 647.535 283.473 644.036 254.775M1114.12 215.438C1111.65 216.048 1108.97 217.158 1106.1 218.902C1085.7 231.294 1079.14 223.468 1075.49 218.902C1071.85 214.336 1041.24 233.251 1045.61 237.817C1073.06 242.247 1125.2 243.974 1114.12 215.438Z" stroke="#F4F1E1" stroke-width="7" stroke-linecap="round"/>
<path d="M827.468 635C847.938 632.866 891.685 623.795 902.915 604.586C939.469 622.461 1021.35 643.164 1056.44 582.975C1068.43 585.91 1091.71 587.297 1088.9 569.369C1104.98 581.641 1139.43 600.424 1148.56 577.373C1166.13 580.648 1193.44 581.361 1206.41 569.369C1213.51 562.799 1216.31 552.417 1210.84 536.553C1209.37 534.953 1205.71 533.673 1202.95 541.356C1200.18 549.04 1169.04 549.36 1153.82 548.56C1153.82 554.322 1128.67 553.095 1116.1 551.761C1109.08 550.694 1095.04 546.158 1095.04 536.553C1095.04 524.547 1075.74 542.957 1063.46 541.356C1051.18 539.755 1040.65 566.168 1028.37 558.964C1018.54 553.201 986.258 566.168 971.344 573.371C959.061 576.573 930.111 581.055 912.565 573.371C890.633 563.768 860.805 566.168 864.314 582.975C867.121 596.421 837.995 598.183 823.081 597.383C816.063 567.705 808.46 585.017 805.535 597.383C771.145 591.621 768.981 612.437 772.198 623.566C785.46 628.237 803.488 632.185 827.468 635Z" fill="#D6D3C2"/>
<path d="M1477.54 577.373C1499.77 567.768 1534.92 545.197 1497.72 531.751C1493.86 521.198 1476.86 503.225 1438.48 505.552C1466.19 507.643 1466.12 538.675 1462.63 553.93C1476.7 554.661 1478.83 568.343 1477.54 577.373Z" fill="#D6D3C2"/>
<path d="M1301.21 587.778C1293.31 599.783 1289.63 621.874 1338.05 614.19C1348.58 620.326 1372.62 628.917 1384.55 614.19C1398.29 617.925 1427.71 620.593 1435.43 601.384C1454.73 603.252 1490.17 601.064 1477.54 577.373C1478.83 568.343 1476.7 554.661 1462.63 553.93C1457.57 553.667 1450.98 555.073 1442.45 558.964C1437.65 551.558 1429.75 542.397 1420.38 536.553C1420.07 536.361 1419.76 536.173 1419.45 535.989C1408.56 531.101 1380.94 573.256 1377.53 569.369C1374.02 565.366 1343.32 582.975 1343.32 587.778C1343.32 591.619 1315.24 589.378 1301.21 587.778Z" fill="#D6D3C2"/>
<path d="M1308.22 463.719C1296.82 461.21 1273.85 463.558 1258.1 486.93C1281.24 490.665 1323.66 491.252 1308.22 463.719Z" fill="#D6D3C2"/>
<path d="M1388.93 492.533C1364.37 507.74 1356.48 498.136 1352.09 492.533C1347.7 486.93 1310.86 510.141 1316.12 515.744C1349.16 521.181 1411.92 523.299 1398.59 488.282C1395.61 489.03 1392.39 490.393 1388.93 492.533Z" fill="#D6D3C2"/>
<path d="M1206.41 569.369C1193.44 581.361 1166.13 580.648 1148.56 577.373C1139.43 600.424 1104.98 581.641 1088.9 569.369C1091.71 587.297 1068.43 585.91 1056.44 582.975C1021.35 643.164 939.469 622.461 902.915 604.586C891.685 623.795 847.938 632.866 827.468 635C803.488 632.185 785.46 628.237 772.198 623.566M1206.41 569.369C1213.51 562.799 1216.31 552.417 1210.84 536.553C1209.37 534.953 1205.71 533.673 1202.95 541.356C1200.18 549.04 1169.04 549.36 1153.82 548.56C1153.82 554.322 1128.67 553.095 1116.1 551.761C1109.08 550.694 1095.04 546.158 1095.04 536.553C1095.04 524.547 1075.74 542.957 1063.46 541.356C1051.18 539.755 1040.65 566.168 1028.37 558.964C1018.54 553.201 986.258 566.168 971.344 573.371C959.061 576.573 930.111 581.055 912.565 573.371C890.633 563.768 860.805 566.168 864.314 582.975C867.121 596.421 837.995 598.183 823.081 597.383C816.063 567.705 808.46 585.017 805.535 597.383C771.145 591.621 768.981 612.437 772.198 623.566M1206.41 569.369C1220.46 574.372 1245.53 579.968 1252.86 569.369M1254.71 558.964C1255.33 563.477 1254.58 566.872 1252.86 569.369M1252.86 569.369C1264.29 577.106 1289.98 591.619 1301.21 587.778M1301.21 587.778C1293.31 599.783 1289.63 621.874 1338.05 614.19C1348.58 620.326 1372.62 628.917 1384.55 614.19C1398.29 617.925 1427.71 620.593 1435.43 601.384C1454.73 603.252 1490.17 601.064 1477.54 577.373M1301.21 587.778C1299.1 577.532 1319.63 573.905 1330.16 573.371C1326.65 528.55 1360.28 535.487 1377.53 544.558C1391.42 527.175 1406.72 528.431 1419.45 535.989M1301.21 587.778C1315.24 589.378 1343.32 591.619 1343.32 587.778C1343.32 582.975 1374.02 565.366 1377.53 569.369C1380.94 573.256 1408.56 531.101 1419.45 535.989M1477.54 577.373C1499.77 567.768 1534.92 545.197 1497.72 531.751C1493.86 521.198 1476.86 503.225 1438.48 505.552M1477.54 577.373C1478.83 568.343 1476.7 554.661 1462.63 553.93M1377.53 436.506C1398.59 433.304 1400.34 447.444 1398.59 454.914C1429.02 462.133 1429.1 485.924 1424.01 501.337M1377.53 436.506C1368.2 415.429 1339.88 381.439 1301.21 414.095C1293.7 409.001 1278.53 402.553 1263.48 406.485M1377.53 436.506C1360.69 414.735 1324.31 445.577 1308.22 463.719M1244.18 418.898C1250.14 412.027 1256.8 408.232 1263.48 406.485M1263.48 406.485C1259.97 398.35 1247.34 382.88 1224.88 386.082C1232.07 370.769 1235.85 343.115 1206.41 334.359M971.344 566.168C968.712 558.431 967.483 544.077 983.626 548.56C982.748 540.823 985.556 525.509 1003.8 526.149C1015.5 513.61 1044.33 495.094 1066.09 521.347C1068.14 518.679 1075.57 513.823 1088.9 515.744C1092.41 505.872 1102.76 490.451 1116.1 507.74C1116.1 502.404 1120.83 490.772 1139.78 486.93C1131.01 474.658 1121.54 449.312 1153.82 446.111C1152.65 440.508 1152.42 429.303 1160.84 429.303C1166.4 411.694 1184.17 387.043 1210.84 429.303C1228.1 435.973 1258.39 453.634 1241.55 470.923C1220.49 492.533 1202.95 478.126 1202.95 467.721M1163.47 321.251C1148.56 321.785 1122.24 328.295 1136.27 350.065C1124.58 340.461 1097.67 328.775 1083.64 358.869C1073.69 364.739 1058.2 379.839 1075.74 393.286C1065.51 390.08 1043.28 388.232 1036.26 406.485C1016.67 413.558 985.38 433.625 1016.96 457.316C1009.36 458.65 996.083 463.559 1003.8 472.523M973.975 415.696C1024.51 404.811 971.344 358.869 971.344 358.869C988.305 363.938 1021.17 367.994 1016.96 343.662C1026.61 346.597 1046.97 350.705 1051.18 343.662M772.198 623.566C719.089 604.858 742.423 574.548 766.057 558.964C766.593 555.34 767.186 551.873 767.832 548.56M1224.88 507.74C1231.77 507.112 1240.33 506.645 1248.57 506.708C1251.2 498.859 1254.46 492.333 1258.1 486.93M1308.22 463.719C1296.82 461.21 1273.85 463.558 1258.1 486.93M1308.22 463.719C1323.66 491.252 1281.24 490.665 1258.1 486.93M1442.45 558.964C1437.65 551.558 1429.75 542.397 1420.38 536.553M1442.45 558.964L1435.43 577.373C1443.03 585.11 1460.17 593.702 1467.89 566.168M1442.45 558.964C1450.98 555.073 1457.57 553.667 1462.63 553.93M1420.38 536.553C1420.07 536.361 1419.76 536.173 1419.45 535.989M1420.38 536.553C1420.09 536.322 1419.78 536.134 1419.45 535.989M1462.63 553.93C1466.12 538.675 1466.19 507.643 1438.48 505.552M1438.48 505.552C1433.2 505.872 1427.51 506.577 1421.39 507.739C1422.33 505.862 1423.23 503.698 1424.01 501.337M1424.01 501.337C1421.12 494.742 1412.52 484.776 1398.59 488.282M1160.84 479.727C1171.07 480.26 1189.61 477.806 1181.89 463.719M1039.77 463.719C1051.76 462.385 1073.28 456.196 1063.46 442.109M1088.9 433.305C1098.55 433.838 1115.92 430.742 1108.2 414.095M1126.62 366.073C1128.96 377.812 1129.43 400.329 1112.59 396.487M1056.44 304.443C1060.79 286.568 1074.15 252.099 1092.8 257.221M1092.8 257.221C1097.79 262.074 1100.35 268.978 1101.18 274.029C1136.98 268.266 1137.15 294.572 1132.77 308.446C1149.61 293.078 1172.54 317.516 1181.89 331.656C1191.88 331.426 1199.94 332.437 1206.41 334.359M1092.8 257.221C1087.24 251.821 1078.66 248.961 1066.09 254.02C1045.62 245.749 1005.38 236.731 1008.19 266.826C1001.17 265.225 987.661 265.545 989.767 279.632C971.636 281.766 937.656 294.038 946.779 326.054C937.714 334.058 921.689 352.466 930.111 362.071C909.348 376.744 882.562 412.173 941.516 436.506C940.638 444.243 941.516 459.237 952.043 457.316C937.422 465.854 912.565 483.729 930.111 486.93C916.074 478.659 885.018 471.242 873.087 507.74C844.859 482.244 785.788 456.451 767.832 548.56M1160.84 374.077C1180.1 383.349 1216.19 388.386 1206.41 334.359M898.528 536.553C901.745 523.214 912.565 497.656 930.111 502.138M767.832 548.56C791.22 559.231 836.942 571.769 832.731 536.553M1398.59 488.282C1395.61 489.03 1392.39 490.393 1388.93 492.533C1364.37 507.74 1356.48 498.136 1352.09 492.533C1347.7 486.93 1310.86 510.141 1316.12 515.744C1349.16 521.18 1411.92 523.299 1398.59 488.282Z" stroke="#F4F1E1" stroke-width="7" stroke-linecap="round"/>
<path d="M602.4 1053L600.3 1048.1L603.1 1020.8C619.433 1019.4 632.033 1017.77 640.9 1015.9C649.767 1014.03 656.067 1011.47 659.8 1008.2C663.533 1004.47 665.4 999.8 665.4 994.2C665.4 989.533 664.933 984.4 664 978.8C663.067 973.2 661.433 967.133 659.1 960.6L636 884.3C627.6 883.833 615.7 883.6 600.3 883.6C585.367 883.6 573 883.6 563.2 883.6C549.667 883.6 535.433 884.3 520.5 885.7C506.033 887.1 494.833 888.267 486.9 889.2L461 962C456.8 974.6 454.7 983.7 454.7 989.3C454.7 999.567 457.967 1007.03 464.5 1011.7C471.5 1015.9 482.233 1018 496.7 1018H536.6L538 1020.8L533.8 1050.9C533.8 1050.9 528.9 1050.43 519.1 1049.5C509.3 1048.57 496.933 1047.63 482 1046.7C467.067 1046.23 451.9 1046 436.5 1046C425.3 1046 413.633 1046 401.5 1046C389.833 1046.47 379.8 1046.93 371.4 1047.4C363.467 1047.87 359.5 1048.1 359.5 1048.1L365.1 1015.2C378.167 1013.8 388.667 1009.37 396.6 1001.9C404.533 994.433 412.233 980.9 419.7 961.3L556.2 603.6L600.3 591.7H605.9C605.9 591.7 607.3 597.3 610.1 608.5C613.367 619.233 617.567 634.4 622.7 654C628.3 673.133 634.6 695.3 641.6 720.5C649.067 745.233 656.767 771.6 664.7 799.6C673.1 827.6 681.733 856.067 690.6 885C699.467 913.467 708.333 940.767 717.2 966.9C722.8 984.167 730.267 996.3 739.6 1003.3C749.4 1010.3 764.333 1014.73 784.4 1016.6L785.8 1019.4L780.9 1048.1C780.9 1048.1 776.233 1047.87 766.9 1047.4C758.033 1046.93 747.767 1046.47 736.1 1046C724.433 1046 714.633 1046 706.7 1046C688.967 1046 671.933 1046.47 655.6 1047.4C639.733 1048.8 626.9 1049.97 617.1 1050.9C607.3 1052.3 602.4 1053 602.4 1053ZM499.5 854.9H561.1C570.433 854.9 581.633 854.433 594.7 853.5C607.767 852.567 618.267 851.867 626.2 851.4L570.9 668H566L499.5 854.9Z" fill="#F4F1E1"/>
<path d="M996 1052C982.667 1052 972.167 1048.67 964.5 1042C957.167 1035 952.833 1024.83 951.5 1011.5L949.5 1011C941.5 1019 933.833 1026 926.5 1032C919.5 1037.67 913.167 1042.17 907.5 1045.5C902.167 1048.5 897.833 1050 894.5 1050C882.167 1050 871.167 1047.33 861.5 1042C851.833 1036.67 844.167 1029.33 838.5 1020C833.167 1010.67 830.5 1000 830.5 988C830.5 978.333 832.833 969.833 837.5 962.5C842.5 955.167 849 950.333 857 948L952 922L952.5 900C952.5 883.333 948.667 870.333 941 861C933.333 851.667 922.5 847 908.5 847C899.167 847 889.333 849.167 879 853.5C868.667 857.833 858.5 864 848.5 872L846 870.5L840 849C848.667 844 858.333 838.833 869 833.5C879.667 827.833 889.833 823.167 899.5 819.5C909.167 815.833 916.5 814 921.5 814C936.167 814 948.667 816.667 959 822C969.333 827 977.167 834.333 982.5 844C988.167 853.333 991 864.833 991 878.5C991 882.833 990.5 889.833 989.5 899.5C988.833 909.167 987.833 920 986.5 932C985.167 943.667 984 955 983 966C982.333 977 982 986.167 982 993.5C982 1000.83 983.833 1006.5 987.5 1010.5C991.167 1014.5 996.167 1016.5 1002.5 1016.5C1008.17 1016.5 1013.83 1015.17 1019.5 1012.5C1025.17 1009.5 1029.5 1006.67 1032.5 1004L1039.5 1012C1036.83 1016.33 1033.17 1021.33 1028.5 1027C1024.17 1032.33 1019.17 1037.33 1013.5 1042C1008.17 1046.67 1002.33 1050 996 1052ZM903 1016C909.333 1016 916.667 1013.83 925 1009.5C933.667 1004.83 941.5 999 948.5 992L951 941L883 961.5C873.333 964.5 868.5 971.5 868.5 982.5C868.5 991.833 871.667 999.833 878 1006.5C884.667 1012.83 893 1016 903 1016Z" fill="#F4F1E1"/>
<path d="M440.368 909L391.224 959.679L342.079 916.071L353.546 975H270L333.888 1004.46L281.467 1039.82L353.546 1031.57L342.079 1107L401.053 1046.89L456.75 1085.79L440.368 1031.57H519L456.75 1000.93L519 967.929H440.368V909Z" fill="#BCA43A" fill-opacity="0.57"/>
<path d="M745.368 906L696.224 956.679L647.079 913.071L658.546 972H575L638.888 1001.46L586.467 1036.82L658.546 1028.57L647.079 1104L706.053 1043.89L761.75 1082.79L745.368 1028.57H824L761.75 997.929L824 964.929H745.368V906Z" fill="#BCA43A" fill-opacity="0.57"/>
<path d="M979.421 783L959.684 809.107L939.947 786.643L944.553 817H911L936.658 832.179L915.605 850.393L944.553 846.143L939.947 885L963.632 854.036L986 874.071L979.421 846.143H1011L986 830.357L1011 813.357H979.421V783Z" fill="#BCA43A" fill-opacity="0.57"/>
<path d="M1042.42 978L1022.68 1004.11L1002.95 981.643L1007.55 1012H974L999.658 1027.18L978.605 1045.39L1007.55 1041.14L1002.95 1080L1026.63 1049.04L1049 1069.07L1042.42 1041.14H1074L1049 1025.36L1074 1008.36H1042.42V978Z" fill="#BCA43A" fill-opacity="0.57"/>
<path d="M973.421 892L953.684 918.107L933.947 895.643L938.553 926H905L930.658 941.179L909.605 959.393L938.553 955.143L933.947 994L957.632 963.036L980 983.071L973.421 955.143H1005L980 939.357L1005 922.357H973.421V892Z" fill="#BCA43A" fill-opacity="0.57"/>
</g>
<defs>
<clipPath id="clip0_316_1241">
<rect width="1440" height="1238" fill="white"/>
</clipPath>
</defs>
</svg>
