<svg width="1440" height="1238" viewBox="0 0 1440 1238" fill="none" xmlns="http://www.w3.org/2000/svg">
<g clip-path="url(#clip0_316_1241)">
<rect width="1440" height="1238" fill="#061E37"/>
<path d="M639.664 335C656.669 333.261 693.013 325.869 702.341 310.215C732.708 324.782 800.731 341.653 829.883 292.605C839.844 294.996 859.181 296.127 856.849 281.516C870.211 291.517 898.829 306.823 906.408 288.039C921.005 290.708 943.694 291.289 954.467 281.516C960.368 276.163 962.694 267.702 958.154 254.775C956.925 253.47 953.892 252.427 951.594 258.689C949.297 264.95 923.428 265.211 910.781 264.559C910.781 269.255 889.889 268.255 879.442 267.168C873.612 266.298 861.951 262.602 861.951 254.775C861.951 244.991 845.917 259.993 835.714 258.689C825.51 257.384 816.765 278.908 806.561 273.038C798.399 268.341 771.578 278.908 759.189 284.778C748.985 287.387 724.934 291.039 710.358 284.778C692.138 276.952 667.358 278.908 670.274 292.605C672.606 303.562 648.409 304.997 636.02 304.345C630.189 280.161 623.873 294.268 621.443 304.345C592.874 299.65 591.076 316.613 593.749 325.682C604.766 329.489 619.742 332.706 639.664 335Z" fill="#D6D3C2"/>
<path d="M1179.71 288.039C1198.18 280.212 1227.38 261.819 1196.47 250.861C1193.27 242.262 1179.15 227.615 1147.26 229.511C1170.28 231.215 1170.23 256.504 1167.32 268.935C1179.02 269.531 1180.78 280.68 1179.71 288.039Z" fill="#D6D3C2"/>
<path d="M1033.22 296.518C1026.66 306.302 1023.6 324.303 1063.83 318.042C1072.58 323.042 1092.55 330.043 1102.46 318.042C1113.88 321.086 1138.32 323.26 1144.73 307.606C1160.76 309.128 1190.21 307.345 1179.71 288.039C1180.78 280.68 1179.02 269.531 1167.32 268.935C1163.12 268.721 1157.65 269.867 1150.56 273.038C1146.57 267.002 1140.01 259.537 1132.22 254.775C1131.97 254.618 1131.71 254.465 1131.45 254.315C1122.41 250.332 1099.46 284.684 1096.63 281.516C1093.71 278.255 1068.2 292.605 1068.2 296.518C1068.2 299.649 1044.88 297.822 1033.22 296.518Z" fill="#D6D3C2"/>
<path d="M1039.05 195.422C1029.58 193.377 1010.49 195.29 997.409 214.336C1016.63 217.38 1051.88 217.859 1039.05 195.422Z" fill="#D6D3C2"/>
<path d="M1106.1 218.902C1085.7 231.294 1079.14 223.468 1075.49 218.902C1071.85 214.336 1041.24 233.251 1045.61 237.817C1073.06 242.247 1125.2 243.974 1114.12 215.438C1111.65 216.048 1108.97 217.158 1106.1 218.902Z" fill="#D6D3C2"/>
<path d="M954.467 281.516C943.694 291.289 921.005 290.708 906.408 288.039C898.829 306.823 870.211 291.517 856.849 281.516C859.181 296.127 839.844 294.996 829.883 292.605C800.731 341.653 732.708 324.782 702.341 310.215C693.013 325.869 656.669 333.261 639.664 335C619.742 332.706 604.766 329.489 593.749 325.682M954.467 281.516C960.368 276.163 962.694 267.702 958.154 254.775C956.925 253.47 953.892 252.427 951.594 258.689C949.297 264.95 923.428 265.211 910.781 264.559C910.781 269.255 889.889 268.255 879.442 267.168C873.612 266.298 861.951 262.602 861.951 254.775C861.951 244.991 845.917 259.993 835.714 258.689C825.51 257.384 816.765 278.908 806.561 273.038C798.399 268.341 771.578 278.908 759.189 284.778C748.985 287.387 724.934 291.039 710.358 284.778C692.138 276.952 667.358 278.908 670.274 292.605C672.606 303.562 648.409 304.997 636.02 304.345C630.189 280.161 623.873 294.268 621.443 304.345C592.874 299.65 591.076 316.613 593.749 325.682M954.467 281.516C966.141 285.593 986.967 290.154 993.056 281.516M994.594 273.038C995.107 276.715 994.49 279.482 993.056 281.516M993.056 281.516C1002.56 287.821 1023.89 299.649 1033.22 296.518M1033.22 296.518C1026.66 306.302 1023.6 324.303 1063.83 318.042C1072.58 323.042 1092.55 330.043 1102.46 318.042C1113.88 321.086 1138.32 323.26 1144.73 307.606C1160.76 309.128 1190.21 307.345 1179.71 288.039M1033.22 296.518C1031.47 288.169 1048.53 285.213 1057.27 284.778C1054.36 248.253 1082.29 253.906 1096.63 261.298C1108.17 247.132 1120.88 248.156 1131.45 254.315M1033.22 296.518C1044.88 297.822 1068.2 299.649 1068.2 296.518C1068.2 292.605 1093.71 278.255 1096.63 281.516C1099.46 284.684 1122.41 250.332 1131.45 254.315M1179.71 288.039C1198.18 280.212 1227.38 261.819 1196.47 250.861C1193.27 242.262 1179.15 227.615 1147.26 229.511M1179.71 288.039C1180.78 280.68 1179.02 269.531 1167.32 268.935M1096.63 173.245C1114.12 170.636 1115.58 182.159 1114.12 188.246C1139.4 194.129 1139.47 213.516 1135.24 226.077M1096.63 173.245C1088.88 156.069 1065.35 128.371 1033.22 154.982C1026.99 150.831 1014.39 145.576 1001.88 148.781M1096.63 173.245C1082.63 155.504 1052.41 180.637 1039.05 195.422M985.849 158.896C990.795 153.297 996.329 150.205 1001.88 148.781M1001.88 148.781C998.967 142.152 988.472 129.545 969.815 132.154C975.791 119.675 978.925 97.1398 954.467 90.0049M759.189 278.908C757.002 272.603 755.982 260.906 769.392 264.559C768.663 258.254 770.995 245.774 786.155 246.296C795.872 236.078 819.826 220.989 837.9 242.383C839.601 240.209 845.771 236.252 856.849 237.817C859.764 229.773 868.364 217.206 879.442 231.294C879.442 226.946 883.378 217.467 899.12 214.336C891.832 204.335 883.961 183.681 910.781 181.072C909.809 176.507 909.615 167.375 916.612 167.375C921.227 153.026 935.998 132.937 958.154 167.375C972.487 172.811 997.655 187.203 983.662 201.292C966.171 218.902 951.594 207.162 951.594 198.683M918.798 79.3231C906.408 79.758 884.544 85.0628 896.205 102.804C886.487 94.9769 864.137 85.4542 852.476 109.978C844.216 114.761 831.341 127.067 845.917 138.025C837.414 135.412 818.951 133.906 813.12 148.781C796.844 154.544 770.849 170.897 797.087 190.204C790.77 191.291 779.741 195.291 786.155 202.596M761.375 156.287C803.354 147.417 759.189 109.978 759.189 109.978C773.279 114.109 800.585 117.414 797.087 97.5858C805.104 99.9774 822.012 103.326 825.51 97.5858M593.749 325.682C549.628 310.437 569.013 285.737 588.647 273.038C589.092 270.084 589.585 267.259 590.121 264.559M969.815 231.294C975.534 230.783 982.645 230.403 989.493 230.454C991.682 224.057 994.385 218.739 997.409 214.336M1039.05 195.422C1029.58 193.377 1010.49 195.29 997.409 214.336M1039.05 195.422C1051.88 217.859 1016.63 217.38 997.409 214.336M1150.56 273.038C1146.57 267.002 1140.01 259.537 1132.22 254.775M1150.56 273.038L1144.73 288.039C1151.05 294.344 1165.28 301.346 1171.7 278.908M1150.56 273.038C1157.65 269.867 1163.12 268.721 1167.32 268.935M1132.22 254.775C1131.97 254.618 1131.71 254.465 1131.45 254.315M1132.22 254.775C1131.98 254.586 1131.72 254.433 1131.45 254.315M1167.32 268.935C1170.23 256.504 1170.28 231.215 1147.26 229.511M1147.26 229.511C1142.88 229.772 1138.15 230.347 1133.07 231.294C1133.84 229.764 1134.59 228 1135.24 226.077M1135.24 226.077C1132.84 220.702 1125.7 212.581 1114.12 215.438M916.612 208.466C925.114 208.901 940.517 206.901 934.103 195.422M816.036 195.422C825.996 194.335 843.876 189.291 835.714 177.811M856.849 170.637C864.866 171.071 879.296 168.548 872.883 154.982M888.188 115.848C890.131 125.415 890.52 143.764 876.527 140.634M829.883 65.6261C833.498 51.0595 844.599 22.9698 860.085 27.1441M860.085 27.1441C864.236 31.0986 866.363 36.7247 867.052 40.8408C896.788 36.1447 896.934 57.5819 893.29 68.8875C907.283 56.3646 926.329 76.2793 934.103 87.8021C942.396 87.6142 949.096 88.4383 954.467 90.0049M860.085 27.1441C855.466 22.7437 848.341 20.413 837.9 24.5352C820.894 17.7954 787.466 10.4468 789.799 34.9709C783.968 33.6665 772.744 33.9274 774.494 45.4068C759.431 47.1461 731.202 57.147 738.782 83.2366C731.251 89.759 717.938 104.76 724.934 112.587C707.686 124.545 685.433 153.416 734.409 173.245C733.68 179.55 734.409 191.769 743.155 190.204C731.008 197.161 710.358 211.728 724.934 214.336C713.273 207.596 687.474 201.552 677.562 231.294C654.112 210.518 605.038 189.498 590.121 264.559M916.612 122.371C932.617 129.927 962.595 134.032 954.467 90.0049M698.697 254.775C701.37 243.904 710.358 223.077 724.934 226.729M590.121 264.559C609.551 273.255 647.535 283.473 644.036 254.775M1114.12 215.438C1111.65 216.048 1108.97 217.158 1106.1 218.902C1085.7 231.294 1079.14 223.468 1075.49 218.902C1071.85 214.336 1041.24 233.251 1045.61 237.817C1073.06 242.247 1125.2 243.974 1114.12 215.438Z" stroke="#F4F1E1" stroke-width="7" stroke-linecap="round"/>
<path d="M827.468 635C847.938 632.866 891.685 623.795 902.915 604.586C939.469 622.461 1021.35 643.164 1056.44 582.975C1068.43 585.91 1091.71 587.297 1088.9 569.369C1104.98 581.641 1139.43 600.424 1148.56 577.373C1166.13 580.648 1193.44 581.361 1206.41 569.369C1213.51 562.799 1216.31 552.417 1210.84 536.553C1209.37 534.953 1205.71 533.673 1202.95 541.356C1200.18 549.04 1169.04 549.36 1153.82 548.56C1153.82 554.322 1128.67 553.095 1116.1 551.761C1109.08 550.694 1095.04 546.158 1095.04 536.553C1095.04 524.547 1075.74 542.957 1063.46 541.356C1051.18 539.755 1040.65 566.168 1028.37 558.964C1018.54 553.201 986.258 566.168 971.344 573.371C959.061 576.573 930.111 581.055 912.565 573.371C890.633 563.768 860.805 566.168 864.314 582.975C867.121 596.421 837.995 598.183 823.081 597.383C816.063 567.705 808.46 585.017 805.535 597.383C771.145 591.621 768.981 612.437 772.198 623.566C785.46 628.237 803.488 632.185 827.468 635Z" fill="#D6D3C2"/>
<path d="M1477.54 577.373C1499.77 567.768 1534.92 545.197 1497.72 531.751C1493.86 521.198 1476.86 503.225 1438.48 505.552C1466.19 507.643 1466.12 538.675 1462.63 553.93C1476.7 554.661 1478.83 568.343 1477.54 577.373Z" fill="#D6D3C2"/>
<path d="M1301.21 587.778C1293.31 599.783 1289.63 621.874 1338.05 614.19C1348.58 620.326 1372.62 628.917 1384.55 614.19C1398.29 617.925 1427.71 620.593 1435.43 601.384C1454.73 603.252 1490.17 601.064 1477.54 577.373C1478.83 568.343 1476.7 554.661 1462.63 553.93C1457.57 553.667 1450.98 555.073 1442.45 558.964C1437.65 551.558 1429.75 542.397 1420.38 536.553C1420.07 536.361 1419.76 536.173 1419.45 535.989C1408.56 531.101 1380.94 573.256 1377.53 569.369C1374.02 565.366 1343.32 582.975 1343.32 587.778C1343.32 591.619 1315.24 589.378 1301.21 587.778Z" fill="#D6D3C2"/>
<path d="M1308.22 463.719C1296.82 461.21 1273.85 463.558 1258.1 486.93C1281.24 490.665 1323.66 491.252 1308.22 463.719Z" fill="#D6D3C2"/>
<path d="M1388.93 492.533C1364.37 507.74 1356.48 498.136 1352.09 492.533C1347.7 486.93 1310.86 510.141 1316.12 515.744C1349.16 521.181 1411.92 523.299 1398.59 488.282C1395.61 489.03 1392.39 490.393 1388.93 492.533Z" fill="#D6D3C2"/>
<path d="M1206.41 569.369C1193.44 581.361 1166.13 580.648 1148.56 577.373C1139.43 600.424 1104.98 581.641 1088.9 569.369C1091.71 587.297 1068.43 585.91 1056.44 582.975C1021.35 643.164 939.469 622.461 902.915 604.586C891.685 623.795 847.938 632.866 827.468 635C803.488 632.185 785.46 628.237 772.198 623.566M1206.41 569.369C1213.51 562.799 1216.31 552.417 1210.84 536.553C1209.37 534.953 1205.71 533.673 1202.95 541.356C1200.18 549.04 1169.04 549.36 1153.82 548.56C1153.82 554.322 1128.67 553.095 1116.1 551.761C1109.08 550.694 1095.04 546.158 1095.04 536.553C1095.04 524.547 1075.74 542.957 1063.46 541.356C1051.18 539.755 1040.65 566.168 1028.37 558.964C1018.54 553.201 986.258 566.168 971.344 573.371C959.061 576.573 930.111 581.055 912.565 573.371C890.633 563.768 860.805 566.168 864.314 582.975C867.121 596.421 837.995 598.183 823.081 597.383C816.063 567.705 808.46 585.017 805.535 597.383C771.145 591.621 768.981 612.437 772.198 623.566M1206.41 569.369C1220.46 574.372 1245.53 579.968 1252.86 569.369M1254.71 558.964C1255.33 563.477 1254.58 566.872 1252.86 569.369M1252.86 569.369C1264.29 577.106 1289.98 591.619 1301.21 587.778M1301.21 587.778C1293.31 599.783 1289.63 621.874 1338.05 614.19C1348.58 620.326 1372.62 628.917 1384.55 614.19C1398.29 617.925 1427.71 620.593 1435.43 601.384C1454.73 603.252 1490.17 601.064 1477.54 577.373M1301.21 587.778C1299.1 577.532 1319.63 573.905 1330.16 573.371C1326.65 528.55 1360.28 535.487 1377.53 544.558C1391.42 527.175 1406.72 528.431 1419.45 535.989M1301.21 587.778C1315.24 589.378 1343.32 591.619 1343.32 587.778C1343.32 582.975 1374.02 565.366 1377.53 569.369C1380.94 573.256 1408.56 531.101 1419.45 535.989M1477.54 577.373C1499.77 567.768 1534.92 545.197 1497.72 531.751C1493.86 521.198 1476.86 503.225 1438.48 505.552M1477.54 577.373C1478.83 568.343 1476.7 554.661 1462.63 553.93M1377.53 436.506C1398.59 433.304 1400.34 447.444 1398.59 454.914C1429.02 462.133 1429.1 485.924 1424.01 501.337M1377.53 436.506C1368.2 415.429 1339.88 381.439 1301.21 414.095C1293.7 409.001 1278.53 402.553 1263.48 406.485M1377.53 436.506C1360.69 414.735 1324.31 445.577 1308.22 463.719M1244.18 418.898C1250.14 412.027 1256.8 408.232 1263.48 406.485M1263.48 406.485C1259.97 398.35 1247.34 382.88 1224.88 386.082C1232.07 370.769 1235.85 343.115 1206.41 334.359M971.344 566.168C968.712 558.431 967.483 544.077 983.626 548.56C982.748 540.823 985.556 525.509 1003.8 526.149C1015.5 513.61 1044.33 495.094 1066.09 521.347C1068.14 518.679 1075.57 513.823 1088.9 515.744C1092.41 505.872 1102.76 490.451 1116.1 507.74C1116.1 502.404 1120.83 490.772 1139.78 486.93C1131.01 474.658 1121.54 449.312 1153.82 446.111C1152.65 440.508 1152.42 429.303 1160.84 429.303C1166.4 411.694 1184.17 387.043 1210.84 429.303C1228.1 435.973 1258.39 453.634 1241.55 470.923C1220.49 492.533 1202.95 478.126 1202.95 467.721M1163.47 321.251C1148.56 321.785 1122.24 328.295 1136.27 350.065C1124.58 340.461 1097.67 328.775 1083.64 358.869C1073.69 364.739 1058.2 379.839 1075.74 393.286C1065.51 390.08 1043.28 388.232 1036.26 406.485C1016.67 413.558 985.38 433.625 1016.96 457.316C1009.36 458.65 996.083 463.559 1003.8 472.523M973.975 415.696C1024.51 404.811 971.344 358.869 971.344 358.869C988.305 363.938 1021.17 367.994 1016.96 343.662C1026.61 346.597 1046.97 350.705 1051.18 343.662M772.198 623.566C719.089 604.858 742.423 574.548 766.057 558.964C766.593 555.34 767.186 551.873 767.832 548.56M1224.88 507.74C1231.77 507.112 1240.33 506.645 1248.57 506.708C1251.2 498.859 1254.46 492.333 1258.1 486.93M1308.22 463.719C1296.82 461.21 1273.85 463.558 1258.1 486.93M1308.22 463.719C1323.66 491.252 1281.24 490.665 1258.1 486.93M1442.45 558.964C1437.65 551.558 1429.75 542.397 1420.38 536.553M1442.45 558.964L1435.43 577.373C1443.03 585.11 1460.17 593.702 1467.89 566.168M1442.45 558.964C1450.98 555.073 1457.57 553.667 1462.63 553.93M1420.38 536.553C1420.07 536.361 1419.76 536.173 1419.45 535.989M1420.38 536.553C1420.09 536.322 1419.78 536.134 1419.45 535.989M1462.63 553.93C1466.12 538.675 1466.19 507.643 1438.48 505.552M1438.48 505.552C1433.2 505.872 1427.51 506.577 1421.39 507.739C1422.33 505.862 1423.23 503.698 1424.01 501.337M1424.01 501.337C1421.12 494.742 1412.52 484.776 1398.59 488.282M1160.84 479.727C1171.07 480.26 1189.61 477.806 1181.89 463.719M1039.77 463.719C1051.76 462.385 1073.28 456.196 1063.46 442.109M1088.9 433.305C1098.55 433.838 1115.92 430.742 1108.2 414.095M1126.62 366.073C1128.96 377.812 1129.43 400.329 1112.59 396.487M1056.44 304.443C1060.79 286.568 1074.15 252.099 1092.8 257.221M1092.8 257.221C1097.79 262.074 1100.35 268.978 1101.18 274.029C1136.98 268.266 1137.15 294.572 1132.77 308.446C1149.61 293.078 1172.54 317.516 1181.89 331.656C1191.88 331.426 1199.94 332.437 1206.41 334.359M1092.8 257.221C1087.24 251.821 1078.66 248.961 1066.09 254.02C1045.62 245.749 1005.38 236.731 1008.19 266.826C1001.17 265.225 987.661 265.545 989.767 279.632C971.636 281.766 937.656 294.038 946.779 326.054C937.714 334.058 921.689 352.466 930.111 362.071C909.348 376.744 882.562 412.173 941.516 436.506C940.638 444.243 941.516 459.237 952.043 457.316C937.422 465.854 912.565 483.729 930.111 486.93C916.074 478.659 885.018 471.242 873.087 507.74C844.859 482.244 785.788 456.451 767.832 548.56M1160.84 374.077C1180.1 383.349 1216.19 388.386 1206.41 334.359M898.528 536.553C901.745 523.214 912.565 497.656 930.111 502.138M767.832 548.56C791.22 559.231 836.942 571.769 832.731 536.553M1398.59 488.282C1395.61 489.03 1392.39 490.393 1388.93 492.533C1364.37 507.74 1356.48 498.136 1352.09 492.533C1347.7 486.93 1310.86 510.141 1316.12 515.744C1349.16 521.18 1411.92 523.299 1398.59 488.282Z" stroke="#F4F1E1" stroke-width="7" stroke-linecap="round"/>
<path d="M121.04 458.44C114.48 458.44 108.68 456.88 103.64 453.76C98.68 450.64 94.8 446.28 92 440.68C89.2 435.08 87.8 428.64 87.8 421.36C87.8 415.44 88.8 409.92 90.8 404.8C92.8 399.68 95.6 395.2 99.2 391.36C102.8 387.52 107 384.52 111.8 382.36C116.6 380.2 121.76 379.12 127.28 379.12C134 379.12 139.88 380.68 144.92 383.8C150.04 386.92 154.04 391.28 156.92 396.88C159.8 402.4 161.24 408.8 161.24 416.08C161.24 422.08 160.2 427.64 158.12 432.76C156.12 437.88 153.28 442.36 149.6 446.2C146 450.04 141.76 453.04 136.88 455.2C132 457.36 126.72 458.44 121.04 458.44ZM124.76 452.32C129.88 452.32 134.36 451 138.2 448.36C142.04 445.72 145.04 442.08 147.2 437.44C149.44 432.72 150.56 427.28 150.56 421.12C150.56 414.24 149.4 408.2 147.08 403C144.76 397.8 141.56 393.72 137.48 390.76C133.4 387.8 128.64 386.32 123.2 386.32C118.24 386.32 113.88 387.64 110.12 390.28C106.36 392.92 103.4 396.6 101.24 401.32C99.16 405.96 98.12 411.36 98.12 417.52C98.12 424.32 99.24 430.36 101.48 435.64C103.72 440.84 106.84 444.92 110.84 447.88C114.92 450.84 119.56 452.32 124.76 452.32ZM195.966 458.44C190.926 458.44 186.526 457.36 182.766 455.2C179.006 452.96 176.086 449.88 174.006 445.96C171.926 441.96 170.886 437.28 170.886 431.92C170.886 426.16 172.086 421 174.486 416.44C176.966 411.8 180.286 408.12 184.446 405.4C188.686 402.68 193.406 401.32 198.606 401.32C201.166 401.32 203.486 401.52 205.566 401.92C207.726 402.24 209.446 402.6 210.726 403C212.006 403.4 212.646 403.6 212.646 403.6L213.006 404.44C213.006 404.44 212.806 405.16 212.406 406.6C212.086 408.04 211.726 410.04 211.326 412.6C210.926 415.08 210.646 417.88 210.486 421L205.566 421.36V417.64C205.566 414.68 204.646 412.32 202.806 410.56C201.046 408.72 198.686 407.8 195.726 407.8C190.846 407.8 187.086 409.56 184.446 413.08C181.806 416.52 180.486 421.44 180.486 427.84C180.486 434.8 181.926 440.32 184.806 444.4C187.766 448.4 191.766 450.4 196.806 450.4C199.046 450.4 201.206 450.08 203.286 449.44C205.366 448.72 207.046 448.04 208.326 447.4C209.686 446.76 210.366 446.44 210.366 446.44L211.086 446.68L212.406 450.4C212.406 450.4 211.846 450.8 210.726 451.6C209.606 452.4 208.166 453.36 206.406 454.48C204.646 455.52 202.806 456.44 200.886 457.24C199.046 458.04 197.406 458.44 195.966 458.44ZM244.322 458.44C239.762 458.44 235.722 457.32 232.202 455.08C228.682 452.84 225.922 449.72 223.922 445.72C222.002 441.64 221.042 437 221.042 431.8C221.042 426.04 222.242 420.88 224.642 416.32C227.122 411.68 230.482 408.04 234.722 405.4C238.962 402.68 243.682 401.32 248.882 401.32C253.442 401.32 257.482 402.44 261.002 404.68C264.522 406.92 267.242 410.04 269.162 414.04C271.162 418.04 272.162 422.68 272.162 427.96C272.162 433.64 270.922 438.8 268.442 443.44C266.042 448.08 262.722 451.76 258.482 454.48C254.322 457.12 249.602 458.44 244.322 458.44ZM247.682 452.56C252.162 452.56 255.722 450.76 258.362 447.16C261.002 443.48 262.322 438.52 262.322 432.28C262.322 427.48 261.602 423.24 260.162 419.56C258.722 415.88 256.722 413 254.162 410.92C251.602 408.84 248.642 407.8 245.282 407.8C240.802 407.8 237.242 409.64 234.602 413.32C231.962 417 230.642 422 230.642 428.32C230.642 433.12 231.362 437.36 232.802 441.04C234.242 444.64 236.242 447.48 238.802 449.56C241.362 451.56 244.322 452.56 247.682 452.56ZM308.025 458.44C300.265 458.44 294.305 455.32 290.145 449.08C286.065 442.76 284.025 433.68 284.025 421.84C284.025 408.16 286.945 397.48 292.785 389.8C298.705 382.04 308.065 376.64 320.865 373.6C322.625 373.2 323.945 372.84 324.825 372.52C325.785 372.12 326.585 371.6 327.225 370.96C327.865 370.24 328.545 369.24 329.265 367.96L332.625 369.4L332.865 369.88L327.825 381.88L326.625 382.96C319.185 383.92 313.185 385.08 308.625 386.44C304.065 387.8 300.625 389.64 298.305 391.96C295.985 394.2 294.545 397.2 293.985 400.96C293.425 404.72 293.385 409.52 293.865 415.36L292.065 408.16L294.225 409.24C298.305 405.16 303.745 402.52 310.545 401.32C315.425 401.32 319.705 402.48 323.385 404.8C327.065 407.04 329.905 410.2 331.905 414.28C333.985 418.28 335.025 422.96 335.025 428.32C335.025 434.08 333.865 439.24 331.545 443.8C329.225 448.36 326.025 451.96 321.945 454.6C317.865 457.16 313.225 458.44 308.025 458.44ZM310.545 452.56C315.105 452.56 318.665 450.72 321.225 447.04C323.865 443.36 325.185 438.36 325.185 432.04C325.185 427.24 324.465 423.04 323.025 419.44C321.585 415.76 319.585 412.92 317.025 410.92C314.465 408.84 311.505 407.8 308.145 407.8C303.665 407.8 300.105 409.68 297.465 413.44C294.825 417.12 293.505 422.16 293.505 428.56C293.505 433.28 294.225 437.44 295.665 441.04C297.105 444.64 299.105 447.48 301.665 449.56C304.225 451.56 307.185 452.56 310.545 452.56ZM369.872 458.44C364.832 458.44 360.432 457.32 356.672 455.08C352.912 452.84 349.952 449.76 347.792 445.84C345.712 441.84 344.672 437.2 344.672 431.92C344.672 427.84 345.352 423.96 346.712 420.28C348.152 416.6 350.112 413.36 352.592 410.56C355.072 407.68 357.872 405.44 360.992 403.84C364.192 402.16 367.592 401.32 371.192 401.32C383.112 401.32 389.072 407.12 389.072 418.72C389.072 419.76 388.992 420.84 388.832 421.96C388.672 423.08 388.512 423.96 388.352 424.6L386.792 426.04H353.672C353.592 433.16 354.872 438.8 357.512 442.96C360.232 447.04 364.032 449.44 368.912 450.16C373.792 450.8 379.552 449.6 386.192 446.56L386.912 446.8L388.232 450.28C386.632 451.4 384.712 452.6 382.472 453.88C380.312 455.16 378.112 456.24 375.872 457.12C373.632 458 371.632 458.44 369.872 458.44ZM354.152 421.6L375.872 420.52C377.072 420.36 377.872 420.08 378.272 419.68C378.672 419.28 378.872 418.48 378.872 417.28C378.872 414.08 377.992 411.64 376.232 409.96C374.552 408.28 372.112 407.44 368.912 407.44C365.232 407.44 362.032 408.72 359.312 411.28C356.592 413.76 354.872 417.2 354.152 421.6ZM399.999 457.84L400.599 452.8C403.399 452.32 405.239 451.6 406.119 450.64C407.079 449.68 407.559 448.04 407.559 445.72L407.679 412.12C407.679 410.28 407.439 409.08 406.959 408.52C406.559 407.88 405.679 407.56 404.319 407.56C403.759 407.56 403.119 407.6 402.399 407.68C401.679 407.68 401.319 407.68 401.319 407.68L401.079 407.2L401.679 402.64C401.679 402.64 402.279 402.64 403.479 402.64C404.679 402.64 406.079 402.68 407.679 402.76C409.359 402.76 410.799 402.76 411.999 402.76C413.359 402.76 414.879 402.72 416.559 402.64C418.239 402.48 419.679 402.36 420.879 402.28C422.159 402.2 422.799 402.16 422.799 402.16L422.439 407.08C419.959 407.4 418.399 407.96 417.759 408.76C417.199 409.56 416.839 411.32 416.679 414.04L416.079 426.76L430.359 426.88C432.679 426.88 434.759 426.84 436.599 426.76C438.439 426.6 440.599 426.4 443.079 426.16L443.199 412.12C443.199 410.28 442.959 409.08 442.479 408.52C442.079 407.88 441.199 407.56 439.839 407.56C439.279 407.56 438.599 407.6 437.799 407.68C437.079 407.68 436.719 407.68 436.719 407.68L436.479 407.2L437.079 402.64C437.079 402.64 437.679 402.64 438.879 402.64C440.079 402.64 441.439 402.68 442.959 402.76C444.479 402.76 445.759 402.76 446.799 402.76C448.239 402.76 449.879 402.72 451.719 402.64C453.559 402.48 455.119 402.36 456.399 402.28C457.759 402.2 458.439 402.16 458.439 402.16L458.079 407.08C455.839 407.4 454.359 407.88 453.639 408.52C452.919 409.08 452.479 410.16 452.319 411.76C452.079 415.52 451.839 419.6 451.599 424C451.439 428.4 451.319 432.6 451.239 436.6C451.159 440.52 451.119 443.84 451.119 446.56C451.119 448.64 451.359 450.08 451.839 450.88C452.399 451.68 453.439 452.08 454.959 452.08C455.919 452.08 456.799 452.04 457.599 451.96C458.479 451.8 458.919 451.72 458.919 451.72L459.159 452.2L458.319 457.24C458.319 457.24 457.639 457.2 456.279 457.12C454.999 457.12 453.439 457.08 451.599 457C449.759 457 448.079 457 446.559 457C445.519 457 444.119 457 442.359 457C440.599 457 438.999 457 437.559 457C436.199 457.08 435.519 457.12 435.519 457.12L436.359 452.2C439.079 452.12 440.879 451.52 441.759 450.4C442.639 449.28 443.079 447 443.079 443.56V432.16C443.079 432.16 442.279 432.16 440.679 432.16C439.159 432.08 437.399 432.04 435.399 432.04C433.399 432.04 431.719 432.04 430.359 432.04C429.639 432.04 428.479 432.08 426.879 432.16C425.359 432.24 423.719 432.36 421.959 432.52C420.279 432.6 418.839 432.68 417.639 432.76C416.439 432.84 415.839 432.88 415.839 432.88L415.599 446.32C415.519 448.56 415.719 450.08 416.199 450.88C416.759 451.68 417.799 452.08 419.319 452.08C420.279 452.08 421.159 452.04 421.959 451.96C422.839 451.88 423.279 451.84 423.279 451.84L423.519 452.2L422.679 457.24C422.679 457.24 422.159 457.2 421.119 457.12C420.159 457.12 418.999 457.08 417.639 457C416.359 457 415.159 457 414.039 457C412.279 457 410.279 457.04 408.039 457.12C405.879 457.28 403.999 457.4 402.399 457.48C400.879 457.64 400.079 457.76 399.999 457.84ZM469.843 457.84L470.443 452.8C473.243 452.32 475.083 451.6 475.963 450.64C476.923 449.68 477.403 448.04 477.403 445.72L477.523 412.12C477.523 410.28 477.283 409.08 476.803 408.52C476.403 407.88 475.523 407.56 474.163 407.56C473.603 407.56 472.963 407.6 472.243 407.68C471.523 407.68 471.163 407.68 471.163 407.68L470.923 407.2L471.523 402.64C471.523 402.64 472.123 402.64 473.323 402.64C474.523 402.64 475.923 402.68 477.523 402.76C479.203 402.76 480.643 402.76 481.843 402.76C483.203 402.76 484.723 402.72 486.403 402.64C488.083 402.48 489.523 402.36 490.723 402.28C492.003 402.2 492.643 402.16 492.643 402.16L492.283 407.08C489.803 407.4 488.243 407.96 487.603 408.76C487.043 409.56 486.683 411.32 486.523 414.04L485.923 426.76L500.203 426.88C502.523 426.88 504.603 426.84 506.443 426.76C508.283 426.6 510.443 426.4 512.923 426.16L513.043 412.12C513.043 410.28 512.803 409.08 512.323 408.52C511.923 407.88 511.043 407.56 509.683 407.56C509.123 407.56 508.443 407.6 507.643 407.68C506.923 407.68 506.563 407.68 506.563 407.68L506.323 407.2L506.923 402.64C506.923 402.64 507.523 402.64 508.723 402.64C509.923 402.64 511.283 402.68 512.803 402.76C514.323 402.76 515.603 402.76 516.643 402.76C518.083 402.76 519.723 402.72 521.563 402.64C523.403 402.48 524.963 402.36 526.242 402.28C527.603 402.2 528.283 402.16 528.283 402.16L527.922 407.08C525.682 407.4 524.203 407.88 523.483 408.52C522.763 409.08 522.323 410.16 522.163 411.76C521.923 415.52 521.683 419.6 521.443 424C521.283 428.4 521.163 432.6 521.083 436.6C521.003 440.52 520.963 443.84 520.963 446.56C520.963 448.64 521.203 450.08 521.683 450.88C522.243 451.68 523.283 452.08 524.803 452.08C525.763 452.08 526.643 452.04 527.443 451.96C528.323 451.8 528.763 451.72 528.763 451.72L529.003 452.2L528.163 457.24C528.163 457.24 527.483 457.2 526.123 457.12C524.843 457.12 523.283 457.08 521.443 457C519.603 457 517.923 457 516.403 457C515.363 457 513.963 457 512.203 457C510.443 457 508.843 457 507.403 457C506.043 457.08 505.363 457.12 505.363 457.12L506.203 452.2C508.923 452.12 510.723 451.52 511.603 450.4C512.483 449.28 512.923 447 512.923 443.56V432.16C512.923 432.16 512.123 432.16 510.523 432.16C509.003 432.08 507.243 432.04 505.243 432.04C503.243 432.04 501.563 432.04 500.203 432.04C499.483 432.04 498.323 432.08 496.723 432.16C495.203 432.24 493.563 432.36 491.803 432.52C490.123 432.6 488.683 432.68 487.483 432.76C486.283 432.84 485.683 432.88 485.683 432.88L485.443 446.32C485.363 448.56 485.563 450.08 486.043 450.88C486.603 451.68 487.643 452.08 489.163 452.08C490.123 452.08 491.003 452.04 491.803 451.96C492.683 451.88 493.123 451.84 493.123 451.84L493.363 452.2L492.523 457.24C492.523 457.24 492.003 457.2 490.963 457.12C490.003 457.12 488.843 457.08 487.483 457C486.203 457 485.003 457 483.883 457C482.123 457 480.123 457.04 477.883 457.12C475.723 457.28 473.843 457.4 472.243 457.48C470.723 457.64 469.923 457.76 469.843 457.84ZM562.486 458.44C557.926 458.44 553.886 457.32 550.366 455.08C546.846 452.84 544.086 449.72 542.086 445.72C540.166 441.64 539.206 437 539.206 431.8C539.206 426.04 540.406 420.88 542.806 416.32C545.286 411.68 548.646 408.04 552.886 405.4C557.126 402.68 561.846 401.32 567.046 401.32C571.606 401.32 575.646 402.44 579.166 404.68C582.686 406.92 585.406 410.04 587.326 414.04C589.326 418.04 590.326 422.68 590.326 427.96C590.326 433.64 589.086 438.8 586.606 443.44C584.206 448.08 580.886 451.76 576.646 454.48C572.486 457.12 567.766 458.44 562.486 458.44ZM565.846 452.56C570.326 452.56 573.886 450.76 576.526 447.16C579.166 443.48 580.486 438.52 580.486 432.28C580.486 427.48 579.766 423.24 578.326 419.56C576.886 415.88 574.886 413 572.326 410.92C569.766 408.84 566.806 407.8 563.446 407.8C558.966 407.8 555.406 409.64 552.766 413.32C550.126 417 548.806 422 548.806 428.32C548.806 433.12 549.526 437.36 550.966 441.04C552.406 444.64 554.406 447.48 556.966 449.56C559.526 451.56 562.486 452.56 565.846 452.56ZM624.989 458.44C619.949 458.44 615.549 457.36 611.789 455.2C608.029 452.96 605.109 449.88 603.029 445.96C600.949 441.96 599.909 437.28 599.909 431.92C599.909 426.16 601.109 421 603.509 416.44C605.989 411.8 609.309 408.12 613.469 405.4C617.709 402.68 622.429 401.32 627.629 401.32C630.189 401.32 632.509 401.52 634.589 401.92C636.749 402.24 638.469 402.6 639.749 403C641.029 403.4 641.669 403.6 641.669 403.6L642.029 404.44C642.029 404.44 641.829 405.16 641.429 406.6C641.109 408.04 640.749 410.04 640.349 412.6C639.949 415.08 639.669 417.88 639.509 421L634.589 421.36V417.64C634.589 414.68 633.669 412.32 631.829 410.56C630.069 408.72 627.709 407.8 624.749 407.8C619.869 407.8 616.109 409.56 613.469 413.08C610.829 416.52 609.509 421.44 609.509 427.84C609.509 434.8 610.949 440.32 613.829 444.4C616.789 448.4 620.789 450.4 625.829 450.4C628.069 450.4 630.229 450.08 632.309 449.44C634.389 448.72 636.069 448.04 637.349 447.4C638.709 446.76 639.389 446.44 639.389 446.44L640.109 446.68L641.429 450.4C641.429 450.4 640.869 450.8 639.749 451.6C638.629 452.4 637.189 453.36 635.429 454.48C633.669 455.52 631.829 456.44 629.909 457.24C628.069 458.04 626.429 458.44 624.989 458.44ZM659.623 457.48L660.343 452.56C663.143 452.32 665.183 452 666.463 451.6C667.743 451.12 668.543 450.24 668.863 448.96C669.263 447.6 669.463 445.56 669.463 442.84V407.56C666.343 407.64 663.863 407.8 662.023 408.04C660.263 408.2 658.903 408.64 657.943 409.36C656.983 410.08 656.263 411.2 655.783 412.72C655.383 414.16 654.983 416.16 654.583 418.72L649.423 419.08C649.583 417.72 649.743 416.32 649.903 414.88C650.063 413.44 650.183 412 650.263 410.56C650.423 409.04 650.543 407.6 650.623 406.24C650.703 404.88 650.743 403.68 650.743 402.64L651.463 401.8L659.503 402.76H687.823L695.983 401.8L696.703 402.64C696.783 404.48 696.903 406.44 697.063 408.52C697.223 410.52 697.383 412.44 697.543 414.28C697.783 416.04 697.943 417.52 698.023 418.72L692.863 419.08C692.463 416.44 692.023 414.4 691.543 412.96C691.143 411.44 690.503 410.32 689.623 409.6C688.743 408.88 687.423 408.4 685.663 408.16C683.983 407.84 681.663 407.64 678.703 407.56C678.463 409.8 678.223 413.08 677.983 417.4C677.823 421.72 677.663 426.44 677.503 431.56C677.423 436.68 677.383 441.6 677.383 446.32C677.383 448.4 677.783 449.88 678.583 450.76C679.383 451.64 680.663 452.08 682.423 452.08C683.463 452.08 684.423 452.08 685.303 452.08C686.263 452 686.983 451.92 687.463 451.84L687.703 452.2L686.863 457.36C685.823 457.36 684.663 457.32 683.383 457.24C682.103 457.24 680.823 457.2 679.543 457.12C678.263 457.12 677.023 457.08 675.823 457C674.703 457 673.743 457 672.943 457C672.143 457 671.183 457 670.063 457C669.023 457.08 667.863 457.12 666.583 457.12C665.383 457.2 664.143 457.24 662.863 457.24C661.663 457.32 660.583 457.4 659.623 457.48ZM719.904 449.92L715.944 445.6C722.104 439.68 728.184 433.6 734.184 427.36C740.184 421.12 746.024 414.76 751.704 408.28L755.664 412.6C749.504 418.6 743.424 424.72 737.424 430.96C731.424 437.12 725.584 443.44 719.904 449.92ZM705.624 457.84L706.224 452.8C709.024 452.32 710.864 451.6 711.744 450.64C712.704 449.68 713.184 448 713.184 445.6L713.304 412.24C713.304 410.4 713.064 409.2 712.584 408.64C712.184 408 711.304 407.68 709.944 407.68C709.384 407.68 708.744 407.72 708.024 407.8C707.304 407.8 706.944 407.8 706.944 407.8L706.704 407.32L707.304 402.64C707.304 402.64 707.904 402.64 709.104 402.64C710.384 402.64 711.824 402.68 713.424 402.76C715.104 402.76 716.544 402.76 717.744 402.76C718.704 402.76 719.784 402.72 720.984 402.64C722.264 402.56 723.464 402.52 724.584 402.52C725.784 402.44 726.744 402.36 727.464 402.28C728.184 402.2 728.544 402.16 728.544 402.16L728.184 407.2C725.704 407.52 724.144 408.08 723.504 408.88C722.864 409.68 722.464 411.44 722.304 414.16C722.144 417.68 721.944 421.48 721.704 425.56C721.544 429.56 721.384 433.4 721.224 437.08C721.144 440.76 721.104 443.84 721.104 446.32C721.104 448.56 721.384 450.08 721.944 450.88C722.584 451.68 723.704 452.08 725.304 452.08C726.104 452.08 726.904 452.04 727.704 451.96C728.584 451.88 729.024 451.84 729.024 451.84L729.264 452.2L728.424 457.24C728.424 457.24 728.104 457.2 727.464 457.12C726.904 457.12 726.184 457.12 725.304 457.12C724.424 457.12 723.504 457.08 722.544 457C721.584 457 720.704 457 719.904 457C718.064 457 716.024 457.04 713.784 457.12C711.624 457.28 709.744 457.4 708.144 457.48C706.544 457.64 705.704 457.76 705.624 457.84ZM764.304 457.24C764.304 457.24 763.624 457.2 762.264 457.12C760.904 457.12 759.304 457.08 757.464 457C755.624 457 753.944 457 752.424 457C751.624 457 750.584 457 749.304 457C748.104 457 746.864 457 745.584 457C744.384 457.08 743.384 457.12 742.584 457.12C741.784 457.12 741.384 457.12 741.384 457.12L742.224 452.2C744.944 452.12 746.744 451.52 747.624 450.4C748.584 449.28 749.064 447 749.064 443.56L749.184 412.24C749.184 410.4 748.904 409.2 748.344 408.64C747.864 408 746.944 407.68 745.584 407.68C745.104 407.68 744.504 407.72 743.784 407.8C743.064 407.8 742.704 407.8 742.704 407.8L742.464 407.32L743.064 402.64C743.064 402.64 743.624 402.64 744.744 402.64C745.944 402.64 747.304 402.68 748.824 402.76C750.424 402.76 751.744 402.76 752.784 402.76C753.904 402.76 755.104 402.72 756.384 402.64C757.744 402.56 759.024 402.52 760.224 402.52C761.504 402.44 762.504 402.36 763.224 402.28C764.024 402.2 764.424 402.16 764.424 402.16L764.064 407.2C761.824 407.52 760.304 408 759.504 408.64C758.784 409.2 758.384 410.28 758.304 411.88C758.144 415.64 757.944 419.72 757.704 424.12C757.544 428.44 757.384 432.56 757.224 436.48C757.144 440.4 757.104 443.68 757.104 446.32C757.104 448.56 757.384 450.08 757.944 450.88C758.504 451.68 759.544 452.08 761.064 452.08C761.944 452.08 762.784 452.04 763.584 451.96C764.464 451.8 764.904 451.72 764.904 451.72L765.144 452.2L764.304 457.24Z" fill="white"/>
</g>
<defs>
<clipPath id="clip0_316_1241">
<rect width="1440" height="1238" fill="white"/>
</clipPath>
</defs>
</svg>
