<svg width="1440" height="1678" viewBox="0 0 1440 1678" fill="none" xmlns="http://www.w3.org/2000/svg">
<g clip-path="url(#clip0_276_316)">
<rect width="1440" height="1678" fill="#061E37"/>
<path d="M1045.92 1482.69L862.422 1499.98L1050.35 1406.25L893.245 1298.31L1123.52 1365.95L1160.64 1163.25L1168.59 1341.12L1376.61 1191.07L1240.23 1360.37L1435.25 1329.39L1215.78 1418.48L1420.28 1505.81L1193.04 1492.16L1217.98 1675.95L1122.1 1501.88L937.817 1685.33L1045.92 1482.69Z" fill="#DFBB7D"/>
<path d="M248.557 -136.028L866 279.077L1750.5 915.077C1693.95 1167.73 1145.68 1377.25 1005.57 1462.48C865.462 1547.72 171.076 1678.18 -65.4426 1598.97L248.557 -136.028Z" fill="#DFBB7D"/>
</g>
<defs>
<clipPath id="clip0_276_316">
<rect width="1440" height="1678" fill="white"/>
</clipPath>
</defs>
</svg>
