<svg width="1420" height="1420" viewBox="0 0 1420 1420" fill="none" xmlns="http://www.w3.org/2000/svg">
<path d="M390.001 502.189L389.119 501.95L385.747 498.669C387.293 496.322 388.411 494.452 389.102 493.061C389.792 491.669 390.116 490.548 390.074 489.698C389.968 488.798 389.539 488.051 388.786 487.455C388.159 486.958 387.42 486.475 386.568 486.005C385.716 485.535 384.727 485.109 383.601 484.728L370.891 479.72C369.936 480.801 368.641 482.377 367.006 484.45C365.42 486.46 364.107 488.124 363.067 489.443C361.63 491.264 360.212 493.254 358.815 495.413C357.467 497.509 356.434 499.14 355.717 500.307L362.753 511.538C364.001 513.443 365.001 514.694 365.754 515.29C367.134 516.382 368.485 516.737 369.806 516.354C371.114 515.859 372.536 514.637 374.072 512.691L378.309 507.321L378.834 507.43L382.434 511.198C382.434 511.198 381.851 511.807 380.685 513.027C379.519 514.247 378.08 515.812 376.369 517.722C374.721 519.682 373.079 521.699 371.443 523.771C370.254 525.278 369.015 526.848 367.727 528.481C366.551 530.101 365.548 531.501 364.719 532.681C363.939 533.799 363.549 534.357 363.549 534.357L359.721 530.103C360.921 528.196 361.44 526.311 361.278 524.449C361.117 522.587 360.115 520.111 358.274 517.021L324.684 460.597L327.767 453.396L328.362 452.643C328.362 452.643 329.263 453.05 331.066 453.865C332.856 454.567 335.341 455.615 338.521 457.01C341.687 458.291 345.336 459.802 349.467 461.541C353.585 463.167 357.947 464.936 362.553 466.847C367.209 468.695 371.952 470.562 376.783 472.446C381.551 474.281 386.163 475.992 390.617 477.579C393.533 478.663 395.957 478.948 397.889 478.437C399.87 477.863 402.052 476.325 404.434 473.823L404.959 473.932L408.297 477.645C408.297 477.645 407.77 478.248 406.716 479.455C405.712 480.598 404.559 481.93 403.257 483.451C402.018 485.021 400.978 486.34 400.135 487.407C398.252 489.794 396.506 492.136 394.897 494.433C393.401 496.718 392.195 498.569 391.28 499.987C390.427 501.455 390.001 502.189 390.001 502.189ZM352.444 494.962L358.986 486.672C359.977 485.416 361.103 483.859 362.365 482.001C363.627 480.144 364.648 478.656 365.428 477.539L334.902 465.47L334.382 466.13L352.444 494.962Z" fill="#F4F1E1"/>
<path d="M417.032 466.592L413.815 462.838C414.956 460.717 415.485 459.007 415.4 457.706C415.314 456.291 414.719 454.945 413.618 453.666C412.517 452.386 411.072 450.888 409.283 449.171L366.779 408.366C365.336 406.981 364.159 406.128 363.248 405.808C362.335 405.374 361.432 405.45 360.54 406.036C359.704 406.564 358.681 407.633 357.472 409.245L357.05 409.339L354.439 406.167C356.196 403.75 357.895 401.278 359.536 398.751C361.177 396.223 362.732 393.612 364.2 390.919L365.823 391.479C366.006 392.098 367.112 393.603 369.142 395.995C371.114 398.332 373.807 401.361 377.221 405.083C380.634 408.691 384.536 412.771 388.93 417.321C393.323 421.872 398.003 426.642 402.971 431.634C407.995 436.567 413.045 441.471 418.124 446.347C419.855 448.009 421.317 448.969 422.509 449.227C423.702 449.484 424.823 449.064 425.874 447.965L428.603 444.762L429.115 444.921L432.174 449.189C431.231 450.059 429.985 451.247 428.435 452.753C426.94 454.201 425.64 455.503 424.534 456.66C423.539 457.701 422.354 459.114 420.98 460.899C419.718 462.682 418.402 464.58 417.032 466.592Z" fill="#F4F1E1"/>
<path d="M456.379 425.232C452.392 428.315 448.229 430.118 443.89 430.641C439.55 431.165 435.332 430.533 431.235 428.746C427.153 426.846 423.503 423.803 420.287 419.616C417.801 416.38 415.975 412.887 414.809 409.137C413.707 405.338 413.283 401.57 413.539 397.833C413.747 394.032 414.597 390.543 416.091 387.366C417.599 384.076 419.777 381.33 422.625 379.128C432.055 371.837 440.303 372.791 447.37 381.989C448.004 382.814 448.598 383.719 449.154 384.706C449.71 385.692 450.119 386.487 450.383 387.093L450.026 389.189L423.824 409.448C428.099 415.143 432.547 418.832 437.17 420.516C441.808 422.088 446.276 421.667 450.575 419.253C454.826 416.775 458.651 412.3 462.052 405.828L462.768 405.578L465.933 407.53C465.349 409.397 464.561 411.523 463.569 413.908C462.64 416.245 461.557 418.447 460.322 420.515C459.086 422.583 457.771 424.155 456.379 425.232ZM421.499 405.633L438.024 391.491C438.876 390.63 439.338 389.919 439.411 389.357C439.484 388.795 439.155 388.038 438.424 387.087C436.474 384.549 434.291 383.152 431.876 382.897C429.523 382.592 427.081 383.418 424.549 385.376C421.638 387.627 419.886 390.599 419.294 394.293C418.653 397.924 419.388 401.704 421.499 405.633Z" fill="#F4F1E1"/>
<path d="M511.629 415.108C508.303 416.861 505.14 417.805 502.142 417.939C499.143 418.072 496.416 417.43 493.96 416.012C491.575 414.556 489.624 412.374 488.105 409.467C488.466 407.739 489.104 405.504 490.018 402.761C491.04 400.052 492.239 397.249 493.614 394.354L493.281 393.716C489.268 395.017 485.807 395.304 482.9 394.576C480.063 393.811 477.852 392.082 476.266 389.391C476.911 387.514 477.679 385.617 478.573 383.699C479.43 381.71 480.448 379.771 481.628 377.883L480.85 376.394L487.314 375.292C485.713 377.583 484.658 379.451 484.148 380.895C483.673 382.231 483.676 383.36 484.157 384.282C484.898 385.7 486.303 386.316 488.372 386.13C490.403 385.873 492.821 385.231 495.625 384.205C498.462 383.071 501.459 381.898 504.617 380.686C507.845 379.436 510.972 378.511 513.998 377.911C517.057 377.202 519.807 377.109 522.246 377.632C524.722 378.226 526.645 379.834 528.016 382.458C529.238 384.798 529.698 387.494 529.397 390.547C529.167 393.562 528.241 396.628 526.619 399.744C525.068 402.822 523.014 405.714 520.455 408.419C517.897 411.125 514.955 413.354 511.629 415.108ZM512.516 407.993C515.276 406.538 517.6 404.68 519.487 402.419C521.412 400.228 522.691 397.926 523.326 395.511C523.96 393.097 523.796 390.968 522.833 389.124C522.092 387.706 520.969 386.851 519.463 386.56C517.957 386.269 515.533 386.552 512.19 387.41C508.955 388.301 504.322 389.885 498.29 392.16C496.945 394.768 496.169 397.257 495.962 399.627C495.793 402.068 496.171 404.175 497.097 405.947C498.356 408.358 500.383 409.732 503.176 410.068C506.006 410.475 509.119 409.784 512.516 407.993ZM492.553 368.732C495.808 367.016 497.818 364.645 498.584 361.619C499.421 358.555 498.895 355.215 497.006 351.598C494.858 347.485 491.985 344.75 488.387 343.391C484.79 342.032 481.186 342.304 477.577 344.206C474.322 345.922 472.294 348.348 471.494 351.482C470.765 354.58 471.345 357.937 473.234 361.553C475.345 365.595 478.2 368.295 481.798 369.654C485.358 370.942 488.943 370.635 492.553 368.732ZM492.555 374.7C489.088 376.528 485.657 377.477 482.265 377.547C478.905 377.51 475.818 376.696 473.002 375.105C470.219 373.407 468.013 370.998 466.384 367.878C464.532 364.332 463.732 360.639 463.982 356.799C464.304 352.922 465.488 349.313 467.534 345.974C469.651 342.597 472.479 339.975 476.018 338.11C477.999 337.065 479.985 336.289 481.977 335.782C484.002 335.167 485.687 334.505 487.032 333.796C488.373 332.908 490.169 331.509 492.421 329.598C494.743 327.651 497.274 325.412 500.014 322.882L500.555 323.14L502.498 329.712C501.052 330.745 499.517 331.781 497.893 332.818C496.268 333.855 494.927 334.743 493.869 335.482L493.722 336.237C498.182 337.865 501.486 340.736 503.634 344.848C505.449 348.323 506.142 351.982 505.713 355.826C505.354 359.632 504.027 363.226 501.731 366.607C499.506 369.95 496.448 372.648 492.555 374.7Z" fill="#F4F1E1"/>
<path d="M540.031 359.851C542.204 358.801 543.449 357.537 543.766 356.058C544.055 354.505 543.562 351.959 542.286 348.422L533.325 323.59C532.429 321.106 531.453 319.462 530.396 318.655C529.34 317.849 528.06 317.72 526.558 318.27C525.957 318.489 525.42 318.771 524.949 319.113C524.525 319.353 524.313 319.473 524.313 319.473L523.464 318.889L522.54 315.266C524.706 313.964 526.859 312.623 528.998 311.245C531.137 309.867 532.928 308.701 534.37 307.748C535.812 306.795 536.533 306.319 536.533 306.319L537.567 306.708C537.567 306.708 537.671 307.351 537.88 308.637C538.165 309.896 538.557 311.456 539.059 313.317C539.533 315.103 540.096 316.899 540.748 318.705L541.321 318.879C542.374 314.491 543.996 310.619 546.187 307.262C548.378 303.906 550.6 301.817 552.854 300.993C554.132 300.526 555.061 300.271 555.641 300.23C556.221 300.188 556.511 300.167 556.511 300.167L557.012 300.495C557.012 300.495 557.127 301.049 557.357 302.158C557.56 303.191 557.847 304.576 558.219 306.314C558.564 307.977 558.963 309.79 559.416 311.754C559.945 313.69 560.484 315.537 561.033 317.295L556.76 319.241C555.647 316.155 554.726 314.192 553.997 313.351C553.241 312.435 552.225 312.21 550.947 312.677C549.294 313.281 547.773 314.604 546.383 316.645C544.993 318.686 543.944 321.199 543.235 324.184C543.235 324.184 543.455 324.913 543.896 326.37C544.31 327.752 544.859 329.51 545.544 331.644C546.23 333.779 546.942 335.989 547.681 338.274C548.394 340.483 549.025 342.467 549.574 344.226C550.096 345.909 550.452 347.013 550.642 347.54C551.566 350.099 552.566 351.692 553.643 352.321C554.72 352.949 556.311 352.879 558.415 352.11C559.241 351.808 560.242 351.399 561.417 350.885C562.667 350.342 563.292 350.071 563.292 350.071L563.568 350.482L564.346 355.819C564.346 355.819 563.957 355.919 563.178 356.118C562.427 356.393 561.45 356.75 560.248 357.189C559.045 357.629 557.755 358.058 556.375 358.477C555.098 358.944 553.895 359.383 552.768 359.795C550.589 360.591 548.612 361.357 546.835 362.091C545.059 362.826 543.659 363.423 542.634 363.882C541.609 364.342 541.097 364.572 541.097 364.572L540.031 359.851Z" fill="#F4F1E1"/>
<path d="M609.472 340.584C604.533 341.592 600.003 341.374 595.88 339.929C591.756 338.484 588.253 336.056 585.368 332.644C582.546 329.138 580.617 324.796 579.582 319.618C578.783 315.617 578.688 311.677 579.299 307.796C579.989 303.899 581.274 300.33 583.155 297.089C585.021 293.769 587.325 291.012 590.069 288.819C592.875 286.532 596.041 285.028 599.568 284.308C611.248 281.924 618.224 286.42 620.498 297.795C620.702 298.815 620.835 299.89 620.898 301.02C620.961 302.15 620.976 303.045 620.945 303.705L619.699 305.429L587.248 312.052C588.565 319.05 590.925 324.325 594.327 327.876C597.792 331.333 601.985 332.927 606.908 332.657C611.815 332.308 617.223 329.98 623.133 325.671L623.886 325.762L625.861 328.911C624.513 330.329 622.867 331.89 620.923 333.593C619.058 335.28 617.114 336.779 615.092 338.09C613.069 339.401 611.196 340.232 609.472 340.584ZM586.848 307.602L607.917 302.2C609.062 301.803 609.791 301.368 610.104 300.896C610.418 300.424 610.457 299.599 610.222 298.423C609.595 295.285 608.254 293.068 606.2 291.773C604.225 290.461 601.67 290.125 598.534 290.765C594.929 291.501 592.044 293.396 589.881 296.451C587.702 299.427 586.691 303.144 586.848 307.602Z" fill="#F4F1E1"/>
<path d="M643.475 357.542C643.155 357.557 642.704 357.299 642.12 356.766C641.536 356.233 640.907 355.582 640.232 354.813C639.641 354.12 639.128 353.384 638.694 352.604C638.183 351.907 637.919 351.359 637.901 350.959L638.463 350.092C643.098 349.872 647.249 347.752 650.917 343.734C654.587 339.795 657.637 334.484 660.067 327.802C659.246 325.518 658.291 322.92 657.202 320.009C656.114 317.097 654.94 314.069 653.681 310.926C652.498 307.698 651.277 304.513 650.018 301.369C648.835 298.141 647.66 295.074 646.491 292.166C645.323 289.258 644.248 286.666 643.267 284.39C642.377 282.35 641.235 280.963 639.841 280.228C638.524 279.41 636.865 279.008 634.864 279.023L634.603 278.555L635.149 274.564C635.149 274.564 635.788 274.534 637.066 274.473C638.345 274.413 639.785 274.384 641.387 274.388C642.985 274.312 644.224 274.253 645.103 274.212C646.861 274.128 648.577 274.007 650.252 273.847C652.006 273.683 653.561 273.529 654.916 273.385C656.267 273.161 657.341 272.989 658.136 272.872C659.012 272.75 659.45 272.689 659.45 272.689L659.716 273.277L659.16 277.028C656.446 277.237 654.62 277.604 653.683 278.129C652.821 278.57 652.415 279.35 652.464 280.469C652.496 281.189 652.797 282.576 653.367 284.631C654.014 286.603 654.797 288.928 655.716 291.607C656.634 294.287 657.597 297.084 658.606 300C659.612 302.835 660.57 305.513 661.481 308.032C662.389 310.472 663.118 312.48 663.667 314.055C664.293 315.547 664.606 316.293 664.606 316.293L665.086 316.27C666.301 312.929 667.623 309.302 669.053 305.39C670.479 301.398 671.792 297.571 672.993 293.91C674.274 290.245 675.297 287.113 676.064 284.514C676.911 281.911 677.322 280.329 677.297 279.77C677.248 278.651 676.853 277.869 676.113 277.424C675.373 276.978 674.204 276.793 672.605 276.869L667.092 277.131L666.831 276.663L667.376 272.673C667.376 272.673 667.977 272.684 669.18 272.707C670.462 272.726 672.023 272.732 673.865 272.725C675.786 272.714 677.706 272.663 679.624 272.571C681.062 272.503 682.54 272.433 684.059 272.361C685.653 272.205 687.01 272.1 688.129 272.047C689.248 271.994 689.807 271.968 689.807 271.968L689.163 276.443C687.419 276.846 686.088 277.55 685.171 278.555C684.334 279.556 683.527 281.236 682.75 283.595L669.127 320.764C666.482 328.017 664.143 334.015 662.109 338.757C660.075 343.499 658.117 347.236 656.235 349.968C654.433 352.697 652.516 354.63 650.484 355.768C648.452 356.905 646.115 357.497 643.475 357.542Z" fill="#F4F1E1"/>
<path d="M741.232 327.736C738.054 327.365 735.646 326.278 734.008 324.476C732.46 322.603 731.717 320.06 731.779 316.845L731.317 316.67C729.181 318.354 727.154 319.809 725.235 321.034C723.405 322.19 721.767 323.086 720.321 323.722C718.964 324.288 717.888 324.525 717.094 324.432C714.154 324.089 711.608 323.147 709.455 321.607C707.303 320.067 705.685 318.106 704.6 315.724C703.595 313.351 703.263 310.735 703.605 307.875C703.881 305.572 704.68 303.611 706.001 301.994C707.402 300.385 709.089 299.415 711.063 299.081L734.45 295.531L735.197 290.303C735.672 286.331 735.129 283.126 733.567 280.689C732.006 278.251 729.557 276.837 726.219 276.447C723.994 276.187 721.589 276.43 719.002 277.175C716.415 277.92 713.816 279.106 711.204 280.734L710.651 280.307L709.833 275.016C712.042 274.066 714.494 273.104 717.188 272.13C719.893 271.077 722.449 270.248 724.858 269.643C727.267 269.039 729.067 268.806 730.259 268.946C733.755 269.354 736.659 270.338 738.97 271.896C741.291 273.376 742.949 275.341 743.945 277.793C745.03 280.175 745.377 282.995 744.987 286.252C744.864 287.284 744.545 288.938 744.031 291.214C743.596 293.499 743.049 296.053 742.389 298.875C741.739 301.618 741.137 304.287 740.585 306.88C740.113 309.483 739.772 311.658 739.563 313.405C739.354 315.153 739.629 316.554 740.389 317.61C741.149 318.665 742.284 319.281 743.794 319.457C745.145 319.615 746.533 319.455 747.96 318.977C749.397 318.42 750.51 317.866 751.302 317.314L752.742 319.415C751.983 320.374 750.966 321.463 749.692 322.683C748.507 323.834 747.173 324.886 745.689 325.84C744.284 326.804 742.799 327.436 741.232 327.736ZM720.089 316.567C721.599 316.743 723.409 316.431 725.519 315.631C727.718 314.76 729.752 313.588 731.62 312.115L733.67 300.031L716.876 303.023C714.486 303.468 713.134 305.002 712.82 307.623C712.554 309.847 713.081 311.842 714.401 313.607C715.809 315.302 717.706 316.288 720.089 316.567Z" fill="#F4F1E1"/>
<path d="M859.788 354.289L859.867 353.379L862.5 349.48C865.082 350.59 867.118 351.364 868.609 351.799C870.1 352.235 871.26 352.357 872.088 352.166C872.955 351.904 873.614 351.35 874.068 350.503C874.445 349.798 874.79 348.985 875.103 348.063C875.415 347.141 875.659 346.092 875.835 344.916L878.521 331.516C877.289 330.765 875.51 329.767 873.183 328.52C870.926 327.311 869.057 326.31 867.577 325.517C865.532 324.421 863.324 323.375 860.954 322.378C858.655 321.418 856.868 320.688 855.593 320.187L845.787 329.091C844.132 330.655 843.078 331.861 842.625 332.707C841.794 334.258 841.683 335.651 842.293 336.885C843.011 338.086 844.463 339.273 846.649 340.444L852.678 343.674L852.663 344.21L849.592 348.419C849.592 348.419 848.889 347.951 847.484 347.017C846.078 346.083 844.285 344.941 842.104 343.591C839.885 342.311 837.612 341.048 835.285 339.802C833.593 338.895 831.83 337.951 829.996 336.968C828.196 336.095 826.642 335.353 825.334 334.743C824.098 334.172 823.48 333.886 823.48 333.886L826.989 329.368C829.077 330.214 831.022 330.394 832.826 329.908C834.629 329.422 836.888 328 839.603 325.642L889.183 282.638L896.811 284.41L897.657 284.863C897.657 284.863 897.415 285.823 896.932 287.742C896.557 289.628 895.964 292.26 895.153 295.638C894.45 298.982 893.608 302.842 892.626 307.217C891.752 311.559 890.781 316.166 889.714 321.04C888.717 325.951 887.717 330.952 886.715 336.042C885.751 341.061 884.881 345.904 884.105 350.571C883.554 353.634 883.7 356.072 884.544 357.885C885.458 359.736 887.356 361.615 890.237 363.521L890.222 364.058L887.158 367.998C887.158 367.998 886.472 367.585 885.099 366.759C883.797 365.971 882.284 365.069 880.558 364.054C878.795 363.11 877.315 362.317 876.116 361.674C873.436 360.239 870.824 358.93 868.281 357.749C865.77 356.677 863.736 355.814 862.179 355.162C860.585 354.58 859.788 354.289 859.788 354.289ZM860.274 316.023L869.582 321.01C870.993 321.766 872.723 322.602 874.773 323.518C876.823 324.435 878.466 325.179 879.703 325.751L886.192 293.56L885.451 293.163L860.274 316.023Z" fill="#F4F1E1"/>
<path d="M900.026 374.941L903.153 371.113C905.438 371.868 907.212 372.091 908.476 371.781C909.852 371.448 911.071 370.627 912.136 369.318C913.201 368.009 914.421 366.322 915.796 364.258L948.466 315.226C949.575 313.561 950.208 312.252 950.363 311.298C950.629 310.321 950.396 309.444 949.664 308.667C948.999 307.934 947.768 307.113 945.971 306.202L945.805 305.803L948.466 302.674C951.15 303.984 953.878 305.228 956.651 306.405C959.423 307.583 962.262 308.66 965.168 309.638L964.901 311.336C964.325 311.624 963.038 312.978 961.042 315.396C959.09 317.748 956.584 320.933 953.523 324.949C950.573 328.944 947.246 333.504 943.542 338.63C939.838 343.757 935.968 349.205 931.931 354.974C927.961 360.788 924.024 366.625 920.121 372.483C918.79 374.481 918.102 376.09 918.058 377.311C918.014 378.531 918.624 379.564 919.888 380.408L923.514 382.54L923.448 383.072L919.788 386.833C918.768 386.056 917.381 385.035 915.629 383.769C913.944 382.548 912.435 381.493 911.105 380.605C909.907 379.805 908.31 378.883 906.314 377.84C904.34 376.907 902.244 375.94 900.026 374.941Z" fill="#F4F1E1"/>
<path d="M947.082 406.293C943.341 402.915 940.825 399.133 939.533 394.948C938.24 390.762 938.104 386.489 939.122 382.127C940.254 377.759 942.585 373.612 946.117 369.687C948.845 366.654 951.945 364.225 955.415 362.4C958.945 360.63 962.567 359.535 966.28 359.115C970.047 358.636 973.623 358.848 977.008 359.749C980.507 360.645 983.592 362.3 986.263 364.713C995.11 372.702 995.654 381.009 987.896 389.632C987.2 390.406 986.418 391.155 985.551 391.88C984.683 392.606 983.976 393.153 983.429 393.521L981.308 393.546L956.728 371.348C951.907 376.587 949.085 381.638 948.262 386.5C947.552 391.357 948.767 395.688 951.907 399.494C955.101 403.241 960.178 406.209 967.139 408.4L967.513 409.061L966.165 412.532C964.228 412.293 962.001 411.898 959.482 411.348C957.023 410.852 954.668 410.18 952.417 409.333C950.167 408.486 948.388 407.473 947.082 406.293ZM960.054 368.368L976.896 382.123C977.893 382.809 978.674 383.137 979.239 383.107C979.803 383.078 980.486 382.617 981.289 381.725C983.429 379.346 984.408 376.943 984.225 374.514C984.102 372.139 982.853 369.879 980.478 367.734C977.747 365.268 974.516 364.075 970.786 364.155C967.108 364.175 963.531 365.58 960.054 368.368Z" fill="#F4F1E1"/>
<path d="M966.382 458.868C964.069 455.903 962.579 452.954 961.913 450.019C961.247 447.084 961.39 444.276 962.342 441.595C963.344 438.978 965.135 436.656 967.715 434.631C969.474 434.674 971.779 434.898 974.632 435.303C977.471 435.82 980.433 436.495 983.517 437.328L984.084 436.883C982.091 433.159 981.192 429.796 981.388 426.795C981.632 423.857 982.932 421.361 985.288 419.308C987.243 419.604 989.241 420.019 991.281 420.553C993.384 421.037 995.467 421.691 997.529 422.513L998.85 421.476L1001.08 427.655C998.552 426.49 996.532 425.787 995.025 425.547C993.63 425.32 992.524 425.527 991.706 426.169C990.447 427.157 990.094 428.655 990.646 430.663C991.261 432.622 992.321 434.891 993.827 437.472C995.446 440.066 997.131 442.812 998.883 445.708C1000.68 448.667 1002.15 451.585 1003.28 454.462C1004.52 457.353 1005.1 460.05 1005.02 462.551C1004.88 465.103 1003.65 467.292 1001.32 469.12C999.244 470.751 996.682 471.694 993.635 471.95C990.637 472.27 987.466 471.912 984.122 470.876C980.826 469.903 977.624 468.4 974.515 466.366C971.406 464.332 968.695 461.832 966.382 458.868ZM973.516 458.453C975.436 460.913 977.672 462.87 980.226 464.323C982.717 465.825 985.203 466.67 987.684 466.858C990.165 467.047 992.223 466.499 993.859 465.214C995.117 464.226 995.755 462.963 995.772 461.424C995.789 459.885 995.079 457.544 993.641 454.4C992.19 451.37 989.81 447.084 986.503 441.544C983.705 440.69 981.126 440.375 978.766 440.601C976.342 440.876 974.344 441.632 972.771 442.867C970.632 444.546 969.646 446.795 969.815 449.612C969.92 452.479 971.154 455.426 973.516 458.453ZM1008.45 431.635C1010.71 434.537 1013.4 436.091 1016.5 436.298C1019.66 436.569 1022.84 435.444 1026.05 432.924C1029.7 430.059 1031.87 426.728 1032.56 422.931C1033.25 419.134 1032.34 415.627 1029.83 412.41C1027.56 409.509 1024.82 407.948 1021.61 407.727C1018.44 407.569 1015.25 408.75 1012.04 411.27C1008.46 414.086 1006.32 417.392 1005.63 421.189C1005 424.936 1005.94 428.419 1008.45 431.635ZM1002.6 432.72C1000.19 429.629 998.646 426.416 997.972 423.081C997.409 419.759 997.656 416.564 998.713 413.497C999.882 410.443 1001.85 407.83 1004.62 405.656C1007.77 403.186 1011.24 401.726 1015.05 401.278C1018.91 400.892 1022.66 401.406 1026.3 402.82C1029.99 404.297 1033.07 406.613 1035.53 409.766C1036.9 411.533 1038.02 413.352 1038.87 415.225C1039.84 417.112 1040.79 418.655 1041.72 419.854C1042.83 421.016 1044.53 422.535 1046.8 424.411C1049.12 426.349 1051.77 428.441 1054.74 430.687L1054.58 431.267L1048.49 434.376C1047.22 433.137 1045.93 431.81 1044.62 430.395C1043.31 428.98 1042.2 427.817 1041.29 426.907L1040.52 426.899C1039.72 431.595 1037.5 435.376 1033.85 438.242C1030.76 440.663 1027.3 442.009 1023.45 442.283C1019.66 442.619 1015.9 441.961 1012.17 440.308C1008.5 438.718 1005.31 436.189 1002.6 432.72Z" fill="#F4F1E1"/>
<path d="M1025.34 476.809C1026.75 478.764 1028.21 479.764 1029.71 479.81C1031.29 479.816 1033.7 478.87 1036.94 476.972L1059.73 463.647C1062.01 462.315 1063.46 461.054 1064.06 459.866C1064.67 458.678 1064.57 457.392 1063.77 456.007C1063.45 455.454 1063.08 454.975 1062.66 454.571C1062.35 454.196 1062.19 454.009 1062.19 454.009L1062.62 453.066L1066.01 451.5C1067.67 453.403 1069.36 455.286 1071.09 457.149C1072.81 459.012 1074.27 460.569 1075.46 461.82C1076.65 463.072 1077.24 463.698 1077.24 463.698L1077.04 464.788C1077.04 464.788 1076.43 465.007 1075.2 465.446C1074.02 465.953 1072.56 466.622 1070.82 467.453C1069.15 468.243 1067.49 469.123 1065.83 470.092L1065.76 470.689C1070.25 470.937 1074.33 471.839 1078.01 473.396C1081.69 474.953 1084.13 476.77 1085.33 478.846C1086.01 480.023 1086.42 480.894 1086.57 481.459C1086.71 482.024 1086.78 482.307 1086.78 482.307L1086.55 482.861C1086.55 482.861 1086.02 483.074 1084.98 483.501C1084 483.887 1082.69 484.421 1081.05 485.102C1079.48 485.742 1077.77 486.463 1075.92 487.265C1074.12 488.136 1072.4 489.001 1070.77 489.861L1068.11 485.994C1070.94 484.338 1072.71 483.075 1073.4 482.204C1074.17 481.293 1074.21 480.249 1073.53 479.072C1072.65 477.549 1071.08 476.286 1068.84 475.283C1066.59 474.28 1063.94 473.697 1060.89 473.536C1060.89 473.536 1060.21 473.885 1058.86 474.583C1057.58 475.24 1055.95 476.1 1053.98 477.161C1052 478.223 1049.96 479.325 1047.85 480.467C1045.8 481.569 1043.97 482.549 1042.34 483.409C1040.78 484.228 1039.76 484.779 1039.28 485.061C1036.93 486.434 1035.54 487.709 1035.11 488.886C1034.68 490.062 1035.03 491.62 1036.16 493.558C1036.6 494.319 1037.17 495.233 1037.88 496.3C1038.64 497.436 1039.01 498.004 1039.01 498.004L1038.66 498.35L1033.56 500.081C1033.56 500.081 1033.39 499.715 1033.06 498.982C1032.66 498.29 1032.14 497.39 1031.49 496.283C1030.85 495.176 1030.2 493.979 1029.55 492.693C1028.87 491.516 1028.23 490.409 1027.63 489.371C1026.46 487.364 1025.36 485.55 1024.33 483.929C1023.3 482.308 1022.47 481.034 1021.84 480.105C1021.21 479.177 1020.89 478.712 1020.89 478.712L1025.34 476.809Z" fill="#F4F1E1"/>
<path d="M1056.3 541.944C1054.47 537.249 1053.91 532.738 1054.63 528.413C1055.35 524.087 1057.14 520.199 1060 516.748C1062.96 513.342 1066.9 510.669 1071.81 508.731C1075.61 507.234 1079.46 506.443 1083.38 506.359C1087.33 506.35 1091.05 506.987 1094.56 508.27C1098.14 509.523 1101.24 511.31 1103.86 513.629C1106.59 515.994 1108.6 518.853 1109.91 522.208C1114.24 533.313 1111.01 540.995 1100.22 545.253C1099.25 545.635 1098.22 545.957 1097.12 546.219C1096.02 546.481 1095.14 546.655 1094.49 546.741L1092.58 545.816L1080.55 514.958C1073.9 517.497 1069.12 520.76 1066.21 524.747C1063.4 528.778 1062.55 533.2 1063.65 538.011C1064.83 542.792 1068.04 547.718 1073.28 552.789L1073.32 553.548L1070.56 556.055C1068.93 554.975 1067.12 553.627 1065.12 552.01C1063.14 550.467 1061.34 548.814 1059.71 547.05C1058.07 545.286 1056.94 543.584 1056.3 541.944ZM1084.86 513.776L1093.75 533.615C1094.34 534.675 1094.89 535.317 1095.4 535.543C1095.92 535.769 1096.74 535.662 1097.85 535.221C1100.83 534.047 1102.78 532.331 1103.7 530.075C1104.66 527.893 1104.55 525.311 1103.39 522.33C1102.05 518.901 1099.7 516.39 1096.33 514.795C1093.03 513.171 1089.21 512.831 1084.86 513.776Z" fill="#F4F1E1"/>
<path d="M1045.29 578.369C1045.22 578.057 1045.4 577.565 1045.82 576.895C1046.25 576.224 1046.78 575.488 1047.42 574.686C1048 573.98 1048.64 573.343 1049.33 572.776C1049.93 572.148 1050.42 571.79 1050.81 571.701L1051.76 572.101C1052.77 576.63 1055.57 580.344 1060.15 583.242C1064.65 586.158 1070.39 588.217 1077.38 589.42C1079.49 588.204 1081.88 586.8 1084.56 585.207C1087.23 583.615 1090.01 581.918 1092.89 580.117C1095.86 578.376 1098.79 576.604 1101.66 574.803C1104.64 573.062 1107.45 571.356 1110.11 569.686C1112.77 568.015 1115.14 566.494 1117.21 565.122C1119.07 563.88 1120.23 562.507 1120.72 561.003C1121.3 559.559 1121.41 557.852 1121.05 555.882L1121.47 555.541L1125.49 555.367C1125.49 555.367 1125.63 555.992 1125.91 557.242C1126.18 558.491 1126.46 559.905 1126.73 561.485C1127.08 563.047 1127.35 564.257 1127.54 565.116C1127.92 566.834 1128.33 568.504 1128.78 570.126C1129.24 571.826 1129.65 573.331 1130.03 574.641C1130.48 575.933 1130.83 576.961 1131.08 577.724C1131.35 578.565 1131.49 578.986 1131.49 578.986L1130.95 579.353L1127.17 579.473C1126.5 576.836 1125.83 575.102 1125.15 574.271C1124.57 573.501 1123.73 573.24 1122.64 573.487C1121.94 573.647 1120.62 574.191 1118.7 575.12C1116.87 576.109 1114.72 577.295 1112.24 578.678C1109.76 580.061 1107.17 581.51 1104.48 583.024C1101.86 584.52 1099.39 585.942 1097.07 587.29C1094.82 588.62 1092.97 589.696 1091.52 590.518C1090.16 591.401 1089.48 591.843 1089.48 591.843L1089.58 592.312C1093.07 592.913 1096.87 593.57 1100.96 594.281C1105.13 594.976 1109.12 595.588 1112.93 596.119C1116.75 596.727 1120.01 597.178 1122.69 597.47C1125.4 597.841 1127.02 597.964 1127.57 597.84C1128.66 597.592 1129.36 597.063 1129.68 596.254C1129.99 595.445 1129.97 594.26 1129.62 592.698L1128.42 587.31L1128.84 586.97L1132.86 586.796C1132.86 586.796 1132.95 587.39 1133.13 588.58C1133.33 589.847 1133.59 591.387 1133.91 593.201C1134.25 595.093 1134.63 596.975 1135.05 598.85C1135.36 600.255 1135.68 601.7 1136.01 603.183C1136.44 604.727 1136.77 606.046 1137.02 607.139C1137.26 608.233 1137.38 608.779 1137.38 608.779L1132.87 608.942C1132.18 607.295 1131.26 606.109 1130.11 605.385C1128.98 604.738 1127.19 604.242 1124.74 603.897L1085.85 597.096C1078.26 595.782 1071.97 594.546 1066.95 593.387C1061.94 592.227 1057.93 590.964 1054.92 589.596C1051.93 588.306 1049.7 586.761 1048.23 584.961C1046.77 583.161 1045.79 580.964 1045.29 578.369Z" fill="#F4F1E1"/>
<path d="M1091.25 669.04C1091.05 665.846 1091.69 663.278 1093.18 661.336C1094.74 659.469 1097.11 658.27 1100.29 657.74L1100.38 657.253C1098.34 655.464 1096.55 653.738 1095 652.076C1093.54 650.489 1092.37 649.043 1091.49 647.738C1090.69 646.508 1090.26 645.494 1090.22 644.695C1090.03 641.741 1090.51 639.064 1091.64 636.664C1092.77 634.264 1094.41 632.312 1096.56 630.807C1098.72 629.382 1101.23 628.575 1104.11 628.385C1106.42 628.232 1108.49 628.657 1110.32 629.659C1112.15 630.741 1113.4 632.221 1114.08 634.101L1121.73 656.446L1127 656.218C1130.99 655.954 1134.05 654.831 1136.17 652.847C1138.29 650.863 1139.25 648.194 1139.04 644.84C1138.9 642.605 1138.23 640.284 1137.04 637.877C1135.85 635.47 1134.22 633.132 1132.16 630.863L1132.48 630.241L1137.54 628.464C1138.86 630.461 1140.25 632.695 1141.68 635.165C1143.2 637.631 1144.47 639.992 1145.49 642.25C1146.51 644.508 1147.06 646.235 1147.14 647.433C1147.35 650.946 1146.9 653.982 1145.78 656.542C1144.74 659.096 1143.1 661.088 1140.86 662.519C1138.71 664.024 1136 664.884 1132.73 665.1C1131.69 665.168 1130 665.159 1127.67 665.073C1125.35 665.066 1122.74 664.997 1119.85 664.868C1117.03 664.733 1114.3 664.632 1111.65 664.567C1109.01 664.581 1106.81 664.646 1105.05 664.762C1103.3 664.878 1101.97 665.406 1101.06 666.348C1100.16 667.289 1099.75 668.519 1099.85 670.036C1099.93 671.393 1100.34 672.729 1101.06 674.045C1101.86 675.355 1102.61 676.348 1103.29 677.024L1101.48 678.827C1100.4 678.257 1099.15 677.458 1097.72 676.43C1096.38 675.476 1095.11 674.357 1093.91 673.074C1092.71 671.87 1091.82 670.525 1091.25 669.04ZM1098.48 646.194C1098.58 647.711 1099.21 649.433 1100.37 651.361C1101.62 653.363 1103.13 655.147 1104.91 656.714L1117.16 656.506L1111.24 640.542C1110.37 638.274 1108.63 637.227 1105.99 637.401C1103.76 637.548 1101.89 638.433 1100.39 640.055C1098.97 641.752 1098.33 643.799 1098.48 646.194Z" fill="#F4F1E1"/>
<path d="M1086.49 788.353L1087.4 788.263L1091.72 790.132C1091.1 792.873 1090.71 795.016 1090.55 796.561C1090.4 798.106 1090.49 799.268 1090.83 800.047C1091.25 800.85 1091.91 801.396 1092.83 801.685C1093.59 801.927 1094.46 802.116 1095.42 802.253C1096.38 802.39 1097.46 802.437 1098.65 802.393L1112.32 802.564C1112.83 801.216 1113.49 799.284 1114.29 796.768C1115.06 794.328 1115.71 792.308 1116.21 790.707C1116.92 788.496 1117.54 786.135 1118.09 783.622C1118.61 781.187 1119 779.297 1119.26 777.952L1108.71 769.957C1106.87 768.62 1105.49 767.806 1104.57 767.516C1102.9 766.986 1101.51 767.133 1100.4 767.959C1099.35 768.886 1098.45 770.531 1097.7 772.894L1095.63 779.413L1095.1 779.497L1090.4 777.254C1090.4 777.254 1090.73 776.478 1091.39 774.925C1092.05 773.372 1092.85 771.4 1093.77 769.009C1094.63 766.593 1095.45 764.128 1096.25 761.612C1096.83 759.782 1097.44 757.876 1098.07 755.894C1098.6 753.964 1099.04 752.3 1099.4 750.904C1099.74 749.584 1099.91 748.924 1099.91 748.924L1104.99 751.539C1104.54 753.746 1104.72 755.691 1105.53 757.373C1106.34 759.055 1108.15 761.013 1110.97 763.246L1162.34 804.04L1162 811.86L1161.71 812.774C1161.71 812.774 1160.72 812.714 1158.74 812.592C1156.82 812.571 1154.12 812.473 1150.65 812.298C1147.23 812.224 1143.28 812.107 1138.8 811.948C1134.37 811.889 1129.66 811.784 1124.67 811.632C1119.66 811.557 1114.56 811.495 1109.37 811.448C1104.26 811.425 1099.33 811.462 1094.6 811.559C1091.49 811.582 1089.12 812.174 1087.49 813.337C1085.83 814.576 1084.33 816.787 1082.99 819.968L1082.46 820.052L1078.02 817.768C1078.02 817.768 1078.3 817.018 1078.86 815.517C1079.4 814.093 1080.01 812.439 1080.69 810.558C1081.3 808.652 1081.81 807.051 1082.22 805.754C1083.14 802.857 1083.95 800.05 1084.64 797.334C1085.24 794.669 1085.71 792.512 1086.07 790.863C1086.35 789.19 1086.49 788.353 1086.49 788.353ZM1124.21 781.784L1121.01 791.848C1120.53 793.373 1120.02 795.226 1119.5 797.409C1118.97 799.592 1118.54 801.344 1118.21 802.664L1151.05 803.112L1151.31 802.311L1124.21 781.784Z" fill="#F4F1E1"/>
<path d="M1073.24 832.573L1077.57 834.959C1077.24 837.342 1077.34 839.128 1077.87 840.316C1078.45 841.608 1079.47 842.661 1080.95 843.472C1082.43 844.283 1084.31 845.179 1086.59 846.16L1140.71 869.461C1142.54 870.252 1143.95 870.638 1144.91 870.619C1145.92 870.705 1146.74 870.318 1147.37 869.458C1147.97 868.671 1148.56 867.312 1149.13 865.381L1149.49 865.145L1153.05 867.199C1152.25 870.075 1151.52 872.983 1150.86 875.923C1150.2 878.862 1149.65 881.849 1149.21 884.883L1147.5 884.927C1147.11 884.412 1145.54 883.39 1142.81 881.863C1140.14 880.367 1136.56 878.475 1132.05 876.188C1127.59 874.006 1122.51 871.555 1116.8 868.836C1111.09 866.116 1105.03 863.29 1098.63 860.359C1092.2 857.502 1085.75 854.681 1079.28 851.897C1077.08 850.948 1075.37 850.561 1074.16 850.738C1072.95 850.914 1072.05 851.7 1071.44 853.096L1070 857.047L1069.46 857.078L1065.11 854.155C1065.69 853.012 1066.44 851.464 1067.37 849.512C1068.27 847.634 1069.03 845.96 1069.67 844.491C1070.24 843.169 1070.86 841.432 1071.52 839.28C1072.08 837.17 1072.66 834.935 1073.24 832.573Z" fill="#F4F1E1"/>
<path d="M1050.81 884.937C1053.46 880.649 1056.72 877.494 1060.6 875.473C1064.48 873.452 1068.66 872.554 1073.13 872.777C1077.62 873.111 1082.11 874.666 1086.6 877.443C1090.07 879.589 1093.02 882.208 1095.43 885.3C1097.81 888.461 1099.53 891.832 1100.61 895.415C1101.76 899.04 1102.19 902.6 1101.91 906.096C1101.66 909.702 1100.59 913.037 1098.7 916.1C1092.43 926.242 1084.37 928.262 1074.5 922.162C1073.62 921.615 1072.74 920.979 1071.87 920.254C1071 919.529 1070.34 918.93 1069.88 918.457L1069.47 916.372L1086.88 888.193C1080.86 884.38 1075.39 882.503 1070.47 882.562C1065.57 882.731 1061.53 884.702 1058.35 888.475C1055.25 892.29 1053.24 897.822 1052.34 905.07L1051.75 905.557L1048.1 904.85C1047.99 902.899 1047.98 900.635 1048.06 898.056C1048.11 895.545 1048.35 893.105 1048.78 890.736C1049.21 888.368 1049.88 886.435 1050.81 884.937ZM1090.4 890.936L1079.91 909.984C1079.41 911.09 1079.23 911.917 1079.36 912.468C1079.49 913.019 1080.07 913.61 1081.09 914.241C1083.81 915.924 1086.35 916.458 1088.7 915.844C1091.01 915.298 1093.01 913.664 1094.69 910.941C1096.62 907.81 1097.22 904.415 1096.47 900.754C1095.79 897.135 1093.76 893.863 1090.4 890.936Z" fill="#F4F1E1"/>
<path d="M1001.9 914.935C1004.41 912.131 1007.04 910.141 1009.8 908.966C1012.57 907.791 1015.35 907.438 1018.15 907.906C1020.9 908.433 1023.49 909.792 1025.93 911.981C1026.2 913.724 1026.39 916.039 1026.49 918.925C1026.48 921.818 1026.34 924.86 1026.07 928.051L1026.6 928.532C1029.91 925.909 1033.05 924.43 1036.03 924.093C1038.96 923.817 1041.64 924.66 1044.07 926.623C1044.12 928.605 1044.07 930.65 1043.9 932.757C1043.8 934.918 1043.52 937.088 1043.08 939.268L1044.33 940.389L1038.65 943.683C1039.35 940.978 1039.69 938.862 1039.66 937.332C1039.63 935.915 1039.24 934.86 1038.46 934.166C1037.27 933.098 1035.74 933.013 1033.86 933.912C1032.05 934.863 1030.01 936.31 1027.74 938.251C1025.47 940.305 1023.07 942.452 1020.54 944.691C1017.95 946.991 1015.34 948.951 1012.72 950.571C1010.1 952.305 1007.55 953.354 1005.08 953.719C1002.55 954.03 1000.18 953.197 997.979 951.222C996.013 949.46 994.636 947.098 993.849 944.136C993.008 941.234 992.802 938.041 993.231 934.558C993.606 931.135 994.519 927.709 995.97 924.283C997.42 920.856 999.398 917.74 1001.9 914.935ZM1003.56 921.903C1001.49 924.231 999.958 926.783 998.98 929.559C997.943 932.282 997.55 934.885 997.802 937.366C998.053 939.847 998.953 941.782 1000.5 943.17C1001.69 944.238 1003.05 944.645 1004.56 944.39C1006.07 944.136 1008.25 943.022 1011.08 941.05C1013.8 939.084 1017.59 935.98 1022.45 931.74C1022.8 928.829 1022.65 926.228 1022.02 923.938C1021.32 921.595 1020.23 919.756 1018.74 918.421C1016.71 916.606 1014.33 916.03 1011.59 916.693C1008.8 917.302 1006.12 919.039 1003.56 921.903ZM1036.04 951.654C1033.59 954.399 1032.53 957.322 1032.88 960.422C1033.17 963.582 1034.83 966.523 1037.87 969.246C1041.32 972.343 1044.98 973.898 1048.83 973.91C1052.68 973.923 1055.96 972.407 1058.68 969.363C1061.13 966.618 1062.18 963.639 1061.83 960.426C1061.43 957.273 1059.71 954.334 1056.67 951.611C1053.27 948.568 1049.65 947.04 1045.8 947.028C1042.01 947.069 1038.76 948.611 1036.04 951.654ZM1033.95 946.072C1036.56 943.147 1039.44 941.059 1042.6 939.805C1045.76 938.665 1048.94 938.346 1052.14 938.849C1055.34 939.464 1058.25 940.947 1060.88 943.296C1063.85 945.966 1065.9 949.141 1067.01 952.822C1068.07 956.563 1068.22 960.354 1067.47 964.195C1066.67 968.096 1064.94 971.538 1062.27 974.522C1060.78 976.193 1059.19 977.614 1057.5 978.786C1055.82 980.071 1054.47 981.28 1053.46 982.414C1052.51 983.714 1051.32 985.652 1049.88 988.228C1048.38 990.863 1046.79 993.844 1045.11 997.17L1044.51 997.118L1040.39 991.648C1041.38 990.175 1042.46 988.669 1043.62 987.13C1044.78 985.591 1045.72 984.291 1046.46 983.229L1046.33 982.471C1041.58 982.508 1037.47 980.979 1034.02 977.882C1031.1 975.266 1029.17 972.084 1028.22 968.337C1027.23 964.65 1027.21 960.823 1028.18 956.856C1029.09 952.949 1031.02 949.354 1033.95 946.072Z" fill="#F4F1E1"/>
<path d="M995.025 976.256C993.355 977.998 992.63 979.616 992.85 981.111C993.121 982.667 994.474 984.879 996.907 987.745L1013.99 1007.87C1015.7 1009.89 1017.19 1011.09 1018.46 1011.47C1019.73 1011.86 1020.98 1011.53 1022.19 1010.49C1022.68 1010.08 1023.09 1009.63 1023.41 1009.14C1023.72 1008.77 1023.88 1008.58 1023.88 1008.58L1024.88 1008.83L1027.01 1011.9C1025.44 1013.88 1023.89 1015.89 1022.36 1017.92C1020.84 1019.96 1019.57 1021.68 1018.55 1023.07C1017.53 1024.47 1017.02 1025.17 1017.02 1025.17L1015.91 1025.16C1015.91 1025.16 1015.59 1024.6 1014.95 1023.47C1014.24 1022.39 1013.33 1021.06 1012.21 1019.49C1011.14 1017.99 1009.98 1016.5 1008.74 1015.04L1008.14 1015.08C1008.69 1019.55 1008.52 1023.74 1007.64 1027.65C1006.76 1031.56 1005.41 1034.29 1003.58 1035.85C1002.55 1036.73 1001.76 1037.3 1001.23 1037.54C1000.7 1037.78 1000.44 1037.9 1000.44 1037.9L999.855 1037.77C999.855 1037.77 999.554 1037.29 998.951 1036.33C998.4 1035.43 997.646 1034.24 996.69 1032.74C995.785 1031.3 994.777 1029.74 993.665 1028.06C992.493 1026.43 991.342 1024.89 990.212 1023.44L993.538 1020.12C995.661 1022.62 997.211 1024.14 998.188 1024.68C999.217 1025.27 1000.25 1025.13 1001.28 1024.24C1002.62 1023.1 1003.59 1021.33 1004.17 1018.93C1004.76 1016.54 1004.87 1013.82 1004.49 1010.78C1004.49 1010.78 1004.03 1010.17 1003.11 1008.96C1002.24 1007.81 1001.11 1006.35 999.717 1004.59C998.329 1002.83 996.888 1001.01 995.396 999.132C993.956 997.312 992.671 995.674 991.541 994.219C990.463 992.825 989.743 991.915 989.38 991.488C987.62 989.414 986.125 988.271 984.896 988.058C983.666 987.846 982.199 988.467 980.496 989.921C979.826 990.492 979.031 991.224 978.109 992.116C977.126 993.06 976.635 993.532 976.635 993.532L976.233 993.244L973.638 988.517C973.638 988.517 973.968 988.288 974.628 987.83C975.237 987.31 976.028 986.635 977.001 985.804C977.975 984.973 979.035 984.121 980.182 983.247C981.217 982.364 982.19 981.533 983.103 980.754C984.867 979.247 986.454 977.84 987.863 976.533C989.271 975.225 990.375 974.178 991.176 973.389C991.976 972.601 992.376 972.207 992.376 972.207L995.025 976.256Z" fill="#F4F1E1"/>
<path d="M936.944 1018.47C941.228 1015.82 945.554 1014.46 949.923 1014.38C954.293 1014.31 958.422 1015.38 962.311 1017.58C966.173 1019.89 969.487 1023.29 972.252 1027.79C974.389 1031.27 975.843 1034.93 976.614 1038.78C977.317 1042.68 977.348 1046.47 976.706 1050.16C976.106 1053.92 974.899 1057.3 973.085 1060.31C971.245 1063.43 968.795 1065.93 965.735 1067.83C955.602 1074.11 947.499 1072.31 941.424 1062.43C940.88 1061.54 940.382 1060.58 939.931 1059.54C939.481 1058.5 939.156 1057.67 938.957 1057.04L939.529 1054.99L967.681 1037.54C964.021 1031.44 959.979 1027.3 955.557 1025.15C951.108 1023.11 946.621 1023.07 942.096 1025.02C937.613 1027.05 933.345 1031.1 929.293 1037.19L928.555 1037.37L925.611 1035.1C926.384 1033.3 927.388 1031.27 928.621 1029C929.787 1026.77 931.092 1024.69 932.535 1022.76C933.978 1020.83 935.448 1019.4 936.944 1018.47ZM969.599 1041.58L951.702 1053.94C950.766 1054.71 950.232 1055.37 950.102 1055.92C949.971 1056.47 950.22 1057.26 950.848 1058.28C952.524 1061.01 954.55 1062.62 956.926 1063.13C959.234 1063.67 961.748 1063.1 964.468 1061.42C967.596 1059.48 969.646 1056.7 970.617 1053.09C971.63 1049.54 971.291 1045.71 969.599 1041.58Z" fill="#F4F1E1"/>
<path d="M899.537 1014.4C899.831 1014.28 900.344 1014.36 901.077 1014.66C901.809 1014.96 902.624 1015.35 903.523 1015.84C904.317 1016.29 905.053 1016.8 905.731 1017.38C906.451 1017.86 906.889 1018.28 907.043 1018.65L906.816 1019.66C902.545 1021.47 899.384 1024.9 897.335 1029.94C895.255 1034.9 894.232 1040.94 894.266 1048.05C895.827 1049.91 897.621 1052.02 899.65 1054.37C901.679 1056.73 903.828 1059.16 906.097 1061.68C908.324 1064.29 910.571 1066.86 912.841 1069.37C915.067 1071.99 917.231 1074.46 919.334 1076.79C921.437 1079.11 923.342 1081.17 925.049 1082.96C926.591 1084.57 928.142 1085.47 929.703 1085.68C931.222 1085.99 932.918 1085.79 934.79 1085.09L935.196 1085.44L936.066 1089.37C936.066 1089.37 935.477 1089.62 934.298 1090.12C933.12 1090.62 931.779 1091.14 930.275 1091.7C928.802 1092.32 927.661 1092.81 926.851 1093.15C925.23 1093.84 923.663 1094.55 922.147 1095.28C920.558 1096.04 919.153 1096.72 917.932 1097.32C916.742 1098 915.794 1098.54 915.088 1098.92C914.309 1099.34 913.92 1099.55 913.92 1099.55L913.467 1099.09L912.69 1095.38C915.163 1094.24 916.749 1093.26 917.447 1092.45C918.102 1091.73 918.213 1090.86 917.78 1089.83C917.501 1089.16 916.738 1087.97 915.492 1086.24C914.202 1084.61 912.663 1082.7 910.875 1080.51C909.086 1078.31 907.214 1076.02 905.258 1073.63C903.334 1071.32 901.508 1069.14 899.782 1067.09C898.086 1065.12 896.707 1063.49 895.646 1062.2C894.543 1061.02 893.991 1060.43 893.991 1060.43L893.549 1060.61C893.566 1064.17 893.581 1068.03 893.594 1072.2C893.638 1076.44 893.73 1080.48 893.871 1084.33C893.938 1088.21 894.062 1091.51 894.242 1094.21C894.349 1096.95 894.511 1098.57 894.727 1099.09C895.161 1100.12 895.802 1100.72 896.65 1100.88C897.499 1101.04 898.659 1100.81 900.132 1100.18L905.214 1098.03L905.62 1098.38L906.49 1102.31C906.49 1102.31 905.922 1102.51 904.786 1102.9C903.577 1103.33 902.11 1103.86 900.385 1104.51C898.587 1105.19 896.804 1105.9 895.036 1106.65C893.711 1107.21 892.348 1107.79 890.949 1108.38C889.507 1109.08 888.271 1109.65 887.24 1110.09C886.209 1110.53 885.693 1110.74 885.693 1110.74L884.749 1106.32C886.245 1105.34 887.249 1104.22 887.762 1102.96C888.2 1101.73 888.376 1099.87 888.288 1097.39L888.203 1057.8C888.173 1050.08 888.292 1043.64 888.559 1038.48C888.826 1033.33 889.369 1029.15 890.189 1025.93C890.935 1022.75 892.064 1020.27 893.576 1018.5C895.089 1016.72 897.075 1015.36 899.537 1014.4Z" fill="#F4F1E1"/>
<path d="M817.265 1076.77C820.372 1076.01 823.007 1076.18 825.17 1077.3C827.273 1078.51 828.857 1080.63 829.92 1083.66L830.414 1083.67C831.827 1081.34 833.219 1079.27 834.589 1077.45C835.901 1075.72 837.123 1074.31 838.256 1073.21C839.329 1072.2 840.254 1071.6 841.031 1071.41C843.905 1070.71 846.619 1070.7 849.173 1071.39C851.727 1072.08 853.927 1073.35 855.774 1075.2C857.543 1077.07 858.767 1079.41 859.444 1082.2C859.989 1084.46 859.925 1086.58 859.251 1088.56C858.499 1090.55 857.257 1092.05 855.525 1093.06L834.853 1104.57L835.977 1109.73C836.917 1113.62 838.544 1116.43 840.857 1118.17C843.171 1119.91 845.958 1120.37 849.221 1119.57C851.396 1119.04 853.565 1117.97 855.729 1116.36C857.893 1114.76 859.914 1112.74 861.793 1110.3L862.46 1110.5L865.072 1115.18C863.334 1116.84 861.373 1118.6 859.188 1120.45C857.022 1122.39 854.916 1124.06 852.87 1125.47C850.824 1126.88 849.218 1127.73 848.053 1128.02C844.635 1128.86 841.572 1128.95 838.863 1128.3C836.173 1127.73 833.933 1126.47 832.145 1124.52C830.298 1122.66 828.989 1120.14 828.218 1116.96C827.973 1115.95 827.695 1114.28 827.383 1111.97C826.993 1109.68 826.615 1107.09 826.248 1104.22C825.901 1101.42 825.533 1098.71 825.146 1096.09C824.681 1093.48 824.241 1091.32 823.828 1089.61C823.414 1087.9 822.667 1086.69 821.587 1085.96C820.507 1085.24 819.229 1085.06 817.753 1085.42C816.432 1085.75 815.187 1086.39 814.017 1087.33C812.865 1088.36 812.015 1089.27 811.467 1090.06L809.384 1088.6C809.761 1087.43 810.333 1086.06 811.101 1084.47C811.81 1082.97 812.693 1081.52 813.751 1080.11C814.73 1078.71 815.902 1077.6 817.265 1076.77ZM840.968 1079.83C839.493 1080.2 837.906 1081.12 836.208 1082.61C834.452 1084.2 832.955 1086.01 831.719 1088.04L834.014 1100.08L848.704 1091.4C850.787 1090.14 851.519 1088.23 850.898 1085.67C850.372 1083.49 849.182 1081.81 847.33 1080.61C845.42 1079.52 843.299 1079.26 840.968 1079.83Z" fill="#F4F1E1"/>
<path d="M699.784 1093.99L700.032 1094.87L698.948 1099.44C696.139 1099.33 693.961 1099.33 692.411 1099.45C690.862 1099.58 689.734 1099.88 689.026 1100.35C688.308 1100.9 687.887 1101.66 687.762 1102.61C687.658 1103.4 687.623 1104.28 687.657 1105.26C687.691 1106.23 687.834 1107.29 688.085 1108.46L690.313 1121.93C691.731 1122.19 693.749 1122.49 696.368 1122.83C698.907 1123.15 701.01 1123.42 702.676 1123.64C704.977 1123.93 707.413 1124.12 709.983 1124.21C712.474 1124.29 714.405 1124.33 715.774 1124.35L721.8 1112.54C722.795 1110.49 723.355 1108.99 723.479 1108.04C723.708 1106.29 723.319 1104.95 722.312 1104.02C721.215 1103.15 719.437 1102.56 716.977 1102.24L710.193 1101.37L710.017 1100.86L711.402 1095.84C711.402 1095.84 712.224 1096.03 713.87 1096.4C715.516 1096.77 717.598 1097.2 720.116 1097.68C722.645 1098.09 725.218 1098.46 727.837 1098.8C729.741 1099.04 731.725 1099.29 733.788 1099.56C735.782 1099.73 737.499 1099.87 738.937 1099.98C740.297 1100.07 740.976 1100.12 740.976 1100.12L739.291 1105.59C737.038 1105.54 735.154 1106.07 733.639 1107.16C732.124 1108.26 730.513 1110.39 728.807 1113.56L697.629 1171.38L689.866 1172.44L688.913 1172.32C688.913 1172.32 688.8 1171.34 688.574 1169.37C688.257 1167.48 687.881 1164.81 687.445 1161.36C686.919 1157.99 686.341 1154.08 685.712 1149.65C684.994 1145.28 684.272 1140.63 683.546 1135.7C682.742 1130.76 681.908 1125.73 681.045 1120.62C680.171 1115.59 679.272 1110.75 678.346 1106.12C677.779 1103.06 676.779 1100.84 675.348 1099.44C673.838 1098.04 671.397 1096.96 668.027 1096.2L667.851 1095.7L669.324 1090.93C669.324 1090.93 670.112 1091.07 671.689 1091.35C673.186 1091.62 674.921 1091.93 676.894 1092.26C678.878 1092.51 680.545 1092.73 681.893 1092.9C684.909 1093.29 687.815 1093.58 690.613 1093.78C693.343 1093.89 695.551 1093.97 697.238 1094.02C698.935 1094 699.784 1093.99 699.784 1093.99ZM712.868 1129.9L702.394 1128.56C700.807 1128.36 698.892 1128.19 696.649 1128.07C694.407 1127.94 692.606 1127.83 691.247 1127.73L696.564 1160.11L697.397 1160.22L712.868 1129.9Z" fill="#F4F1E1"/>
<path d="M654.914 1089.18L653.334 1093.86C650.928 1093.96 649.188 1094.39 648.113 1095.12C646.942 1095.92 646.089 1097.12 645.553 1098.72C645.017 1100.32 644.469 1102.33 643.908 1104.75L630.585 1162.14C630.133 1164.09 630.002 1165.54 630.193 1166.48C630.288 1167.49 630.815 1168.23 631.774 1168.69C632.655 1169.14 634.098 1169.47 636.101 1169.69L636.398 1170L635.007 1173.87C632.032 1173.6 629.039 1173.4 626.027 1173.28C623.016 1173.16 619.978 1173.16 616.912 1173.28L616.563 1171.6C617.002 1171.12 617.73 1169.4 618.747 1166.44C619.746 1163.55 620.972 1159.68 622.423 1154.84C623.779 1150.07 625.288 1144.63 626.951 1138.52C628.614 1132.42 630.319 1125.96 632.067 1119.14C633.737 1112.3 635.368 1105.45 636.96 1098.59C637.503 1096.25 637.58 1094.51 637.191 1093.35C636.803 1092.19 635.868 1091.45 634.386 1091.1L630.239 1090.4L630.114 1089.88L632.216 1085.06C633.445 1085.43 635.103 1085.89 637.19 1086.45C639.199 1087 640.984 1087.45 642.543 1087.81C643.946 1088.13 645.767 1088.43 648.004 1088.7C650.181 1088.87 652.485 1089.03 654.914 1089.18Z" fill="#F4F1E1"/>
<path d="M599 1076.53C603.688 1078.38 607.37 1081.04 610.044 1084.5C612.718 1087.96 614.339 1091.91 614.906 1096.35C615.37 1100.83 614.631 1105.53 612.69 1110.44C611.189 1114.23 609.13 1117.59 606.511 1120.52C603.818 1123.41 600.804 1125.7 597.467 1127.4C594.101 1129.17 590.672 1130.22 587.181 1130.56C583.587 1130.95 580.115 1130.49 576.766 1129.17C565.677 1124.79 562.266 1117.21 566.532 1106.42C566.914 1105.46 567.386 1104.48 567.947 1103.5C568.507 1102.52 568.98 1101.76 569.364 1101.22L571.345 1100.45L602.155 1112.61C604.848 1106.01 605.731 1100.3 604.805 1095.46C603.775 1090.67 601.123 1087.04 596.848 1084.58C592.544 1082.2 586.744 1081.2 579.449 1081.59L578.868 1081.1L578.919 1077.38C580.82 1076.93 583.047 1076.52 585.602 1076.15C588.082 1075.75 590.525 1075.55 592.933 1075.56C595.34 1075.56 597.363 1075.89 599 1076.53ZM600.076 1116.56L579.473 1109.59C578.298 1109.3 577.451 1109.27 576.932 1109.49C576.412 1109.72 575.932 1110.39 575.491 1111.51C574.314 1114.48 574.235 1117.07 575.255 1119.28C576.2 1121.46 578.161 1123.14 581.138 1124.31C584.561 1125.66 588.009 1125.64 591.48 1124.26C594.923 1122.95 597.788 1120.39 600.076 1116.56Z" fill="#F4F1E1"/>
<path d="M561.221 1033.85C564.427 1035.81 566.855 1038.05 568.506 1040.57C570.157 1043.08 571.003 1045.76 571.046 1048.6C571.02 1051.4 570.151 1054.19 568.439 1056.99C566.773 1057.57 564.532 1058.16 561.714 1058.78C558.87 1059.29 555.856 1059.69 552.67 1059.99L552.295 1060.61C555.465 1063.4 557.483 1066.23 558.349 1069.1C559.146 1071.94 558.798 1074.73 557.305 1077.47C555.368 1077.88 553.348 1078.19 551.248 1078.4C549.105 1078.69 546.923 1078.8 544.701 1078.75L543.824 1080.19L539.569 1075.19C542.352 1075.39 544.492 1075.34 545.99 1075.04C547.378 1074.77 548.344 1074.18 548.887 1073.3C549.722 1071.93 549.53 1070.41 548.311 1068.72C547.05 1067.1 545.262 1065.35 542.948 1063.46C540.523 1061.6 537.983 1059.62 535.327 1057.53C532.603 1055.39 530.209 1053.17 528.145 1050.87C525.971 1048.6 524.483 1046.28 523.681 1043.91C522.922 1041.48 523.315 1039 524.86 1036.47C526.239 1034.22 528.313 1032.44 531.082 1031.14C533.782 1029.79 536.883 1029.02 540.383 1028.82C543.814 1028.57 547.344 1028.86 550.971 1029.68C554.599 1030.49 558.016 1031.88 561.221 1033.85ZM554.673 1036.73C552.013 1035.1 549.231 1034.05 546.327 1033.59C543.465 1033.05 540.837 1033.13 538.444 1033.82C536.051 1034.51 534.311 1035.74 533.225 1037.52C532.39 1038.88 532.233 1040.29 532.755 1041.73C533.276 1043.18 534.761 1045.12 537.208 1047.56C539.628 1049.89 543.358 1053.07 548.397 1057.09C551.32 1056.91 553.849 1056.31 555.985 1055.27C558.163 1054.16 559.773 1052.76 560.818 1051.05C562.238 1048.73 562.377 1046.29 561.234 1043.71C560.134 1041.06 557.946 1038.74 554.673 1036.73ZM531.267 1074.04C528.129 1072.12 525.068 1071.6 522.083 1072.49C519.03 1073.34 516.439 1075.51 514.308 1078.99C511.885 1082.94 511.013 1086.82 511.692 1090.61C512.371 1094.41 514.449 1097.37 517.928 1099.5C521.065 1101.42 524.182 1101.93 527.276 1101.01C530.303 1100.05 532.881 1097.83 535.012 1094.35C537.393 1090.46 538.244 1086.62 537.565 1082.83C536.845 1079.1 534.745 1076.17 531.267 1074.04ZM536.377 1070.98C539.719 1073.03 542.289 1075.49 544.087 1078.38C545.776 1081.29 546.66 1084.37 546.74 1087.6C546.71 1090.87 545.776 1094 543.938 1097.01C541.85 1100.42 539.096 1103 535.678 1104.75C532.192 1106.46 528.495 1107.29 524.586 1107.24C520.609 1107.15 516.915 1106.06 513.505 1103.97C511.595 1102.8 509.913 1101.49 508.458 1100.03C506.894 1098.6 505.463 1097.49 504.168 1096.7C502.72 1096 500.601 1095.17 497.812 1094.21C494.954 1093.21 491.74 1092.18 488.169 1091.11L488.113 1090.52L492.747 1085.47C494.373 1086.19 496.046 1086.98 497.767 1087.85C499.487 1088.71 500.935 1089.41 502.11 1089.95L502.832 1089.69C501.942 1085.01 502.708 1080.7 505.131 1076.74C507.178 1073.39 509.958 1070.92 513.47 1069.32C516.915 1067.68 520.673 1066.98 524.745 1067.23C528.748 1067.43 532.626 1068.68 536.377 1070.98Z" fill="#F4F1E1"/>
<path d="M500.228 1038.41C498.218 1037.08 496.499 1036.66 495.071 1037.15C493.593 1037.7 491.667 1039.43 489.293 1042.34L472.626 1062.82C470.96 1064.87 470.052 1066.55 469.902 1067.87C469.753 1069.2 470.298 1070.37 471.537 1071.38C472.033 1071.78 472.548 1072.1 473.083 1072.33C473.505 1072.57 473.716 1072.69 473.716 1072.69L473.65 1073.72L471.023 1076.38C468.799 1075.19 466.55 1074.02 464.276 1072.89C462.001 1071.75 460.087 1070.81 458.534 1070.06C456.98 1069.3 456.203 1068.93 456.203 1068.93L456.007 1067.84C456.007 1067.84 456.504 1067.42 457.498 1066.58C458.43 1065.68 459.564 1064.54 460.9 1063.16C462.186 1061.83 463.434 1060.42 464.646 1058.93L464.502 1058.35C460.207 1059.7 456.063 1060.29 452.07 1060.13C448.076 1059.97 445.15 1059.13 443.291 1057.61C442.237 1056.75 441.544 1056.08 441.212 1055.6C440.879 1055.12 440.713 1054.88 440.713 1054.88L440.737 1054.28C440.737 1054.28 441.152 1053.9 441.983 1053.13C442.764 1052.43 443.803 1051.47 445.1 1050.25C446.346 1049.1 447.694 1047.83 449.142 1046.43C450.529 1044.98 451.834 1043.56 453.057 1042.19L456.909 1044.87C454.839 1047.41 453.63 1049.21 453.283 1050.27C452.886 1051.4 453.214 1052.39 454.267 1053.25C455.63 1054.36 457.541 1054.99 459.999 1055.14C462.457 1055.29 465.145 1054.9 468.063 1053.98C468.063 1053.98 468.573 1053.41 469.595 1052.29C470.566 1051.22 471.79 1049.84 473.266 1048.16C474.742 1046.47 476.268 1044.72 477.845 1042.91C479.372 1041.16 480.747 1039.6 481.971 1038.22C483.144 1036.91 483.907 1036.03 484.261 1035.6C485.978 1033.49 486.83 1031.81 486.816 1030.56C486.802 1029.31 485.928 1027.98 484.193 1026.56C483.512 1026 482.65 1025.35 481.608 1024.6C480.504 1023.8 479.952 1023.41 479.952 1023.41L480.162 1022.96L484.332 1019.55C484.332 1019.55 484.617 1019.83 485.186 1020.4C485.805 1020.9 486.611 1021.56 487.602 1022.37C488.594 1023.18 489.622 1024.07 490.687 1025.05C491.74 1025.91 492.731 1026.72 493.661 1027.47C495.458 1028.94 497.125 1030.25 498.663 1031.4C500.2 1032.56 501.428 1033.46 502.346 1034.1C503.264 1034.75 503.723 1035.07 503.723 1035.07L500.228 1038.41Z" fill="#F4F1E1"/>
<path d="M446.954 987.404C450.316 991.16 452.417 995.187 453.26 999.488C454.103 1003.79 453.787 1008.05 452.314 1012.28C450.728 1016.51 447.972 1020.39 444.048 1023.92C441.015 1026.65 437.677 1028.74 434.035 1030.19C430.339 1031.58 426.623 1032.28 422.888 1032.31C419.093 1032.39 415.561 1031.8 412.29 1030.54C408.907 1029.28 406.015 1027.31 403.615 1024.63C395.665 1015.75 396.001 1007.43 404.624 999.668C405.397 998.972 406.253 998.309 407.192 997.679C408.131 997.049 408.892 996.58 409.475 996.271L411.586 996.47L433.674 1021.15C439.02 1016.45 442.359 1011.72 443.691 1006.97C444.909 1002.21 444.159 997.776 441.44 993.658C438.661 989.594 433.927 986.105 427.239 983.191L426.937 982.494L428.644 979.182C430.543 979.625 432.716 980.253 435.161 981.066C437.553 981.819 439.823 982.736 441.971 983.817C444.119 984.897 445.78 986.093 446.954 987.404ZM430.054 1023.76L414.765 1008.3C413.846 1007.51 413.104 1007.1 412.54 1007.07C411.976 1007.04 411.248 1007.43 410.356 1008.23C407.977 1010.37 406.751 1012.66 406.676 1015.09C406.547 1017.47 407.55 1019.85 409.684 1022.23C412.139 1024.98 415.224 1026.5 418.941 1026.82C422.599 1027.19 426.303 1026.17 430.054 1023.76Z" fill="#F4F1E1"/>
<path d="M445.501 950.992C445.675 951.26 445.681 951.782 445.518 952.559C445.356 953.335 445.114 954.211 444.795 955.186C444.498 956.05 444.124 956.869 443.674 957.643C443.334 958.441 442.996 958.949 442.662 959.168L441.632 959.126C439.101 955.237 435.182 952.737 429.876 951.625C424.637 950.469 418.533 950.55 411.564 951.868C410.017 953.744 408.268 955.896 406.317 958.324C404.365 960.752 402.357 963.313 400.292 966.007C398.117 968.677 395.997 971.359 393.932 974.053C391.757 976.724 389.716 979.307 387.808 981.802C385.9 984.297 384.216 986.549 382.757 988.559C381.454 990.37 380.839 992.065 380.912 993.644C380.874 995.199 381.368 996.837 382.392 998.557L382.121 999.022L378.417 1000.59C378.417 1000.59 378.068 1000.05 377.37 998.981C376.672 997.908 375.919 996.679 375.113 995.295C374.241 993.954 373.564 992.914 373.084 992.177C372.124 990.702 371.152 989.282 370.169 987.918C369.142 986.487 368.224 985.224 367.415 984.128C366.539 983.076 365.85 982.236 365.346 981.61C364.799 980.916 364.526 980.569 364.526 980.569L364.897 980.039L368.4 978.602C369.951 980.838 371.189 982.226 372.114 982.768C372.928 983.286 373.804 983.238 374.74 982.623C375.342 982.229 376.382 981.26 377.86 979.716C379.226 978.15 380.829 976.286 382.667 974.124C384.505 971.961 386.421 969.7 388.416 967.339C390.344 965.022 392.16 962.826 393.865 960.751C395.502 958.721 396.858 957.065 397.934 955.786C398.9 954.483 399.383 953.831 399.383 953.831L399.121 953.429C395.636 954.088 391.852 954.8 387.768 955.565C383.618 956.374 379.666 957.196 375.914 958.031C372.118 958.799 368.91 959.516 366.289 960.182C363.625 960.782 362.059 961.235 361.59 961.542C360.654 962.156 360.181 962.897 360.173 963.764C360.164 964.63 360.596 965.734 361.469 967.075L364.481 971.701L364.21 972.166L360.506 973.734C360.506 973.734 360.212 973.209 359.625 972.16C358.993 971.043 358.209 969.692 357.272 968.106C356.292 966.453 355.278 964.822 354.23 963.213C353.445 962.006 352.637 960.766 351.808 959.492C350.868 958.195 350.093 957.077 349.482 956.138C348.871 955.199 348.565 954.73 348.565 954.73L352.736 952.999C353.964 954.298 355.241 955.087 356.567 955.365C357.85 955.576 359.702 955.414 362.122 954.879L400.939 947.644C408.508 946.219 414.843 945.173 419.945 944.506C425.046 943.838 429.247 943.619 432.545 943.847C435.8 944.008 438.43 944.675 440.434 945.848C442.439 947.021 444.127 948.735 445.501 950.992Z" fill="#F4F1E1"/>
<path d="M369.707 880.542C370.998 883.47 371.285 886.102 370.566 888.437C369.742 890.731 367.934 892.677 365.14 894.273L365.224 894.761C367.753 895.735 370.03 896.735 372.056 897.758C373.976 898.741 375.576 899.692 376.855 900.611C378.029 901.488 378.778 902.293 379.101 903.025C380.296 905.733 380.777 908.409 380.544 911.053C380.312 913.697 379.447 916.098 377.95 918.254C376.421 920.338 374.342 921.966 371.711 923.139C369.592 924.084 367.503 924.403 365.444 924.095C363.352 923.714 361.663 922.759 360.376 921.23L345.474 902.912L340.604 904.953C336.951 906.582 334.473 908.695 333.169 911.29C331.866 913.886 331.893 916.721 333.249 919.795C334.153 921.845 335.581 923.792 337.532 925.638C339.483 927.483 341.819 929.112 344.541 930.526L344.455 931.222L340.324 934.641C338.388 933.227 336.319 931.609 334.117 929.788C331.841 928 329.834 926.224 328.093 924.46C326.353 922.696 325.241 921.265 324.757 920.167C323.336 916.946 322.709 913.941 322.877 911.15C322.972 908.393 323.821 905.956 325.423 903.84C326.92 901.683 329.166 899.937 332.162 898.601C333.111 898.177 334.694 897.603 336.91 896.877C339.093 896.079 341.565 895.239 344.324 894.359C347.01 893.511 349.608 892.66 352.116 891.804C354.591 890.875 356.633 890.052 358.24 889.335C359.848 888.618 360.912 887.662 361.434 886.466C361.955 885.27 361.909 883.976 361.296 882.585C360.747 881.341 359.905 880.227 358.772 879.244C357.565 878.293 356.525 877.618 355.65 877.22L356.725 874.901C357.933 875.063 359.384 875.379 361.078 875.85C362.667 876.28 364.247 876.889 365.819 877.677C367.359 878.392 368.655 879.347 369.707 880.542ZM370.825 904.483C370.212 903.092 369.026 901.693 367.269 900.287C365.407 898.84 363.369 897.691 361.157 896.838L349.736 901.274L360.817 914.202C362.411 916.031 364.413 916.408 366.824 915.333C368.87 914.42 370.317 912.943 371.165 910.901C371.907 908.818 371.794 906.678 370.825 904.483Z" fill="#F4F1E1"/>
<path d="M1056.22 709.148C1056.22 901.384 900.385 1057.22 708.149 1057.22C515.914 1057.22 360.076 901.384 360.076 709.148C360.076 516.913 515.914 361.075 708.149 361.075C900.385 361.075 1056.22 516.913 1056.22 709.148Z" fill="#E9B418" stroke="black" stroke-width="4"/>
<path d="M1012.74 710.856C1012.74 878.133 877.135 1013.74 709.858 1013.74C542.581 1013.74 406.977 878.133 406.977 710.856C406.977 543.579 542.581 407.975 709.858 407.975C877.135 407.975 1012.74 543.579 1012.74 710.856Z" fill="#E9B418" stroke="black" stroke-width="9"/>
<path d="M933.935 659.626H484.059C483.095 659.626 482.689 660.856 483.464 661.43L840.616 925.925C841.391 926.499 842.45 925.751 842.167 924.828L710.801 495.361C710.513 494.421 709.185 494.416 708.89 495.354L574.159 924.811C573.869 925.733 574.928 926.489 575.706 925.915L934.529 661.431C935.306 660.858 934.9 659.626 933.935 659.626Z" stroke="black" stroke-width="9"/>
</svg>
