<svg width="719" height="834" viewBox="0 0 719 834" fill="none" xmlns="http://www.w3.org/2000/svg">
<path d="M425.655 260.407C463.302 225.778 546.491 174.9 578.074 248.42C617.552 340.32 683.517 434.717 715 416.737" stroke="#F4F1E1" stroke-width="7" stroke-linecap="round"/>
<path d="M305.106 623.915C331.87 614.999 528.721 340.934 506.417 323.101C424.638 393.244 267.28 554.01 305.106 623.915Z" fill="#2A2822" fill-opacity="0.89"/>
<path d="M50.8463 495.518L164.148 562.392L222.137 593.599L240.872 614.999H264.068C268.826 620.943 283.695 631.048 305.106 623.915C267.28 554.01 424.638 393.244 506.417 323.101C505.65 319.816 504.176 317.507 502.812 315.371C501.514 313.338 500.315 311.461 499.92 309.047C497.345 293.336 495.994 285.089 481.75 285.089L453.201 261.015C446.956 258.934 433.396 256.022 429.113 261.015C426.414 264.163 395.12 247.578 363.502 230.822C332.432 214.356 301.049 197.724 296.185 199.491C286.371 203.058 105.267 45.2366 106.159 30.9703C107.051 16.7039 48.1699 -10.0455 35.6799 10.4624C-44.91 70.7971 -202.7 199.313 -189.139 230.699C-205.793 266.068 -232.854 338.588 -207.874 345.722C-204.306 351.666 -188.783 364.09 -155.238 366.23C-121.694 368.369 -3.87176 453.314 50.8463 495.518Z" fill="#E9B418" fill-opacity="0.85"/>
<path d="M305.106 623.915C283.695 631.048 268.826 620.943 264.068 614.999H240.872L222.137 593.599L164.148 562.392L50.8463 495.518C-3.87176 453.314 -121.694 368.369 -155.238 366.23C-188.783 364.09 -204.306 351.666 -207.874 345.722C-232.854 338.588 -205.793 266.068 -189.139 230.699C-202.7 199.313 -44.91 70.7971 35.6799 10.4624C48.1699 -10.0455 107.051 16.7039 106.159 30.9703C105.267 45.2366 286.371 203.058 296.185 199.491C301.049 197.724 332.432 214.356 363.502 230.822C395.12 247.578 426.414 264.163 429.113 261.015C433.396 256.022 446.956 258.934 453.201 261.015L481.75 285.089C495.994 285.089 497.345 293.336 499.92 309.047C500.315 311.461 501.514 313.338 502.812 315.371C504.176 317.507 505.65 319.816 506.417 323.101M305.106 623.915C331.87 614.999 528.721 340.934 506.417 323.101M305.106 623.915C267.28 554.01 424.638 393.244 506.417 323.101" stroke="#F4F1E1" stroke-width="5.35571"/>
<path d="M220.765 594.355C175.623 615 96.0319 665.778 138.809 703.736C192.28 751.185 268.24 805.626 220.765 826.103C173.29 846.581 181.786 780.653 220.765 760.175C251.948 743.793 276.069 738.698 284.231 738.199" stroke="#F4F1E1" stroke-width="7" stroke-linecap="round"/>
<path d="M217.364 579.489C239.803 531.935 299.766 423.532 360.107 370.357" stroke="#F4F1E1" stroke-width="4.86882"/>
</svg>
