<svg width="654" height="707" viewBox="0 0 654 707" fill="none" xmlns="http://www.w3.org/2000/svg">
<path d="M170.075 39.6396C155.278 46.3133 128.347 62.3745 139.001 73.2303C152.319 86.8 170.075 85.9102 170.075 69.2261C163.845 67.5948 153.253 63.2198 160.73 58.7707C168.206 54.3217 170.075 44.1629 170.075 39.6396Z" stroke="#F4F1E1" stroke-width="7" stroke-linecap="round"/>
<path d="M389.698 439.391C402.221 439.391 406.13 434.497 406.52 432.05C359.605 416.745 380.43 388.893 396.707 376.881C517.266 310.145 488.528 201.661 459.089 155.761C367.315 35.6356 240.323 38.3792 188.299 54.7667C193.205 67.0017 195.495 94.4526 165.402 106.376C135.309 118.3 122.023 94.2894 119.141 80.7939C113.3 65.222 120.59 29.0509 196.476 8.94104C291.335 -16.1963 781.28 42.3092 630.348 473.871C509.602 819.121 171.321 698.995 17.2735 595.776C-15.6699 575.169 17.2735 519.029 66.1045 531.042C105.169 540.652 88.9235 578.202 75.9174 595.776C115.636 636.485 171.009 602.672 219.84 587.545C268.671 572.418 269.139 583.764 320.306 570.639C371.474 557.514 385.726 501.233 368.904 488.553M389.698 439.391C377.174 439.391 378.716 453.924 381.053 461.191M389.698 439.391C389.698 446.732 435.491 480.99 441.8 488.553C446.846 494.604 459.011 497.006 464.463 497.451C440.351 516.315 390.71 499.379 368.904 488.553M381.053 461.191C371.396 466.085 355.446 478.409 368.904 488.553M381.053 461.191C393.747 473.278 423.669 497.451 441.8 497.451M539.929 405.8C517.188 408.099 471.706 429.647 471.706 497.451M430.118 385.779C441.254 380.959 465.164 379.016 471.706 409.804C478.248 440.592 457.765 449.92 446.706 450.736C437.828 447.473 421.426 438.234 426.847 427.378M509.789 304.583C493.98 314.445 464.229 336.172 471.706 344.18C479.182 352.188 526.534 363.979 549.275 368.873C552.156 362.94 556.19 349.697 549.275 344.18C540.63 337.284 514.696 304.583 509.789 304.583ZM48.5814 587.545C44.1422 575.459 48.5814 557.069 66.1045 564.41C71.9455 562.927 80.123 557.781 66.1045 549.061C48.5814 538.16 29.4229 558.181 34.7966 564.41C40.1704 570.639 31.0584 579.315 48.5814 587.545Z" stroke="#F4F1E1" stroke-width="7" stroke-linecap="round"/>
<path d="M501.612 255.644C518.98 286.935 557.266 349.386 571.471 348.852" stroke="#F4F1E1" stroke-width="7" stroke-linecap="round"/>
</svg>
