<svg width="603" height="445" viewBox="0 0 603 445" fill="none" xmlns="http://www.w3.org/2000/svg">
<path d="M15.4002 422.177C13.1278 421.991 11.1603 421.268 9.49774 420.008C7.83515 418.748 6.58726 417.081 5.75405 415.006C4.96397 412.894 4.67518 410.543 4.88767 407.952C5.12304 405.081 5.93189 402.559 7.31422 400.384C8.73968 398.173 10.5628 396.497 12.7836 395.354C15.0077 394.172 17.4154 393.687 20.0067 393.899C22.2791 394.085 24.2466 394.808 25.9092 396.068C27.5717 397.328 28.7997 398.994 29.5931 401.066C30.4263 403.141 30.735 405.494 30.5192 408.125C30.2871 410.956 29.4583 413.476 28.0329 415.687C26.6473 417.902 24.8425 419.6 22.6184 420.782C20.4374 421.928 18.0314 422.393 15.4002 422.177ZM17.3149 419.385C19.5474 419.567 21.395 418.816 22.8577 417.13C24.3237 415.404 25.1841 412.986 25.4391 409.876C25.6353 407.484 25.4497 405.342 24.8825 403.449C24.3153 401.557 23.4363 400.04 22.2456 398.899C21.0549 397.758 19.6223 397.119 17.9479 396.981C15.7154 396.798 13.8661 397.57 12.4002 399.296C10.9342 401.022 10.0721 403.46 9.81384 406.609C9.6177 409.001 9.80324 411.144 10.3705 413.036C10.9409 414.889 11.8216 416.386 13.0123 417.527C14.2063 418.628 15.6405 419.247 17.3149 419.385Z" fill="#F4F1E1"/>
<path d="M56.555 418.867C57.6648 418.31 58.4132 417.685 58.8001 416.992C59.1789 416.259 59.2625 415.384 59.0508 414.366L56.867 402.686C56.4598 400.728 55.7155 399.309 54.634 398.431C53.5917 397.544 52.2873 397.264 50.7207 397.589C49.7808 397.785 48.862 398.18 47.9644 398.775C47.0667 399.37 46.2751 399.984 45.5896 400.616C44.9432 401.241 44.4567 401.751 44.1303 402.145C44.3028 403.172 44.4965 404.398 44.7114 405.824C44.9573 407.203 45.1917 408.625 45.4147 410.09C45.6768 411.547 45.9105 412.867 46.1156 414.05C46.3208 415.233 46.4845 416.119 46.6066 416.706C46.8591 417.92 47.1949 418.749 47.6141 419.193C48.0643 419.59 48.6614 419.711 49.4055 419.556C49.758 419.483 50.1847 419.374 50.6857 419.229C51.1867 419.084 51.4372 419.012 51.4372 419.012L51.6035 419.222L51.6001 421.858C51.6001 421.858 51.3023 421.899 50.7067 421.982C50.1111 422.065 49.398 422.172 48.5674 422.304C47.745 422.475 46.9617 422.638 46.2176 422.792C45.3952 422.963 44.5377 423.162 43.645 423.388C42.7606 423.654 42.0091 423.871 41.3906 424.04C40.7803 424.249 40.4751 424.353 40.4751 424.353L40.268 421.884C41.363 421.452 42.0926 420.933 42.4567 420.326C42.8208 419.719 42.8888 418.868 42.6608 417.771L39.6802 403.438C39.4033 402.106 38.9965 401.231 38.4598 400.811C37.915 400.352 37.1139 400.233 36.0565 400.452L35.4103 400.587L35.1852 400.388L34.9583 398.413C36.2802 397.893 37.5433 397.386 38.7477 396.89C39.9439 396.356 40.9133 395.909 41.6558 395.551C42.4375 395.184 42.8284 395.001 42.8284 395.001L43.2786 395.397C43.2786 395.397 43.2621 395.809 43.2292 396.633C43.2354 397.449 43.3052 398.374 43.4386 399.409L43.5928 399.561C43.8964 399.252 44.3714 398.786 45.0178 398.161C45.6952 397.49 46.4117 396.81 47.1675 396.122C47.9624 395.425 48.7344 394.815 49.4835 394.292C50.2245 393.73 50.83 393.4 51.3 393.302C53.7673 392.789 55.868 393.068 57.6021 394.137C59.3361 395.207 60.4434 396.897 60.9239 399.208C61.0298 399.717 61.1657 400.567 61.3317 401.758C61.4977 402.949 61.6726 404.281 61.8564 405.755C62.0402 407.228 62.2314 408.639 62.43 409.987C62.6286 411.334 62.8174 412.439 62.9966 413.301C63.2328 414.436 63.5645 415.246 63.9918 415.729C64.411 416.173 64.9926 416.318 65.7367 416.163C66.0892 416.09 66.516 415.981 67.0169 415.836C67.5179 415.691 67.7684 415.618 67.7684 415.618L67.9348 415.829L67.9901 418.453C67.9901 418.453 67.8098 418.47 67.4491 418.504C67.1358 418.569 66.701 418.639 66.1445 418.713C65.6354 418.819 65.0635 418.918 64.4287 419.009C63.8412 419.131 63.2734 419.249 62.7251 419.363C62.0985 419.493 61.4408 419.67 60.7522 419.895C60.1027 420.112 59.4728 420.324 58.8624 420.533C58.2521 420.741 57.7593 420.926 57.3839 421.085C57.0086 421.245 56.8209 421.325 56.8209 421.325L56.555 418.867Z" fill="#F4F1E1"/>
<path d="M88.5735 411.882C86.2728 412.91 84.0356 413.296 81.8619 413.041C79.6882 412.786 77.7082 411.984 75.9218 410.636C74.1557 409.234 72.7336 407.329 71.6556 404.919C70.8226 403.057 70.3408 401.147 70.2103 399.19C70.1163 397.217 70.3495 395.338 70.9099 393.554C71.4539 391.734 72.2747 390.14 73.3723 388.773C74.49 387.353 75.8706 386.276 77.5139 385.542C82.9551 383.11 86.86 384.541 89.2283 389.836C89.4406 390.31 89.6246 390.82 89.7803 391.363C89.9359 391.907 90.0425 392.341 90.1002 392.666L89.6821 393.642L74.5634 400.399C75.9806 403.665 77.7164 405.978 79.7708 407.338C81.8455 408.645 84.0701 408.965 86.4447 408.298C88.803 407.595 91.1874 405.872 93.5977 403.13L93.9754 403.092L95.2884 404.411C94.7867 405.249 94.1553 406.188 93.3941 407.23C92.6695 408.255 91.8857 409.196 91.0429 410.055C90.2 410.914 89.3769 411.523 88.5735 411.882ZM73.876 398.275L83.5703 393.35C84.0854 393.032 84.3934 392.741 84.4943 392.477C84.5952 392.213 84.5232 391.807 84.2782 391.259C83.6249 389.799 82.725 388.865 81.5786 388.457C80.4687 388.033 79.1834 388.147 77.7226 388.8C76.0428 389.551 74.8434 390.788 74.1244 392.512C73.3891 394.198 73.3063 396.119 73.876 398.275Z" fill="#F4F1E1"/>
<path d="M127.692 390.334C125.83 391.65 123.857 392.36 121.773 392.462C119.689 392.564 117.661 392.088 115.689 391.033C113.727 389.922 111.994 388.306 110.492 386.184C108.828 383.833 107.827 381.381 107.49 378.827C107.162 376.217 107.482 373.762 108.45 371.46C109.395 369.126 110.929 367.208 113.051 365.707C114.913 364.39 116.885 363.681 118.969 363.579C121.053 363.476 123.065 363.964 125.005 365.042C126.977 366.097 128.725 367.702 130.251 369.857C131.892 372.175 132.876 374.639 133.204 377.248C133.565 379.835 133.273 382.295 132.328 384.629C131.392 386.908 129.847 388.809 127.692 390.334ZM127.364 386.964C129.193 385.671 130.126 383.908 130.164 381.677C130.179 379.413 129.285 377.007 127.482 374.461C126.095 372.502 124.576 370.98 122.925 369.894C121.274 368.808 119.626 368.21 117.98 368.1C116.334 367.99 114.825 368.421 113.454 369.391C111.625 370.684 110.703 372.463 110.689 374.727C110.674 376.991 111.58 379.413 113.406 381.992C114.792 383.951 116.311 385.473 117.962 386.559C119.59 387.612 121.227 388.194 122.873 388.304C124.496 388.381 125.993 387.934 127.364 386.964Z" fill="#F4F1E1"/>
<path d="M143.882 378.199L142.668 376.176C143.48 375.332 143.92 374.501 143.988 373.684C144.056 372.866 143.781 372.064 143.161 371.279L133.126 358.562C132.5 357.833 131.883 357.504 131.277 357.575C130.702 357.621 129.821 358.086 128.634 358.971L128.222 358.837L127.288 356.976L129.706 354.229L129.558 354.04C127.434 351.283 126.031 348.569 125.349 345.898C124.643 343.194 124.669 340.678 125.429 338.347C126.22 335.992 127.715 333.947 129.914 332.213C131.516 330.95 132.927 330.092 134.149 329.638C135.377 329.129 135.991 328.874 135.991 328.874L136.42 329.223C136.42 329.223 136.498 329.645 136.655 330.49C136.787 331.303 137.027 332.285 137.375 333.436L136.968 333.986C136.968 333.986 136.621 334.031 135.927 334.12C135.208 334.177 134.329 334.386 133.289 334.748C132.249 335.109 131.211 335.698 130.175 336.516C128.981 337.457 128.239 338.551 127.95 339.798C127.66 341.045 127.819 342.473 128.426 344.083C129.034 345.692 130.103 347.498 131.632 349.501L133.406 351.847C134.537 350.955 135.577 350.11 136.526 349.311C137.506 348.487 138.295 347.839 138.892 347.369C139.495 346.842 139.797 346.579 139.797 346.579L140.05 346.609L141.548 349.477C141.548 349.477 141.238 349.696 140.616 350.135C140.026 350.55 139.26 351.128 138.317 351.871C137.35 352.583 136.317 353.372 135.217 354.239L146.216 368.565C147.579 370.292 149.062 370.524 150.664 369.261C151.48 368.617 152.143 368.069 152.652 367.617C153.162 367.164 153.416 366.938 153.416 366.938L153.659 367.052L154.928 369.338C154.928 369.338 154.695 369.495 154.231 369.811C153.822 370.132 153.288 370.553 152.629 371.074C152.001 371.569 151.344 372.061 150.66 372.55C150.032 373.045 149.482 373.478 149.011 373.85C148.351 374.37 147.707 374.877 147.079 375.373C146.475 375.899 145.935 376.377 145.457 376.804C144.979 377.232 144.583 377.57 144.269 377.817C144.011 378.071 143.882 378.199 143.882 378.199Z" fill="#F4F1E1"/>
<path d="M177.255 359.082C176.401 359.805 175.52 360.158 174.613 360.139C173.762 360.126 172.738 359.473 171.539 358.182L171.535 357.714C172.28 357.293 172.983 356.855 173.645 356.399C174.364 355.948 175.013 355.476 175.594 354.985C177.212 353.616 178.442 352.129 179.285 350.524C180.127 348.92 180.527 347.35 180.484 345.814C180.472 344.252 179.961 342.877 178.953 341.686C178.099 340.679 177.07 340.083 175.865 339.898C174.69 339.687 173.181 339.917 171.337 340.587C169.523 341.231 167.242 342.376 164.495 344.021L163.656 343.866C162.64 342.42 161.622 341.002 160.602 339.612C159.556 338.192 158.611 336.922 157.767 335.802C156.927 334.626 156.251 333.704 155.739 333.037C155.226 332.371 154.97 332.037 154.97 332.037L155.026 331.361L163.371 323.668C164.205 322.857 164.73 322.177 164.945 321.627C165.135 321.047 165.068 320.318 164.743 319.44L166.1 317.978L169.577 324.31L169.535 324.817C169.535 324.817 169.036 325.187 168.038 325.927C167.07 326.642 165.798 327.614 164.219 328.846C162.641 330.077 160.967 331.442 159.196 332.941L163.763 338.98C166.196 337.706 168.508 336.692 170.7 335.937C172.922 335.157 174.935 334.841 176.74 334.991C178.518 335.11 180.028 335.902 181.269 337.367C182.459 338.771 183.184 340.462 183.446 342.442C183.682 344.391 183.555 346.438 183.065 348.582C182.606 350.7 181.858 352.696 180.823 354.568C179.818 356.414 178.629 357.918 177.255 359.082Z" fill="#F4F1E1"/>
<path d="M197.774 341.665C196.732 342.539 195.763 342.909 194.866 342.774C194 342.613 193.05 341.949 192.016 340.78L192.014 340.311C193.532 339.507 194.874 338.616 196.038 337.639C197.57 336.353 198.717 334.92 199.479 333.34C200.267 331.791 200.628 330.261 200.561 328.751C200.524 327.215 200.017 325.865 199.039 324.701C197.727 323.139 196.088 322.556 194.123 322.953C192.162 323.293 189.76 324.631 186.915 326.966L186.492 326.929L184.912 325.514L187.282 322.272C188.018 320.661 188.358 319.044 188.3 317.421C188.248 315.742 187.797 314.397 186.948 313.386C186.125 312.406 185.117 311.921 183.923 311.931C182.76 311.914 181.673 312.331 180.662 313.179C179.804 313.899 179.065 314.885 178.445 316.137C177.855 317.363 177.504 318.624 177.391 319.92C177.33 319.971 177.253 320.035 177.161 320.112C177.069 320.19 176.993 320.254 176.932 320.305L174.851 318.762C174.851 318.762 174.939 318.4 175.116 317.678C175.292 316.955 175.568 316.071 175.943 315.025C176.349 313.953 176.855 312.876 177.46 311.793C178.066 310.711 178.797 309.809 179.655 309.089C181.463 307.572 183.302 306.838 185.172 306.887C187.047 306.88 188.64 307.658 189.952 309.22C190.981 310.445 191.525 312.025 191.584 313.961C191.642 315.896 191.24 317.905 190.377 319.987L190.57 320.216C193.065 318.958 195.217 318.379 197.026 318.48C198.865 318.555 200.376 319.297 201.56 320.706C202.589 321.931 203.251 323.464 203.544 325.307C203.838 327.149 203.782 329.103 203.374 331.168C203.024 333.238 202.37 335.196 201.414 337.043C200.458 338.89 199.245 340.43 197.774 341.665Z" fill="#F4F1E1"/>
<path d="M221.428 314.043L220.22 312.017C221.035 311.175 221.477 310.346 221.548 309.529C221.618 308.711 221.345 307.909 220.728 307.122L210.732 294.373C210.109 293.643 209.493 293.312 208.886 293.38C208.311 293.425 207.429 293.887 206.239 294.769L205.828 294.633L204.9 292.769L207.326 290.029L207.178 289.841C205.063 287.077 203.668 284.359 202.995 281.685C202.297 278.98 202.331 276.463 203.098 274.135C203.896 271.782 205.398 269.742 207.602 268.015C209.208 266.757 210.622 265.903 211.845 265.453C213.075 264.947 213.69 264.694 213.69 264.694L214.117 265.045C214.117 265.045 214.194 265.467 214.348 266.312C214.478 267.125 214.715 268.108 215.06 269.261L214.651 269.81C214.651 269.81 214.304 269.853 213.609 269.94C212.89 269.995 212.01 270.202 210.969 270.56C209.929 270.918 208.889 271.504 207.85 272.318C206.653 273.255 205.908 274.347 205.614 275.593C205.321 276.84 205.475 278.268 206.078 279.88C206.68 281.491 207.743 283.3 209.267 285.308L211.034 287.659C212.167 286.771 213.21 285.929 214.161 285.133C215.144 284.312 215.935 283.667 216.533 283.198C217.138 282.673 217.441 282.411 217.441 282.411L217.693 282.442L219.183 285.314C219.183 285.314 218.872 285.533 218.249 285.97C217.657 286.382 216.889 286.959 215.945 287.699C214.975 288.407 213.939 289.193 212.837 290.057L223.792 304.417C225.149 306.148 226.631 306.385 228.237 305.127C229.056 304.485 229.72 303.939 230.231 303.488C230.742 303.038 230.997 302.812 230.997 302.812L231.239 302.927L232.501 305.216C232.501 305.216 232.268 305.373 231.802 305.687C231.393 306.008 230.858 306.427 230.196 306.945C229.567 307.439 228.909 307.929 228.223 308.415C227.593 308.908 227.042 309.34 226.57 309.71C225.909 310.228 225.263 310.734 224.633 311.227C224.028 311.752 223.486 312.228 223.007 312.654C222.528 313.08 222.131 313.416 221.816 313.663C221.557 313.916 221.428 314.043 221.428 314.043Z" fill="#F4F1E1"/>
<path d="M245.931 295.737C244.076 297.062 242.106 297.781 240.023 297.893C237.939 298.006 235.909 297.539 233.932 296.494C231.964 295.393 230.224 293.785 228.712 291.67C227.036 289.328 226.023 286.88 225.673 284.328C225.333 281.72 225.641 279.263 226.598 276.957C227.531 274.618 229.056 272.693 231.171 271.181C233.026 269.855 234.996 269.136 237.079 269.024C239.163 268.912 241.177 269.39 243.121 270.459C245.098 271.504 246.855 273.1 248.39 275.248C250.043 277.558 251.039 280.017 251.38 282.625C251.753 285.209 251.473 287.671 250.539 290.01C249.615 292.293 248.079 294.202 245.931 295.737ZM245.587 292.369C247.41 291.066 248.334 289.299 248.361 287.068C248.365 284.804 247.459 282.403 245.644 279.865C244.248 277.913 242.722 276.398 241.066 275.32C239.409 274.242 237.758 273.652 236.112 273.55C234.465 273.449 232.958 273.886 231.592 274.863C229.769 276.165 228.856 277.948 228.853 280.213C228.849 282.477 229.766 284.894 231.605 287.464C233.001 289.416 234.527 290.931 236.183 292.009C237.816 293.055 239.456 293.628 241.102 293.73C242.725 293.799 244.22 293.345 245.587 292.369Z" fill="#F4F1E1"/>
<path d="M272.7 274.495C273.555 273.594 274.046 272.752 274.175 271.969C274.282 271.151 274.063 270.3 273.518 269.414L267.496 259.171C266.448 257.468 265.266 256.387 263.95 255.928C262.668 255.448 261.346 255.627 259.983 256.465C259.165 256.968 258.435 257.652 257.793 258.516C257.151 259.381 256.615 260.227 256.185 261.055C255.789 261.862 255.505 262.506 255.332 262.988C255.843 263.895 256.442 264.982 257.128 266.25C257.828 267.464 258.532 268.721 259.239 270.024C259.981 271.305 260.649 272.467 261.244 273.51C261.839 274.553 262.294 275.33 262.608 275.841C263.258 276.897 263.856 277.563 264.401 277.838C264.959 278.058 265.562 277.969 266.209 277.571C266.516 277.383 266.88 277.135 267.302 276.829C267.724 276.522 267.935 276.369 267.935 276.369L268.163 276.51L269.055 278.991C269.055 278.991 268.789 279.131 268.257 279.411C267.725 279.691 267.091 280.034 266.355 280.44C265.639 280.88 264.957 281.299 264.31 281.697C263.595 282.137 262.855 282.615 262.093 283.131C261.351 283.681 260.718 284.141 260.194 284.51C259.69 284.914 259.439 285.115 259.439 285.115L258.405 282.863C259.288 282.085 259.798 281.349 259.935 280.655C260.071 279.96 259.845 279.136 259.258 278.183L251.585 265.715C250.872 264.556 250.192 263.871 249.545 263.659C248.876 263.412 248.082 263.572 247.162 264.138L246.6 264.483L246.321 264.373L245.437 262.593C246.503 261.655 247.519 260.749 248.484 259.874C249.427 258.965 250.187 258.216 250.764 257.626C251.375 257.016 251.68 256.711 251.68 256.711L252.238 256.931C252.238 256.931 252.363 257.324 252.612 258.11C252.895 258.875 253.275 259.722 253.752 260.649L253.948 260.74C254.129 260.347 254.417 259.747 254.813 258.94C255.222 258.078 255.665 257.195 256.142 256.291C256.653 255.367 257.172 254.531 257.699 253.784C258.205 253.004 258.662 252.488 259.071 252.236C261.218 250.916 263.288 250.465 265.283 250.882C267.278 251.299 268.893 252.512 270.13 254.522C270.403 254.965 270.819 255.718 271.38 256.782C271.941 257.846 272.558 259.04 273.232 260.363C273.905 261.686 274.564 262.948 275.209 264.148C275.854 265.348 276.407 266.323 276.868 267.073C277.476 268.06 278.063 268.709 278.629 269.018C279.174 269.294 279.77 269.232 280.418 268.834C280.725 268.645 281.089 268.398 281.511 268.091C281.933 267.785 282.144 267.632 282.144 267.632L282.372 267.773L283.315 270.222C283.315 270.222 283.151 270.299 282.824 270.454C282.551 270.621 282.166 270.835 281.668 271.094C281.225 271.366 280.72 271.653 280.154 271.954C279.643 272.269 279.149 272.572 278.672 272.866C278.127 273.201 277.569 273.591 276.997 274.037C276.46 274.461 275.94 274.875 275.436 275.278C274.933 275.681 274.532 276.022 274.233 276.3C273.934 276.577 273.785 276.716 273.785 276.716L272.7 274.495Z" fill="#F4F1E1"/>
<path d="M294.317 264.694C291.917 265.974 289.969 266.402 288.472 265.976C286.956 265.515 285.577 264.121 284.333 261.792L277.381 248.771C276.873 247.819 276.303 247.261 275.672 247.099C275.041 246.937 274.134 247.149 272.951 247.735L272.57 247.53L271.986 245.801C272.607 244.926 273.165 244.016 273.659 243.073C274.169 242.075 274.592 241.17 274.928 240.355C275.281 239.487 275.549 238.8 275.732 238.294C275.897 237.753 275.979 237.483 275.979 237.483L277.264 237.341C277.264 237.341 277.39 237.705 277.642 238.432C277.929 239.14 278.369 240.175 278.96 241.537L286.657 237.227L286.901 237.301L287.922 240.36L280.161 244.296C280.941 246.011 281.889 247.999 283.005 250.26C284.121 252.52 285.405 255.009 286.856 257.726C287.816 259.526 288.795 260.636 289.79 261.057C290.821 261.459 292.095 261.255 293.613 260.446C294.495 259.975 295.222 259.383 295.794 258.67C296.401 257.938 296.704 257.572 296.704 257.572L297.968 258.666C297.968 258.666 297.841 258.938 297.587 259.481C297.333 260.025 297.002 260.678 296.593 261.44C296.219 262.184 295.817 262.874 295.386 263.512C294.991 264.131 294.635 264.525 294.317 264.694Z" fill="#F4F1E1"/>
<path d="M309.65 256.782C308.336 257.369 307.136 257.773 306.052 257.995C304.984 258.253 304.136 258.413 303.506 258.475C302.914 258.521 302.617 258.544 302.617 258.544L302.281 258.234C302.175 257.799 301.954 257.109 301.619 256.164C301.304 255.165 300.954 254.139 300.57 253.084C300.223 252.012 299.918 251.184 299.657 250.6L301.452 249.47C302.53 251.88 303.691 253.398 304.935 254.025C306.179 254.652 307.769 254.534 309.705 253.669C311.093 253.049 312.122 252.217 312.795 251.172C313.467 250.127 313.598 249.148 313.19 248.235C312.913 247.614 312.477 247.13 311.883 246.782C311.29 246.433 310.397 246.153 309.207 245.94C308.016 245.727 306.385 245.558 304.313 245.432C301.758 245.303 299.761 244.902 298.321 244.231C296.882 243.56 295.868 242.567 295.281 241.252C294.611 239.755 294.454 238.226 294.808 236.666C295.162 235.106 295.959 233.655 297.199 232.312C298.423 230.933 299.984 229.82 301.883 228.971C303.381 228.303 304.724 227.878 305.914 227.697C307.14 227.499 307.753 227.401 307.753 227.401L307.986 227.626C307.986 227.626 308.051 227.969 308.183 228.655C308.351 229.324 308.572 230.211 308.846 231.315C309.141 232.367 309.503 233.519 309.932 234.773L307.979 235.843C307.979 235.843 307.907 235.634 307.764 235.216C307.621 234.798 307.492 234.461 307.378 234.205C306.79 232.891 306.001 232.105 305.009 231.847C304.038 231.536 302.767 231.731 301.196 232.433C299.954 232.987 299.026 233.753 298.411 234.728C297.832 235.688 297.73 236.588 298.106 237.427C298.498 238.304 299.23 238.962 300.303 239.403C301.413 239.827 303.004 240.102 305.076 240.228C307.505 240.37 309.455 240.616 310.926 240.966C312.418 241.264 313.554 241.698 314.335 242.269C315.153 242.824 315.766 243.558 316.174 244.471C316.794 245.858 316.899 247.367 316.488 248.996C316.114 250.609 315.323 252.123 314.116 253.539C312.928 254.901 311.44 255.982 309.65 256.782Z" fill="#F4F1E1"/>
<path d="M349.075 244.703C346.894 245.367 344.798 245.419 342.788 244.86C340.778 244.3 339.003 243.21 337.464 241.587C335.951 239.915 334.816 237.836 334.059 235.348C333.22 232.593 333.043 229.95 333.527 227.42C334.037 224.84 335.114 222.61 336.758 220.73C338.39 218.812 340.45 217.475 342.937 216.718C345.119 216.054 347.214 216.002 349.224 216.561C351.234 217.12 352.99 218.217 354.491 219.851C356.03 221.473 357.184 223.547 357.953 226.072C358.78 228.789 358.939 231.438 358.428 234.018C357.956 236.587 356.904 238.83 355.272 240.748C353.666 242.616 351.601 243.935 349.075 244.703ZM349.826 241.401C351.969 240.749 353.41 239.37 354.148 237.264C354.875 235.12 354.784 232.555 353.875 229.571C353.176 227.275 352.214 225.351 350.99 223.801C349.765 222.25 348.389 221.164 346.861 220.541C345.334 219.919 343.766 219.852 342.159 220.341C340.016 220.993 338.581 222.391 337.854 224.536C337.127 226.68 337.224 229.264 338.144 232.287C338.844 234.583 339.805 236.506 341.03 238.057C342.243 239.569 343.614 240.636 345.141 241.259C346.657 241.843 348.219 241.89 349.826 241.401Z" fill="#F4F1E1"/>
<path d="M369.785 237.826L369.225 235.535C370.25 234.969 370.916 234.305 371.223 233.544C371.53 232.784 371.504 231.936 371.145 231.003L365.325 215.885C364.942 215.003 364.451 214.507 363.851 214.395C363.288 214.268 362.308 214.452 360.913 214.946L360.559 214.696L360.218 212.642L363.341 210.733L363.255 210.509C362.042 207.247 361.506 204.24 361.646 201.486C361.771 198.695 362.542 196.298 363.957 194.297C365.41 192.281 367.443 190.77 370.056 189.765C371.96 189.032 373.563 188.63 374.864 188.558C376.188 188.435 376.85 188.373 376.85 188.373L377.156 188.834C377.156 188.834 377.105 189.26 377.005 190.113C376.891 190.929 376.829 191.938 376.821 193.141L376.269 193.546C376.269 193.546 375.925 193.486 375.235 193.365C374.532 193.208 373.63 193.147 372.53 193.185C371.43 193.222 370.264 193.478 369.032 193.952C367.613 194.497 366.581 195.323 365.935 196.429C365.289 197.534 365.018 198.946 365.122 200.663C365.226 202.38 365.712 204.422 366.58 206.788L367.58 209.553C368.924 209.036 370.168 208.536 371.311 208.054C372.491 207.557 373.436 207.172 374.145 206.899C374.877 206.575 375.244 206.412 375.244 206.412L375.476 206.516L376.059 209.699C376.059 209.699 375.697 209.817 374.973 210.052C374.287 210.273 373.384 210.599 372.264 211.03C371.129 211.423 369.909 211.872 368.602 212.374L374.867 229.314C375.657 231.368 377.004 232.028 378.908 231.296C379.879 230.922 380.674 230.595 381.295 230.313C381.915 230.032 382.225 229.891 382.225 229.891L382.423 230.072L382.958 232.63C382.958 232.63 382.69 232.712 382.153 232.876C381.667 233.063 381.033 233.307 380.249 233.608C379.502 233.896 378.73 234.171 377.931 234.436C377.185 234.723 376.531 234.974 375.971 235.19C375.187 235.491 374.422 235.786 373.675 236.073C372.943 236.397 372.285 236.693 371.702 236.96C371.119 237.227 370.641 237.433 370.268 237.576C369.946 237.743 369.785 237.826 369.785 237.826Z" fill="#F4F1E1"/>
<path d="M413.144 219.43C410.748 220.717 408.801 221.15 407.303 220.729C405.786 220.272 404.402 218.882 403.152 216.556L396.162 203.556C395.651 202.605 395.08 202.049 394.448 201.889C393.817 201.728 392.911 201.943 391.729 202.532L391.347 202.329L390.759 200.601C391.377 199.724 391.932 198.813 392.423 197.869C392.931 196.869 393.351 195.962 393.685 195.147C394.035 194.278 394.301 193.59 394.483 193.084C394.646 192.542 394.728 192.272 394.728 192.272L396.012 192.127C396.012 192.127 396.139 192.49 396.393 193.216C396.683 193.923 397.125 194.957 397.72 196.317L405.405 191.985L405.649 192.058L406.679 195.114L398.929 199.073C399.714 200.786 400.668 202.771 401.79 205.028C402.913 207.285 404.204 209.771 405.662 212.483C406.629 214.28 407.61 215.387 408.607 215.806C409.639 216.205 410.912 215.997 412.428 215.183C413.309 214.71 414.034 214.116 414.603 213.402C415.208 212.668 415.51 212.301 415.51 212.301L416.778 213.391C416.778 213.391 416.652 213.663 416.399 214.208C416.147 214.752 415.817 215.406 415.41 216.169C415.038 216.914 414.638 217.606 414.21 218.244C413.816 218.864 413.461 219.26 413.144 219.43Z" fill="#F4F1E1"/>
<path d="M421.636 212.22C422.519 211.459 423.003 210.755 423.09 210.11C423.209 209.442 422.948 208.648 422.308 207.73L404.048 181.548C403.43 180.662 402.836 180.126 402.266 179.938C401.706 179.694 401.098 179.801 400.442 180.258L399.408 180.979L399.108 180.968L398.207 179.256C398.893 178.632 399.622 177.929 400.393 177.147C401.198 176.343 401.97 175.562 402.709 174.803C403.425 174.012 404.021 173.328 404.497 172.752L405.239 173.186C405.267 173.507 405.726 174.48 406.615 176.103C407.503 177.727 408.74 179.815 410.325 182.367C411.942 184.896 413.777 187.737 415.83 190.89C415.945 190.566 416.161 190.001 416.477 189.195C416.803 188.334 417.183 187.411 417.618 186.426C418.085 185.418 418.565 184.498 419.059 183.667C419.585 182.813 420.077 182.226 420.537 181.906C422.67 180.419 424.716 179.822 426.676 180.114C428.612 180.374 430.29 181.52 431.708 183.555C432.006 183.981 432.449 184.721 433.037 185.774C433.657 186.804 434.342 187.96 435.09 189.243C435.838 190.525 436.552 191.758 437.232 192.942C437.944 194.104 438.552 195.045 439.055 195.767C439.719 196.718 440.342 197.332 440.925 197.609C441.485 197.852 442.077 197.757 442.7 197.322C442.897 197.185 443.16 197.002 443.488 196.774C443.826 196.489 444.115 196.239 444.355 196.023L444.59 196.152L445.672 198.542C445.125 198.875 444.396 199.334 443.487 199.919C442.611 200.481 441.845 200.99 441.188 201.448C440.794 201.722 440.33 202.07 439.795 202.492C439.283 202.946 438.738 203.423 438.16 203.923C437.605 204.456 437.062 205.006 436.53 205.571L435.319 203.416C436.121 202.468 436.563 201.599 436.647 200.809C436.707 199.987 436.44 199.15 435.845 198.296L429.345 188.346C428.201 186.706 426.959 185.694 425.619 185.312C424.312 184.906 423.002 185.161 421.689 186.075C420.869 186.647 420.034 187.618 419.186 188.99C418.371 190.338 417.751 191.721 417.325 193.139C418.139 194.375 418.987 195.661 419.87 196.997C420.785 198.309 421.707 199.666 422.635 201.066C423.573 202.412 424.534 203.79 425.518 205.2C426.227 206.217 426.862 206.848 427.422 207.091C427.992 207.279 428.589 207.156 429.212 206.721C429.409 206.584 429.672 206.401 430 206.173C430.338 205.888 430.627 205.638 430.866 205.422L431.102 205.551L432.135 207.975C431.554 208.331 430.809 208.802 429.9 209.386C428.991 209.971 428.209 210.492 427.552 210.949C426.863 211.43 426.043 212.001 425.091 212.665C424.195 213.338 423.414 213.931 422.748 214.444L421.636 212.22Z" fill="#F4F1E1"/>
<path d="M462.711 185.63C460.826 187.303 458.809 188.345 456.659 188.756C454.509 189.167 452.38 188.998 450.27 188.25C448.164 187.446 446.234 186.057 444.481 184.083C443.125 182.558 442.091 180.882 441.377 179.056C440.694 177.202 440.35 175.341 440.348 173.471C440.318 171.571 440.621 169.804 441.256 168.171C441.895 166.48 442.887 165.038 444.233 163.843C448.69 159.886 452.845 160.075 456.698 164.411C457.043 164.799 457.372 165.229 457.684 165.701C457.996 166.173 458.229 166.555 458.381 166.847L458.276 167.903L445.893 178.898C448.228 181.586 450.579 183.269 452.948 183.947C455.32 184.569 457.538 184.205 459.602 182.854C461.639 181.473 463.394 179.112 464.867 175.772L465.216 175.623L466.865 176.485C466.639 177.435 466.32 178.521 465.907 179.743C465.525 180.938 465.061 182.072 464.516 183.145C463.97 184.217 463.369 185.046 462.711 185.63ZM444.598 177.079L452.36 169.465C452.755 169.007 452.962 168.637 452.978 168.355C452.995 168.072 452.804 167.707 452.406 167.258C451.343 166.062 450.203 165.442 448.987 165.399C447.801 165.329 446.61 165.825 445.413 166.887C444.037 168.109 443.266 169.649 443.099 171.509C442.906 173.339 443.405 175.196 444.598 177.079Z" fill="#F4F1E1"/>
<path d="M502.006 145.326C499.966 147.687 497.728 148.107 495.29 146.585L494.879 146.785C494.58 149.274 494.298 151.223 494.032 152.631C493.767 154.04 493.491 154.911 493.203 155.244C491.713 156.97 489.999 158.159 488.061 158.812C486.119 159.408 484.11 159.471 482.033 158.999C479.952 158.472 477.957 157.385 476.049 155.739C473.869 153.857 472.316 151.646 471.392 149.106C470.464 146.509 470.215 143.89 470.645 141.25C471.045 138.583 472.133 136.221 473.911 134.162C474.277 133.738 474.697 133.282 475.172 132.794C475.647 132.305 476.189 131.769 476.798 131.186L469.257 124.679C468.409 123.948 467.671 123.548 467.042 123.481C466.413 123.414 465.85 123.668 465.353 124.243C465.144 124.485 464.952 124.769 464.777 125.093C464.629 125.388 464.555 125.535 464.555 125.535L463.031 123.903C463.619 123.038 464.178 122.146 464.706 121.228C465.234 120.311 465.71 119.453 466.134 118.657C466.558 117.86 466.894 117.226 467.143 116.754C467.392 116.282 467.517 116.046 467.517 116.046L468.343 116.283C468.45 116.587 469.027 117.296 470.073 118.41C471.119 119.524 472.529 120.951 474.302 122.692C476.102 124.403 478.143 126.323 480.427 128.452C482.681 130.555 485.099 132.773 487.681 135.107C490.29 137.411 492.927 139.712 495.592 142.011C496.259 142.586 496.917 142.864 497.568 142.845C498.219 142.825 498.793 142.528 499.29 141.952C499.708 141.468 499.996 140.951 500.154 140.4C500.308 139.794 500.399 139.291 500.427 138.892C500.48 138.463 500.507 138.248 500.507 138.248L501.783 138.239C501.783 138.239 501.843 138.476 501.963 138.949C502.082 139.422 502.213 140.037 502.353 140.792C502.464 141.521 502.506 142.297 502.482 143.122C502.483 143.915 502.325 144.65 502.006 145.326ZM490.878 151.97C491.348 151.425 491.711 150.76 491.965 149.976C492.219 149.192 492.404 148.427 492.52 147.681C492.631 146.879 492.696 146.222 492.715 145.71C492.735 145.199 492.744 144.943 492.744 144.943L480.297 134.203C480.297 134.203 479.79 134.453 478.777 134.953C477.734 135.427 476.624 136.345 475.448 137.707C473.696 139.735 473.007 141.941 473.381 144.324C473.75 146.65 475.132 148.845 477.524 150.909C479.038 152.216 480.639 153.147 482.325 153.704C484.037 154.23 485.649 154.353 487.16 154.072C488.671 153.791 489.91 153.09 490.878 151.97Z" fill="#F4F1E1"/>
<path d="M515.564 129.082C513.958 131.023 512.123 132.361 510.061 133.095C508 133.83 505.869 133.988 503.67 133.571C501.466 133.098 499.346 132.02 497.312 130.337C495.74 129.037 494.462 127.539 493.477 125.842C492.518 124.115 491.895 122.328 491.607 120.48C491.288 118.607 491.317 116.815 491.696 115.103C492.069 113.336 492.829 111.758 493.977 110.372C497.777 105.78 501.912 105.333 506.381 109.029C506.782 109.361 507.173 109.736 507.553 110.154C507.934 110.573 508.222 110.915 508.417 111.18L508.475 112.24L497.916 124.997C500.634 127.297 503.215 128.601 505.659 128.909C508.098 129.162 510.235 128.463 512.068 126.813C513.87 125.137 515.244 122.536 516.19 119.01L516.512 118.809L518.274 119.41C518.195 120.383 518.045 121.505 517.824 122.775C517.629 124.015 517.344 125.207 516.969 126.35C516.594 127.493 516.125 128.404 515.564 129.082ZM496.358 123.397L502.867 114.687C503.187 114.174 503.335 113.777 503.308 113.495C503.281 113.214 503.037 112.882 502.575 112.499C501.342 111.48 500.121 111.041 498.912 111.184C497.73 111.295 496.628 111.967 495.608 113.2C494.434 114.617 493.907 116.258 494.027 118.121C494.115 119.959 494.892 121.718 496.358 123.397Z" fill="#F4F1E1"/>
<path d="M532.726 108.692C531.048 110.573 529.181 111.856 527.123 112.541C525.036 113.199 522.914 113.264 520.759 112.737C518.573 112.182 516.48 111.014 514.479 109.231C512.329 107.315 510.802 105.151 509.898 102.739C508.991 100.27 508.722 97.8072 509.091 95.3501C509.486 92.8631 510.549 90.6493 512.279 88.7087C513.131 87.7534 513.978 86.9541 514.819 86.3109C515.658 85.6112 516.364 85.0891 516.94 84.7445C517.515 84.3998 517.803 84.2275 517.803 84.2275L518.236 84.3725C518.236 84.3725 518.438 84.6867 518.843 85.3149C519.274 85.9132 519.901 86.7128 520.723 87.7135C521.516 88.6877 522.468 89.7234 523.58 90.8209L522.077 92.7767L520.688 91.5394C519.583 90.5549 518.396 90.1133 517.127 90.2146C515.854 90.2594 514.725 90.8341 513.74 91.9388C512.116 93.7599 511.522 95.7485 511.958 97.9045C512.364 100.034 513.761 102.163 516.15 104.291C518.749 106.606 521.289 107.905 523.77 108.187C526.249 108.413 528.326 107.585 530.003 105.705C530.749 104.869 531.348 103.956 531.801 102.967C532.225 101.951 532.53 101.098 532.717 100.408C532.931 99.6873 533.037 99.3271 533.037 99.3271L533.367 99.1382L535.195 99.8829C535.195 99.8829 535.158 100.225 535.084 100.909C535.009 101.593 534.889 102.45 534.721 103.479C534.524 104.482 534.255 105.474 533.915 106.457C533.601 107.41 533.205 108.155 532.726 108.692Z" fill="#F4F1E1"/>
<path d="M556.297 82.7044C555.312 83.965 554.221 84.7115 553.024 84.9439C551.82 85.1202 550.538 84.779 549.178 83.9203L548.983 84.0724C549.149 85.4197 549.244 86.6615 549.27 87.798C549.288 88.8784 549.246 89.8096 549.142 90.5915C549.032 91.3173 548.854 91.8378 548.607 92.153C547.696 93.319 546.631 94.1621 545.412 94.6821C544.193 95.2021 542.933 95.3853 541.632 95.2317C540.355 95.0465 539.149 94.5108 538.014 93.6245C537.1 92.9105 536.468 92.0621 536.119 91.0792C535.795 90.0649 535.819 89.0933 536.189 88.1646L540.751 77.2625L538.707 75.5903C537.131 74.3593 535.618 73.7615 534.169 73.797C532.719 73.8325 531.477 74.512 530.443 75.8356C529.753 76.7181 529.231 77.8078 528.878 79.1048C528.524 80.4018 528.356 81.8185 528.373 83.3549L528.047 83.4804L525.57 82.4597C525.737 81.271 525.963 79.9755 526.247 78.573C526.499 77.146 526.809 75.8401 527.177 74.6554C527.545 73.4706 527.913 72.6419 528.283 72.1692C529.366 70.7825 530.542 69.7976 531.81 69.2146C533.047 68.6069 534.319 68.408 535.628 68.6177C536.929 68.7713 538.226 69.3529 539.519 70.3623C539.929 70.6824 540.554 71.2467 541.394 72.0552C542.259 72.8322 543.21 73.7269 544.246 74.7393C545.251 75.7271 546.237 76.6744 547.203 77.5815C548.194 78.4569 549.036 79.1655 549.73 79.7072C550.423 80.2488 551.095 80.494 551.744 80.4428C552.393 80.3916 552.952 80.0666 553.42 79.4678C553.839 78.932 554.132 78.2978 554.298 77.5651C554.433 76.8077 554.485 76.1888 554.455 75.7082L555.729 75.6372C555.942 76.2094 556.144 76.9254 556.335 77.7852C556.519 78.5888 556.622 79.4308 556.645 80.3112C556.692 81.1602 556.576 81.9579 556.297 82.7044ZM546.02 88.8381C546.488 88.2393 546.825 87.3859 547.031 86.278C547.23 85.1139 547.257 83.9425 547.112 82.7636L542.474 78.7604L539.387 86.7036C538.957 87.8391 539.262 88.8131 540.302 89.6255C541.185 90.3149 542.175 90.6064 543.274 90.5C544.365 90.3375 545.281 89.7835 546.02 88.8381Z" fill="#F4F1E1"/>
<path d="M573.957 48.2477C572.852 51.1655 570.894 52.3277 568.082 51.7342L567.765 52.0633C568.337 54.5039 568.741 56.4315 568.975 57.8459C569.21 59.2603 569.249 60.1733 569.093 60.5847C568.286 62.717 567.084 64.4221 565.488 65.7C563.869 66.9264 562.003 67.6746 559.89 67.9445C557.755 68.1629 555.508 67.8263 553.151 66.9346C550.458 65.9155 548.241 64.3711 546.501 62.3016C544.738 60.1805 543.605 57.8061 543.103 55.1784C542.564 52.5366 542.776 49.9438 543.739 47.4001C543.937 46.8764 544.176 46.3036 544.454 45.6819C544.732 45.0601 545.057 44.3706 545.43 43.6133L536.114 40.0889C535.066 39.6926 534.236 39.5708 533.622 39.7234C533.008 39.8761 532.567 40.3078 532.297 41.0186C532.184 41.3178 532.101 41.65 532.048 42.0149C532.01 42.3425 531.991 42.5063 531.991 42.5063L529.999 41.4963C530.255 40.4812 530.474 39.452 530.655 38.4086C530.836 37.3652 530.989 36.3967 531.114 35.5029C531.239 34.6092 531.337 33.8979 531.409 33.3692C531.481 32.8404 531.517 32.576 531.517 32.576L532.374 32.5153C532.579 32.7641 533.364 33.2322 534.729 33.9196C536.094 34.6071 537.908 35.4645 540.171 36.4917C542.448 37.4815 545.024 38.5845 547.9 39.8007C550.738 41.0028 553.77 42.257 556.997 43.5632C560.238 44.832 563.504 46.0892 566.796 47.3348C567.619 47.6462 568.333 47.681 568.938 47.4394C569.543 47.1978 569.98 46.7216 570.249 46.0108C570.475 45.4123 570.569 44.8274 570.528 44.2562C570.465 43.6334 570.377 43.1299 570.266 42.7457C570.169 42.3241 570.121 42.1133 570.121 42.1133L571.316 41.6675C571.316 41.6675 571.454 41.8692 571.729 42.2726C572.003 42.676 572.337 43.2083 572.728 43.8695C573.082 44.5165 573.388 45.2313 573.648 46.0138C573.922 46.759 574.025 47.5036 573.957 48.2477ZM565.785 58.3069C566.04 57.6336 566.153 56.8849 566.122 56.0609C566.092 55.2369 566.003 54.4549 565.856 53.7149C565.685 52.9232 565.521 52.2838 565.363 51.7964C565.206 51.3091 565.127 51.0655 565.127 51.0655L549.751 45.2481C549.751 45.2481 549.361 45.6566 548.581 46.4735C547.764 47.2762 547.036 48.5193 546.399 50.2026C545.45 52.709 545.56 55.0171 546.728 57.1272C547.873 59.1856 549.924 60.7739 552.879 61.8921C554.75 62.5998 556.573 62.9258 558.347 62.8702C560.136 62.7772 561.692 62.3394 563.015 61.5569C564.338 60.7743 565.261 59.691 565.785 58.3069Z" fill="#F4F1E1"/>
<path d="M580.588 25.7273C580.022 28.183 578.983 30.2013 577.469 31.7822C575.956 33.3632 574.123 34.4601 571.971 35.0731C569.788 35.6381 567.411 35.6246 564.838 35.0327C562.85 34.5752 561.035 33.8089 559.395 32.7337C557.763 31.6194 556.404 30.3012 555.318 28.7789C554.193 27.2476 553.416 25.6322 552.986 23.9326C552.527 22.1851 552.499 20.4343 552.903 18.6802C554.241 12.8722 557.735 10.6185 563.388 11.919C563.895 12.0356 564.412 12.1956 564.94 12.3992C565.467 12.6027 565.878 12.7793 566.172 12.929L566.699 13.8506L562.982 29.9882C566.443 30.8254 569.335 30.8341 571.658 30.0141C573.951 29.1462 575.547 27.5638 576.445 25.2667C577.305 22.9607 577.366 20.0196 576.63 16.4435L576.828 16.1196L578.672 15.8666C579.038 16.7717 579.407 17.8418 579.78 19.0767C580.161 20.2727 580.44 21.4657 580.618 22.6558C580.795 23.8459 580.785 24.8697 580.588 25.7273ZM560.873 29.2565L562.784 18.5524C562.84 17.9498 562.794 17.5286 562.644 17.2889C562.494 17.0491 562.126 16.862 561.542 16.7275C559.982 16.3687 558.695 16.5239 557.679 17.1931C556.671 17.8233 555.988 18.918 555.629 20.4772C555.216 22.2703 555.481 23.973 556.423 25.5853C557.326 27.1887 558.81 28.4124 560.873 29.2565Z" fill="#F4F1E1"/>
</svg>
