<svg width="1150" height="1150" viewBox="0 0 1150 1150" fill="none" xmlns="http://www.w3.org/2000/svg">
<circle cx="575" cy="575" r="573" fill="#061E37" stroke="#F4F1E1" stroke-width="4"/>
<circle cx="575.5" cy="570.5" r="535.5" fill="#061E37" stroke="#F4F1E1" stroke-width="4"/>
<circle cx="575" cy="575" r="473" fill="#061E37" stroke="#F4F1E1" stroke-width="4"/>
<circle cx="575" cy="575" r="273" fill="#061E37" stroke="#F4F1E1" stroke-width="4"/>
<path d="M822.646 575.195C822.646 712.161 711.613 823.195 574.646 823.195C437.679 823.195 326.646 712.161 326.646 575.195C326.646 438.228 437.679 327.195 574.646 327.195C711.613 327.195 822.646 438.228 822.646 575.195Z" fill="#031D2E" stroke="#031D2E" stroke-width="4"/>
<path d="M833.502 581.731C833.533 580.836 833.828 580.174 834.387 579.745C834.979 579.317 835.626 579.115 836.33 579.14C837.161 579.169 837.855 579.465 838.412 580.029C838.969 580.592 839.232 581.322 839.2 582.217C839.169 583.113 838.874 583.775 838.315 584.204C837.755 584.665 837.107 584.882 836.371 584.857C835.572 584.829 834.877 584.533 834.289 583.968C833.732 583.404 833.47 582.659 833.502 581.731Z" fill="white"/>
<path d="M832.693 596.815C832.776 595.922 833.109 595.278 833.692 594.883C834.307 594.49 834.965 594.326 835.666 594.391C836.494 594.468 837.17 594.804 837.693 595.399C838.216 595.994 838.437 596.737 838.354 597.629C838.271 598.521 837.938 599.165 837.355 599.561C836.769 599.989 836.11 600.169 835.377 600.101C834.58 600.027 833.904 599.691 833.349 599.093C832.826 598.498 832.607 597.739 832.693 596.815Z" fill="white"/>
<path d="M831.156 610.777C831.287 609.891 831.654 609.266 832.257 608.902C832.893 608.542 833.558 608.414 834.255 608.517C835.078 608.638 835.735 609.01 836.225 609.632C836.716 610.254 836.896 611.009 836.765 611.895C836.634 612.781 836.267 613.407 835.664 613.77C835.056 614.166 834.387 614.31 833.659 614.203C832.868 614.086 832.211 613.714 831.689 613.087C831.198 612.465 831.021 611.695 831.156 610.777Z" fill="white"/>
<path d="M828.722 625.374C828.903 624.497 829.305 623.894 829.929 623.565C830.583 623.243 831.255 623.153 831.945 623.296C832.76 623.464 833.394 623.873 833.848 624.522C834.302 625.171 834.438 625.935 834.257 626.812C834.076 627.69 833.673 628.293 833.05 628.621C832.42 628.981 831.745 629.087 831.024 628.938C830.241 628.776 829.606 628.367 829.121 627.712C828.667 627.062 828.534 626.283 828.722 625.374Z" fill="white"/>
<path d="M825.485 639.687C825.716 638.821 826.152 638.242 826.793 637.949C827.465 637.665 828.141 637.614 828.821 637.795C829.625 638.01 830.235 638.454 830.652 639.128C831.068 639.802 831.16 640.572 830.929 641.438C830.698 642.304 830.262 642.883 829.621 643.175C828.972 643.499 828.291 643.566 827.58 643.376C826.807 643.17 826.197 642.725 825.75 642.043C825.334 641.369 825.245 640.583 825.485 639.687Z" fill="white"/>
<path d="M821.465 653.701C821.745 652.85 822.213 652.296 822.87 652.041C823.557 651.795 824.235 651.782 824.904 652.002C825.694 652.262 826.278 652.74 826.655 653.437C827.032 654.133 827.081 654.907 826.801 655.758C826.522 656.61 826.053 657.163 825.397 657.419C824.73 657.705 824.047 657.733 823.348 657.503C822.588 657.253 822.004 656.775 821.596 656.069C821.219 655.372 821.175 654.583 821.465 653.701Z" fill="white"/>
<path d="M816.681 667.402C817.008 666.568 817.507 666.042 818.177 665.824C818.876 665.617 819.554 665.642 820.209 665.899C820.984 666.203 821.54 666.714 821.877 667.431C822.215 668.147 822.22 668.923 821.893 669.757C821.565 670.591 821.067 671.117 820.396 671.335C819.715 671.584 819.031 671.573 818.346 671.304C817.601 671.012 817.045 670.502 816.678 669.773C816.341 669.056 816.342 668.266 816.681 667.402Z" fill="white"/>
<path d="M811.148 680.771C811.522 679.956 812.049 679.459 812.73 679.278C813.441 679.111 814.116 679.174 814.756 679.468C815.512 679.815 816.039 680.355 816.335 681.09C816.632 681.825 816.594 682.599 816.22 683.413C815.847 684.228 815.32 684.725 814.638 684.906C813.944 685.115 813.262 685.067 812.593 684.76C811.866 684.426 811.339 683.886 811.013 683.138C810.716 682.403 810.762 681.614 811.148 680.771Z" fill="white"/>
<path d="M804.886 693.784C805.304 692.992 805.859 692.525 806.549 692.382C807.267 692.255 807.938 692.356 808.561 692.684C809.296 693.072 809.792 693.642 810.048 694.392C810.303 695.142 810.222 695.913 809.803 696.705C809.385 697.498 808.831 697.965 808.141 698.107C807.436 698.278 806.758 698.191 806.107 697.848C805.399 697.474 804.904 696.905 804.62 696.14C804.364 695.39 804.453 694.605 804.886 693.784Z" fill="white"/>
<path d="M797.913 706.415C798.374 705.647 798.954 705.211 799.651 705.107C800.375 705.02 801.039 705.157 801.642 705.52C802.356 705.948 802.819 706.544 803.033 707.307C803.246 708.07 803.122 708.835 802.661 709.603C802.2 710.371 801.62 710.807 800.923 710.911C800.21 711.042 799.538 710.919 798.907 710.54C798.221 710.128 797.758 709.532 797.517 708.753C797.303 707.99 797.435 707.21 797.913 706.415Z" fill="white"/>
<path d="M790.01 719.001C790.516 718.261 791.12 717.86 791.821 717.797C792.55 717.752 793.205 717.929 793.786 718.326C794.473 718.795 794.9 719.417 795.069 720.191C795.237 720.966 795.069 721.722 794.563 722.462C794.057 723.202 793.454 723.603 792.752 723.666C792.032 723.755 791.368 723.592 790.76 723.177C790.1 722.725 789.672 722.103 789.477 721.311C789.309 720.537 789.486 719.767 790.01 719.001Z" fill="white"/>
<path d="M781.678 730.734C782.223 730.024 782.848 729.656 783.552 729.632C784.282 729.627 784.926 729.839 785.485 730.267C786.145 730.774 786.538 731.418 786.664 732.2C786.79 732.983 786.58 733.729 786.034 734.44C785.489 735.151 784.864 735.518 784.16 735.543C783.436 735.592 782.782 735.393 782.198 734.945C781.564 734.458 781.171 733.814 781.019 733.012C780.893 732.23 781.113 731.471 781.678 730.734Z" fill="white"/>
<path d="M772.7 741.999C773.283 741.319 773.927 740.986 774.632 741C775.361 741.035 775.992 741.282 776.527 741.74C777.158 742.282 777.515 742.947 777.598 743.735C777.681 744.523 777.431 745.257 776.848 745.937C776.264 746.617 775.62 746.95 774.916 746.936C774.19 746.946 773.548 746.711 772.99 746.232C772.382 745.711 772.025 745.046 771.918 744.237C771.835 743.449 772.096 742.703 772.7 741.999Z" fill="white"/>
<path d="M763.101 752.763C763.72 752.115 764.382 751.818 765.084 751.871C765.81 751.945 766.427 752.226 766.936 752.713C767.537 753.288 767.857 753.972 767.897 754.763C767.937 755.554 767.647 756.273 767.028 756.921C766.408 757.568 765.747 757.865 765.044 757.813C764.319 757.783 763.691 757.514 763.159 757.005C762.581 756.452 762.261 755.768 762.198 754.955C762.158 754.164 762.459 753.433 763.101 752.763Z" fill="white"/>
<path d="M752.708 763.188C753.364 762.578 754.041 762.32 754.74 762.413C755.46 762.53 756.06 762.846 756.539 763.362C757.106 763.971 757.386 764.672 757.38 765.464C757.374 766.256 757.042 766.957 756.386 767.567C755.73 768.178 755.053 768.436 754.354 768.343C753.632 768.271 753.021 767.966 752.52 767.427C751.975 766.841 751.695 766.14 751.679 765.325C751.685 764.532 752.028 763.82 752.708 763.188Z" fill="white"/>
<path d="M741.961 772.817C742.649 772.243 743.339 772.022 744.032 772.154C744.745 772.309 745.326 772.658 745.777 773.199C746.309 773.838 746.551 774.553 746.502 775.344C746.452 776.135 746.083 776.817 745.395 777.39C744.707 777.964 744.016 778.185 743.324 778.053C742.607 777.943 742.013 777.604 741.542 777.039C741.03 776.424 740.788 775.709 740.817 774.894C740.866 774.103 741.247 773.411 741.961 772.817Z" fill="white"/>
<path d="M730.678 781.849C731.397 781.314 732.099 781.131 732.783 781.3C733.486 781.494 734.048 781.874 734.468 782.439C734.965 783.106 735.167 783.833 735.075 784.62C734.982 785.407 734.577 786.068 733.858 786.603C733.139 787.138 732.438 787.321 731.753 787.152C731.044 787.002 730.469 786.632 730.03 786.042C729.552 785.4 729.35 784.673 729.423 783.86C729.516 783.073 729.934 782.403 730.678 781.849Z" fill="white"/>
<path d="M718.745 790.361C719.494 789.869 720.205 789.728 720.878 789.936C721.569 790.172 722.107 790.583 722.494 791.172C722.951 791.867 723.11 792.605 722.972 793.385C722.833 794.165 722.39 794.801 721.641 795.293C720.892 795.785 720.181 795.927 719.508 795.718C718.808 795.527 718.256 795.124 717.852 794.509C717.413 793.841 717.253 793.103 717.374 792.296C717.512 791.516 717.969 790.871 718.745 790.361Z" fill="white"/>
<path d="M706.511 798.081C707.286 797.631 708.004 797.528 708.664 797.774C709.341 798.047 709.856 798.488 710.21 799.096C710.628 799.816 710.746 800.561 710.565 801.333C710.384 802.104 709.906 802.715 709.131 803.165C708.356 803.615 707.639 803.717 706.978 803.472C706.29 803.242 705.761 802.809 705.391 802.173C704.989 801.481 704.871 800.736 705.036 799.937C705.217 799.166 705.709 798.547 706.511 798.081Z" fill="white"/>
<path d="M693.849 805.114C694.648 804.707 695.37 804.645 696.016 804.927C696.677 805.237 697.167 805.705 697.486 806.333C697.863 807.074 697.94 807.825 697.717 808.585C697.493 809.345 696.982 809.929 696.184 810.335C695.385 810.741 694.663 810.804 694.017 810.522C693.342 810.255 692.838 809.794 692.504 809.138C692.141 808.425 692.064 807.674 692.274 806.885C692.497 806.125 693.022 805.535 693.849 805.114Z" fill="white"/>
<path d="M680.8 811.433C681.62 811.071 682.344 811.049 682.974 811.366C683.616 811.713 684.079 812.208 684.363 812.852C684.698 813.614 684.733 814.368 684.468 815.114C684.202 815.861 683.66 816.415 682.84 816.776C682.02 817.137 681.295 817.159 680.666 816.842C680.007 816.538 679.529 816.049 679.233 815.375C678.91 814.643 678.875 813.889 679.128 813.114C679.393 812.367 679.951 811.807 680.8 811.433Z" fill="white"/>
<path d="M667.405 817.012C668.244 816.697 668.969 816.715 669.579 817.067C670.201 817.449 670.636 817.97 670.883 818.629C671.175 819.408 671.168 820.162 670.861 820.893C670.554 821.623 669.981 822.146 669.142 822.461C668.303 822.775 667.579 822.757 666.968 822.405C666.328 822.064 665.878 821.549 665.62 820.86C665.338 820.111 665.346 819.357 665.642 818.596C665.949 817.866 666.536 817.338 667.405 817.012Z" fill="white"/>
<path d="M653.711 821.828C654.566 821.561 655.289 821.62 655.879 822.006C656.478 822.423 656.882 822.967 657.092 823.639C657.34 824.433 657.29 825.186 656.942 825.898C656.595 826.61 655.993 827.099 655.138 827.366C654.283 827.633 653.56 827.574 652.97 827.188C652.35 826.812 651.93 826.272 651.711 825.57C651.473 824.806 651.523 824.053 651.861 823.31C652.209 822.599 652.825 822.104 653.711 821.828Z" fill="white"/>
<path d="M639.763 825.866C640.633 825.649 641.351 825.749 641.917 826.168C642.492 826.617 642.865 827.184 643.036 827.867C643.238 828.674 643.146 829.423 642.758 830.114C642.371 830.805 641.742 831.259 640.873 831.477C640.004 831.695 639.286 831.594 638.719 831.176C638.121 830.765 637.733 830.202 637.554 829.489C637.359 828.713 637.452 827.964 637.832 827.241C638.219 826.55 638.863 826.092 639.763 825.866Z" fill="white"/>
<path d="M625.61 829.112C626.49 828.944 627.201 829.085 627.743 829.535C628.291 830.017 628.631 830.604 628.763 831.296C628.919 832.113 628.784 832.855 628.357 833.523C627.931 834.191 627.278 834.609 626.397 834.776C625.517 834.944 624.806 834.803 624.264 834.353C623.691 833.908 623.335 833.324 623.197 832.602C623.047 831.816 623.183 831.073 623.603 830.374C624.03 829.706 624.699 829.286 625.61 829.112Z" fill="white"/>
<path d="M611.299 831.555C612.187 831.438 612.889 831.62 613.404 832.101C613.924 832.614 614.229 833.219 614.321 833.917C614.43 834.742 614.252 835.475 613.788 836.117C613.324 836.76 612.648 837.139 611.76 837.256C610.871 837.373 610.169 837.191 609.654 836.71C609.107 836.234 608.786 835.631 608.69 834.901C608.585 834.108 608.763 833.374 609.223 832.7C609.687 832.058 610.379 831.677 611.299 831.555Z" fill="white"/>
<path d="M596.912 833.18C597.805 833.111 598.496 833.331 598.985 833.838C599.476 834.378 599.749 834.999 599.803 835.701C599.867 836.53 599.65 837.253 599.152 837.87C598.654 838.486 597.958 838.828 597.065 838.897C596.172 838.967 595.481 838.747 594.992 838.239C594.472 837.734 594.183 837.114 594.126 836.38C594.065 835.583 594.282 834.86 594.777 834.212C595.275 833.596 595.987 833.252 596.912 833.18Z" fill="white"/>
<path d="M582.454 834.006C583.35 833.985 584.028 834.242 584.488 834.775C584.949 835.341 585.188 835.975 585.204 836.679C585.224 837.511 584.968 838.221 584.438 838.81C583.907 839.398 583.194 839.703 582.298 839.723C581.402 839.744 580.724 839.488 580.264 838.954C579.771 838.422 579.517 837.787 579.5 837.051C579.481 836.252 579.737 835.542 580.266 834.921C580.797 834.333 581.526 834.028 582.454 834.006Z" fill="white"/>
<path d="M566.919 834.016C567.814 834.051 568.475 834.348 568.902 834.909C569.327 835.502 569.526 836.15 569.499 836.854C569.467 837.685 569.168 838.378 568.602 838.933C568.036 839.487 567.306 839.747 566.411 839.713C565.515 839.678 564.854 839.38 564.428 838.819C563.969 838.257 563.754 837.609 563.782 836.873C563.813 836.074 564.112 835.381 564.679 834.794C565.245 834.24 565.991 833.98 566.919 834.016Z" fill="white"/>
<path d="M552.465 833.188C553.357 833.271 554.001 833.604 554.397 834.187C554.79 834.802 554.953 835.46 554.888 836.161C554.811 836.989 554.476 837.665 553.881 838.188C553.286 838.712 552.542 838.932 551.65 838.849C550.758 838.766 550.114 838.433 549.718 837.85C549.29 837.264 549.111 836.605 549.179 835.872C549.253 835.075 549.588 834.399 550.186 833.844C550.781 833.321 551.541 833.102 552.465 833.188Z" fill="white"/>
<path d="M538.042 831.561C538.928 831.695 539.552 832.065 539.914 832.67C540.27 833.306 540.396 833.973 540.291 834.669C540.166 835.491 539.792 836.147 539.168 836.635C538.544 837.123 537.789 837.3 536.903 837.166C536.017 837.032 535.393 836.662 535.032 836.058C534.639 835.448 534.497 834.779 534.607 834.051C534.727 833.26 535.101 832.605 535.73 832.085C536.354 831.597 537.125 831.423 538.042 831.561Z" fill="white"/>
<path d="M523.787 829.128C524.665 829.31 525.268 829.712 525.597 830.335C525.919 830.99 526.009 831.662 525.866 832.352C525.698 833.166 525.289 833.801 524.64 834.255C523.99 834.709 523.227 834.845 522.35 834.664C521.472 834.483 520.869 834.08 520.54 833.457C520.18 832.827 520.075 832.152 520.224 831.431C520.386 830.647 520.794 830.013 521.45 829.528C522.1 829.074 522.879 828.941 523.787 829.128Z" fill="white"/>
<path d="M509.649 825.897C510.515 826.128 511.094 826.564 511.386 827.205C511.67 827.878 511.722 828.554 511.54 829.234C511.326 830.038 510.881 830.648 510.207 831.064C509.533 831.48 508.763 831.573 507.897 831.342C507.032 831.111 506.453 830.675 506.16 830.033C505.837 829.384 505.77 828.704 505.96 827.993C506.166 827.22 506.61 826.61 507.293 826.163C507.967 825.746 508.752 825.658 509.649 825.897Z" fill="white"/>
<path d="M495.72 821.874C496.571 822.154 497.125 822.622 497.381 823.279C497.626 823.966 497.639 824.644 497.419 825.313C497.16 826.103 496.681 826.687 495.985 827.064C495.288 827.441 494.514 827.49 493.663 827.21C492.812 826.931 492.258 826.462 492.003 825.806C491.716 825.139 491.688 824.456 491.918 823.757C492.168 822.997 492.646 822.413 493.353 822.005C494.05 821.628 494.839 821.584 495.72 821.874Z" fill="white"/>
<path d="M482.049 817.075C482.883 817.402 483.409 817.901 483.627 818.571C483.834 819.271 483.808 819.948 483.551 820.603C483.247 821.378 482.737 821.934 482.02 822.271C481.303 822.609 480.528 822.614 479.694 822.287C478.86 821.959 478.334 821.461 478.115 820.791C477.867 820.109 477.877 819.425 478.146 818.74C478.439 817.996 478.949 817.44 479.677 817.072C480.394 816.735 481.185 816.736 482.049 817.075Z" fill="white"/>
<path d="M468.68 811.517C469.494 811.89 469.992 812.418 470.172 813.099C470.339 813.809 470.276 814.484 469.983 815.124C469.636 815.88 469.095 816.407 468.361 816.704C467.626 817.001 466.852 816.962 466.037 816.589C465.223 816.215 464.725 815.688 464.545 815.007C464.335 814.312 464.384 813.63 464.691 812.961C465.024 812.234 465.565 811.708 466.313 811.382C467.047 811.085 467.836 811.13 468.68 811.517Z" fill="white"/>
<path d="M455.659 805.224C456.451 805.642 456.919 806.196 457.061 806.886C457.188 807.605 457.088 808.275 456.759 808.898C456.371 809.634 455.802 810.129 455.052 810.385C454.302 810.64 453.531 810.559 452.738 810.141C451.946 809.723 451.478 809.168 451.336 808.478C451.166 807.773 451.252 807.095 451.596 806.444C451.969 805.737 452.538 805.241 453.303 804.957C454.053 804.702 454.838 804.791 455.659 805.224Z" fill="white"/>
<path d="M442.882 798.145C443.649 798.609 444.083 799.19 444.184 799.887C444.269 800.612 444.129 801.276 443.764 801.878C443.333 802.589 442.736 803.051 441.972 803.261C441.208 803.472 440.443 803.346 439.677 802.881C438.91 802.417 438.477 801.836 438.375 801.139C438.246 800.425 438.373 799.753 438.754 799.124C439.169 798.439 439.766 797.978 440.546 797.74C441.31 797.529 442.089 797.664 442.882 798.145Z" fill="white"/>
<path d="M430.663 790.437C431.403 790.943 431.804 791.547 431.867 792.249C431.912 792.977 431.736 793.632 431.338 794.213C430.869 794.9 430.247 795.328 429.473 795.496C428.699 795.665 427.942 795.496 427.202 794.99C426.462 794.485 426.061 793.881 425.998 793.179C425.909 792.459 426.072 791.795 426.487 791.188C426.939 790.527 427.561 790.099 428.353 789.905C429.127 789.736 429.897 789.914 430.663 790.437Z" fill="white"/>
<path d="M418.91 782.075C419.621 782.621 419.988 783.245 420.013 783.95C420.018 784.679 419.806 785.324 419.377 785.882C418.871 786.542 418.226 786.935 417.444 787.061C416.662 787.187 415.915 786.977 415.205 786.432C414.494 785.886 414.126 785.261 414.102 784.557C414.052 783.833 414.251 783.179 414.699 782.595C415.186 781.961 415.831 781.568 416.632 781.417C417.415 781.291 418.174 781.51 418.91 782.075Z" fill="white"/>
<path d="M407.658 773.09C408.338 773.673 408.67 774.317 408.656 775.022C408.621 775.75 408.375 776.382 407.916 776.916C407.374 777.548 406.71 777.905 405.922 777.988C405.134 778.071 404.4 777.821 403.72 777.237C403.04 776.654 402.707 776.01 402.721 775.305C402.711 774.58 402.945 773.938 403.425 773.379C403.946 772.772 404.61 772.415 405.419 772.308C406.207 772.225 406.953 772.485 407.658 773.09Z" fill="white"/>
<path d="M396.725 763.323C397.37 763.945 397.665 764.607 397.61 765.309C397.533 766.035 397.25 766.651 396.761 767.158C396.184 767.757 395.499 768.075 394.708 768.112C393.916 768.149 393.198 767.856 392.553 767.234C391.908 766.612 391.613 765.95 391.668 765.248C391.7 764.523 391.972 763.895 392.483 763.366C393.038 762.79 393.723 762.472 394.536 762.412C395.328 762.375 396.057 762.678 396.725 763.323Z" fill="white"/>
<path d="M386.555 753.151C387.165 753.807 387.423 754.484 387.33 755.183C387.213 755.903 386.897 756.503 386.381 756.983C385.772 757.549 385.071 757.829 384.279 757.823C383.487 757.817 382.786 757.486 382.175 756.83C381.565 756.173 381.307 755.496 381.4 754.798C381.472 754.076 381.777 753.464 382.316 752.963C382.902 752.418 383.603 752.138 384.418 752.122C385.211 752.128 385.923 752.471 386.555 753.151Z" fill="white"/>
<path d="M376.975 742.451C377.549 743.139 377.77 743.83 377.638 744.522C377.483 745.235 377.134 745.817 376.593 746.267C375.954 746.8 375.239 747.041 374.448 746.992C373.657 746.943 372.975 746.574 372.402 745.885C371.828 745.197 371.607 744.506 371.739 743.814C371.849 743.097 372.188 742.503 372.753 742.032C373.368 741.52 374.083 741.278 374.898 741.307C375.689 741.357 376.381 741.738 376.975 742.451Z" fill="white"/>
<path d="M367.765 730.937C368.298 731.658 368.478 732.36 368.307 733.044C368.11 733.746 367.728 734.307 367.162 734.725C366.492 735.219 365.764 735.419 364.978 735.323C364.191 735.228 363.532 734.82 363 734.099C362.467 733.379 362.287 732.676 362.458 731.993C362.611 731.284 362.983 730.71 363.575 730.273C364.218 729.798 364.946 729.598 365.758 729.674C366.545 729.77 367.214 730.191 367.765 730.937Z" fill="white"/>
<path d="M359.436 719.228C359.929 719.977 360.07 720.688 359.862 721.361C359.626 722.052 359.214 722.59 358.626 722.977C357.931 723.434 357.193 723.593 356.413 723.455C355.633 723.316 354.997 722.873 354.505 722.124C354.013 721.375 353.871 720.664 354.08 719.991C354.271 719.291 354.674 718.739 355.289 718.335C355.957 717.896 356.695 717.736 357.502 717.857C358.282 717.996 358.927 718.452 359.436 719.228Z" fill="white"/>
<path d="M351.772 707.082C352.222 707.856 352.324 708.574 352.079 709.235C351.806 709.911 351.365 710.427 350.756 710.78C350.037 711.198 349.291 711.316 348.52 711.135C347.749 710.954 347.138 710.476 346.688 709.702C346.238 708.927 346.136 708.209 346.381 707.548C346.61 706.86 347.043 706.331 347.68 705.961C348.371 705.56 349.117 705.441 349.916 705.606C350.687 705.787 351.306 706.279 351.772 707.082Z" fill="white"/>
<path d="M344.791 694.526C345.198 695.325 345.26 696.047 344.978 696.693C344.668 697.353 344.2 697.843 343.572 698.163C342.831 698.54 342.08 698.617 341.32 698.394C340.56 698.17 339.976 697.659 339.57 696.86C339.164 696.062 339.101 695.34 339.383 694.694C339.65 694.019 340.111 693.515 340.767 693.181C341.48 692.818 342.231 692.741 343.02 692.95C343.78 693.174 344.37 693.699 344.791 694.526Z" fill="white"/>
<path d="M338.269 681.057C338.627 681.878 338.647 682.603 338.327 683.231C337.979 683.872 337.481 684.333 336.836 684.615C336.074 684.948 335.32 684.98 334.574 684.711C333.829 684.443 333.277 683.898 332.919 683.077C332.56 682.256 332.541 681.531 332.86 680.903C333.167 680.246 333.658 679.77 334.332 679.475C335.066 679.156 335.82 679.123 336.594 679.379C337.34 679.647 337.898 680.207 338.269 681.057Z" fill="white"/>
<path d="M332.725 667.702C333.037 668.542 333.015 669.267 332.661 669.876C332.277 670.497 331.755 670.929 331.095 671.174C330.314 671.463 329.56 671.453 328.831 671.144C328.101 670.834 327.581 670.259 327.269 669.419C326.958 668.579 326.979 667.854 327.333 667.245C327.676 666.606 328.193 666.158 328.883 665.902C329.633 665.624 330.388 665.634 331.147 665.933C331.876 666.242 332.402 666.832 332.725 667.702Z" fill="white"/>
<path d="M327.924 654.009C328.188 654.865 328.125 655.588 327.737 656.176C327.319 656.774 326.773 657.176 326.1 657.383C325.305 657.628 324.552 657.575 323.842 657.225C323.131 656.874 322.644 656.271 322.38 655.415C322.117 654.558 322.179 653.836 322.567 653.248C322.945 652.629 323.486 652.211 324.19 651.995C324.954 651.759 325.707 651.812 326.448 652.153C327.159 652.503 327.651 653.122 327.924 654.009Z" fill="white"/>
<path d="M324.075 640.719C324.293 641.588 324.193 642.306 323.774 642.873C323.324 643.447 322.758 643.82 322.075 643.991C321.268 644.194 320.519 644.101 319.828 643.714C319.137 643.326 318.683 642.698 318.465 641.829C318.247 640.959 318.347 640.241 318.766 639.675C319.177 639.077 319.739 638.688 320.453 638.509C321.229 638.315 321.978 638.407 322.7 638.787C323.391 639.175 323.85 639.819 324.075 640.719Z" fill="white"/>
<path d="M320.787 626.464C320.955 627.344 320.813 628.055 320.363 628.597C319.881 629.145 319.294 629.485 318.603 629.617C317.786 629.773 317.043 629.638 316.375 629.211C315.708 628.785 315.29 628.131 315.122 627.251C314.954 626.371 315.095 625.66 315.546 625.118C315.99 624.545 316.574 624.189 317.297 624.051C318.083 623.901 318.825 624.036 319.524 624.457C320.192 624.883 320.613 625.552 320.787 626.464Z" fill="white"/>
<path d="M318.294 611.913C318.411 612.802 318.229 613.504 317.748 614.019C317.235 614.538 316.63 614.844 315.932 614.936C315.107 615.044 314.374 614.867 313.732 614.403C313.09 613.939 312.71 613.262 312.593 612.374C312.476 611.486 312.658 610.784 313.139 610.269C313.615 609.722 314.218 609.4 314.948 609.304C315.741 609.2 316.475 609.377 317.149 609.837C317.791 610.301 318.172 610.993 318.294 611.913Z" fill="white"/>
<path d="M316.7 597.996C316.769 598.89 316.55 599.581 316.042 600.069C315.502 600.56 314.881 600.833 314.179 600.887C313.35 600.951 312.627 600.734 312.011 600.236C311.395 599.738 311.052 599.043 310.983 598.149C310.914 597.256 311.133 596.565 311.641 596.076C312.146 595.556 312.766 595.267 313.5 595.211C314.298 595.149 315.02 595.366 315.668 595.861C316.285 596.359 316.629 597.071 316.7 597.996Z" fill="white"/>
<path d="M315.822 582.93C315.84 583.826 315.581 584.503 315.045 584.962C314.478 585.421 313.843 585.657 313.139 585.67C312.307 585.687 311.598 585.428 311.011 584.895C310.425 584.363 310.123 583.648 310.106 582.752C310.089 581.857 310.347 581.18 310.883 580.721C311.417 580.231 312.053 579.978 312.788 579.964C313.588 579.949 314.297 580.207 314.916 580.739C315.502 581.272 315.804 582.002 315.822 582.93Z" fill="white"/>
<path d="M315.815 567.697C315.78 568.593 315.483 569.254 314.922 569.68C314.329 570.106 313.681 570.305 312.977 570.278C312.146 570.246 311.453 569.947 310.898 569.381C310.344 568.815 310.084 568.084 310.118 567.189C310.153 566.294 310.451 565.633 311.012 565.206C311.574 564.747 312.222 564.532 312.958 564.561C313.757 564.592 314.45 564.891 315.037 565.458C315.591 566.023 315.851 566.77 315.815 567.697Z" fill="white"/>
<path d="M316.589 553.686C316.506 554.579 316.173 555.223 315.59 555.618C314.975 556.011 314.317 556.175 313.616 556.11C312.788 556.033 312.112 555.697 311.589 555.102C311.065 554.507 310.845 553.764 310.928 552.872C311.011 551.98 311.344 551.336 311.927 550.94C312.513 550.512 313.172 550.332 313.905 550.4C314.702 550.474 315.377 550.81 315.933 551.408C316.456 552.003 316.675 552.762 316.589 553.686Z" fill="white"/>
<path d="M318.244 538.82C318.11 539.706 317.74 540.33 317.135 540.692C316.499 541.048 315.832 541.174 315.136 541.069C314.314 540.944 313.658 540.57 313.17 539.946C312.682 539.322 312.505 538.567 312.639 537.681C312.773 536.795 313.143 536.171 313.748 535.81C314.357 535.416 315.026 535.275 315.754 535.385C316.545 535.505 317.2 535.879 317.72 536.508C318.208 537.132 318.383 537.903 318.244 538.82Z" fill="white"/>
<path d="M320.731 524.193C320.547 525.07 320.142 525.672 319.517 525.998C318.861 526.318 318.189 526.405 317.5 526.26C316.686 526.088 316.053 525.677 315.602 525.026C315.15 524.375 315.017 523.611 315.201 522.734C315.386 521.858 315.791 521.256 316.415 520.93C317.046 520.572 317.722 520.469 318.442 520.621C319.225 520.786 319.858 521.197 320.341 521.855C320.792 522.506 320.923 523.285 320.731 524.193Z" fill="white"/>
<path d="M323.72 511.029C323.488 511.895 323.052 512.474 322.411 512.767C321.739 513.051 321.063 513.102 320.383 512.921C319.579 512.706 318.969 512.262 318.553 511.588C318.137 510.913 318.044 510.144 318.275 509.278C318.506 508.412 318.942 507.833 319.583 507.54C320.233 507.217 320.913 507.15 321.624 507.34C322.397 507.546 323.007 507.991 323.454 508.673C323.87 509.347 323.959 510.133 323.72 511.029Z" fill="white"/>
<path d="M327.713 497.033C327.433 497.884 326.965 498.438 326.308 498.694C325.621 498.939 324.943 498.952 324.275 498.732C323.484 498.473 322.9 497.994 322.523 497.298C322.146 496.601 322.097 495.827 322.377 494.976C322.657 494.125 323.125 493.571 323.782 493.316C324.448 493.029 325.131 493.001 325.83 493.231C326.59 493.481 327.174 493.959 327.582 494.666C327.959 495.363 328.003 496.152 327.713 497.033Z" fill="white"/>
<path d="M332.453 483.39C332.126 484.224 331.627 484.75 330.957 484.968C330.257 485.175 329.579 485.15 328.924 484.893C328.15 484.589 327.594 484.078 327.256 483.361C326.919 482.645 326.914 481.869 327.241 481.035C327.568 480.201 328.067 479.675 328.737 479.457C329.419 479.208 330.102 479.219 330.787 479.488C331.532 479.78 332.088 480.29 332.455 481.019C332.793 481.736 332.792 482.526 332.453 483.39Z" fill="white"/>
<path d="M337.908 470.13C337.535 470.944 337.007 471.442 336.326 471.622C335.616 471.789 334.941 471.726 334.301 471.433C333.544 471.086 333.018 470.545 332.721 469.81C332.424 469.076 332.463 468.301 332.836 467.487C333.21 466.672 333.737 466.175 334.418 465.995C335.113 465.785 335.794 465.834 336.463 466.14C337.191 466.474 337.717 467.015 338.043 467.763C338.34 468.497 338.295 469.286 337.908 470.13Z" fill="white"/>
<path d="M344.687 456.052C344.266 456.843 343.71 457.308 343.02 457.448C342.301 457.573 341.63 457.47 341.009 457.139C340.275 456.748 339.781 456.177 339.528 455.426C339.276 454.675 339.36 453.904 339.781 453.113C340.202 452.322 340.758 451.857 341.449 451.717C342.155 451.549 342.832 451.638 343.482 451.984C344.188 452.36 344.682 452.931 344.963 453.697C345.215 454.448 345.124 455.233 344.687 456.052Z" fill="white"/>
<path d="M351.569 443.64C351.105 444.406 350.524 444.84 349.827 444.941C349.102 445.026 348.438 444.886 347.836 444.521C347.125 444.09 346.663 443.493 346.453 442.729C346.242 441.965 346.369 441.2 346.833 440.434C347.297 439.667 347.878 439.234 348.575 439.132C349.289 439.004 349.961 439.13 350.59 439.511C351.275 439.926 351.736 440.523 351.974 441.303C352.185 442.067 352.05 442.846 351.569 443.64Z" fill="white"/>
<path d="M359.078 431.686C358.572 432.425 357.968 432.827 357.266 432.889C356.538 432.934 355.883 432.758 355.302 432.361C354.615 431.891 354.188 431.269 354.019 430.495C353.851 429.721 354.019 428.964 354.525 428.224C355.03 427.485 355.634 427.083 356.336 427.021C357.056 426.931 357.72 427.094 358.328 427.51C358.988 427.961 359.416 428.583 359.611 429.375C359.779 430.149 359.601 430.92 359.078 431.686Z" fill="white"/>
<path d="M367.186 420.211C366.64 420.922 366.015 421.289 365.311 421.314C364.581 421.318 363.937 421.107 363.379 420.678C362.719 420.172 362.326 419.527 362.2 418.745C362.074 417.963 362.284 417.216 362.829 416.505C363.375 415.794 363.999 415.427 364.704 415.403C365.427 415.353 366.081 415.552 366.665 416C367.3 416.487 367.693 417.131 367.844 417.933C367.97 418.715 367.751 419.475 367.186 420.211Z" fill="white"/>
<path d="M376.866 408.057C376.28 408.735 375.635 409.066 374.931 409.049C374.202 409.011 373.571 408.762 373.039 408.302C372.409 407.758 372.054 407.092 371.974 406.303C371.894 405.515 372.147 404.782 372.733 404.104C373.319 403.426 373.964 403.096 374.668 403.112C375.394 403.105 376.035 403.342 376.592 403.823C377.197 404.346 377.552 405.012 377.656 405.821C377.736 406.61 377.473 407.355 376.866 408.057Z" fill="white"/>
<path d="M386.185 397.619C385.563 398.264 384.901 398.559 384.198 398.503C383.473 398.426 382.856 398.143 382.35 397.654C381.751 397.077 381.433 396.392 381.396 395.601C381.359 394.81 381.651 394.091 382.273 393.446C382.895 392.801 383.557 392.507 384.26 392.562C384.985 392.594 385.612 392.865 386.142 393.376C386.718 393.931 387.036 394.616 387.096 395.43C387.133 396.221 386.829 396.951 386.185 397.619Z" fill="white"/>
<path d="M396.032 387.713C395.375 388.323 394.698 388.581 394 388.488C393.279 388.371 392.679 388.055 392.2 387.539C391.634 386.93 391.353 386.229 391.359 385.437C391.366 384.645 391.697 383.944 392.353 383.333C393.009 382.723 393.686 382.465 394.385 382.558C395.107 382.63 395.719 382.935 396.22 383.474C396.764 384.06 397.045 384.761 397.06 385.576C397.054 386.369 396.711 387.081 396.032 387.713Z" fill="white"/>
<path d="M407.65 377.294C406.96 377.865 406.269 378.084 405.577 377.95C404.864 377.792 404.284 377.441 403.835 376.899C403.305 376.257 403.066 375.542 403.118 374.751C403.171 373.96 403.542 373.28 404.233 372.709C404.923 372.138 405.614 371.919 406.306 372.053C407.023 372.166 407.616 372.507 408.085 373.074C408.594 373.691 408.833 374.406 408.802 375.222C408.749 376.012 408.366 376.703 407.65 377.294Z" fill="white"/>
<path d="M418.579 368.552C417.858 369.084 417.156 369.265 416.473 369.094C415.77 368.896 415.21 368.515 414.792 367.948C414.297 367.279 414.098 366.551 414.193 365.765C414.288 364.978 414.696 364.319 415.417 363.786C416.138 363.254 416.84 363.074 417.524 363.245C418.233 363.397 418.806 363.77 419.243 364.362C419.719 365.005 419.918 365.733 419.842 366.545C419.747 367.332 419.326 368.001 418.579 368.552Z" fill="white"/>
<path d="M429.983 360.397C429.234 360.889 428.523 361.031 427.85 360.822C427.159 360.587 426.621 360.175 426.234 359.586C425.777 358.891 425.618 358.153 425.756 357.373C425.895 356.593 426.338 355.957 427.087 355.465C427.836 354.973 428.547 354.831 429.22 355.04C429.92 355.231 430.472 355.634 430.876 356.249C431.315 356.918 431.475 357.656 431.354 358.462C431.215 359.242 430.758 359.887 429.983 360.397Z" fill="white"/>
<path d="M441.85 352.847C441.075 353.297 440.357 353.399 439.696 353.154C439.02 352.88 438.505 352.44 438.151 351.831C437.733 351.111 437.615 350.366 437.796 349.595C437.977 348.823 438.455 348.213 439.23 347.763C440.004 347.313 440.722 347.21 441.383 347.456C442.071 347.685 442.6 348.118 442.97 348.754C443.371 349.446 443.49 350.191 443.325 350.99C443.144 351.762 442.652 352.38 441.85 352.847Z" fill="white"/>
<path d="M455.751 345.107C454.951 345.51 454.229 345.57 453.584 345.286C452.924 344.973 452.436 344.503 452.119 343.874C451.744 343.131 451.67 342.38 451.897 341.621C452.123 340.862 452.636 340.28 453.436 339.877C454.236 339.473 454.959 339.414 455.604 339.698C456.277 339.967 456.78 340.431 457.111 341.088C457.471 341.802 457.546 342.553 457.334 343.341C457.107 344.1 456.58 344.689 455.751 345.107Z" fill="white"/>
<path d="M468.586 338.903C467.765 339.262 467.04 339.281 466.412 338.961C465.771 338.613 465.31 338.116 465.028 337.47C464.696 336.708 464.664 335.954 464.932 335.208C465.2 334.463 465.745 333.911 466.566 333.553C467.387 333.194 468.112 333.175 468.74 333.494C469.398 333.801 469.874 334.292 470.168 334.966C470.488 335.7 470.52 336.454 470.264 337.228C469.996 337.974 469.437 338.532 468.586 338.903Z" fill="white"/>
<path d="M481.858 333.377C481.018 333.689 480.293 333.667 479.684 333.313C479.063 332.929 478.631 332.407 478.386 331.747C478.097 330.967 478.107 330.212 478.416 329.483C478.726 328.753 479.301 328.233 480.141 327.921C480.981 327.61 481.706 327.631 482.315 327.985C482.954 328.328 483.402 328.845 483.658 329.535C483.936 330.285 483.926 331.04 483.627 331.799C483.318 332.528 482.728 333.054 481.858 333.377Z" fill="white"/>
<path d="M495.562 328.556C494.706 328.819 493.983 328.757 493.395 328.369C492.797 327.95 492.395 327.405 492.188 326.732C491.943 325.937 491.996 325.184 492.346 324.473C492.697 323.763 493.3 323.275 494.156 323.012C495.013 322.748 495.735 322.81 496.323 323.198C496.942 323.577 497.36 324.118 497.576 324.821C497.812 325.586 497.759 326.339 497.418 327.08C497.068 327.791 496.449 328.282 495.562 328.556Z" fill="white"/>
<path d="M509.696 324.47C508.827 324.685 508.109 324.582 507.544 324.161C506.971 323.709 506.6 323.141 506.431 322.457C506.232 321.65 506.328 320.901 506.718 320.212C507.108 319.522 507.738 319.07 508.608 318.855C509.478 318.641 510.196 318.744 510.761 319.165C511.357 319.578 511.743 320.142 511.92 320.856C512.111 321.633 512.016 322.382 511.633 323.102C511.243 323.792 510.597 324.248 509.696 324.47Z" fill="white"/>
<path d="M522.374 321.525C521.494 321.692 520.783 321.551 520.241 321.101C519.693 320.619 519.353 320.032 519.221 319.341C519.065 318.523 519.2 317.781 519.627 317.113C520.053 316.445 520.706 316.028 521.587 315.86C522.467 315.692 523.178 315.833 523.72 316.284C524.293 316.728 524.649 317.312 524.787 318.035C524.937 318.821 524.801 319.563 524.381 320.262C523.955 320.93 523.285 321.351 522.374 321.525Z" fill="white"/>
<path d="M537.317 318.922C536.428 319.039 535.727 318.857 535.211 318.376C534.692 317.863 534.386 317.258 534.294 316.56C534.186 315.735 534.363 315.002 534.828 314.36C535.292 313.718 535.968 313.338 536.856 313.221C537.745 313.104 538.446 313.286 538.962 313.767C539.508 314.243 539.83 314.846 539.926 315.576C540.031 316.369 539.853 317.103 539.393 317.777C538.929 318.419 538.237 318.8 537.317 318.922Z" fill="white"/>
<path d="M552.686 317.174C551.793 317.24 551.103 317.018 550.616 316.508C550.127 315.966 549.857 315.344 549.805 314.642C549.744 313.812 549.964 313.09 550.464 312.476C550.965 311.862 551.662 311.522 552.555 311.456C553.449 311.391 554.139 311.613 554.626 312.122C555.144 312.63 555.43 313.251 555.484 313.985C555.543 314.782 555.323 315.504 554.825 316.151C554.325 316.765 553.612 317.106 552.686 317.174Z" fill="white"/>
<path d="M566.477 316.378C565.581 316.396 564.904 316.137 564.445 315.602C563.986 315.034 563.75 314.399 563.736 313.695C563.72 312.863 563.979 312.154 564.512 311.567C565.044 310.981 565.759 310.679 566.655 310.662C567.55 310.645 568.227 310.904 568.686 311.439C569.176 311.974 569.429 312.609 569.443 313.345C569.458 314.144 569.2 314.854 568.668 315.472C568.135 316.058 567.405 316.361 566.477 316.378Z" fill="white"/>
<path d="M581.486 316.337C580.59 316.302 579.929 316.004 579.503 315.443C579.077 314.85 578.878 314.202 578.905 313.499C578.937 312.667 579.236 311.974 579.802 311.42C580.368 310.865 581.098 310.605 581.994 310.64C582.889 310.674 583.55 310.972 583.977 311.533C584.435 312.095 584.651 312.744 584.622 313.479C584.591 314.279 584.292 314.972 583.725 315.558C583.159 316.113 582.413 316.372 581.486 316.337Z" fill="white"/>
<path d="M597.132 317.219C596.24 317.133 595.597 316.797 595.203 316.213C594.813 315.596 594.652 314.937 594.719 314.237C594.799 313.409 595.138 312.734 595.735 312.213C596.332 311.692 597.076 311.475 597.968 311.561C598.86 311.647 599.503 311.983 599.896 312.567C600.322 313.155 600.499 313.815 600.428 314.548C600.351 315.344 600.012 316.018 599.412 316.571C598.816 317.092 598.055 317.308 597.132 317.219Z" fill="white"/>
<path d="M610.459 318.706C609.573 318.572 608.949 318.203 608.588 317.598C608.231 316.961 608.105 316.295 608.211 315.599C608.335 314.776 608.709 314.121 609.333 313.633C609.957 313.145 610.712 312.968 611.598 313.102C612.484 313.236 613.108 313.605 613.47 314.21C613.863 314.82 614.004 315.488 613.894 316.216C613.775 317.007 613.4 317.663 612.771 318.182C612.147 318.67 611.377 318.845 610.459 318.706Z" fill="white"/>
<path d="M625.339 321.214C624.462 321.03 623.861 320.625 623.534 320C623.215 319.344 623.127 318.672 623.272 317.983C623.444 317.169 623.855 316.536 624.506 316.085C625.157 315.633 625.921 315.5 626.798 315.684C627.675 315.869 628.276 316.274 628.602 316.898C628.96 317.529 629.063 318.205 628.911 318.925C628.746 319.708 628.335 320.341 627.678 320.824C627.027 321.275 626.247 321.405 625.339 321.214Z" fill="white"/>
<path d="M639.812 324.526C638.947 324.292 638.37 323.854 638.08 323.212C637.798 322.538 637.749 321.862 637.933 321.183C638.151 320.38 638.597 319.771 639.273 319.358C639.949 318.944 640.719 318.854 641.584 319.089C642.449 319.323 643.026 319.761 643.316 320.404C643.637 321.054 643.702 321.735 643.509 322.445C643.3 323.217 642.853 323.826 642.169 324.27C641.493 324.684 640.708 324.769 639.812 324.526Z" fill="white"/>
<path d="M653.874 328.604C653.024 328.321 652.472 327.85 652.219 327.193C651.976 326.505 651.965 325.827 652.188 325.159C652.45 324.369 652.931 323.787 653.629 323.413C654.327 323.038 655.101 322.992 655.951 323.275C656.801 323.558 657.353 324.028 657.606 324.686C657.89 325.354 657.916 326.037 657.683 326.735C657.43 327.494 656.95 328.076 656.242 328.481C655.544 328.856 654.754 328.897 653.874 328.604Z" fill="white"/>
<path d="M667.522 333.413C666.69 333.083 666.165 332.582 665.949 331.911C665.745 331.211 665.773 330.533 666.033 329.879C666.34 329.106 666.852 328.552 667.57 328.217C668.288 327.882 669.064 327.88 669.897 328.21C670.729 328.541 671.254 329.041 671.47 329.712C671.715 330.395 671.702 331.078 671.431 331.762C671.136 332.506 670.623 333.06 669.893 333.425C669.175 333.759 668.385 333.756 667.522 333.413Z" fill="white"/>
<path d="M680.753 338.925C679.94 338.549 679.445 338.02 679.267 337.338C679.102 336.627 679.168 335.952 679.464 335.313C679.813 334.558 680.356 334.034 681.092 333.74C681.827 333.445 682.602 333.487 683.415 333.863C684.228 334.24 684.723 334.769 684.901 335.451C685.108 336.146 685.057 336.828 684.748 337.496C684.412 338.222 683.869 338.746 683.12 339.069C682.384 339.363 681.595 339.315 680.753 338.925Z" fill="white"/>
<path d="M693.561 345.114C692.771 344.693 692.305 344.137 692.166 343.446C692.041 342.727 692.144 342.057 692.475 341.436C692.866 340.701 693.437 340.208 694.188 339.955C694.939 339.702 695.71 339.787 696.5 340.208C697.291 340.629 697.757 341.185 697.896 341.876C698.064 342.581 697.975 343.259 697.629 343.909C697.253 344.615 696.682 345.108 695.916 345.389C695.165 345.642 694.38 345.55 693.561 345.114Z" fill="white"/>
<path d="M705.94 351.959C705.173 351.494 704.739 350.914 704.638 350.216C704.553 349.491 704.693 348.828 705.058 348.226C705.489 347.514 706.086 347.053 706.85 346.842C707.614 346.631 708.379 346.758 709.145 347.222C709.912 347.686 710.345 348.267 710.447 348.965C710.576 349.679 710.449 350.35 710.068 350.98C709.653 351.664 709.056 352.125 708.276 352.363C707.512 352.574 706.733 352.439 705.94 351.959Z" fill="white"/>
<path d="M717.878 359.437C717.139 358.931 716.737 358.327 716.674 357.625C716.63 356.897 716.806 356.242 717.203 355.661C717.673 354.974 718.295 354.547 719.069 354.378C719.843 354.209 720.6 354.378 721.34 354.884C722.079 355.389 722.481 355.993 722.543 356.695C722.633 357.415 722.47 358.079 722.054 358.686C721.603 359.347 720.981 359.775 720.189 359.969C719.414 360.138 718.644 359.96 717.878 359.437Z" fill="white"/>
<path d="M730.698 368.545C729.99 367.997 729.624 367.371 729.602 366.667C729.6 365.937 729.815 365.294 730.245 364.737C730.754 364.078 731.4 363.688 732.182 363.565C732.965 363.442 733.711 363.654 734.42 364.202C735.129 364.75 735.494 365.376 735.516 366.081C735.563 366.805 735.361 367.458 734.911 368.04C734.422 368.673 733.776 369.064 732.974 369.212C732.191 369.335 731.433 369.113 730.698 368.545Z" fill="white"/>
<path d="M741.639 377.288C740.961 376.702 740.63 376.057 740.647 375.352C740.684 374.624 740.934 373.993 741.394 373.46C741.938 372.831 742.604 372.476 743.392 372.396C744.18 372.316 744.914 372.569 745.591 373.155C746.269 373.741 746.6 374.386 746.583 375.09C746.591 375.816 746.354 376.457 745.872 377.014C745.349 377.619 744.683 377.974 743.874 378.078C743.086 378.158 742.341 377.895 741.639 377.288Z" fill="white"/>
<path d="M752.094 386.609C751.449 385.987 751.154 385.325 751.209 384.622C751.287 383.897 751.57 383.281 752.058 382.774C752.636 382.175 753.32 381.857 754.112 381.82C754.903 381.783 755.622 382.075 756.266 382.697C756.911 383.319 757.206 383.982 757.151 384.684C757.119 385.409 756.848 386.036 756.337 386.566C755.781 387.142 755.097 387.46 754.283 387.52C753.492 387.557 752.762 387.253 752.094 386.609Z" fill="white"/>
<path d="M763.12 397.637C762.513 396.979 762.257 396.3 762.352 395.602C762.472 394.882 762.79 394.283 763.307 393.806C763.919 393.242 764.621 392.964 765.413 392.973C766.205 392.982 766.905 393.316 767.513 393.974C768.121 394.633 768.376 395.311 768.281 396.009C768.206 396.731 767.899 397.341 767.358 397.84C766.77 398.383 766.069 398.661 765.253 398.673C764.461 398.664 763.75 398.319 763.12 397.637Z" fill="white"/>
<path d="M772.462 408.096C771.891 407.406 771.672 406.715 771.806 406.023C771.965 405.31 772.315 404.73 772.858 404.281C773.499 403.751 774.215 403.512 775.005 403.565C775.796 403.617 776.477 403.988 777.048 404.679C777.619 405.369 777.837 406.06 777.703 406.752C777.59 407.469 777.25 408.062 776.682 408.531C776.066 409.04 775.35 409.279 774.535 409.248C773.744 409.195 773.053 408.812 772.462 408.096Z" fill="white"/>
<path d="M781.255 419.082C780.722 418.361 780.542 417.659 780.713 416.975C780.911 416.273 781.292 415.712 781.858 415.294C782.528 414.8 783.256 414.6 784.042 414.696C784.829 414.791 785.488 415.199 786.02 415.92C786.553 416.641 786.733 417.343 786.562 418.026C786.409 418.736 786.037 419.309 785.445 419.746C784.802 420.221 784.074 420.421 783.262 420.345C782.475 420.249 781.806 419.828 781.255 419.082Z" fill="white"/>
<path d="M789.474 430.577C788.982 429.828 788.84 429.117 789.049 428.444C789.284 427.753 789.696 427.215 790.284 426.828C790.979 426.371 791.717 426.212 792.497 426.35C793.277 426.489 793.913 426.932 794.406 427.681C794.898 428.43 795.039 429.141 794.831 429.814C794.64 430.514 794.236 431.066 793.621 431.47C792.953 431.909 792.215 432.069 791.408 431.948C790.628 431.81 789.983 431.353 789.474 430.577Z" fill="white"/>
<path d="M797.808 443.786C797.361 443.009 797.261 442.291 797.509 441.631C797.785 440.956 798.228 440.442 798.838 440.091C799.559 439.676 800.304 439.56 801.075 439.744C801.846 439.928 802.455 440.408 802.902 441.184C803.349 441.961 803.449 442.679 803.201 443.339C802.969 444.026 802.534 444.554 801.896 444.921C801.203 445.32 800.457 445.436 799.659 445.268C798.888 445.084 798.271 444.59 797.808 443.786Z" fill="white"/>
<path d="M804.708 456.25C804.305 455.45 804.245 454.728 804.529 454.083C804.842 453.423 805.312 452.935 805.941 452.618C806.684 452.243 807.435 452.169 808.194 452.396C808.953 452.622 809.535 453.135 809.938 453.935C810.342 454.735 810.401 455.458 810.117 456.103C809.848 456.776 809.384 457.279 808.727 457.61C808.013 457.97 807.262 458.045 806.474 457.833C805.715 457.606 805.126 457.079 804.708 456.25Z" fill="white"/>
<path d="M810.948 469.161C810.59 468.34 810.571 467.615 810.89 466.987C811.239 466.346 811.736 465.885 812.381 465.603C813.144 465.271 813.898 465.238 814.643 465.507C815.389 465.775 815.941 466.32 816.299 467.141C816.657 467.962 816.677 468.687 816.357 469.315C816.05 469.973 815.56 470.449 814.885 470.743C814.152 471.063 813.398 471.095 812.623 470.839C811.878 470.571 811.319 470.012 810.948 469.161Z" fill="white"/>
<path d="M816.496 482.494C816.184 481.654 816.206 480.93 816.56 480.32C816.944 479.7 817.466 479.268 818.126 479.023C818.906 478.733 819.661 478.744 820.39 479.053C821.12 479.363 821.64 479.938 821.952 480.778C822.263 481.618 822.242 482.343 821.888 482.952C821.545 483.591 821.028 484.039 820.338 484.295C819.588 484.573 818.833 484.563 818.074 484.264C817.345 483.954 816.819 483.365 816.496 482.494Z" fill="white"/>
<path d="M821.32 496.223C821.056 495.367 821.118 494.644 821.506 494.056C821.925 493.458 822.471 493.056 823.144 492.849C823.939 492.604 824.692 492.657 825.402 493.007C826.113 493.357 826.6 493.961 826.864 494.817C827.127 495.673 827.065 496.396 826.677 496.984C826.298 497.603 825.757 498.021 825.054 498.237C824.289 498.473 823.537 498.42 822.795 498.079C822.085 497.728 821.593 497.11 821.32 496.223Z" fill="white"/>
<path d="M825.387 510.314C825.173 509.444 825.276 508.727 825.697 508.162C826.149 507.589 826.716 507.218 827.4 507.049C828.208 506.85 828.956 506.946 829.646 507.336C830.335 507.726 830.787 508.356 831.002 509.226C831.217 510.096 831.114 510.813 830.693 511.379C830.279 511.975 829.716 512.361 829.001 512.538C828.224 512.729 827.476 512.634 826.755 512.251C826.065 511.861 825.61 511.215 825.387 510.314Z" fill="white"/>
<path d="M828.668 524.732C828.504 523.852 828.648 523.141 829.1 522.601C829.584 522.055 830.172 521.717 830.864 521.588C831.682 521.435 832.424 521.573 833.09 522.002C833.756 522.431 834.172 523.086 834.336 523.967C834.501 524.847 834.357 525.558 833.904 526.098C833.457 526.67 832.872 527.023 832.149 527.158C831.362 527.305 830.621 527.167 829.923 526.744C829.257 526.315 828.839 525.645 828.668 524.732Z" fill="white"/>
<path d="M830.979 538.327C830.862 537.439 831.044 536.737 831.525 536.222C832.038 535.703 832.643 535.397 833.341 535.305C834.166 535.196 834.899 535.374 835.541 535.838C836.183 536.302 836.563 536.978 836.68 537.867C836.797 538.755 836.615 539.457 836.134 539.972C835.658 540.519 835.054 540.841 834.325 540.937C833.532 541.041 832.798 540.863 832.124 540.404C831.482 539.939 831.101 539.247 830.979 538.327Z" fill="white"/>
<path d="M832.671 553.306C832.606 552.413 832.828 551.722 833.337 551.236C833.879 550.747 834.501 550.477 835.203 550.425C836.033 550.364 836.755 550.584 837.369 551.084C837.983 551.584 838.323 552.281 838.389 553.175C838.455 554.069 838.232 554.759 837.723 555.245C837.215 555.764 836.595 556.05 835.861 556.104C835.063 556.163 834.341 555.943 833.695 555.445C833.08 554.945 832.739 554.232 832.671 553.306Z" fill="white"/>
<path d="M833.47 567.442C833.452 566.547 833.711 565.869 834.247 565.411C834.814 564.952 835.449 564.716 836.153 564.702C836.985 564.686 837.694 564.944 838.281 565.477C838.867 566.01 839.169 566.724 839.186 567.62C839.203 568.516 838.944 569.193 838.409 569.651C837.875 570.142 837.239 570.394 836.503 570.408C835.704 570.424 834.995 570.165 834.376 569.633C833.79 569.101 833.488 568.37 833.47 567.442Z" fill="white"/>
<circle cx="575" cy="575" r="248" fill="#061E37" stroke="#F4F1E1" stroke-width="4"/>
<circle cx="575" cy="575" r="123" fill="#061E37" stroke="#F4F1E1" stroke-width="4"/>
<circle cx="575.5" cy="574.5" r="110.5" fill="#061E37" stroke="#F4F1E1" stroke-width="4"/>
<line x1="173.59" y1="982.581" x2="492.8" y2="665.398" stroke="#F4F1E1" stroke-width="4"/>
<line x1="22.4746" y1="732.296" x2="456.667" y2="614.07" stroke="#F4F1E1" stroke-width="4"/>
<line x1="18.5187" y1="434.068" x2="453.123" y2="550.768" stroke="#F4F1E1" stroke-width="4"/>
<line x1="167.439" y1="168.611" x2="480.042" y2="492.307" stroke="#F4F1E1" stroke-width="4"/>
<line x1="427.934" y1="22.4917" x2="542.307" y2="457.715" stroke="#F4F1E1" stroke-width="4"/>
<line x1="727.963" y1="23.5424" x2="605.925" y2="456.678" stroke="#F4F1E1" stroke-width="4"/>
<line x1="979.755" y1="172.401" x2="664.427" y2="493.443" stroke="#F4F1E1" stroke-width="4"/>
<line x1="1133.45" y1="439.933" x2="698.513" y2="555.386" stroke="#F4F1E1" stroke-width="4"/>
<line x1="1126.17" y1="728.314" x2="691.483" y2="611.932" stroke="#F4F1E1" stroke-width="4"/>
<line x1="970.651" y1="990.528" x2="659.555" y2="665.383" stroke="#F4F1E1" stroke-width="4"/>
<line x1="721.062" y1="1131.49" x2="610.073" y2="695.395" stroke="#F4F1E1" stroke-width="4"/>
<line x1="430.066" y1="1127.71" x2="544.438" y2="692.491" stroke="#F4F1E1" stroke-opacity="0.882353" stroke-width="4"/>
</svg>
