<svg width="604" height="612" viewBox="0 0 604 612" fill="none" xmlns="http://www.w3.org/2000/svg">
<path d="M322.466 392.941L297.825 534.671L255.402 383.3L125.068 494.61L235.495 324.055L63.2004 279.091L223.233 287.56L135.067 116.218L255.992 234.355L270.964 82.6869L302.376 257.802L424.714 108.564L362.99 281.215L532.005 277.172L356.166 336.255L479.238 492.176L322.466 392.941Z" fill="#F4F1E1"/>
<path d="M299.862 395.369L240.255 526.294L237.402 369.116L83.1975 443.936L233.089 306.765L77.7156 219.78L230.432 268.357L188.355 80.3125L275.557 225.14L328.316 82.1584L314.523 259.533L470.56 145.994L367.268 297.484L531.834 336.22L346.776 349.021L426.521 530.951L299.862 395.369Z" fill="#DFBB7D"/>
</svg>
