<svg width="601" height="244" viewBox="0 0 601 244" fill="none" xmlns="http://www.w3.org/2000/svg">
<path d="M56.8686 30.4049L73.4857 2.8015L73.4506 35.7753L109.686 26.3498L81.6655 49.1696L115.138 67.2681L74.7587 66.1854L85.5905 100.293L61.5545 71.382L43.6208 105.238L44.65 68.497L7.1384 78.0203L36.6527 54.5938L2.1597 36.5736L40.8654 39.2612L32.9155 5.91628L56.8686 30.4049Z" fill="#E9B418"/>
<path d="M528.332 124.59L552.891 82L549.527 135.337L597.972 124.59L558.947 158.025L601 191.459L548.181 184.693L558.947 241.214L530.35 191.459L503.436 244L508.483 184.693L458.355 195.44L499.399 161.209L456 127.774L506.464 136.929L499.399 82L528.332 124.59Z" fill="#E9B418"/>
</svg>
