<svg width="1027" height="945" viewBox="0 0 1027 945" fill="none" xmlns="http://www.w3.org/2000/svg">
<path d="M690.781 355.762C704.664 349.887 733.453 326.531 737.549 280.102" stroke="#F4F1E1" stroke-width="7" stroke-linecap="round"/>
<path d="M413.929 343.911C387.415 332.972 336.778 301.311 346.337 262.174" stroke="#F4F1E1" stroke-width="7" stroke-linecap="round"/>
<path d="M455.234 625.282C443.058 638.449 417.751 671.954 413.928 700.638" stroke="#F4F1E1" stroke-width="7" stroke-linecap="round"/>
<path d="M530.336 228.142C515.315 240.539 517.705 275.645 520.777 291.648C510.308 293.268 491.487 296.145 499.954 294.686C510.536 292.863 477.764 230.877 483.909 239.689C490.054 248.5 500.978 252.45 502.684 247.589C504.391 242.727 549.111 212.645 530.336 228.142Z" fill="#F4F1E1" stroke="#F4F1E1" stroke-width="7" stroke-linecap="round"/>
<path d="M443.969 322.337C426.672 302.587 393.65 259.865 399.932 246.981C407.783 230.877 356.577 189.856 342.581 179.829" stroke="#F4F1E1" stroke-width="7" stroke-linecap="round"/>
<path d="M668.251 246.374C656.508 247.346 634.455 286.077 624.896 305.322C631.383 309.069 643.331 315.774 639.234 312.614C634.114 308.664 664.837 258.224 676.102 252.451C685.115 247.832 674.623 246.475 668.251 246.374Z" fill="#F4F1E1" stroke="#F4F1E1" stroke-width="7" stroke-linecap="round"/>
<path d="M723.894 408.936C732.542 398.2 759.942 378.794 800.361 387.059" stroke="#F4F1E1" stroke-width="7" stroke-linecap="round"/>
<path d="M661.422 664.175C663.88 649.104 649.474 629.535 641.964 621.635C645.605 618.901 654.595 613.127 661.422 611.912C669.956 610.393 675.418 652.325 673.029 664.175C671.117 673.655 698.859 694.257 712.969 703.372C694.763 696.586 658.964 679.246 661.422 664.175Z" fill="#F4F1E1" stroke="#F4F1E1" stroke-width="7" stroke-linecap="round"/>
<path d="M724.576 526.833C746.424 534.631 794.967 554.24 814.357 570.284" stroke="#F4F1E1" stroke-width="7" stroke-linecap="round"/>
<path d="M378.084 397.086C348.726 389.692 286.869 363.966 274.307 320.21" stroke="#F4F1E1" stroke-width="7" stroke-linecap="round"/>
<path d="M369.891 418.356C363.291 412.076 336.573 401.401 282.5 408.937" stroke="#F4F1E1" stroke-width="7" stroke-linecap="round"/>
<path d="M364.771 503.436C335.527 498.169 265.431 496.143 219.005 530.175" stroke="#F4F1E1" stroke-width="7" stroke-linecap="round"/>
<path d="M362.723 459.984C333.251 445.804 266.387 422.61 234.708 443.272C195.109 469.1 195.45 451.476 157.899 433.853" stroke="#F4F1E1" stroke-width="7" stroke-linecap="round"/>
<path d="M342.58 590.946C345.311 580.514 357.737 559.041 385.593 556.61" stroke="#F4F1E1" stroke-width="7" stroke-linecap="round"/>
<path d="M619.434 711.881C624.555 704.082 628.242 678.882 602.024 640.475" stroke="#F4F1E1" stroke-width="7" stroke-linecap="round"/>
<path d="M632.064 630.751C636.388 634.802 644.832 647.281 644.012 664.783C643.193 682.285 668.705 712.792 681.563 725.858" stroke="#F4F1E1" stroke-width="7" stroke-linecap="round"/>
<path d="M437.141 454.822C434.41 454.579 422.349 459.478 417.342 461.807C446.29 426.317 475.375 443.478 485.616 456.645L470.937 451.176C463.768 483.688 462.589 477.82 452.162 477.608C442.375 477.409 438.279 462.722 437.141 454.822Z" stroke="#F4F1E1" stroke-width="7" stroke-linecap="round"/>
<path d="M594.173 463.63C602.707 470.315 625.784 481.679 649.816 473.658" stroke="#F4F1E1" stroke-width="7" stroke-linecap="round"/>
<path d="M661.765 470.315C664.951 468.695 671.323 464.421 671.323 460.288" stroke="#F4F1E1" stroke-width="7" stroke-linecap="round"/>
<path d="M486.982 473.658C481.178 482.064 462.744 495.961 435.435 484.293" stroke="#F4F1E1" stroke-width="7" stroke-linecap="round"/>
<path d="M492.103 500.093C498.133 497.358 510.741 487.088 512.926 467.884" stroke="#F4F1E1" stroke-width="7" stroke-linecap="round"/>
<path d="M550.477 534.429V555.091" stroke="#F4F1E1" stroke-width="7" stroke-linecap="round"/>
<path d="M297.862 573.018C300.366 563.599 318.686 542.754 371.94 534.733" stroke="#F4F1E1" stroke-width="7" stroke-linecap="round"/>
<path d="M353.505 619.508C365.225 607.151 392.49 583.106 407.783 585.78" stroke="#F4F1E1" stroke-width="7" stroke-linecap="round"/>
<path d="M496.882 735.278C502.344 732.543 512.107 719.781 507.464 690.611C502.822 661.441 520.778 648.476 530.336 645.64" stroke="#F4F1E1" stroke-width="7" stroke-linecap="round"/>
<path d="M598.61 860.77C592.579 847.299 595.469 819.202 606.12 798.783C619.433 773.259 576.42 745.305 574.713 731.935C573.007 718.565 588.368 647.767 581.541 645.032" stroke="#F4F1E1" stroke-width="7" stroke-linecap="round"/>
<path d="M528.629 617.685C537.163 606.442 560.308 590.216 584.614 615.254" stroke="#F4F1E1" stroke-width="7" stroke-linecap="round"/>
<path d="M488.006 564.51C507.919 589.629 561.401 624.795 616.02 564.51" stroke="#F4F1E1" stroke-width="7" stroke-linecap="round"/>
<path d="M488.688 564.511C497.906 567.752 517.227 572.289 520.777 564.511C525.215 554.787 540.918 553.876 544.332 564.511C547.063 568.056 554.164 572.654 560.718 562.687C563.904 558.535 572.939 552.721 583.59 562.687C596.903 575.146 613.631 561.168 616.703 564.511" stroke="#F4F1E1" stroke-width="7" stroke-linecap="round"/>
<path d="M594.855 453.299C608.283 435.372 641.76 409.362 668.25 448.741C660.171 461.402 634.182 480.039 594.855 453.299Z" stroke="#F4F1E1" stroke-width="7" stroke-linecap="round"/>
<path d="M474.35 571.803C481.518 566.536 496.471 552.538 498.928 538.683" stroke="#F4F1E1" stroke-width="7" stroke-linecap="round"/>
<path d="M598.952 531.694C607.714 544.76 626.33 569.008 630.7 561.472" stroke="#F4F1E1" stroke-width="7" stroke-linecap="round"/>
<path d="M415.635 463.63C447.724 411.671 490.054 457.857 490.737 458.465V461.199C463.427 492.071 429.29 475.683 415.635 463.63Z" stroke="#F4F1E1" stroke-width="7" stroke-linecap="round"/>
<path d="M399.932 420.787C430.2 392.731 498.179 359.651 527.946 451.78C529.994 468.391 532.862 502.949 527.946 508.297C521.801 514.982 561.742 522.274 568.228 515.286" stroke="#F4F1E1" stroke-width="7" stroke-linecap="round"/>
<path d="M539.553 712.792C552.525 742.57 579.357 802.369 582.907 803.341C587.345 804.557 565.156 877.482 602.365 894.802C607.713 907.868 618.41 935.275 618.41 940.38C618.41 946.761 602.365 863.201 612.948 859.251C623.53 855.3 634.113 793.922 623.53 783.591C612.948 773.259 602.365 720.085 612.948 712.792C623.53 705.5 629.675 751.078 675.76 773.259C680.539 789.566 694.536 824.064 712.287 831.6C730.038 839.136 726.738 868.974 722.87 882.952C729.128 861.58 737.89 816.65 722.87 807.899C730.607 793.618 741.44 754.603 722.87 712.792C736.524 720.389 764.517 739.349 767.248 754.421C769.979 769.492 803.661 793.314 820.161 803.341C820.388 804.86 817.703 800.971 805.14 773.259C789.437 738.62 797.289 749.559 778.513 726.466L774.075 665.087C774.075 651.717 758.441 643.513 747.79 639.867V624.066C757.462 628.827 780.561 637.254 795.582 632.878C810.602 628.503 844.398 649.286 859.418 660.225C881.835 668.936 931.653 684.23 951.589 675.722C946.696 668.834 933.701 653.844 920.865 648.983C904.821 642.905 859.418 627.409 859.418 616.166C859.418 607.172 840.302 591.149 830.743 584.261C844.398 582.438 871.571 577.88 871.025 574.234C870.342 569.676 915.403 569.372 916.428 574.234C917.247 578.123 919.727 573.221 920.865 570.284C912.672 567.347 895.467 559.892 892.19 553.572C873.642 549.622 835.386 539.594 830.743 531.087C824.94 520.452 829.719 519.844 864.88 522.882C900.042 525.921 881.266 520.148 916.428 505.866C932.358 508.905 967.155 514.07 978.899 510.424C990.642 506.778 911.876 495.535 871.025 490.37C860.67 485.305 839.619 473.718 838.253 467.884C836.546 460.592 886.045 457.249 889.118 452.996C892.19 448.742 904.821 443.88 916.428 431.726C925.189 431.928 943.737 430.571 947.834 423.522C952.954 414.71 983.336 400.125 1012.69 401.036C1016.45 399.01 1022.59 394.716 1017.13 393.744C1010.3 392.528 984.702 390.401 982.312 385.236C979.923 380.07 903.455 391.617 889.118 391.92C874.78 392.224 895.262 365.789 921.548 349.381C947.834 332.972 1024.98 313.829 1023.28 308.36C1021.57 302.891 978.216 304.41 970.023 305.321C961.83 306.233 903.455 326.288 891.507 329.022C879.559 331.757 809.578 339.657 798.313 342.696C787.048 345.734 787.048 337.226 806.506 318.387C825.964 299.548 842.35 229.358 858.736 226.319C872.846 218.723 900.315 202.801 897.311 199.884C893.556 196.237 866.929 212.949 858.736 211.43C850.543 209.911 825.623 233.004 822.209 235.435C818.795 237.866 769.296 250.931 758.714 270.682C753.821 271.695 745.946 270.621 753.593 258.224C763.151 242.727 775.441 222.065 772.71 211.43C769.979 200.795 823.233 178.917 835.864 136.682C835.636 133.44 829.719 133.157 807.871 157.951C789.323 161.699 750.999 174.299 746.083 194.718C739.938 220.242 682.929 251.235 680.881 244.55C678.833 237.865 682.929 187.729 672.688 179.221L668.591 113.892C661.423 130.503 645.446 163.907 638.892 164.636C630.699 165.548 596.903 208.391 598.269 232.092C599.634 255.793 561.059 187.122 579.835 123.008C582.907 100.624 585.297 51.4196 570.276 33.6744C566.294 38.3335 559.762 54.4581 565.497 81.6836C552.411 97.6867 527.673 134.311 533.408 152.786C540.577 175.879 530.677 222.369 525.215 222.673C519.753 222.977 487.664 172.233 487.664 162.509C487.664 152.786 473.327 130.301 453.527 119.362C451.024 106.397 441.033 76.4573 421.097 60.4137C401.161 44.3701 384.798 17.2662 379.108 5.71965C376.605 4.30166 371.325 2.31647 370.232 5.71965C368.867 9.97363 376.036 34.5859 381.498 38.5361C386.96 42.4862 400.956 65.2754 398.566 72.5679C396.177 79.8605 407.101 133.643 418.707 132.731C417.569 147.215 416.454 177.337 421.097 181.956C427.014 190.464 438.029 208.999 434.752 215.076C437.255 223.483 438.029 237.197 421.097 224.8C416.887 211.126 397.815 181.895 355.212 174.36C350.888 172.739 342.035 168.769 341.216 165.852C340.192 162.205 326.195 144.582 316.296 144.582C306.396 144.582 296.155 118.146 291.375 121.185C286.596 124.223 296.155 148.532 299.91 150.963C303.665 153.394 321.416 188.641 316.296 191.072C311.175 193.503 331.999 237.258 345.995 248.804C359.991 260.351 346.678 262.174 332.34 257.312C318.003 252.451 257.238 228.75 246.997 218.419C236.756 208.088 219.346 191.072 191.695 191.072C184.185 187.122 169.028 177.459 168.482 170.41C167.799 161.598 131.272 131.212 117.276 137.897C103.28 144.582 147.999 159.167 149.706 170.41C151.413 181.652 160.289 174.967 161.654 193.199C163.02 211.43 185.209 225.104 187.598 225.104C189.988 225.104 200.912 233.004 200.57 242.727C200.229 252.451 203.984 267.036 234.708 273.417C259.286 278.521 270.665 306.537 273.283 319.907C258.831 324.262 225.968 330.906 210.129 322.641C190.329 312.31 171.554 304.41 161.654 306.537C140.489 296.003 99.1829 277.124 103.279 285.875C103.962 290.433 106.557 299.974 111.472 301.675C117.617 303.802 136.051 308.36 147.999 318.083C159.947 327.807 178.723 349.381 186.574 353.635C194.426 357.889 188.281 363.966 216.615 372.474C244.949 380.982 274.648 410.759 270.21 414.102C266.66 416.776 246.656 425.547 237.097 429.598C222.646 430.713 201.595 431.725 182.136 425.041C168.505 420.358 129.565 415.013 109.766 430.51L62.3149 429.598C57.0155 430.525 52.7391 429.91 48.7005 432.823C46.9994 434.05 45.0551 435.03 42.9589 434.964L7.69531 433.853C11.6781 438.714 24.9689 448.498 46.2704 448.741C67.572 448.985 91.3314 448.843 100.548 448.741C115.341 452.388 147.931 462.962 159.947 476.088C167.799 478.823 189.373 481.922 212.86 472.442C233.911 470.113 272.6 468.674 258.945 481.558C241.535 490.775 204.599 507.872 196.133 502.524C174.968 501.106 129.292 501.309 115.91 513.463C99.183 528.656 79.7248 546.887 51.3909 546.887C48.4324 548.71 44.0173 552.417 50.0254 552.66C56.0336 552.903 84.8454 549.723 98.5003 548.102C103.621 548.204 113.725 544.638 113.179 529.567C120.12 523.389 136.734 513.098 147.658 521.363C161.313 531.694 168.14 536.252 179.747 532.909C191.353 529.567 228.904 537.163 231.294 550.229C245.859 550.027 269.732 552.113 248.704 562.08C238.008 571.904 211.494 592.648 191.012 597.023C185.095 598.745 172.51 606.503 169.506 623.762C166.502 641.021 126.607 643.108 107.035 641.994C90.6487 645.741 55.9653 652.264 48.3186 648.375C38.7602 643.513 42.5153 662.048 50.0254 659.921C57.5356 657.794 87.235 666.302 87.9177 661.44C88.6005 656.579 123.762 653.236 126.493 659.921C129.224 666.606 203.643 659.01 219.005 634.093C236.642 631.46 276.833 621.028 296.496 600.366C313.906 596.719 343.059 593.741 320.392 611C292.058 632.574 306.737 664.175 301.617 665.694C296.496 667.214 248.363 700.334 250.752 714.311C242.445 721.604 224.671 739.653 220.029 753.509C214.225 770.829 223.784 769.917 226.173 766.271C228.563 762.625 264.066 734.67 270.893 737.404C277.721 740.139 318.344 713.704 315.613 707.627C320.847 708.538 334.047 706.29 344.971 690.003C355.895 673.716 360.446 669.239 361.357 669.037C364.088 664.276 372.554 655.485 384.57 658.402C395.152 648.476 412.767 636.16 398.566 666.302C384.365 696.445 380.587 702.562 380.473 701.853C370.915 708.943 353.164 728.714 358.626 751.078C348.612 760.092 331.589 784.502 343.605 810.026C338.712 824.611 330.019 854.632 334.388 858.035C328.016 867.252 317.183 884.714 324.83 880.824C332.477 876.935 340.533 868.873 343.605 865.328L363.064 842.235C365.112 828.156 369.891 799.087 372.622 795.441C376.036 790.883 398.908 771.74 400.614 760.194C402.321 748.647 461.037 716.742 453.527 704.892C459.217 693.447 470.05 678.274 467.865 709.146C468.32 718.768 468.274 739.714 464.451 746.52C459.672 755.028 461.72 777.513 467.865 789.364C474.009 801.214 474.009 804.86 473.327 810.026C472.644 815.192 483.568 831.904 486.64 810.026C489.713 788.148 506.44 769.917 513.95 765.055C519.958 761.166 533.522 728.593 539.553 712.792Z" stroke="#F4F1E1" stroke-width="7"/>
<path d="M732.683 468.796C732.683 565.538 650.056 644.267 547.746 644.267C445.436 644.267 362.809 565.538 362.809 468.796C362.809 372.054 445.436 293.325 547.746 293.325C650.056 293.325 732.683 372.054 732.683 468.796Z" stroke="#F4F1E1" stroke-width="7"/>
<path d="M602.024 494.928C608.852 498.574 673.371 613.128 710.239 489.458" stroke="#F4F1E1" stroke-width="7" stroke-linecap="round"/>
<path d="M483.227 534.429C479.813 533.214 427.583 628.32 385.253 508.297" stroke="#F4F1E1" stroke-width="7" stroke-linecap="round"/>
<path d="M392.421 425.648C428.265 407.619 503.503 388.821 517.704 457.857" stroke="#F4F1E1" stroke-width="7" stroke-linecap="round"/>
<path d="M684.636 416.229C671.777 400.631 634.454 377.7 588.027 410.759" stroke="#F4F1E1" stroke-width="7" stroke-linecap="round"/>
<path d="M684.636 416.229C678.378 391.617 649.202 353.939 582.566 400.125C560.036 419.875 551.638 473.536 563.108 491.281" stroke="#F4F1E1" stroke-width="7" stroke-linecap="round"/>
<path d="M578.128 532.606C588.255 530.681 603.253 520.755 582.224 496.447" stroke="#F4F1E1" stroke-width="7" stroke-linecap="round"/>
<path d="M515.315 533.821C506.667 535.037 495.106 529.02 518.046 495.231" stroke="#F4F1E1" stroke-width="7" stroke-linecap="round"/>
<path d="M512.243 571.499C518.615 570.79 532.862 570.527 538.87 575.145C546.38 580.919 556.963 578.792 566.18 575.145C575.397 571.499 592.466 570.892 591.783 573.018" stroke="#F4F1E1" stroke-width="7" stroke-linecap="round"/>
<path d="M522.825 431.118C526.58 433.954 536.753 432.272 547.404 402.859" stroke="#F4F1E1" stroke-width="7" stroke-linecap="round"/>
<path d="M485.274 438.714C470.708 426.965 432.771 413.069 397.541 451.476" stroke="#F4F1E1" stroke-width="7" stroke-linecap="round"/>
<path d="M583.249 419.875C576.535 430.915 563.995 457.857 567.546 477.304C569.253 467.479 577.104 442.847 594.855 422.914" stroke="#F4F1E1" stroke-width="7" stroke-linecap="round"/>
<path d="M392.08 350.9C380.246 351.204 349.067 340.508 319.026 295.294" stroke="#F4F1E1" stroke-width="7" stroke-linecap="round"/>
<path d="M616.362 444.487C613.631 444.244 602.935 448.843 597.928 451.172C626.876 415.682 654.595 433.143 664.837 446.31L650.158 440.841C642.989 473.354 642.206 464.161 631.041 463.934C621.254 463.735 617.5 452.388 616.362 444.487Z" stroke="#F4F1E1" stroke-width="7" stroke-linecap="round"/>
<path d="M790.031 478.952C776.275 487.812 750.788 483.225 739.764 479.825C738.653 484.354 736.871 495.107 738.635 501.883C740.84 510.353 784.444 496.949 795.062 489.565C803.556 483.657 835.84 499.984 850.919 508.886C836.355 495.217 803.787 470.092 790.031 478.952Z" fill="#F4F1E1" stroke="#F4F1E1" stroke-width="7" stroke-linecap="round"/>
</svg>
