<svg width="956" height="556" viewBox="0 0 956 556" fill="none" xmlns="http://www.w3.org/2000/svg">
<path d="M853.301 528.498H881.249C903.341 528.498 921.249 510.59 921.249 488.498V72.66C921.249 50.5686 903.341 32.66 881.249 32.66H853.301M853.301 528.498H76.6569C54.5655 528.498 36.6569 510.59 36.6569 488.498L36.6569 72.66C36.6569 50.5687 54.5655 32.66 76.6569 32.66H853.301M853.301 528.498V32.66M43.0005 2.99998H913.001C935.092 2.99998 953.001 20.9086 953.001 43V513C953.001 535.091 935.092 553 913.001 553H43.0005C20.9091 553 3.00049 535.091 3.00049 513L3.00049 43C3.00049 20.9086 20.9091 2.99998 43.0005 2.99998Z" stroke="#F4F1E1" stroke-width="5"/>
</svg>
