<svg width="432" height="754" viewBox="0 0 432 754" fill="none" xmlns="http://www.w3.org/2000/svg">
<path d="M25.7891 543.076C33.7134 561.892 56.634 568.718 60.6536 584.107C70.2935 621.013 95.0252 646.754 92.6261 670.076" stroke="#F4F1E1" stroke-width="7" stroke-linecap="round"/>
<path d="M25.7891 581.076C29.8104 594.262 41.4417 599.046 43.4815 609.83C48.3734 635.693 60.9238 653.732 59.7064 670.076" stroke="#F4F1E1" stroke-width="7" stroke-linecap="round"/>
<path d="M22 672.5V686C22 708.091 39.9086 726 62 726H366.5C388.591 726 406.5 708.091 406.5 686V672.5M22 672.5V69.5C22 47.4086 39.9086 29.5 62 29.5H366.5C388.591 29.5 406.5 47.4086 406.5 69.5V672.5M22 672.5H406.5M429.5 43V711C429.5 733.091 411.591 751 389.5 751H43C20.9086 751 3 733.091 3 711V43C3 20.9086 20.9086 3 43 3H389.5C411.591 3 429.5 20.9086 429.5 43Z" stroke="#F4F1E1" stroke-width="5"/>
<path d="M25.7891 494.076C39.8637 520.152 80.5734 529.612 87.7126 550.938C104.834 602.083 148.761 637.755 144.5 670.076" stroke="#F4F1E1" stroke-width="7" stroke-linecap="round"/>
<path d="M25.7891 389.076C50.5084 430.708 122.007 445.812 134.546 479.861C164.616 561.519 241.765 618.473 234.281 670.076" stroke="#F4F1E1" stroke-width="7" stroke-linecap="round"/>
<path d="M25.7891 446.076C44.8312 479.263 99.909 491.303 109.568 518.446C132.733 583.54 192.163 628.941 186.397 670.076" stroke="#F4F1E1" stroke-width="7" stroke-linecap="round"/>
<path d="M256.789 37.0763C274.956 64.9096 317.589 118.076 342.789 108.076C374.289 95.5763 409.789 160.576 404.289 195.076" stroke="#F4F1E1" stroke-width="7" stroke-linecap="round"/>
<path d="M304.789 30.0763C317.058 48.5731 345.851 83.9054 362.871 77.2598C384.145 68.9529 408.12 112.149 404.406 135.076" stroke="#F4F1E1" stroke-width="7" stroke-linecap="round"/>
<path d="M196.789 40.0763C221.45 83.4117 279.324 166.19 313.533 150.621C356.294 131.159 404.485 232.361 397.018 286.076" stroke="#F4F1E1" stroke-width="7" stroke-linecap="round"/>
<path d="M144.789 37.0763C176.689 102.432 251.551 227.273 295.801 203.791C351.114 174.44 413.45 327.067 403.792 408.076" stroke="#F4F1E1" stroke-width="7" stroke-linecap="round"/>
</svg>
