<svg width="433" height="754" viewBox="0 0 433 754" fill="none" xmlns="http://www.w3.org/2000/svg">
<path d="M22.446 672.304V685.794C22.446 707.885 40.3546 725.794 62.446 725.794H366.628C388.72 725.794 406.628 707.885 406.628 685.794V672.304M22.446 672.304V69.423C22.446 47.3316 40.3546 29.4231 62.446 29.4231H366.628C388.72 29.4231 406.628 47.3317 406.628 69.4231V672.304M22.446 672.304H406.628M429.609 42.928V710.789C429.609 732.88 411.701 750.789 389.609 750.789H43.4617C21.3703 750.789 3.46167 732.88 3.46167 710.789V42.928C3.46167 20.8366 21.3703 2.92798 43.4617 2.92798H389.609C411.701 2.92798 429.609 20.8366 429.609 42.928Z" stroke="#F4F1E1" stroke-width="5"/>
<path d="M261.582 206.279C264.426 205.354 268.52 201.817 262.141 195.066M245.46 206.187C248.694 208.179 254.985 211.262 254.269 207.663C253.375 203.165 249.607 201.084 245.46 206.187Z" stroke="#F4F1E1" stroke-width="3" stroke-linecap="round"/>
<path d="M247.681 196.847C245.39 192.501 239.736 187.253 235.454 201.032C230.102 218.255 230.392 210.621 226.251 209.782" stroke="#F4F1E1" stroke-width="3" stroke-linecap="round"/>
<path d="M219.496 204.881C222.654 205.362 228.679 204.912 227.516 199.267" stroke="#F4F1E1" stroke-width="3" stroke-linecap="round"/>
<path d="M221.67 214.523C225.267 209.559 217.661 208.633 213.408 208.79C212.591 216.626 213.728 232.269 224.813 232.154C227.381 236.16 233.493 243.263 237.395 239.626C239.67 241.118 244.515 243.718 245.695 242.176C247.171 240.249 247.621 246.413 266.041 235.728C268.308 235.959 272.596 234.932 271.616 228.979C275.898 225.872 283.049 218.337 278.655 212.306C280.039 215.901 265.276 225.807 261.073 226.053C256.583 226.315 262.003 218.526 260.02 216.599C258.037 214.673 253.946 222.395 253.836 226C253.727 229.606 239.522 230.85 240.25 222.564C240.977 214.279 228.797 218.181 229.319 223.922C229.84 229.663 217.174 220.727 221.67 214.523Z" fill="#D6D3C2"/>
<path d="M278.655 212.306C283.049 218.337 275.898 225.872 271.616 228.979C272.596 234.932 268.308 235.959 266.041 235.728C247.621 246.413 247.171 240.249 245.695 242.176C244.515 243.718 239.67 241.118 237.395 239.626C233.493 243.263 227.381 236.16 224.813 232.154C213.728 232.269 212.591 216.626 213.408 208.79C217.661 208.633 225.267 209.559 221.67 214.523C217.174 220.727 229.84 229.663 229.319 223.922C228.797 218.181 240.977 214.279 240.25 222.564C239.522 230.85 253.727 229.606 253.836 226C253.946 222.395 258.037 214.673 260.02 216.599C262.003 218.526 256.583 226.315 261.073 226.053C265.276 225.807 280.039 215.901 278.655 212.306ZM278.655 212.306C278.498 212.089 278.325 211.874 278.137 211.662C278.391 211.844 278.561 212.06 278.655 212.306Z" stroke="#F4F1E1" stroke-width="3" stroke-linecap="round"/>
<path d="M235.121 161.692C243.782 160.776 262.226 155.39 266.711 141.182C268.344 142.905 273.132 144.142 279.221 135.306C284.189 134.157 294.066 130.632 293.834 125.722C293.601 120.813 294.917 116.626 295.603 115.147C298.064 116.187 303.039 117.552 303.255 114.689C305.653 114.463 312.053 112.104 318.466 104.481C324.879 96.8584 328.32 93.811 329.239 93.2401L323.246 110.356L318.145 123.127C318.685 126.077 320.246 130.993 322.49 129.542C323.712 128.07 324.333 127.46 323.293 128.773C323.017 129.123 322.749 129.375 322.49 129.542C319.785 132.803 314.134 140.295 317.052 140.484C311.376 147.506 301.778 161.698 308.792 162.294C309.934 165.964 313.141 172.126 316.828 167.409C321.438 161.513 300.657 191.227 306.442 193.066C306.666 195.664 308 200.488 311.543 198.994C315.972 197.127 303.894 208.295 303.753 209.141L327.894 189.847C307.756 201.549 320.651 178.68 329.615 165.782C319.071 175.265 324.922 162.339 329.166 154.69C319.274 161.846 326.887 136.817 331.931 123.408C322.33 119.77 375.916 50.4701 369.98 51.5049C365.231 52.3327 353.88 60.7908 348.799 64.9163C347.736 57.4903 326.667 89.9101 321.415 86.8557C317.213 84.4122 314.251 90.6324 313.295 94.0479C306.632 107.891 301.155 103.949 299.249 100.247C299.757 104.101 280.122 115.162 275.537 115.989C271.87 116.65 258.101 137.855 251.675 148.375C241.198 159.028 244.509 147.899 247.475 141.003C244.376 141.412 234.572 152.178 230.057 157.51C229.397 158.172 228.308 160.087 229.231 162.445C230.154 164.803 233.542 162.925 235.121 161.692Z" fill="#D6D3C2"/>
<path d="M322.49 129.542C320.246 130.993 318.685 126.077 318.145 123.127L323.246 110.356L329.239 93.2401C328.32 93.811 324.879 96.8584 318.466 104.481C312.053 112.104 305.653 114.463 303.255 114.689C303.039 117.552 298.064 116.187 295.603 115.147C294.917 116.626 293.601 120.813 293.834 125.722C294.066 130.632 284.189 134.157 279.221 135.306C273.132 144.142 268.344 142.905 266.711 141.182C262.226 155.39 243.782 160.776 235.121 161.692C233.542 162.925 230.154 164.803 229.231 162.445C228.308 160.087 229.397 158.172 230.057 157.51C234.572 152.178 244.376 141.412 247.475 141.003C244.509 147.899 241.198 159.028 251.675 148.375C258.101 137.855 271.87 116.65 275.537 115.989C280.122 115.162 299.757 104.101 299.249 100.247C301.155 103.949 306.632 107.891 313.295 94.0479C314.251 90.6324 317.213 84.4122 321.415 86.8557C326.667 89.9101 347.736 57.4903 348.799 64.9163C353.88 60.7908 365.231 52.3327 369.98 51.5049C375.916 50.4701 322.33 119.77 331.931 123.408C326.887 136.817 319.274 161.846 329.166 154.69C324.922 162.339 319.071 175.265 329.615 165.782C320.651 178.68 307.756 201.549 327.894 189.847L303.753 209.141C303.894 208.295 315.972 197.127 311.543 198.994C308 200.488 306.666 195.664 306.442 193.066C300.657 191.227 321.438 161.513 316.828 167.409C313.141 172.126 309.934 165.964 308.792 162.294C301.778 161.698 311.376 147.506 317.052 140.484C314.134 140.295 319.785 132.803 322.49 129.542ZM322.49 129.542C323.712 128.07 324.333 127.46 323.293 128.773C323.017 129.123 322.749 129.375 322.49 129.542Z" stroke="#F4F1E1" stroke-width="3" stroke-linecap="round"/>
<path d="M216.811 182.543C185.102 208.686 189.069 287.715 296.041 240.464C297.056 234.401 304.274 227.087 322.908 211.77C325.065 209.377 327.795 204.413 321.46 203.7C324.839 199.579 332.459 192.09 335.907 195.103C340.217 198.87 358.269 169.713 346.094 172.602C352.955 155.873 360.533 129.417 335.955 157.422C342.636 149.312 353.385 132.771 342.93 131.483C357.716 111.347 378.688 78.3896 344.283 107.647C349.699 99.229 359.748 82.1453 356.62 81.1574C352.71 79.9224 384.914 55.7465 378.031 53.5786C383.953 49.3522 393.39 41.3081 383.763 42.9423C371.73 44.985 367.225 48.289 368.157 49.6049C369.09 50.9208 346.591 57.4434 348.414 59.3433C342.614 62.1887 331.171 68.3119 331.804 70.0415C331.794 65.836 329.697 58.8166 321.388 64.3826C322.322 59.1273 320.851 51.6522 307.49 63.7935C302.82 66.4418 293.273 71.9936 292.444 73.0143C291.407 74.2902 283.496 76.2988 285.205 82.8182C281.747 85.7663 275.408 91.9618 277.711 93.1594C273.985 100.991 268.404 115.518 275.883 110.973C277.94 110.158 279.859 110.044 271.071 116.11C260.087 123.692 268.343 116.668 266.906 115.412C265.47 114.157 263.922 107.664 257.141 112.761C250.36 117.858 239.455 127.918 239.915 132.054C235.699 135.6 229.816 143.205 240.011 145.261C229.707 155.663 211.814 181.705 216.811 182.543ZM286.781 106.856C290.111 104.998 296.823 100.971 297.03 99.7303C297.29 98.1792 303.538 94.2975 304.452 94.7406C305.366 95.1836 312.663 83.0699 314.674 83.8418C316.686 84.6137 311.704 73.0521 314.752 72.5482L285.275 101.095C284.283 104.069 282.008 109.796 280.84 108.904L286.781 106.856ZM261.085 125.599L251.91 133.194C251.142 135.819 250.783 139.731 255.5 134.375C260.217 129.019 261.189 126.293 261.085 125.599Z" stroke="#F4F1E1" stroke-width="3" stroke-linecap="round"/>
<path d="M212.696 209.105C210.05 210.749 210.83 200.578 211.55 195.287C217.384 191.916 229.703 184.818 232.312 183.4C235.572 181.627 240.275 180.095 242.197 180.418C244.119 180.74 236.712 182.688 251.648 182.001C266.583 181.314 275.274 202.195 277.05 204.377C278.826 206.559 276.389 208.325 280.209 214.038C283.264 218.609 276.592 226.14 272.874 229.335C272.462 232.455 271.227 238.191 269.588 236.177C267.539 233.659 256.781 241.859 253.638 242.927C250.496 243.995 248.673 242.095 244.729 243.029C241.574 243.776 237.714 241.322 236.179 240.002C230.909 242.366 225.947 235.872 224.125 232.329C211.096 229.102 211.077 215.502 212.696 209.105Z" stroke="#F4F1E1" stroke-width="3" stroke-linecap="round"/>
<path d="M84.6321 637.517C87.4765 636.592 91.5703 633.055 85.191 626.304M68.5099 637.425C71.7445 639.417 78.0349 642.5 77.3197 638.901C76.4258 634.403 72.6572 632.322 68.5099 637.425Z" stroke="#F4F1E1" stroke-width="3" stroke-linecap="round"/>
<path d="M70.9268 622.751C68.6351 618.404 62.9813 613.157 58.6997 626.935C53.3477 644.158 53.6372 636.524 49.4961 635.685" stroke="#F4F1E1" stroke-width="3" stroke-linecap="round"/>
<path d="M41.2195 626.658C44.3776 627.139 50.4029 626.689 49.2398 621.044" stroke="#F4F1E1" stroke-width="3" stroke-linecap="round"/>
<path d="M41.1645 638.377C44.7615 633.413 37.1551 632.487 32.9023 632.644C32.0851 640.48 33.222 656.123 44.307 656.009C46.8752 660.015 52.9871 667.117 56.8891 663.48C59.1642 664.973 64.0097 667.572 65.1898 666.031C66.665 664.103 67.1156 670.267 85.5352 659.582C87.802 659.813 92.0905 658.786 91.1105 652.833C95.3925 649.726 102.543 642.191 98.1498 636.16C99.5335 639.756 84.7699 649.662 80.5673 649.907C76.0773 650.17 81.4974 642.38 79.5144 640.454C77.5315 638.527 73.44 646.249 73.3306 649.854C73.2213 653.46 59.0162 654.704 59.744 646.418C60.4717 638.133 48.2918 642.035 48.8132 647.776C49.3347 653.517 36.6682 644.582 41.1645 638.377Z" fill="#D6D3C2"/>
<path d="M98.1498 636.16C102.543 642.191 95.3925 649.726 91.1105 652.833C92.0905 658.786 87.802 659.813 85.5352 659.582C67.1156 670.267 66.665 664.103 65.1898 666.031C64.0097 667.572 59.1642 664.973 56.8891 663.48C52.9871 667.117 46.8752 660.015 44.307 656.009C33.222 656.123 32.0851 640.48 32.9023 632.644C37.1551 632.487 44.7615 633.413 41.1645 638.377C36.6682 644.582 49.3347 653.517 48.8132 647.776C48.2918 642.035 60.4717 638.133 59.744 646.418C59.0162 654.704 73.2213 653.46 73.3306 649.854C73.44 646.249 77.5315 638.527 79.5144 640.454C81.4974 642.38 76.0773 650.17 80.5673 649.907C84.7699 649.662 99.5335 639.756 98.1498 636.16ZM98.1498 636.16C97.992 635.943 97.8193 635.729 97.631 635.516C97.8851 635.698 98.0552 635.914 98.1498 636.16Z" stroke="#F4F1E1" stroke-width="3" stroke-linecap="round"/>
<path d="M41.2803 606.61C49.9416 605.693 68.3855 600.308 72.8708 586.1C74.5036 587.823 79.2916 589.06 85.381 580.223C90.3487 579.074 100.226 575.549 99.9935 570.64C99.7611 565.73 101.076 561.544 101.763 560.064C104.224 561.105 109.199 562.47 109.414 559.607C111.813 559.38 118.212 557.022 124.625 549.399C131.039 541.776 134.48 538.728 135.399 538.158L129.406 555.273L124.305 568.045C124.845 570.995 126.406 575.911 128.65 574.459C129.871 572.987 130.492 572.377 129.453 573.691C129.177 574.04 128.909 574.292 128.65 574.459C125.945 577.72 120.294 585.212 123.212 585.402C117.536 592.423 107.938 606.616 114.952 607.211C116.094 610.881 119.301 617.043 122.988 612.326C127.597 606.431 106.817 636.144 112.602 637.983C112.826 640.582 114.16 645.405 117.703 643.912C122.132 642.044 110.054 653.212 109.912 654.058L134.054 634.765C113.916 646.466 126.811 623.597 135.775 610.7C125.23 620.182 131.082 607.256 135.326 599.608C125.434 606.764 133.047 581.734 138.09 568.325C128.489 564.687 182.076 495.388 176.139 496.422C171.39 497.25 160.04 505.708 154.958 509.834C153.896 502.408 132.827 534.828 127.575 531.773C123.373 529.33 120.411 535.55 119.455 538.965C112.791 552.809 107.314 548.866 105.409 545.165C105.917 549.019 86.2815 560.08 81.6971 560.906C78.0296 561.567 64.2608 582.773 57.8349 593.293C47.3577 603.946 50.669 592.817 53.6343 585.921C50.536 586.33 40.7316 597.095 36.2167 602.427C35.5569 603.09 34.4681 605.004 35.3909 607.362C36.3137 609.72 39.7017 607.843 41.2803 606.61Z" fill="#D6D3C2"/>
<path d="M128.65 574.459C126.406 575.911 124.845 570.995 124.305 568.045L129.406 555.273L135.399 538.158C134.48 538.728 131.039 541.776 124.625 549.399C118.212 557.022 111.813 559.38 109.414 559.607C109.199 562.47 104.224 561.105 101.763 560.064C101.076 561.544 99.7611 565.73 99.9935 570.64C100.226 575.549 90.3487 579.074 85.381 580.223C79.2916 589.06 74.5036 587.823 72.8708 586.1C68.3855 600.308 49.9416 605.693 41.2803 606.61C39.7017 607.843 36.3137 609.72 35.3909 607.362C34.4681 605.004 35.5569 603.09 36.2167 602.427C40.7316 597.095 50.536 586.33 53.6343 585.921C50.669 592.817 47.3577 603.946 57.8349 593.293C64.2608 582.773 78.0296 561.567 81.6971 560.906C86.2815 560.08 105.917 549.019 105.409 545.165C107.314 548.866 112.791 552.809 119.455 538.965C120.411 535.55 123.373 529.33 127.575 531.773C132.827 534.828 153.896 502.408 154.958 509.834C160.04 505.708 171.39 497.25 176.139 496.422C182.076 495.388 128.489 564.687 138.09 568.325C133.047 581.734 125.434 606.764 135.326 599.608C131.082 607.256 125.23 620.182 135.775 610.7C126.811 623.597 113.916 646.466 134.054 634.765L109.912 654.058C110.054 653.212 122.132 642.044 117.703 643.912C114.16 645.405 112.826 640.582 112.602 637.983C106.817 636.144 127.597 606.431 122.988 612.326C119.301 617.043 116.094 610.881 114.952 607.211C107.938 606.616 117.536 592.423 123.212 585.402C120.294 585.212 125.945 577.72 128.65 574.459ZM128.65 574.459C129.871 572.987 130.492 572.377 129.453 573.691C129.177 574.04 128.909 574.292 128.65 574.459Z" stroke="#F4F1E1" stroke-width="3" stroke-linecap="round"/>
<path d="M24.5441 624.742C19.5465 623.905 37.4401 597.863 47.7435 587.461C37.5487 585.405 43.432 577.8 47.6481 574.254C47.1875 570.118 58.0922 560.058 64.8733 554.961C71.6543 549.864 73.2026 556.357 74.6392 557.612C76.0758 558.867 67.8197 565.892 78.8039 558.31C87.5912 552.244 85.6731 552.358 83.6155 553.173C76.1365 557.718 81.7179 543.191 85.4436 535.359C83.141 534.162 89.48 527.966 92.9374 525.018C91.2289 518.499 99.1398 516.49 100.177 515.214C101.006 514.193 110.553 508.642 115.223 505.993C128.583 493.852 130.055 501.327 129.121 506.582C137.429 501.016 139.526 508.036 139.536 512.241C138.904 510.512 150.346 504.388 156.147 501.543C154.324 499.643 176.822 493.121 175.89 491.805C174.957 490.489 179.462 487.185 191.496 485.142C201.122 483.508 191.686 491.552 185.764 495.778C192.647 497.946 160.443 522.122 164.353 523.357C167.481 524.345 157.432 541.429 152.016 549.847C186.421 520.589 165.449 553.547 150.662 573.683C161.117 574.971 150.369 591.512 143.687 599.622C168.265 571.617 160.688 598.073 153.827 614.802C166.002 611.913 147.949 641.069 143.64 637.303C140.192 634.29 132.571 641.779 129.192 645.899C135.528 646.613 132.798 651.577 130.641 653.97C112.006 669.287 105.778 664.099 104.763 670.162M94.514 549.055C97.8439 547.197 104.555 543.171 104.763 541.93C105.023 540.379 111.271 536.497 112.185 536.94C113.099 537.383 120.395 525.27 122.407 526.042C124.418 526.813 119.437 515.252 122.485 514.748L93.0079 543.295C92.0162 546.269 89.7406 551.996 88.5725 551.104L94.514 549.055ZM68.818 567.799L59.6429 575.394C58.8743 578.019 58.5161 581.931 63.2327 576.575C67.9492 571.219 68.9214 568.492 68.818 567.799Z" stroke="#F4F1E1" stroke-width="3" stroke-linecap="round"/>
<path d="M34.3151 633.513C31.6688 635.157 32.4485 624.986 33.1692 619.695C39.0028 616.324 51.3221 609.227 53.9306 607.808C57.1914 606.035 61.8937 604.504 63.8159 604.826C65.738 605.148 58.3313 607.096 73.2665 606.409C88.2017 605.722 96.8933 626.603 98.6689 628.785C100.445 630.967 98.0083 632.733 101.828 638.447C104.883 643.017 98.2108 650.549 94.4927 653.743C94.0804 656.863 92.8461 662.599 91.2071 660.585C89.1583 658.068 78.4001 666.267 75.2573 667.335C72.1145 668.403 70.2917 666.503 66.3481 667.437C63.1932 668.184 59.3333 665.73 57.7978 664.41C52.5279 666.774 47.5658 660.28 45.7434 656.737C32.7145 653.51 32.6958 639.91 34.3151 633.513Z" stroke="#F4F1E1" stroke-width="3" stroke-linecap="round"/>
</svg>
