<svg width="728" height="1420" viewBox="0 0 728 1420" fill="none" xmlns="http://www.w3.org/2000/svg">
<path d="M-48.6564 357.503C-48.976 357.518 -49.4278 357.259 -50.0117 356.726C-50.5957 356.193 -51.2248 355.542 -51.8992 354.774C-52.4901 354.081 -53.0029 353.344 -53.4375 352.564C-53.9485 351.868 -54.2128 351.319 -54.2304 350.92L-53.6679 350.052C-49.0331 349.832 -44.8821 347.713 -41.2148 343.694C-37.544 339.755 -34.4939 334.445 -32.0646 327.762C-32.8855 325.478 -33.8404 322.881 -34.9291 319.969C-36.0178 317.058 -37.1916 314.03 -38.4507 310.886C-39.6333 307.659 -40.8542 304.473 -42.1133 301.329C-43.2959 298.102 -44.4715 295.034 -45.6402 292.126C-46.8088 289.219 -47.8834 286.627 -48.8642 284.351C-49.7545 282.311 -50.8964 280.923 -52.29 280.189C-53.6071 279.37 -55.2663 278.968 -57.2676 278.983L-57.5283 278.515L-56.9828 274.525C-56.9828 274.525 -56.3435 274.495 -55.0649 274.434C-53.7864 274.373 -52.3463 274.345 -50.7445 274.349C-49.1464 274.273 -47.9077 274.214 -47.0287 274.172C-45.2707 274.089 -43.5544 273.967 -41.8798 273.807C-40.1253 273.644 -38.5706 273.49 -37.2156 273.345C-35.8642 273.121 -34.7906 272.95 -33.995 272.832C-33.1195 272.71 -32.6818 272.649 -32.6818 272.649L-32.4158 273.238L-32.9718 276.988C-35.6853 277.197 -37.5109 277.564 -38.4488 278.089C-39.3102 278.531 -39.7164 279.311 -39.6673 280.43C-39.6357 281.149 -39.3346 282.536 -38.764 284.592C-38.1169 286.563 -37.3342 288.888 -36.4158 291.568C-35.4975 294.247 -34.5339 297.045 -33.5251 299.96C-32.5198 302.796 -31.5615 305.473 -30.6501 307.993C-29.7423 310.432 -29.0136 312.44 -28.4639 314.016C-27.8379 315.508 -27.5249 316.254 -27.5249 316.254L-27.0454 316.231C-25.8308 312.889 -24.5086 309.263 -23.0787 305.35C-21.6524 301.358 -20.339 297.532 -19.1384 293.871C-17.8578 290.206 -16.8342 287.074 -16.0674 284.474C-15.2208 281.871 -14.8097 280.29 -14.8343 279.73C-14.8834 278.611 -15.278 277.829 -16.0183 277.384C-16.7585 276.939 -17.9277 276.754 -19.5259 276.83L-25.0397 277.092L-25.3005 276.624L-24.7549 272.633C-24.7549 272.633 -24.1539 272.645 -22.9517 272.668C-21.6696 272.687 -20.1079 272.693 -18.2665 272.685C-16.3451 272.674 -14.4255 272.623 -12.5077 272.532C-11.0693 272.464 -9.59097 272.393 -8.07268 272.321C-6.47799 272.165 -5.12128 272.061 -4.00254 272.008C-2.88381 271.955 -2.32444 271.928 -2.32444 271.928L-2.96881 276.404C-4.71279 276.807 -6.04319 277.511 -6.96002 278.515C-7.79693 279.516 -8.60403 281.196 -9.38131 283.556L-23.0046 320.724C-25.649 327.978 -27.9883 333.975 -30.0223 338.717C-32.0563 343.459 -34.0143 347.196 -35.8963 349.929C-37.6984 352.657 -39.6155 354.59 -41.6475 355.728C-43.6796 356.866 -46.0159 357.457 -48.6564 357.503Z" fill="#F4F1E1"/>
<path d="M49.0841 327.697C45.9057 327.326 43.4978 326.239 41.8603 324.437C40.3118 322.564 39.5687 320.021 39.6311 316.807L39.1686 316.632C37.0334 318.315 35.0063 319.77 33.0871 320.995C31.2568 322.151 29.6188 323.047 28.1729 323.683C26.816 324.25 25.7403 324.486 24.9457 324.394C22.0057 324.05 19.4596 323.108 17.3073 321.568C15.1551 320.028 13.5366 318.067 12.4519 315.685C11.4467 313.312 11.1152 310.696 11.4573 307.837C11.733 305.533 12.5316 303.572 13.8531 301.955C15.2541 300.347 16.9414 299.376 18.9149 299.043L42.3023 295.493L43.0488 290.264C43.524 286.292 42.9809 283.088 41.4195 280.65C39.858 278.212 37.4086 276.798 34.0713 276.409C31.8465 276.149 29.4406 276.391 26.8538 277.136C24.267 277.881 21.6677 279.067 19.0558 280.695L18.5026 280.268L17.6854 274.977C19.8939 274.027 22.3456 273.065 25.0403 272.091C27.7446 271.038 30.3012 270.209 32.7101 269.605C35.119 269 36.9193 268.767 38.1112 268.907C41.6075 269.315 44.5111 270.299 46.8223 271.858C49.143 273.337 50.8012 275.302 51.7969 277.755C52.8816 280.137 53.2291 282.956 52.8394 286.213C52.7158 287.245 52.397 288.899 51.883 291.175C51.4485 293.46 50.9012 296.014 50.2412 298.836C49.5907 301.579 48.9894 304.248 48.4374 306.841C47.9648 309.444 47.624 311.619 47.4149 313.367C47.2058 315.114 47.4812 316.516 48.2412 317.571C49.0012 318.626 50.1361 319.242 51.6458 319.418C52.9966 319.576 54.3854 319.416 55.8123 318.939C57.2487 318.382 58.3624 317.827 59.1536 317.275L60.5941 319.376C59.8349 320.335 58.8183 321.424 57.5442 322.645C56.3592 323.795 55.0247 324.847 53.5409 325.801C52.1364 326.765 50.6509 327.397 49.0841 327.697ZM27.9414 316.528C29.4511 316.704 31.261 316.392 33.3711 315.592C35.5701 314.721 37.6037 313.549 39.472 312.076L41.5221 299.992L24.7278 302.984C22.338 303.429 20.9862 304.963 20.6725 307.584C20.4064 309.808 20.9332 311.803 22.2528 313.568C23.6614 315.263 25.5576 316.25 27.9414 316.528Z" fill="#F4F1E1"/>
<path d="M167.603 354.245L167.682 353.334L170.315 349.435C172.897 350.546 174.933 351.319 176.424 351.755C177.915 352.19 179.075 352.313 179.903 352.121C180.77 351.859 181.429 351.305 181.883 350.459C182.26 349.754 182.605 348.94 182.918 348.018C183.23 347.097 183.474 346.048 183.65 344.871L186.336 331.471C185.104 330.721 183.325 329.722 180.998 328.476C178.741 327.267 176.872 326.266 175.392 325.473C173.346 324.377 171.139 323.331 168.769 322.333C166.47 321.374 164.683 320.643 163.408 320.142L153.602 329.047C151.947 330.611 150.893 331.816 150.44 332.662C149.609 334.214 149.498 335.607 150.108 336.841C150.826 338.042 152.277 339.228 154.464 340.399L160.493 343.629L160.478 344.166L157.407 348.374C157.407 348.374 156.704 347.907 155.299 346.973C153.893 346.038 152.1 344.896 149.919 343.546C147.7 342.267 145.427 341.004 143.1 339.757C141.408 338.851 139.645 337.906 137.811 336.924C136.01 336.05 134.457 335.308 133.149 334.699C131.913 334.127 131.295 333.841 131.295 333.841L134.804 329.323C136.892 330.169 138.837 330.349 140.64 329.863C142.444 329.377 144.703 327.955 147.418 325.598L196.998 282.594L204.626 284.365L205.472 284.819C205.472 284.819 205.23 285.778 204.747 287.697C204.371 289.584 203.778 292.216 202.968 295.593C202.265 298.938 201.423 302.797 200.441 307.172C199.567 311.514 198.596 316.122 197.529 320.995C196.532 325.907 195.532 330.907 194.53 335.997C193.566 341.017 192.696 345.86 191.92 350.527C191.369 353.589 191.515 356.027 192.359 357.841C193.273 359.692 195.171 361.57 198.052 363.477L198.037 364.013L194.973 367.954C194.973 367.954 194.287 367.541 192.914 366.715C191.612 365.926 190.099 365.025 188.373 364.01C186.61 363.065 185.129 362.272 183.931 361.63C181.251 360.194 178.639 358.886 176.096 357.705C173.585 356.632 171.551 355.77 169.994 355.117C168.4 354.535 167.603 354.245 167.603 354.245ZM168.089 315.979L177.397 320.966C178.808 321.721 180.538 322.557 182.588 323.474C184.638 324.391 186.281 325.135 187.518 325.706L194.007 293.516L193.266 293.119L168.089 315.979Z" fill="#F4F1E1"/>
<path d="M207.822 374.887L210.95 371.059C213.234 371.814 215.009 372.037 216.273 371.727C217.648 371.394 218.868 370.573 219.932 369.264C220.997 367.955 222.217 366.268 223.592 364.204L256.263 315.172C257.372 313.507 258.004 312.198 258.159 311.244C258.425 310.267 258.192 309.39 257.461 308.613C256.795 307.88 255.564 307.059 253.768 306.148L253.601 305.749L256.263 302.62C258.947 303.93 261.675 305.174 264.447 306.351C267.22 307.529 270.059 308.606 272.964 309.584L272.698 311.282C272.121 311.57 270.835 312.924 268.839 315.342C266.887 317.695 264.38 320.879 261.32 324.895C258.37 328.89 255.043 333.45 251.339 338.576C247.635 343.703 243.764 349.151 239.728 354.92C235.758 360.735 231.821 366.571 227.917 372.43C226.586 374.427 225.899 376.036 225.854 377.257C225.81 378.477 226.42 379.51 227.684 380.354L231.311 382.486L231.244 383.018L227.584 386.779C226.564 386.002 225.178 384.981 223.426 383.715C221.74 382.494 220.232 381.439 218.901 380.551C217.703 379.751 216.106 378.829 214.11 377.786C212.136 376.853 210.04 375.886 207.822 374.887Z" fill="#F4F1E1"/>
<path d="M254.869 406.234C251.129 402.856 248.612 399.074 247.32 394.889C246.028 390.703 245.891 386.429 246.909 382.067C248.041 377.699 250.372 373.553 253.904 369.627C256.632 366.594 259.732 364.165 263.203 362.341C266.732 360.57 270.354 359.475 274.067 359.056C277.834 358.577 281.41 358.788 284.795 359.69C288.294 360.586 291.379 362.24 294.051 364.653C302.897 372.643 303.441 380.949 295.683 389.573C294.987 390.346 294.206 391.096 293.338 391.821C292.47 392.546 291.763 393.093 291.216 393.462L289.095 393.487L264.516 371.288C259.694 376.528 256.872 381.579 256.049 386.441C255.339 391.297 256.554 395.629 259.694 399.435C262.888 403.181 267.965 406.15 274.926 408.34L275.3 409.001L273.952 412.473C272.015 412.233 269.788 411.839 267.27 411.289C264.81 410.793 262.455 410.121 260.205 409.274C257.954 408.427 256.175 407.413 254.869 406.234ZM267.841 368.309L284.683 382.064C285.68 382.749 286.461 383.077 287.026 383.048C287.59 383.019 288.274 382.558 289.076 381.666C291.216 379.287 292.195 376.883 292.012 374.455C291.889 372.08 290.64 369.82 288.265 367.675C285.534 365.208 282.303 364.015 278.573 364.095C274.895 364.116 271.318 365.521 267.841 368.309Z" fill="#F4F1E1"/>
<path d="M274.155 458.798C271.842 455.833 270.353 452.884 269.686 449.949C269.02 447.014 269.163 444.206 270.116 441.526C271.118 438.908 272.909 436.587 275.489 434.561C277.247 434.604 279.553 434.828 282.405 435.233C285.244 435.75 288.206 436.425 291.291 437.258L291.857 436.814C289.865 433.089 288.966 429.726 289.161 426.725C289.405 423.787 290.705 421.291 293.061 419.239C295.016 419.534 297.014 419.949 299.054 420.483C301.158 420.968 303.24 421.621 305.302 422.443L306.623 421.406L308.857 427.585C306.325 426.42 304.305 425.718 302.799 425.477C301.404 425.25 300.297 425.457 299.479 426.1C298.221 427.088 297.868 428.586 298.419 430.593C299.034 432.552 300.095 434.821 301.601 437.402C303.219 439.997 304.904 442.742 306.656 445.638C308.458 448.597 309.923 451.515 311.051 454.393C312.292 457.283 312.874 459.98 312.796 462.482C312.656 465.033 311.422 467.222 309.094 469.05C307.017 470.681 304.456 471.624 301.409 471.88C298.411 472.2 295.24 471.842 291.895 470.806C288.6 469.834 285.397 468.33 282.288 466.296C279.179 464.262 276.468 461.762 274.155 458.798ZM281.29 458.384C283.209 460.843 285.446 462.8 288 464.253C290.491 465.755 292.977 466.6 295.457 466.789C297.938 466.977 299.996 466.429 301.632 465.144C302.891 464.156 303.529 462.893 303.546 461.354C303.562 459.815 302.852 457.474 301.414 454.331C299.963 451.3 297.584 447.015 294.276 441.475C291.478 440.62 288.899 440.305 286.539 440.531C284.116 440.807 282.117 441.562 280.544 442.797C278.405 444.477 277.42 446.725 277.588 449.542C277.694 452.409 278.928 455.356 281.29 458.384ZM316.224 431.566C318.488 434.467 321.172 436.021 324.276 436.228C327.43 436.499 330.611 435.374 333.82 432.855C337.469 429.989 339.639 426.658 340.33 422.861C341.02 419.064 340.111 415.557 337.601 412.341C335.337 409.439 332.597 407.878 329.381 407.657C326.214 407.499 323.026 408.68 319.817 411.2C316.23 414.016 314.092 417.322 313.401 421.119C312.773 424.867 313.715 428.349 316.224 431.566ZM310.374 432.65C307.962 429.559 306.419 426.346 305.745 423.011C305.183 419.689 305.43 416.494 306.487 413.427C307.656 410.373 309.624 407.76 312.393 405.586C315.539 403.116 319.017 401.656 322.827 401.208C326.687 400.822 330.436 401.336 334.076 402.75C337.765 404.227 340.84 406.543 343.301 409.697C344.678 411.463 345.794 413.282 346.646 415.156C347.611 417.043 348.561 418.585 349.496 419.784C350.606 420.946 352.299 422.465 354.574 424.341C356.898 426.279 359.545 428.371 362.514 430.617L362.358 431.197L356.261 434.306C354.989 433.067 353.7 431.74 352.393 430.325C351.086 428.91 349.976 427.747 349.063 426.837L348.296 426.829C347.496 431.525 345.271 435.307 341.621 438.172C338.538 440.593 335.074 441.94 331.228 442.213C327.432 442.549 323.671 441.891 319.947 440.238C316.271 438.648 313.08 436.119 310.374 432.65Z" fill="#F4F1E1"/>
<path d="M333.099 476.724C334.51 478.679 335.969 479.68 337.475 479.726C339.05 479.731 341.461 478.785 344.707 476.887L367.497 463.562C369.776 462.23 371.219 460.969 371.824 459.781C372.43 458.593 372.332 457.307 371.529 455.923C371.208 455.369 370.838 454.89 370.419 454.487C370.11 454.112 369.955 453.924 369.955 453.924L370.379 452.981L373.771 451.415C375.429 453.318 377.122 455.201 378.849 457.064C380.576 458.927 382.034 460.484 383.222 461.736C384.41 462.987 385.004 463.613 385.004 463.613L384.803 464.703C384.803 464.703 384.191 464.922 382.965 465.361C381.78 465.868 380.319 466.538 378.581 467.368C376.912 468.159 375.249 469.038 373.592 470.007L373.522 470.604C378.011 470.852 382.095 471.754 385.771 473.312C389.448 474.869 391.888 476.685 393.092 478.762C393.774 479.938 394.187 480.809 394.329 481.374C394.472 481.94 394.544 482.222 394.544 482.222L394.31 482.776C394.31 482.776 393.786 482.989 392.739 483.416C391.761 483.803 390.452 484.336 388.812 485.017C387.242 485.657 385.533 486.378 383.686 487.18C381.879 488.051 380.162 488.917 378.533 489.776L375.875 485.909C378.707 484.253 380.471 482.99 381.168 482.119C381.934 481.208 381.976 480.164 381.294 478.987C380.412 477.465 378.847 476.202 376.601 475.198C374.355 474.195 371.705 473.612 368.653 473.451C368.653 473.451 367.977 473.8 366.624 474.498C365.341 475.156 363.713 476.015 361.739 477.077C359.765 478.138 357.722 479.24 355.61 480.382C353.567 481.484 351.731 482.464 350.103 483.324C348.543 484.143 347.522 484.694 347.038 484.977C344.69 486.35 343.303 487.624 342.875 488.801C342.448 489.978 342.796 491.535 343.919 493.473C344.36 494.234 344.937 495.148 345.648 496.215C346.399 497.351 346.774 497.92 346.774 497.92L346.42 498.266L341.32 499.996C341.32 499.996 341.154 499.63 340.822 498.898C340.421 498.205 339.899 497.306 339.257 496.198C338.615 495.091 337.968 493.894 337.315 492.608C336.633 491.432 335.991 490.324 335.389 489.286C334.225 487.279 333.127 485.465 332.095 483.844C331.063 482.224 330.232 480.949 329.601 480.02C328.97 479.092 328.655 478.628 328.655 478.628L333.099 476.724Z" fill="#F4F1E1"/>
<path d="M364.052 541.848C362.221 537.152 361.664 532.642 362.382 528.316C363.1 523.991 364.89 520.102 367.751 516.651C370.717 513.245 374.655 510.573 379.566 508.635C383.361 507.137 387.218 506.346 391.135 506.263C395.081 506.254 398.807 506.89 402.312 508.173C405.892 509.427 408.993 511.213 411.615 513.533C414.34 515.897 416.356 518.757 417.664 522.111C421.994 533.217 418.764 540.898 407.974 545.156C407.006 545.538 405.973 545.86 404.873 546.122C403.773 546.384 402.896 546.558 402.243 546.644L400.337 545.719L388.305 514.862C381.653 517.401 376.872 520.663 373.961 524.65C371.154 528.682 370.302 533.103 371.405 537.914C372.582 542.696 375.791 547.622 381.031 552.692L381.069 553.451L378.312 555.958C376.689 554.879 374.875 553.53 372.871 551.913C370.895 550.371 369.092 548.717 367.459 546.953C365.827 545.189 364.691 543.487 364.052 541.848ZM392.61 513.679L401.504 533.519C402.089 534.578 402.64 535.221 403.158 535.446C403.675 535.672 404.492 535.565 405.608 535.125C408.585 533.95 410.535 532.234 411.458 529.978C412.41 527.796 412.305 525.214 411.143 522.233C409.806 518.804 407.453 516.293 404.084 514.698C400.789 513.075 396.964 512.735 392.61 513.679Z" fill="#F4F1E1"/>
<path d="M353.04 578.257C352.971 577.944 353.148 577.453 353.572 576.782C353.997 576.112 354.529 575.376 355.17 574.574C355.751 573.868 356.388 573.231 357.081 572.664C357.679 572.036 358.173 571.678 358.563 571.589L359.512 571.989C360.521 576.518 363.315 580.231 367.894 583.13C372.396 586.046 378.141 588.105 385.129 589.308C387.235 588.092 389.627 586.687 392.305 585.095C394.983 583.503 397.76 581.806 400.638 580.005C403.61 578.263 406.535 576.492 409.412 574.691C412.385 572.949 415.201 571.244 417.862 569.573C420.522 567.903 422.888 566.382 424.959 565.009C426.814 563.768 427.984 562.395 428.468 560.89C429.048 559.446 429.16 557.739 428.803 555.769L429.219 555.429L433.237 555.255C433.237 555.255 433.376 555.88 433.654 557.129C433.933 558.379 434.207 559.793 434.476 561.373C434.824 562.934 435.094 564.145 435.285 565.004C435.668 566.721 436.08 568.392 436.524 570.014C436.984 571.714 437.401 573.219 437.775 574.529C438.227 575.821 438.578 576.848 438.83 577.611C439.1 578.453 439.234 578.873 439.234 578.873L438.701 579.24L434.917 579.361C434.248 576.724 433.575 574.99 432.898 574.159C432.317 573.389 431.48 573.127 430.388 573.375C429.686 573.535 428.372 574.079 426.448 575.008C424.62 575.997 422.466 577.183 419.987 578.566C417.509 579.949 414.922 581.397 412.226 582.912C409.609 584.408 407.139 585.83 404.817 587.177C402.572 588.507 400.722 589.583 399.266 590.406C397.905 591.289 397.225 591.731 397.225 591.731L397.329 592.199C400.823 592.801 404.617 593.457 408.709 594.169C412.88 594.863 416.868 595.476 420.675 596.006C424.498 596.615 427.754 597.065 430.442 597.358C433.147 597.728 434.773 597.851 435.319 597.728C436.411 597.48 437.113 596.951 437.425 596.142C437.736 595.333 437.718 594.148 437.37 592.586L436.17 587.198L436.586 586.857L440.605 586.684C440.605 586.684 440.696 587.278 440.879 588.467C441.079 589.734 441.34 591.275 441.662 593.088C442.001 594.98 442.38 596.863 442.797 598.737C443.11 600.143 443.432 601.587 443.762 603.071C444.188 604.615 444.523 605.934 444.766 607.027C445.01 608.12 445.131 608.667 445.131 608.667L440.619 608.83C439.924 607.183 439.004 605.997 437.86 605.272C436.732 604.626 434.942 604.13 432.488 603.784L393.6 596.983C386.013 595.67 379.714 594.434 374.702 593.274C369.69 592.115 365.68 590.851 362.671 589.483C359.679 588.194 357.45 586.649 355.983 584.849C354.517 583.049 353.536 580.851 353.04 578.257Z" fill="#F4F1E1"/>
<path d="M398.994 668.91C398.795 665.717 399.437 663.149 400.919 661.207C402.486 659.34 404.856 658.141 408.029 657.611L408.119 657.124C406.084 655.334 404.293 653.608 402.747 651.947C401.285 650.359 400.113 648.913 399.23 647.609C398.432 646.379 398.008 645.364 397.959 644.566C397.775 641.612 398.249 638.935 399.382 636.535C400.515 634.135 402.157 632.183 404.307 630.678C406.463 629.253 408.978 628.445 411.851 628.256C414.166 628.103 416.237 628.528 418.063 629.529C419.893 630.611 421.148 632.092 421.826 633.971L429.47 656.316L434.746 656.088C438.737 655.825 441.793 654.701 443.914 652.717C446.035 650.733 446.991 648.065 446.782 644.711C446.643 642.475 445.977 640.154 444.785 637.747C443.593 635.341 441.965 633.003 439.9 630.734L440.221 630.111L445.281 628.334C446.607 630.331 447.989 632.565 449.425 635.036C450.942 637.502 452.211 639.863 453.233 642.121C454.256 644.378 454.804 646.106 454.879 647.303C455.098 650.817 454.645 653.853 453.522 656.412C452.479 658.967 450.84 660.959 448.605 662.389C446.454 663.894 443.742 664.755 440.469 664.971C439.432 665.039 437.748 665.03 435.418 664.943C433.093 664.936 430.484 664.868 427.59 664.738C424.776 664.603 422.045 664.503 419.396 664.437C416.751 664.451 414.551 664.516 412.795 664.632C411.039 664.748 409.709 665.277 408.806 666.218C407.903 667.16 407.498 668.389 407.593 669.906C407.677 671.264 408.081 672.6 408.804 673.915C409.607 675.225 410.351 676.218 411.034 676.895L409.223 678.698C408.145 678.128 406.893 677.328 405.466 676.3C404.124 675.346 402.852 674.228 401.65 672.944C400.453 671.74 399.568 670.396 398.994 668.91ZM406.228 646.065C406.322 647.582 406.951 649.304 408.113 651.232C409.36 653.234 410.873 655.018 412.654 656.584L424.905 656.377L418.981 640.413C418.118 638.144 416.37 637.097 413.736 637.271C411.5 637.419 409.632 638.304 408.13 639.926C406.713 641.623 406.079 643.669 406.228 646.065Z" fill="#F4F1E1"/>
<path d="M394.233 788.187L395.143 788.097L399.46 789.966C398.84 792.707 398.453 794.85 398.297 796.395C398.142 797.94 398.234 799.102 398.574 799.881C398.991 800.684 399.656 801.23 400.572 801.519C401.334 801.761 402.198 801.95 403.162 802.087C404.125 802.224 405.202 802.271 406.391 802.227L420.062 802.398C420.574 801.05 421.23 799.118 422.03 796.602C422.806 794.162 423.448 792.142 423.957 790.541C424.66 788.33 425.285 785.969 425.832 783.456C426.354 781.021 426.745 779.131 427.005 777.786L416.451 769.791C414.61 768.454 413.232 767.64 412.316 767.35C410.638 766.82 409.248 766.967 408.146 767.793C407.096 768.72 406.195 770.365 405.444 772.728L403.372 779.247L402.841 779.331L398.14 777.088C398.14 777.088 398.47 776.312 399.132 774.759C399.793 773.206 400.588 771.234 401.517 768.843C402.368 766.427 403.194 763.962 403.994 761.446C404.576 759.616 405.182 757.71 405.812 755.728C406.342 753.798 406.787 752.134 407.147 750.738C407.482 749.418 407.65 748.758 407.65 748.758L412.737 751.373C412.287 753.58 412.466 755.525 413.275 757.207C414.083 758.889 415.895 760.847 418.711 763.08L470.086 803.874L469.74 811.694L469.449 812.608C469.449 812.608 468.461 812.548 466.485 812.426C464.561 812.405 461.864 812.307 458.394 812.132C454.976 812.058 451.026 811.941 446.543 811.782C442.113 811.723 437.403 811.618 432.415 811.466C427.402 811.391 422.301 811.329 417.111 811.282C411.998 811.259 407.075 811.296 402.343 811.393C399.23 811.416 396.859 812.008 395.23 813.171C393.577 814.41 392.077 816.621 390.73 819.802L390.199 819.886L385.763 817.602C385.763 817.602 386.043 816.852 386.605 815.351C387.141 813.927 387.751 812.273 388.433 810.392C389.039 808.486 389.548 806.885 389.96 805.588C390.881 802.691 391.69 799.884 392.385 797.168C392.981 794.503 393.457 792.346 393.813 790.697C394.093 789.024 394.233 788.187 394.233 788.187ZM431.957 781.618L428.757 791.682C428.272 793.207 427.767 795.06 427.241 797.243C426.715 799.426 426.284 801.178 425.948 802.498L458.796 802.946L459.051 802.145L431.957 781.618Z" fill="#F4F1E1"/>
<path d="M380.988 832.388L385.317 834.774C384.986 837.157 385.087 838.943 385.62 840.131C386.195 841.423 387.223 842.475 388.702 843.287C390.182 844.098 392.061 844.994 394.339 845.975L448.455 869.276C450.292 870.067 451.694 870.453 452.661 870.434C453.669 870.52 454.49 870.133 455.122 869.273C455.723 868.486 456.309 867.127 456.881 865.196L457.244 864.96L460.801 867.014C459.996 869.89 459.264 872.798 458.606 875.738C457.948 878.677 457.4 881.664 456.963 884.698L455.245 884.742C454.857 884.227 453.294 883.205 450.555 881.678C447.89 880.182 444.306 878.29 439.803 876.003C435.343 873.821 430.258 871.37 424.548 868.651C418.838 865.931 412.782 863.105 406.379 860.174C399.945 857.317 393.495 854.496 387.028 851.712C384.824 850.762 383.118 850.376 381.909 850.552C380.7 850.729 379.795 851.515 379.193 852.911L377.75 856.862L377.214 856.892L372.855 853.97C373.435 852.827 374.19 851.279 375.119 849.327C376.016 847.449 376.782 845.775 377.415 844.306C377.986 842.984 378.604 841.247 379.271 839.095C379.833 836.985 380.405 834.75 380.988 832.388Z" fill="#F4F1E1"/>
<path d="M358.559 884.742C361.207 880.454 364.472 877.299 368.353 875.278C372.234 873.257 376.409 872.358 380.878 872.582C385.373 872.916 389.866 874.471 394.357 877.248C397.827 879.394 400.77 882.013 403.185 885.105C405.559 888.266 407.285 891.637 408.363 895.22C409.51 898.844 409.944 902.405 409.665 905.901C409.413 909.507 408.34 912.841 406.449 915.904C400.186 926.046 392.121 928.067 382.254 921.967C381.37 921.42 380.493 920.784 379.625 920.059C378.756 919.333 378.092 918.734 377.632 918.262L377.226 916.177L394.629 887.998C388.615 884.185 383.146 882.308 378.22 882.367C373.321 882.535 369.283 884.506 366.106 888.28C362.998 892.095 360.992 897.627 360.089 904.875L359.506 905.362L355.853 904.655C355.741 902.704 355.729 900.44 355.817 897.861C355.863 895.35 356.101 892.91 356.529 890.541C356.958 888.172 357.634 886.239 358.559 884.742ZM398.153 890.741L387.659 909.789C387.165 910.894 386.983 911.722 387.113 912.273C387.243 912.824 387.818 913.414 388.839 914.045C391.561 915.728 394.098 916.263 396.452 915.649C398.764 915.103 400.76 913.469 402.442 910.746C404.375 907.615 404.968 904.219 404.22 900.559C403.54 896.94 401.517 893.668 398.153 890.741Z" fill="#F4F1E1"/>
<path d="M309.663 914.725C312.167 911.92 314.801 909.93 317.566 908.755C320.331 907.58 323.113 907.227 325.912 907.695C328.659 908.223 331.253 909.581 333.696 911.77C333.962 913.513 334.148 915.828 334.252 918.714C334.243 921.607 334.101 924.649 333.826 927.84L334.363 928.321C337.669 925.698 340.813 924.219 343.794 923.882C346.722 923.606 349.401 924.449 351.831 926.412C351.885 928.394 351.829 930.439 351.663 932.546C351.557 934.707 351.282 936.878 350.837 939.057L352.088 940.179L346.413 943.472C347.112 940.768 347.447 938.651 347.418 937.121C347.396 935.705 346.998 934.649 346.223 933.955C345.032 932.887 343.499 932.802 341.624 933.701C339.809 934.653 337.767 936.099 335.498 938.04C333.235 940.094 330.836 942.241 328.3 944.481C325.712 946.78 323.104 948.74 320.477 950.36C317.857 952.094 315.312 953.143 312.841 953.508C310.312 953.819 307.945 952.986 305.74 951.011C303.774 949.249 302.398 946.887 301.61 943.925C300.769 941.023 300.563 937.83 300.992 934.347C301.367 930.924 302.28 927.499 303.731 924.072C305.181 920.645 307.159 917.529 309.663 914.725ZM311.324 921.692C309.247 924.02 307.719 926.572 306.741 929.348C305.704 932.072 305.312 934.674 305.563 937.155C305.814 939.636 306.715 941.571 308.264 942.959C309.455 944.027 310.808 944.434 312.322 944.179C313.836 943.925 316.01 942.811 318.843 940.839C321.564 938.873 325.353 935.769 330.211 931.529C330.558 928.618 330.414 926.017 329.777 923.727C329.08 921.384 327.987 919.545 326.498 918.21C324.472 916.395 322.091 915.819 319.355 916.482C316.559 917.091 313.882 918.828 311.324 921.692ZM343.801 951.443C341.35 954.189 340.296 957.111 340.638 960.211C340.927 963.371 342.591 966.312 345.629 969.035C349.085 972.132 352.737 973.687 356.587 973.699C360.437 973.712 363.72 972.196 366.437 969.153C368.888 966.407 369.939 963.428 369.59 960.215C369.188 957.062 367.468 954.124 364.43 951.4C361.034 948.357 357.411 946.829 353.562 946.817C349.772 946.858 346.518 948.4 343.801 951.443ZM341.707 945.861C344.318 942.936 347.201 940.848 350.358 939.594C353.52 938.454 356.701 938.135 359.898 938.638C363.102 939.253 366.015 940.736 368.636 943.085C371.615 945.755 373.66 948.93 374.77 952.611C375.828 956.352 375.982 960.143 375.234 963.984C374.432 967.885 372.7 971.327 370.036 974.311C368.544 975.982 366.953 977.404 365.264 978.575C363.581 979.86 362.233 981.069 361.221 982.203C360.274 983.503 359.08 985.441 357.639 988.017C356.144 990.652 354.556 993.633 352.873 996.959L352.276 996.907L348.15 991.437C349.144 989.964 350.22 988.458 351.38 986.919C352.539 985.38 353.486 984.08 354.219 983.018L354.092 982.26C349.34 982.297 345.236 980.768 341.78 977.671C338.861 975.055 336.929 971.873 335.985 968.126C334.987 964.439 334.972 960.612 335.94 956.645C336.854 952.738 338.777 949.143 341.707 945.861Z" fill="#F4F1E1"/>
<path d="M302.798 976.031C301.128 977.772 300.403 979.391 300.622 980.886C300.894 982.442 302.246 984.654 304.679 987.52L321.762 1007.65C323.471 1009.66 324.961 1010.86 326.233 1011.25C327.506 1011.63 328.75 1011.31 329.967 1010.27C330.454 1009.85 330.859 1009.4 331.181 1008.92C331.494 1008.54 331.651 1008.36 331.651 1008.36L332.651 1008.61L334.784 1011.68C333.209 1013.65 331.659 1015.66 330.135 1017.7C328.611 1019.74 327.34 1021.45 326.321 1022.85C325.302 1024.24 324.792 1024.94 324.792 1024.94L323.687 1024.94C323.687 1024.94 323.365 1024.37 322.719 1023.24C322.012 1022.16 321.099 1020.84 319.978 1019.27C318.909 1017.76 317.753 1016.28 316.511 1014.81L315.913 1014.85C316.46 1019.33 316.293 1023.52 315.412 1027.43C314.531 1031.33 313.178 1034.07 311.352 1035.62C310.318 1036.51 309.536 1037.07 309.007 1037.31C308.477 1037.55 308.212 1037.67 308.212 1037.67L307.628 1037.54C307.628 1037.54 307.326 1037.06 306.723 1036.11C306.172 1035.21 305.418 1034.01 304.462 1032.51C303.557 1031.08 302.549 1029.52 301.438 1027.84C300.265 1026.21 299.114 1024.67 297.984 1023.21L301.311 1019.9C303.433 1022.4 304.983 1023.92 305.96 1024.45C306.989 1025.04 308.021 1024.9 309.055 1024.02C310.394 1022.87 311.358 1021.1 311.947 1018.71C312.537 1016.31 312.642 1013.59 312.263 1010.55C312.263 1010.55 311.802 1009.94 310.879 1008.73C310.008 1007.58 308.878 1006.13 307.49 1004.37C306.101 1002.61 304.661 1000.79 303.169 998.907C301.728 997.087 300.443 995.449 299.313 993.994C298.235 992.6 297.515 991.69 297.153 991.263C295.393 989.189 293.898 988.046 292.668 987.833C291.439 987.621 289.972 988.242 288.268 989.696C287.599 990.267 286.803 990.999 285.881 991.891C284.899 992.835 284.408 993.307 284.408 993.307L284.006 993.019L281.411 988.292C281.411 988.292 281.741 988.063 282.401 987.605C283.009 987.085 283.8 986.41 284.774 985.579C285.747 984.748 286.808 983.895 287.955 983.022C288.989 982.139 289.963 981.308 290.875 980.529C292.64 979.022 294.226 977.615 295.635 976.308C297.044 975 298.148 973.952 298.948 973.164C299.748 972.376 300.148 971.982 300.148 971.982L302.798 976.031Z" fill="#F4F1E1"/>
<path d="M244.728 1018.24C249.012 1015.58 253.339 1014.22 257.708 1014.15C262.077 1014.08 266.206 1015.14 270.095 1017.34C273.958 1019.65 277.272 1023.06 280.037 1027.56C282.174 1031.03 283.628 1034.7 284.399 1038.55C285.102 1042.44 285.133 1046.24 284.491 1049.93C283.891 1053.69 282.684 1057.07 280.87 1060.08C279.03 1063.19 276.579 1065.7 273.519 1067.6C263.387 1073.87 255.284 1072.07 249.209 1062.19C248.664 1061.31 248.167 1060.34 247.716 1059.3C247.266 1058.27 246.941 1057.43 246.742 1056.8L247.313 1054.75L275.466 1037.31C271.805 1031.2 267.764 1027.07 263.341 1024.92C258.893 1022.87 254.406 1022.83 249.88 1024.79C245.397 1026.81 241.129 1030.87 237.077 1036.96L236.34 1037.13L233.395 1034.86C234.169 1033.07 235.172 1031.03 236.406 1028.76C237.572 1026.53 238.876 1024.45 240.319 1022.52C241.763 1020.59 243.232 1019.17 244.728 1018.24ZM277.383 1041.34L259.486 1053.7C258.55 1054.47 258.017 1055.13 257.886 1055.68C257.756 1056.24 258.005 1057.02 258.633 1058.04C260.309 1060.77 262.335 1062.39 264.711 1062.89C267.018 1063.44 269.532 1062.87 272.252 1061.18C275.38 1059.24 277.43 1056.47 278.402 1052.85C279.415 1049.31 279.075 1045.47 277.383 1041.34Z" fill="#F4F1E1"/>
<path d="M207.335 1014.16C207.629 1014.03 208.143 1014.12 208.875 1014.42C209.607 1014.71 210.423 1015.11 211.321 1015.6C212.115 1016.04 212.851 1016.55 213.529 1017.14C214.249 1017.61 214.687 1018.03 214.842 1018.4L214.614 1019.41C210.343 1021.22 207.183 1024.65 205.134 1029.69C203.053 1034.66 202.03 1040.7 202.065 1047.81C203.625 1049.67 205.42 1051.77 207.449 1054.13C209.478 1056.48 211.627 1058.92 213.896 1061.43C216.122 1064.05 218.37 1066.61 220.639 1069.13C222.865 1071.75 225.03 1074.22 227.132 1076.54C229.235 1078.86 231.14 1080.92 232.848 1082.72C234.389 1084.32 235.94 1085.23 237.502 1085.44C239.021 1085.75 240.716 1085.55 242.588 1084.84L242.995 1085.19L243.864 1089.12C243.864 1089.12 243.275 1089.37 242.097 1089.87C240.918 1090.37 239.577 1090.9 238.073 1091.45C236.6 1092.08 235.459 1092.56 234.649 1092.9C233.029 1093.59 231.461 1094.3 229.945 1095.03C228.356 1095.79 226.951 1096.48 225.73 1097.08C224.54 1097.76 223.592 1098.29 222.887 1098.68C222.108 1099.1 221.718 1099.3 221.718 1099.3L221.265 1098.84L220.488 1095.13C222.961 1094 224.547 1093.02 225.245 1092.2C225.9 1091.49 226.011 1090.62 225.578 1089.58C225.299 1088.92 224.537 1087.72 223.29 1085.99C222.001 1084.37 220.462 1082.46 218.673 1080.26C216.884 1078.06 215.012 1075.77 213.057 1073.39C211.132 1071.08 209.307 1068.9 207.58 1066.85C205.884 1064.87 204.505 1063.24 203.445 1061.95C202.341 1060.77 201.789 1060.18 201.789 1060.18L201.347 1060.37C201.364 1063.92 201.379 1067.78 201.392 1071.95C201.436 1076.19 201.528 1080.24 201.669 1084.09C201.736 1087.97 201.86 1091.26 202.041 1093.97C202.147 1096.7 202.309 1098.33 202.526 1098.84C202.959 1099.88 203.6 1100.47 204.448 1100.64C205.297 1100.8 206.458 1100.57 207.931 1099.94L213.012 1097.78L213.419 1098.13L214.288 1102.07C214.288 1102.07 213.72 1102.26 212.584 1102.66C211.375 1103.08 209.908 1103.62 208.183 1104.27C206.385 1104.94 204.602 1105.65 202.835 1106.4C201.509 1106.97 200.147 1107.54 198.747 1108.14C197.305 1108.84 196.069 1109.41 195.038 1109.84C194.007 1110.28 193.491 1110.5 193.491 1110.5L192.547 1106.08C194.043 1105.09 195.048 1103.97 195.56 1102.71C195.999 1101.48 196.174 1099.63 196.087 1097.14L196.002 1057.55C195.972 1049.83 196.09 1043.39 196.357 1038.24C196.624 1033.09 197.167 1028.9 197.987 1025.69C198.733 1022.5 199.862 1020.02 201.374 1018.25C202.887 1016.48 204.874 1015.12 207.335 1014.16Z" fill="#F4F1E1"/>
<path d="M125.078 1076.52C128.185 1075.75 130.82 1075.93 132.983 1077.04C135.087 1078.26 136.67 1080.38 137.733 1083.41L138.228 1083.41C139.641 1081.09 141.032 1079.02 142.403 1077.2C143.714 1075.47 144.936 1074.06 146.069 1072.96C147.143 1071.95 148.068 1071.35 148.845 1071.16C151.719 1070.45 154.433 1070.45 156.986 1071.13C159.54 1071.82 161.74 1073.1 163.587 1074.95C165.357 1076.82 166.58 1079.15 167.257 1081.95C167.802 1084.21 167.738 1086.32 167.064 1088.3C166.313 1090.3 165.071 1091.8 163.338 1092.8L142.666 1104.32L143.791 1109.48C144.731 1113.37 146.358 1116.18 148.671 1117.92C150.984 1119.66 153.772 1120.12 157.034 1119.32C159.21 1118.78 161.379 1117.71 163.543 1116.11C165.706 1114.51 167.728 1112.49 169.607 1110.05L170.274 1110.25L172.885 1114.92C171.147 1116.59 169.186 1118.35 167.001 1120.2C164.835 1122.14 162.729 1123.81 160.683 1125.22C158.637 1126.63 157.032 1127.48 155.867 1127.76C152.449 1128.61 149.385 1128.7 146.676 1128.05C143.986 1127.48 141.747 1126.21 139.959 1124.27C138.112 1122.41 136.802 1119.89 136.031 1116.7C135.787 1115.69 135.509 1114.03 135.196 1111.72C134.806 1109.43 134.428 1106.84 134.062 1103.97C133.714 1101.17 133.347 1098.46 132.959 1095.83C132.494 1093.23 132.055 1091.07 131.641 1089.36C131.227 1087.65 130.48 1086.43 129.4 1085.71C128.32 1084.99 127.042 1084.81 125.566 1085.17C124.245 1085.5 123 1086.13 121.83 1087.08C120.679 1088.11 119.829 1089.02 119.28 1089.81L117.197 1088.35C117.574 1087.18 118.147 1085.8 118.915 1084.21C119.624 1082.72 120.507 1081.27 121.564 1079.86C122.544 1078.46 123.715 1077.35 125.078 1076.52ZM148.782 1079.58C147.306 1079.94 145.719 1080.87 144.022 1082.36C142.265 1083.95 140.769 1085.76 139.533 1087.79L141.827 1099.83L156.517 1091.15C158.601 1089.89 159.332 1087.98 158.712 1085.42C158.185 1083.24 156.996 1081.55 155.144 1080.36C153.233 1079.27 151.112 1079.01 148.782 1079.58Z" fill="#F4F1E1"/>
<path d="M7.63365 1093.73L7.88157 1094.61L6.79737 1099.19C3.98894 1099.07 1.81012 1099.07 0.260895 1099.19C-1.28833 1099.32 -2.41672 1099.62 -3.12429 1100.09C-3.84224 1100.64 -4.26359 1101.4 -4.38833 1102.35C-4.49228 1103.14 -4.52728 1104.02 -4.49332 1105C-4.45936 1105.97 -4.31677 1107.04 -4.06555 1108.2L-1.83732 1121.67C-0.419415 1121.93 1.5988 1122.23 4.21734 1122.57C6.75654 1122.89 8.8593 1123.16 10.5256 1123.38C12.8268 1123.67 15.2625 1123.86 17.8329 1123.95C20.324 1124.03 22.2543 1124.07 23.6241 1124.09L29.6496 1112.28C30.6444 1110.23 31.2042 1108.73 31.3289 1107.78C31.5576 1106.03 31.1685 1104.69 30.1615 1103.76C29.0648 1102.89 27.2866 1102.3 24.8267 1101.98L18.0423 1101.11L17.8667 1100.61L19.2513 1095.58C19.2513 1095.58 20.0741 1095.77 21.7196 1096.14C23.3652 1096.51 25.4471 1096.94 27.9655 1097.42C30.4943 1097.83 33.068 1098.2 35.6865 1098.54C37.5909 1098.78 39.5747 1099.04 41.6378 1099.3C43.6319 1099.48 45.3483 1099.61 46.787 1099.72C48.1464 1099.81 48.826 1099.86 48.826 1099.86L47.141 1105.33C44.888 1105.28 43.0039 1105.81 41.4886 1106.9C39.9734 1108 38.3626 1110.13 36.6564 1113.3L5.47891 1171.12L-2.28471 1172.18L-3.23691 1172.06C-3.23691 1172.06 -3.35022 1171.08 -3.57684 1169.11C-3.8932 1167.22 -4.26951 1164.55 -4.70577 1161.11C-5.23177 1157.73 -5.80923 1153.83 -6.43815 1149.39C-7.15681 1145.02 -7.87876 1140.37 -8.60401 1135.44C-9.40861 1130.5 -10.2425 1125.47 -11.1056 1120.36C-11.9792 1115.33 -12.8787 1110.49 -13.8043 1105.86C-14.3718 1102.8 -15.3712 1100.58 -16.8022 1099.18C-18.3127 1097.78 -20.7531 1096.7 -24.1235 1095.94L-24.2992 1095.44L-22.8268 1090.67C-22.8268 1090.67 -22.0385 1090.81 -20.4619 1091.09C-18.9646 1091.36 -17.2293 1091.67 -15.256 1092C-13.2722 1092.26 -11.6059 1092.47 -10.2569 1092.64C-7.24165 1093.03 -4.33499 1093.32 -1.53696 1093.52C1.19212 1093.63 3.40022 1093.71 5.08735 1093.76C6.78488 1093.74 7.63365 1093.73 7.63365 1093.73ZM20.7176 1129.64L10.2434 1128.3C8.65644 1128.1 6.74165 1127.93 4.49907 1127.81C2.25649 1127.68 0.455524 1127.57 -0.903818 1127.48L4.4139 1159.86L5.24707 1159.96L20.7176 1129.64Z" fill="#F4F1E1"/>
</svg>
